<svg width="37" height="36" viewBox="0 0 37 36" fill="none" xmlns="http://www.w3.org/2000/svg">
<path d="M14.4167 16.3333V19.6667M17.75 16.3333V19.6667M21.0833 16.3333V19.6667M27.3333 18.8333V17.1667M14.6667 23H20.8333C22.2335 23 22.9335 23 23.4683 22.7275C23.9387 22.4878 24.3212 22.1054 24.5608 21.635C24.8333 21.1002 24.8333 20.4001 24.8333 19V17C24.8333 15.5999 24.8333 14.8998 24.5608 14.365C24.3212 13.8946 23.9387 13.5122 23.4683 13.2725C22.9335 13 22.2335 13 20.8333 13H14.6667C13.2665 13 12.5665 13 12.0317 13.2725C11.5613 13.5122 11.1788 13.8946 10.9391 14.365C10.6667 14.8998 10.6667 15.5999 10.6667 17V19C10.6667 20.4001 10.6667 21.1002 10.9391 21.635C11.1788 22.1054 11.5613 22.4878 12.0317 22.7275C12.5665 23 13.2665 23 14.6667 23Z" stroke="#364152" stroke-width="1.66667" stroke-linecap="round" stroke-linejoin="round"/>
</svg>
