<svg width="37" height="36" viewBox="0 0 37 36" fill="none" xmlns="http://www.w3.org/2000/svg">
<rect x="0.833313" y="0.5" width="35" height="35" rx="17.5" stroke="#E3E8EF"/>
<path d="M13.4167 16.3333V19.6667M26.3333 18.8333V17.1667M13.6667 23H19.8333C21.2335 23 21.9335 23 22.4683 22.7275C22.9387 22.4878 23.3212 22.1054 23.5609 21.635C23.8333 21.1002 23.8333 20.4001 23.8333 19V17C23.8333 15.5999 23.8333 14.8998 23.5609 14.365C23.3212 13.8946 22.9387 13.5122 22.4683 13.2725C21.9335 13 21.2335 13 19.8333 13H13.6667C12.2665 13 11.5665 13 11.0317 13.2725C10.5613 13.5122 10.1788 13.8946 9.93916 14.365C9.66667 14.8998 9.66667 15.5999 9.66667 17V19C9.66667 20.4001 9.66667 21.1002 9.93916 21.635C10.1788 22.1054 10.5613 22.4878 11.0317 22.7275C11.5665 23 12.2665 23 13.6667 23Z" stroke="#364152" stroke-width="1.66667" stroke-linecap="round" stroke-linejoin="round"/>
</svg>
