<svg width="1180" height="310" viewBox="0 0 1180 310" fill="none" xmlns="http://www.w3.org/2000/svg">
<g opacity="0.2" clip-path="url(#clip0_71_23737)">
<mask id="mask0_71_23737" style="mask-type:alpha" maskUnits="userSpaceOnUse" x="-129" y="0" width="1440" height="1440">
<rect width="1440" height="1440" transform="translate(-129)" fill="url(#paint0_radial_71_23737)"/>
</mask>
<g mask="url(#mask0_71_23737)">
<g clip-path="url(#clip1_71_23737)">
<mask id="path-3-inside-1_71_23737" fill="white">
<path d="M-49 0H15V64H-49V0Z"/>
</mask>
<path d="M15 64V65H16V64H15ZM14 0V64H16V0H14ZM15 63H-49V65H15V63Z" fill="#D0D5DD" mask="url(#path-3-inside-1_71_23737)"/>
<mask id="path-5-inside-2_71_23737" fill="white">
<path d="M15 0H79V64H15V0Z"/>
</mask>
<path d="M79 64V65H80V64H79ZM78 0V64H80V0H78ZM79 63H15V65H79V63Z" fill="#D0D5DD" mask="url(#path-5-inside-2_71_23737)"/>
<mask id="path-7-inside-3_71_23737" fill="white">
<path d="M79 0H143V64H79V0Z"/>
</mask>
<path d="M143 64V65H144V64H143ZM142 0V64H144V0H142ZM143 63H79V65H143V63Z" fill="#D0D5DD" mask="url(#path-7-inside-3_71_23737)"/>
<mask id="path-9-inside-4_71_23737" fill="white">
<path d="M143 0H207V64H143V0Z"/>
</mask>
<path d="M207 64V65H208V64H207ZM206 0V64H208V0H206ZM207 63H143V65H207V63Z" fill="#D0D5DD" mask="url(#path-9-inside-4_71_23737)"/>
<mask id="path-11-inside-5_71_23737" fill="white">
<path d="M207 0H271V64H207V0Z"/>
</mask>
<path d="M271 64V65H272V64H271ZM270 0V64H272V0H270ZM271 63H207V65H271V63Z" fill="#D0D5DD" mask="url(#path-11-inside-5_71_23737)"/>
<mask id="path-13-inside-6_71_23737" fill="white">
<path d="M271 0H335V64H271V0Z"/>
</mask>
<path d="M335 64V65H336V64H335ZM334 0V64H336V0H334ZM335 63H271V65H335V63Z" fill="#D0D5DD" mask="url(#path-13-inside-6_71_23737)"/>
<mask id="path-15-inside-7_71_23737" fill="white">
<path d="M335 0H399V64H335V0Z"/>
</mask>
<path d="M399 64V65H400V64H399ZM398 0V64H400V0H398ZM399 63H335V65H399V63Z" fill="#D0D5DD" mask="url(#path-15-inside-7_71_23737)"/>
<mask id="path-17-inside-8_71_23737" fill="white">
<path d="M399 0H463V64H399V0Z"/>
</mask>
<path d="M463 64V65H464V64H463ZM462 0V64H464V0H462ZM463 63H399V65H463V63Z" fill="#D0D5DD" mask="url(#path-17-inside-8_71_23737)"/>
<mask id="path-19-inside-9_71_23737" fill="white">
<path d="M463 0H527V64H463V0Z"/>
</mask>
<path d="M527 64V65H528V64H527ZM526 0V64H528V0H526ZM527 63H463V65H527V63Z" fill="#D0D5DD" mask="url(#path-19-inside-9_71_23737)"/>
<mask id="path-21-inside-10_71_23737" fill="white">
<path d="M527 0H591V64H527V0Z"/>
</mask>
<path d="M591 64V65H592V64H591ZM590 0V64H592V0H590ZM591 63H527V65H591V63Z" fill="#D0D5DD" mask="url(#path-21-inside-10_71_23737)"/>
<mask id="path-23-inside-11_71_23737" fill="white">
<path d="M591 0H655V64H591V0Z"/>
</mask>
<path d="M655 64V65H656V64H655ZM654 0V64H656V0H654ZM655 63H591V65H655V63Z" fill="#D0D5DD" mask="url(#path-23-inside-11_71_23737)"/>
<mask id="path-25-inside-12_71_23737" fill="white">
<path d="M655 0H719V64H655V0Z"/>
</mask>
<path d="M719 64V65H720V64H719ZM718 0V64H720V0H718ZM719 63H655V65H719V63Z" fill="#D0D5DD" mask="url(#path-25-inside-12_71_23737)"/>
<mask id="path-27-inside-13_71_23737" fill="white">
<path d="M719 0H783V64H719V0Z"/>
</mask>
<path d="M783 64V65H784V64H783ZM782 0V64H784V0H782ZM783 63H719V65H783V63Z" fill="#D0D5DD" mask="url(#path-27-inside-13_71_23737)"/>
<mask id="path-29-inside-14_71_23737" fill="white">
<path d="M783 0H847V64H783V0Z"/>
</mask>
<path d="M847 64V65H848V64H847ZM846 0V64H848V0H846ZM847 63H783V65H847V63Z" fill="#D0D5DD" mask="url(#path-29-inside-14_71_23737)"/>
<mask id="path-31-inside-15_71_23737" fill="white">
<path d="M847 0H911V64H847V0Z"/>
</mask>
<path d="M911 64V65H912V64H911ZM910 0V64H912V0H910ZM911 63H847V65H911V63Z" fill="#D0D5DD" mask="url(#path-31-inside-15_71_23737)"/>
<mask id="path-33-inside-16_71_23737" fill="white">
<path d="M911 0H975V64H911V0Z"/>
</mask>
<path d="M975 64V65H976V64H975ZM974 0V64H976V0H974ZM975 63H911V65H975V63Z" fill="#D0D5DD" mask="url(#path-33-inside-16_71_23737)"/>
<mask id="path-35-inside-17_71_23737" fill="white">
<path d="M975 0H1039V64H975V0Z"/>
</mask>
<path d="M1039 64V65H1040V64H1039ZM1038 0V64H1040V0H1038ZM1039 63H975V65H1039V63Z" fill="#D0D5DD" mask="url(#path-35-inside-17_71_23737)"/>
<mask id="path-37-inside-18_71_23737" fill="white">
<path d="M1039 0H1103V64H1039V0Z"/>
</mask>
<path d="M1103 64V65H1104V64H1103ZM1102 0V64H1104V0H1102ZM1103 63H1039V65H1103V63Z" fill="#D0D5DD" mask="url(#path-37-inside-18_71_23737)"/>
<mask id="path-39-inside-19_71_23737" fill="white">
<path d="M1103 0H1167V64H1103V0Z"/>
</mask>
<path d="M1167 64V65H1168V64H1167ZM1166 0V64H1168V0H1166ZM1167 63H1103V65H1167V63Z" fill="#D0D5DD" mask="url(#path-39-inside-19_71_23737)"/>
<mask id="path-41-inside-20_71_23737" fill="white">
<path d="M1167 0H1231V64H1167V0Z"/>
</mask>
<path d="M1231 64V65H1232V64H1231ZM1230 0V64H1232V0H1230ZM1231 63H1167V65H1231V63Z" fill="#D0D5DD" mask="url(#path-41-inside-20_71_23737)"/>
<mask id="path-43-inside-21_71_23737" fill="white">
<path d="M-49 64H15V128H-49V64Z"/>
</mask>
<path d="M-49 64H15V128H-49V64Z" fill="#F2F4F7"/>
<path d="M15 128V129H16V128H15ZM14 64V128H16V64H14ZM15 127H-49V129H15V127Z" fill="#D0D5DD" mask="url(#path-43-inside-21_71_23737)"/>
<mask id="path-45-inside-22_71_23737" fill="white">
<path d="M15 64H79V128H15V64Z"/>
</mask>
<path d="M79 128V129H80V128H79ZM78 64V128H80V64H78ZM79 127H15V129H79V127Z" fill="#D0D5DD" mask="url(#path-45-inside-22_71_23737)"/>
<mask id="path-47-inside-23_71_23737" fill="white">
<path d="M79 64H143V128H79V64Z"/>
</mask>
<path d="M143 128V129H144V128H143ZM142 64V128H144V64H142ZM143 127H79V129H143V127Z" fill="#D0D5DD" mask="url(#path-47-inside-23_71_23737)"/>
<mask id="path-49-inside-24_71_23737" fill="white">
<path d="M143 64H207V128H143V64Z"/>
</mask>
<path d="M207 128V129H208V128H207ZM206 64V128H208V64H206ZM207 127H143V129H207V127Z" fill="#D0D5DD" mask="url(#path-49-inside-24_71_23737)"/>
<mask id="path-51-inside-25_71_23737" fill="white">
<path d="M207 64H271V128H207V64Z"/>
</mask>
<path d="M207 64H271V128H207V64Z" fill="#F2F4F7"/>
<path d="M271 128V129H272V128H271ZM270 64V128H272V64H270ZM271 127H207V129H271V127Z" fill="#D0D5DD" mask="url(#path-51-inside-25_71_23737)"/>
<mask id="path-53-inside-26_71_23737" fill="white">
<path d="M271 64H335V128H271V64Z"/>
</mask>
<path d="M335 128V129H336V128H335ZM334 64V128H336V64H334ZM335 127H271V129H335V127Z" fill="#D0D5DD" mask="url(#path-53-inside-26_71_23737)"/>
<mask id="path-55-inside-27_71_23737" fill="white">
<path d="M335 64H399V128H335V64Z"/>
</mask>
<path d="M399 128V129H400V128H399ZM398 64V128H400V64H398ZM399 127H335V129H399V127Z" fill="#D0D5DD" mask="url(#path-55-inside-27_71_23737)"/>
<mask id="path-57-inside-28_71_23737" fill="white">
<path d="M399 64H463V128H399V64Z"/>
</mask>
<path d="M463 128V129H464V128H463ZM462 64V128H464V64H462ZM463 127H399V129H463V127Z" fill="#D0D5DD" mask="url(#path-57-inside-28_71_23737)"/>
<mask id="path-59-inside-29_71_23737" fill="white">
<path d="M463 64H527V128H463V64Z"/>
</mask>
<path d="M527 128V129H528V128H527ZM526 64V128H528V64H526ZM527 127H463V129H527V127Z" fill="#D0D5DD" mask="url(#path-59-inside-29_71_23737)"/>
<mask id="path-61-inside-30_71_23737" fill="white">
<path d="M527 64H591V128H527V64Z"/>
</mask>
<path d="M591 128V129H592V128H591ZM590 64V128H592V64H590ZM591 127H527V129H591V127Z" fill="#D0D5DD" mask="url(#path-61-inside-30_71_23737)"/>
<mask id="path-63-inside-31_71_23737" fill="white">
<path d="M591 64H655V128H591V64Z"/>
</mask>
<path d="M655 128V129H656V128H655ZM654 64V128H656V64H654ZM655 127H591V129H655V127Z" fill="#D0D5DD" mask="url(#path-63-inside-31_71_23737)"/>
<mask id="path-65-inside-32_71_23737" fill="white">
<path d="M655 64H719V128H655V64Z"/>
</mask>
<path d="M719 128V129H720V128H719ZM718 64V128H720V64H718ZM719 127H655V129H719V127Z" fill="#D0D5DD" mask="url(#path-65-inside-32_71_23737)"/>
<mask id="path-67-inside-33_71_23737" fill="white">
<path d="M719 64H783V128H719V64Z"/>
</mask>
<path d="M783 128V129H784V128H783ZM782 64V128H784V64H782ZM783 127H719V129H783V127Z" fill="#D0D5DD" mask="url(#path-67-inside-33_71_23737)"/>
<mask id="path-69-inside-34_71_23737" fill="white">
<path d="M783 64H847V128H783V64Z"/>
</mask>
<path d="M847 128V129H848V128H847ZM846 64V128H848V64H846ZM847 127H783V129H847V127Z" fill="#D0D5DD" mask="url(#path-69-inside-34_71_23737)"/>
<mask id="path-71-inside-35_71_23737" fill="white">
<path d="M847 64H911V128H847V64Z"/>
</mask>
<path d="M911 128V129H912V128H911ZM910 64V128H912V64H910ZM911 127H847V129H911V127Z" fill="#D0D5DD" mask="url(#path-71-inside-35_71_23737)"/>
<mask id="path-73-inside-36_71_23737" fill="white">
<path d="M911 64H975V128H911V64Z"/>
</mask>
<path d="M911 64H975V128H911V64Z" fill="#F2F4F7"/>
<path d="M975 128V129H976V128H975ZM974 64V128H976V64H974ZM975 127H911V129H975V127Z" fill="#D0D5DD" mask="url(#path-73-inside-36_71_23737)"/>
<mask id="path-75-inside-37_71_23737" fill="white">
<path d="M975 64H1039V128H975V64Z"/>
</mask>
<path d="M1039 128V129H1040V128H1039ZM1038 64V128H1040V64H1038ZM1039 127H975V129H1039V127Z" fill="#D0D5DD" mask="url(#path-75-inside-37_71_23737)"/>
<mask id="path-77-inside-38_71_23737" fill="white">
<path d="M1039 64H1103V128H1039V64Z"/>
</mask>
<path d="M1103 128V129H1104V128H1103ZM1102 64V128H1104V64H1102ZM1103 127H1039V129H1103V127Z" fill="#D0D5DD" mask="url(#path-77-inside-38_71_23737)"/>
<mask id="path-79-inside-39_71_23737" fill="white">
<path d="M1103 64H1167V128H1103V64Z"/>
</mask>
<path d="M1167 128V129H1168V128H1167ZM1166 64V128H1168V64H1166ZM1167 127H1103V129H1167V127Z" fill="#D0D5DD" mask="url(#path-79-inside-39_71_23737)"/>
<mask id="path-81-inside-40_71_23737" fill="white">
<path d="M1167 64H1231V128H1167V64Z"/>
</mask>
<path d="M1231 128V129H1232V128H1231ZM1230 64V128H1232V64H1230ZM1231 127H1167V129H1231V127Z" fill="#D0D5DD" mask="url(#path-81-inside-40_71_23737)"/>
<mask id="path-83-inside-41_71_23737" fill="white">
<path d="M-49 128H15V192H-49V128Z"/>
</mask>
<path d="M15 192V193H16V192H15ZM14 128V192H16V128H14ZM15 191H-49V193H15V191Z" fill="#D0D5DD" mask="url(#path-83-inside-41_71_23737)"/>
<mask id="path-85-inside-42_71_23737" fill="white">
<path d="M15 128H79V192H15V128Z"/>
</mask>
<path d="M79 192V193H80V192H79ZM78 128V192H80V128H78ZM79 191H15V193H79V191Z" fill="#D0D5DD" mask="url(#path-85-inside-42_71_23737)"/>
<mask id="path-87-inside-43_71_23737" fill="white">
<path d="M79 128H143V192H79V128Z"/>
</mask>
<path d="M143 192V193H144V192H143ZM142 128V192H144V128H142ZM143 191H79V193H143V191Z" fill="#D0D5DD" mask="url(#path-87-inside-43_71_23737)"/>
<mask id="path-89-inside-44_71_23737" fill="white">
<path d="M143 128H207V192H143V128Z"/>
</mask>
<path d="M207 192V193H208V192H207ZM206 128V192H208V128H206ZM207 191H143V193H207V191Z" fill="#D0D5DD" mask="url(#path-89-inside-44_71_23737)"/>
<mask id="path-91-inside-45_71_23737" fill="white">
<path d="M207 128H271V192H207V128Z"/>
</mask>
<path d="M271 192V193H272V192H271ZM270 128V192H272V128H270ZM271 191H207V193H271V191Z" fill="#D0D5DD" mask="url(#path-91-inside-45_71_23737)"/>
<mask id="path-93-inside-46_71_23737" fill="white">
<path d="M271 128H335V192H271V128Z"/>
</mask>
<path d="M335 192V193H336V192H335ZM334 128V192H336V128H334ZM335 191H271V193H335V191Z" fill="#D0D5DD" mask="url(#path-93-inside-46_71_23737)"/>
<mask id="path-95-inside-47_71_23737" fill="white">
<path d="M335 128H399V192H335V128Z"/>
</mask>
<path d="M335 128H399V192H335V128Z" fill="#F2F4F7"/>
<path d="M399 192V193H400V192H399ZM398 128V192H400V128H398ZM399 191H335V193H399V191Z" fill="#D0D5DD" mask="url(#path-95-inside-47_71_23737)"/>
<mask id="path-97-inside-48_71_23737" fill="white">
<path d="M399 128H463V192H399V128Z"/>
</mask>
<path d="M463 192V193H464V192H463ZM462 128V192H464V128H462ZM463 191H399V193H463V191Z" fill="#D0D5DD" mask="url(#path-97-inside-48_71_23737)"/>
<mask id="path-99-inside-49_71_23737" fill="white">
<path d="M463 128H527V192H463V128Z"/>
</mask>
<path d="M527 192V193H528V192H527ZM526 128V192H528V128H526ZM527 191H463V193H527V191Z" fill="#D0D5DD" mask="url(#path-99-inside-49_71_23737)"/>
<mask id="path-101-inside-50_71_23737" fill="white">
<path d="M527 128H591V192H527V128Z"/>
</mask>
<path d="M591 192V193H592V192H591ZM590 128V192H592V128H590ZM591 191H527V193H591V191Z" fill="#D0D5DD" mask="url(#path-101-inside-50_71_23737)"/>
<mask id="path-103-inside-51_71_23737" fill="white">
<path d="M591 128H655V192H591V128Z"/>
</mask>
<path d="M655 192V193H656V192H655ZM654 128V192H656V128H654ZM655 191H591V193H655V191Z" fill="#D0D5DD" mask="url(#path-103-inside-51_71_23737)"/>
<mask id="path-105-inside-52_71_23737" fill="white">
<path d="M655 128H719V192H655V128Z"/>
</mask>
<path d="M655 128H719V192H655V128Z" fill="#F2F4F7"/>
<path d="M719 192V193H720V192H719ZM718 128V192H720V128H718ZM719 191H655V193H719V191Z" fill="#D0D5DD" mask="url(#path-105-inside-52_71_23737)"/>
<mask id="path-107-inside-53_71_23737" fill="white">
<path d="M719 128H783V192H719V128Z"/>
</mask>
<path d="M783 192V193H784V192H783ZM782 128V192H784V128H782ZM783 191H719V193H783V191Z" fill="#D0D5DD" mask="url(#path-107-inside-53_71_23737)"/>
<mask id="path-109-inside-54_71_23737" fill="white">
<path d="M783 128H847V192H783V128Z"/>
</mask>
<path d="M847 192V193H848V192H847ZM846 128V192H848V128H846ZM847 191H783V193H847V191Z" fill="#D0D5DD" mask="url(#path-109-inside-54_71_23737)"/>
<mask id="path-111-inside-55_71_23737" fill="white">
<path d="M847 128H911V192H847V128Z"/>
</mask>
<path d="M911 192V193H912V192H911ZM910 128V192H912V128H910ZM911 191H847V193H911V191Z" fill="#D0D5DD" mask="url(#path-111-inside-55_71_23737)"/>
<mask id="path-113-inside-56_71_23737" fill="white">
<path d="M911 128H975V192H911V128Z"/>
</mask>
<path d="M975 192V193H976V192H975ZM974 128V192H976V128H974ZM975 191H911V193H975V191Z" fill="#D0D5DD" mask="url(#path-113-inside-56_71_23737)"/>
<mask id="path-115-inside-57_71_23737" fill="white">
<path d="M975 128H1039V192H975V128Z"/>
</mask>
<path d="M1039 192V193H1040V192H1039ZM1038 128V192H1040V128H1038ZM1039 191H975V193H1039V191Z" fill="#D0D5DD" mask="url(#path-115-inside-57_71_23737)"/>
<mask id="path-117-inside-58_71_23737" fill="white">
<path d="M1039 128H1103V192H1039V128Z"/>
</mask>
<path d="M1103 192V193H1104V192H1103ZM1102 128V192H1104V128H1102ZM1103 191H1039V193H1103V191Z" fill="#D0D5DD" mask="url(#path-117-inside-58_71_23737)"/>
<mask id="path-119-inside-59_71_23737" fill="white">
<path d="M1103 128H1167V192H1103V128Z"/>
</mask>
<path d="M1167 192V193H1168V192H1167ZM1166 128V192H1168V128H1166ZM1167 191H1103V193H1167V191Z" fill="#D0D5DD" mask="url(#path-119-inside-59_71_23737)"/>
<mask id="path-121-inside-60_71_23737" fill="white">
<path d="M1167 128H1231V192H1167V128Z"/>
</mask>
<path d="M1231 192V193H1232V192H1231ZM1230 128V192H1232V128H1230ZM1231 191H1167V193H1231V191Z" fill="#D0D5DD" mask="url(#path-121-inside-60_71_23737)"/>
<mask id="path-123-inside-61_71_23737" fill="white">
<path d="M-49 192H15V256H-49V192Z"/>
</mask>
<path d="M15 256V257H16V256H15ZM14 192V256H16V192H14ZM15 255H-49V257H15V255Z" fill="#D0D5DD" mask="url(#path-123-inside-61_71_23737)"/>
<mask id="path-125-inside-62_71_23737" fill="white">
<path d="M15 192H79V256H15V192Z"/>
</mask>
<path d="M15 192H79V256H15V192Z" fill="#F2F4F7"/>
<path d="M79 256V257H80V256H79ZM78 192V256H80V192H78ZM79 255H15V257H79V255Z" fill="#D0D5DD" mask="url(#path-125-inside-62_71_23737)"/>
<mask id="path-127-inside-63_71_23737" fill="white">
<path d="M79 192H143V256H79V192Z"/>
</mask>
<path d="M143 256V257H144V256H143ZM142 192V256H144V192H142ZM143 255H79V257H143V255Z" fill="#D0D5DD" mask="url(#path-127-inside-63_71_23737)"/>
<mask id="path-129-inside-64_71_23737" fill="white">
<path d="M143 192H207V256H143V192Z"/>
</mask>
<path d="M207 256V257H208V256H207ZM206 192V256H208V192H206ZM207 255H143V257H207V255Z" fill="#D0D5DD" mask="url(#path-129-inside-64_71_23737)"/>
<mask id="path-131-inside-65_71_23737" fill="white">
<path d="M207 192H271V256H207V192Z"/>
</mask>
<path d="M271 256V257H272V256H271ZM270 192V256H272V192H270ZM271 255H207V257H271V255Z" fill="#D0D5DD" mask="url(#path-131-inside-65_71_23737)"/>
<mask id="path-133-inside-66_71_23737" fill="white">
<path d="M271 192H335V256H271V192Z"/>
</mask>
<path d="M335 256V257H336V256H335ZM334 192V256H336V192H334ZM335 255H271V257H335V255Z" fill="#D0D5DD" mask="url(#path-133-inside-66_71_23737)"/>
<mask id="path-135-inside-67_71_23737" fill="white">
<path d="M335 192H399V256H335V192Z"/>
</mask>
<path d="M399 256V257H400V256H399ZM398 192V256H400V192H398ZM399 255H335V257H399V255Z" fill="#D0D5DD" mask="url(#path-135-inside-67_71_23737)"/>
<mask id="path-137-inside-68_71_23737" fill="white">
<path d="M399 192H463V256H399V192Z"/>
</mask>
<path d="M463 256V257H464V256H463ZM462 192V256H464V192H462ZM463 255H399V257H463V255Z" fill="#D0D5DD" mask="url(#path-137-inside-68_71_23737)"/>
<mask id="path-139-inside-69_71_23737" fill="white">
<path d="M463 192H527V256H463V192Z"/>
</mask>
<path d="M527 256V257H528V256H527ZM526 192V256H528V192H526ZM527 255H463V257H527V255Z" fill="#D0D5DD" mask="url(#path-139-inside-69_71_23737)"/>
<mask id="path-141-inside-70_71_23737" fill="white">
<path d="M527 192H591V256H527V192Z"/>
</mask>
<path d="M591 256V257H592V256H591ZM590 192V256H592V192H590ZM591 255H527V257H591V255Z" fill="#D0D5DD" mask="url(#path-141-inside-70_71_23737)"/>
<mask id="path-143-inside-71_71_23737" fill="white">
<path d="M591 192H655V256H591V192Z"/>
</mask>
<path d="M655 256V257H656V256H655ZM654 192V256H656V192H654ZM655 255H591V257H655V255Z" fill="#D0D5DD" mask="url(#path-143-inside-71_71_23737)"/>
<mask id="path-145-inside-72_71_23737" fill="white">
<path d="M655 192H719V256H655V192Z"/>
</mask>
<path d="M719 256V257H720V256H719ZM718 192V256H720V192H718ZM719 255H655V257H719V255Z" fill="#D0D5DD" mask="url(#path-145-inside-72_71_23737)"/>
<mask id="path-147-inside-73_71_23737" fill="white">
<path d="M719 192H783V256H719V192Z"/>
</mask>
<path d="M783 256V257H784V256H783ZM782 192V256H784V192H782ZM783 255H719V257H783V255Z" fill="#D0D5DD" mask="url(#path-147-inside-73_71_23737)"/>
<mask id="path-149-inside-74_71_23737" fill="white">
<path d="M783 192H847V256H783V192Z"/>
</mask>
<path d="M847 256V257H848V256H847ZM846 192V256H848V192H846ZM847 255H783V257H847V255Z" fill="#D0D5DD" mask="url(#path-149-inside-74_71_23737)"/>
<mask id="path-151-inside-75_71_23737" fill="white">
<path d="M847 192H911V256H847V192Z"/>
</mask>
<path d="M911 256V257H912V256H911ZM910 192V256H912V192H910ZM911 255H847V257H911V255Z" fill="#D0D5DD" mask="url(#path-151-inside-75_71_23737)"/>
<mask id="path-153-inside-76_71_23737" fill="white">
<path d="M911 192H975V256H911V192Z"/>
</mask>
<path d="M911 192H975V256H911V192Z" fill="#F2F4F7"/>
<path d="M975 256V257H976V256H975ZM974 192V256H976V192H974ZM975 255H911V257H975V255Z" fill="#D0D5DD" mask="url(#path-153-inside-76_71_23737)"/>
<mask id="path-155-inside-77_71_23737" fill="white">
<path d="M975 192H1039V256H975V192Z"/>
</mask>
<path d="M1039 256V257H1040V256H1039ZM1038 192V256H1040V192H1038ZM1039 255H975V257H1039V255Z" fill="#D0D5DD" mask="url(#path-155-inside-77_71_23737)"/>
<mask id="path-157-inside-78_71_23737" fill="white">
<path d="M1039 192H1103V256H1039V192Z"/>
</mask>
<path d="M1103 256V257H1104V256H1103ZM1102 192V256H1104V192H1102ZM1103 255H1039V257H1103V255Z" fill="#D0D5DD" mask="url(#path-157-inside-78_71_23737)"/>
<mask id="path-159-inside-79_71_23737" fill="white">
<path d="M1103 192H1167V256H1103V192Z"/>
</mask>
<path d="M1167 256V257H1168V256H1167ZM1166 192V256H1168V192H1166ZM1167 255H1103V257H1167V255Z" fill="#D0D5DD" mask="url(#path-159-inside-79_71_23737)"/>
<mask id="path-161-inside-80_71_23737" fill="white">
<path d="M1167 192H1231V256H1167V192Z"/>
</mask>
<path d="M1231 256V257H1232V256H1231ZM1230 192V256H1232V192H1230ZM1231 255H1167V257H1231V255Z" fill="#D0D5DD" mask="url(#path-161-inside-80_71_23737)"/>
<mask id="path-163-inside-81_71_23737" fill="white">
<path d="M-49 256H15V320H-49V256Z"/>
</mask>
<path d="M15 320V321H16V320H15ZM14 256V320H16V256H14ZM15 319H-49V321H15V319Z" fill="#D0D5DD" mask="url(#path-163-inside-81_71_23737)"/>
<mask id="path-165-inside-82_71_23737" fill="white">
<path d="M15 256H79V320H15V256Z"/>
</mask>
<path d="M79 320V321H80V320H79ZM78 256V320H80V256H78ZM79 319H15V321H79V319Z" fill="#D0D5DD" mask="url(#path-165-inside-82_71_23737)"/>
<mask id="path-167-inside-83_71_23737" fill="white">
<path d="M79 256H143V320H79V256Z"/>
</mask>
<path d="M143 320V321H144V320H143ZM142 256V320H144V256H142ZM143 319H79V321H143V319Z" fill="#D0D5DD" mask="url(#path-167-inside-83_71_23737)"/>
<mask id="path-169-inside-84_71_23737" fill="white">
<path d="M143 256H207V320H143V256Z"/>
</mask>
<path d="M143 256H207V320H143V256Z" fill="#F2F4F7"/>
<path d="M207 320V321H208V320H207ZM206 256V320H208V256H206ZM207 319H143V321H207V319Z" fill="#D0D5DD" mask="url(#path-169-inside-84_71_23737)"/>
<mask id="path-171-inside-85_71_23737" fill="white">
<path d="M207 256H271V320H207V256Z"/>
</mask>
<path d="M271 320V321H272V320H271ZM270 256V320H272V256H270ZM271 319H207V321H271V319Z" fill="#D0D5DD" mask="url(#path-171-inside-85_71_23737)"/>
<mask id="path-173-inside-86_71_23737" fill="white">
<path d="M271 256H335V320H271V256Z"/>
</mask>
<path d="M335 320V321H336V320H335ZM334 256V320H336V256H334ZM335 319H271V321H335V319Z" fill="#D0D5DD" mask="url(#path-173-inside-86_71_23737)"/>
<mask id="path-175-inside-87_71_23737" fill="white">
<path d="M335 256H399V320H335V256Z"/>
</mask>
<path d="M399 320V321H400V320H399ZM398 256V320H400V256H398ZM399 319H335V321H399V319Z" fill="#D0D5DD" mask="url(#path-175-inside-87_71_23737)"/>
<mask id="path-177-inside-88_71_23737" fill="white">
<path d="M399 256H463V320H399V256Z"/>
</mask>
<path d="M463 320V321H464V320H463ZM462 256V320H464V256H462ZM463 319H399V321H463V319Z" fill="#D0D5DD" mask="url(#path-177-inside-88_71_23737)"/>
<mask id="path-179-inside-89_71_23737" fill="white">
<path d="M463 256H527V320H463V256Z"/>
</mask>
<path d="M463 256H527V320H463V256Z" fill="#F2F4F7"/>
<path d="M527 320V321H528V320H527ZM526 256V320H528V256H526ZM527 319H463V321H527V319Z" fill="#D0D5DD" mask="url(#path-179-inside-89_71_23737)"/>
<mask id="path-181-inside-90_71_23737" fill="white">
<path d="M527 256H591V320H527V256Z"/>
</mask>
<path d="M591 320V321H592V320H591ZM590 256V320H592V256H590ZM591 319H527V321H591V319Z" fill="#D0D5DD" mask="url(#path-181-inside-90_71_23737)"/>
<mask id="path-183-inside-91_71_23737" fill="white">
<path d="M591 256H655V320H591V256Z"/>
</mask>
<path d="M655 320V321H656V320H655ZM654 256V320H656V256H654ZM655 319H591V321H655V319Z" fill="#D0D5DD" mask="url(#path-183-inside-91_71_23737)"/>
<mask id="path-185-inside-92_71_23737" fill="white">
<path d="M655 256H719V320H655V256Z"/>
</mask>
<path d="M719 320V321H720V320H719ZM718 256V320H720V256H718ZM719 319H655V321H719V319Z" fill="#D0D5DD" mask="url(#path-185-inside-92_71_23737)"/>
<mask id="path-187-inside-93_71_23737" fill="white">
<path d="M719 256H783V320H719V256Z"/>
</mask>
<path d="M783 320V321H784V320H783ZM782 256V320H784V256H782ZM783 319H719V321H783V319Z" fill="#D0D5DD" mask="url(#path-187-inside-93_71_23737)"/>
<mask id="path-189-inside-94_71_23737" fill="white">
<path d="M783 256H847V320H783V256Z"/>
</mask>
<path d="M847 320V321H848V320H847ZM846 256V320H848V256H846ZM847 319H783V321H847V319Z" fill="#D0D5DD" mask="url(#path-189-inside-94_71_23737)"/>
<mask id="path-191-inside-95_71_23737" fill="white">
<path d="M847 256H911V320H847V256Z"/>
</mask>
<path d="M911 320V321H912V320H911ZM910 256V320H912V256H910ZM911 319H847V321H911V319Z" fill="#D0D5DD" mask="url(#path-191-inside-95_71_23737)"/>
<mask id="path-193-inside-96_71_23737" fill="white">
<path d="M911 256H975V320H911V256Z"/>
</mask>
<path d="M975 320V321H976V320H975ZM974 256V320H976V256H974ZM975 319H911V321H975V319Z" fill="#D0D5DD" mask="url(#path-193-inside-96_71_23737)"/>
<mask id="path-195-inside-97_71_23737" fill="white">
<path d="M975 256H1039V320H975V256Z"/>
</mask>
<path d="M1039 320V321H1040V320H1039ZM1038 256V320H1040V256H1038ZM1039 319H975V321H1039V319Z" fill="#D0D5DD" mask="url(#path-195-inside-97_71_23737)"/>
<mask id="path-197-inside-98_71_23737" fill="white">
<path d="M1039 256H1103V320H1039V256Z"/>
</mask>
<path d="M1103 320V321H1104V320H1103ZM1102 256V320H1104V256H1102ZM1103 319H1039V321H1103V319Z" fill="#D0D5DD" mask="url(#path-197-inside-98_71_23737)"/>
<mask id="path-199-inside-99_71_23737" fill="white">
<path d="M1103 256H1167V320H1103V256Z"/>
</mask>
<path d="M1167 320V321H1168V320H1167ZM1166 256V320H1168V256H1166ZM1167 319H1103V321H1167V319Z" fill="#D0D5DD" mask="url(#path-199-inside-99_71_23737)"/>
<mask id="path-201-inside-100_71_23737" fill="white">
<path d="M1167 256H1231V320H1167V256Z"/>
</mask>
<path d="M1167 256H1231V320H1167V256Z" fill="#F2F4F7"/>
<path d="M1231 320V321H1232V320H1231ZM1230 256V320H1232V256H1230ZM1231 319H1167V321H1231V319Z" fill="#D0D5DD" mask="url(#path-201-inside-100_71_23737)"/>
</g>
<rect x="-368.5" y="0.5" width="1919" height="1407" stroke="#D0D5DD"/>
</g>
</g>
<defs>
<radialGradient id="paint0_radial_71_23737" cx="0" cy="0" r="1" gradientUnits="userSpaceOnUse" gradientTransform="translate(720 -0.000171661) rotate(90) scale(1440 751.588)">
<stop/>
<stop offset="0.953125" stop-opacity="0"/>
</radialGradient>
<clipPath id="clip0_71_23737">
<rect width="1297" height="973" fill="white" transform="translate(-58)"/>
</clipPath>
<clipPath id="clip1_71_23737">
<rect x="-369" width="1920" height="1408" fill="white"/>
</clipPath>
</defs>
</svg>
