<svg width="200" height="200" viewBox="0 0 200 200" fill="none" xmlns="http://www.w3.org/2000/svg">
<path d="M159.086 164.207C158.29 166.185 155.695 166.413 153.982 166.952C149.805 168.266 153.129 167.872 136.127 171.669C121.463 174.945 106.921 178.746 92.5301 183.066C91.3701 183.414 90.0261 183.752 89.0021 183.066C88.48 182.675 88.059 182.164 87.7741 181.577C81.3474 170.574 76.2587 158.842 72.6161 146.631C72.1028 145.349 71.9654 143.947 72.2201 142.59C72.8871 140.251 75.5451 139.187 77.8651 138.443L140.806 118.413C142.015 117.961 143.17 117.374 144.247 116.663C144.498 116.518 147.998 126.326 148.22 126.968C151.878 137.545 158.128 158.598 158.844 160.966C159.279 161.989 159.364 163.127 159.086 164.204V164.207Z" fill="#606060"/>
<path d="M88.7231 183.483C88.1289 183.041 87.6492 182.463 87.3241 181.797C80.886 170.769 75.7876 159.013 72.1371 146.776C71.5981 145.418 71.4566 143.935 71.7291 142.5C72.4481 139.969 75.0301 138.83 77.7131 137.969L140.655 117.939C143.632 116.824 143.868 115.989 144.432 116.196C144.747 116.312 144.955 116.388 148.552 126.414L159.323 160.824C159.786 161.935 159.873 163.167 159.57 164.332C159.565 164.353 159.558 164.373 159.55 164.393C158.863 166.1 157.1 166.684 155.325 167.112C150.904 168.179 154.486 168.105 138.199 171.721C94.7691 181.364 91.5921 185.403 88.7241 183.482L88.7231 183.483ZM144.082 117.365C141.484 118.974 144.194 117.776 78.0171 138.922C75.5981 139.695 73.2801 140.696 72.7011 142.73C72.4748 143.98 72.6062 145.269 73.0801 146.448C76.7161 158.635 81.7937 170.344 88.2051 181.327C88.4721 181.874 88.8451 182.326 89.3011 182.668C90.1061 183.206 91.2671 182.925 92.3861 182.589C122.733 173.478 139.728 170.691 149.323 168.018C150.877 167.588 152.384 166.932 153.831 166.476C155.406 165.98 157.884 165.786 158.609 164.05C158.849 163.095 158.769 162.071 158.383 161.165C149.694 133.409 146.603 122.96 144.081 117.365H144.082Z" fill="black"/>
<path d="M141.948 116.417C133.374 118.706 79.4841 133.216 72.5671 139.659C69.7151 142.316 71.8181 147.563 72.7711 150.645C73.5301 153.102 84.6011 187.738 86.3241 193.189C86.5298 193.842 86.9859 194.387 87.5925 194.704C88.199 195.021 88.9066 195.085 89.5601 194.881C112.648 189.571 135.256 182.357 157.153 173.314C158.501 172.884 159.227 171.449 158.816 170.095C153.866 153.795 149.045 138.493 144.316 124.603C143.861 123.266 142.445 122.516 141.097 122.94L78.1371 143.008C77.4411 143.23 73.9511 144.661 74.0481 142.679C74.3121 141.264 78.6231 139.333 79.9641 138.812C109.474 127.351 139.639 120.932 143.483 118.831C145.525 117.714 144.911 115.625 141.949 116.416L141.948 116.417Z" fill="#FFCCCC"/>
<path d="M85.8461 193.338C84.1071 187.895 72.0931 150.157 71.9811 149.812C70.9681 146.666 69.4361 141.912 72.2241 139.295C79.1461 132.896 131.406 118.714 141.818 115.934C145.366 114.987 146.274 117.875 143.721 119.271C141.383 120.549 136.599 121.567 135.571 121.847C131.134 123.055 75.3661 138.332 74.5371 142.772C74.5101 143.709 76.7861 142.95 77.6981 142.63L140.942 122.464C141.716 122.222 142.553 122.295 143.273 122.667C143.993 123.038 144.538 123.679 144.789 124.449C149.51 137.624 154.256 152.514 159.294 169.956C159.537 170.728 159.464 171.566 159.09 172.284C158.717 173.003 158.075 173.544 157.303 173.79C135.392 182.833 112.772 190.05 89.6731 195.368C88.0871 195.866 86.3541 194.962 85.8461 193.338ZM142.076 116.9C131.709 119.667 79.6521 133.79 72.9061 140.027C70.5821 142.209 71.9411 146.426 72.9331 149.506C73.0461 149.856 85.0591 187.592 86.7991 193.037C86.9639 193.564 87.3311 194.004 87.8201 194.261C88.3091 194.517 88.8798 194.569 89.4071 194.405C112.48 189.093 135.074 181.884 156.96 172.852C158.144 172.471 158.669 171.287 158.337 170.247C153.301 152.812 148.561 137.941 143.842 124.771C143.675 124.248 143.309 123.813 142.822 123.559C142.335 123.305 141.768 123.254 141.244 123.417L78.0281 143.573C76.4751 144.118 74.9201 144.534 74.0641 143.895C73.8091 143.705 73.5121 143.335 73.5451 142.655C73.9291 140.573 79.7331 138.363 79.7911 138.342C86.9181 135.372 94.2831 132.977 101.176 130.833C109.84 128.137 130.027 122.161 136.152 120.67C137.916 120.241 144.752 118.657 144.148 117.146C144.009 116.798 143.301 116.572 142.075 116.899L142.076 116.9Z" fill="black"/>
<path d="M72.4041 150.004C71.8451 150.004 71.7091 149.22 72.2371 149.033L75.4171 147.902C75.479 147.88 75.5447 147.87 75.6103 147.874C75.6759 147.877 75.7402 147.893 75.7996 147.922C75.8589 147.95 75.9121 147.99 75.9561 148.038C76.0001 148.087 76.0341 148.144 76.0561 148.206C76.0781 148.268 76.0877 148.334 76.0843 148.399C76.0809 148.465 76.0647 148.529 76.0365 148.588C76.0082 148.648 75.9686 148.701 75.9198 148.745C75.871 148.789 75.814 148.823 75.7521 148.845C72.2821 150.079 72.5271 150.005 72.4041 150.005V150.004Z" fill="black"/>
<path d="M100.996 139.759C100.976 139.696 100.944 139.638 100.901 139.588C100.859 139.538 100.807 139.497 100.748 139.467C100.689 139.437 100.625 139.419 100.56 139.414C100.494 139.409 100.429 139.417 100.366 139.438C98.2681 140.118 96.1831 140.802 94.1091 141.489C93.5721 141.667 93.7011 142.464 94.2661 142.464C94.4371 142.464 94.2671 142.467 100.674 140.389C100.737 140.369 100.795 140.336 100.845 140.294C100.895 140.251 100.936 140.199 100.966 140.141C100.996 140.082 101.014 140.018 101.019 139.953C101.024 139.887 101.016 139.822 100.996 139.759Z" fill="black"/>
<path d="M113.544 135.784C113.505 135.657 113.417 135.551 113.299 135.49C113.182 135.428 113.045 135.415 112.918 135.454C110.812 136.108 108.718 136.766 106.636 137.427C106.094 137.599 106.218 138.404 106.787 138.404C106.958 138.404 106.787 138.406 113.214 136.41C113.34 136.371 113.446 136.283 113.508 136.166C113.569 136.048 113.582 135.912 113.543 135.785L113.544 135.784Z" fill="black"/>
<path d="M87.8661 143.582C85.787 144.286 83.7103 144.998 81.6361 145.716C81.5108 145.759 81.4079 145.851 81.35 145.97C81.2922 146.09 81.2841 146.227 81.3276 146.352C81.3711 146.478 81.4626 146.581 81.5819 146.639C81.7013 146.696 81.8388 146.704 81.9641 146.661C84.036 145.943 86.1104 145.233 88.1871 144.529C88.3111 144.485 88.413 144.394 88.4705 144.276C88.528 144.158 88.5365 144.022 88.4943 143.897C88.4521 143.772 88.3625 143.669 88.2449 143.61C88.1273 143.552 87.9912 143.541 87.8661 143.582Z" fill="black"/>
<path d="M102.287 186.387C100.174 186.932 98.0271 187.464 95.9071 187.966C95.2671 188.118 95.4871 189.087 96.1371 188.94C98.2756 188.433 100.409 187.905 102.537 187.356C102.663 187.321 102.77 187.237 102.835 187.124C102.9 187.011 102.918 186.876 102.886 186.75C102.853 186.623 102.772 186.514 102.66 186.447C102.548 186.379 102.414 186.358 102.287 186.388V186.387Z" fill="black"/>
<path d="M151.705 163.824C151.722 163.888 151.75 163.947 151.79 164C151.83 164.052 151.879 164.096 151.936 164.129C151.993 164.163 152.055 164.184 152.12 164.193C152.185 164.202 152.251 164.199 152.315 164.182C152.379 164.165 152.438 164.137 152.491 164.097C152.543 164.057 152.587 164.008 152.62 163.951C152.654 163.895 152.675 163.832 152.684 163.767C152.693 163.702 152.69 163.636 152.673 163.572C152.121 161.446 151.553 159.324 150.97 157.207C150.935 157.079 150.85 156.971 150.735 156.905C150.62 156.84 150.483 156.823 150.355 156.858C150.227 156.893 150.119 156.978 150.053 157.093C149.988 157.209 149.971 157.345 150.006 157.473C150.588 159.586 151.155 161.703 151.705 163.824Z" fill="black"/>
<path d="M151.908 169.162C149.913 170.042 147.88 170.914 145.867 171.753C145.745 171.804 145.648 171.902 145.597 172.024C145.547 172.147 145.547 172.285 145.598 172.407C145.649 172.529 145.747 172.626 145.869 172.677C145.992 172.727 146.13 172.727 146.252 172.676C148.281 171.83 150.3 170.963 152.311 170.076C152.43 170.021 152.522 169.921 152.569 169.799C152.615 169.676 152.611 169.541 152.558 169.421C152.506 169.301 152.408 169.207 152.286 169.158C152.165 169.109 152.029 169.111 151.908 169.161V169.162Z" fill="black"/>
<path d="M139.776 174.222C137.737 175.024 135.69 175.805 133.635 176.566C133.511 176.612 133.41 176.706 133.354 176.826C133.299 176.947 133.294 177.085 133.34 177.209C133.386 177.333 133.48 177.434 133.6 177.49C133.721 177.545 133.859 177.55 133.983 177.504C136.035 176.744 138.108 175.953 140.143 175.153C140.262 175.101 140.356 175.006 140.406 174.886C140.456 174.766 140.457 174.632 140.41 174.511C140.362 174.39 140.27 174.293 140.152 174.239C140.034 174.185 139.899 174.18 139.777 174.223L139.776 174.222Z" fill="black"/>
<path d="M142.717 132.16C142.663 132.044 142.567 131.953 142.448 131.906C142.329 131.859 142.196 131.86 142.078 131.907C141.959 131.954 141.863 132.045 141.809 132.161C141.755 132.277 141.748 132.41 141.788 132.531C144.331 138.892 144.002 139 144.586 139C144.666 139 144.745 138.981 144.816 138.944C144.887 138.907 144.949 138.853 144.995 138.787C145.041 138.722 145.07 138.646 145.081 138.567C145.092 138.487 145.083 138.406 145.056 138.331C144.312 136.261 143.533 134.203 142.717 132.16Z" fill="black"/>
<path d="M114.945 182.841C112.858 183.472 110.735 184.09 108.634 184.678C108.508 184.715 108.402 184.801 108.339 184.915C108.275 185.03 108.26 185.165 108.295 185.292C108.33 185.418 108.414 185.526 108.528 185.591C108.641 185.656 108.776 185.674 108.903 185.641C111.01 185.051 113.14 184.431 115.233 183.798C115.36 183.76 115.467 183.672 115.529 183.556C115.592 183.439 115.606 183.302 115.568 183.175C115.529 183.047 115.442 182.941 115.325 182.878C115.208 182.815 115.071 182.802 114.944 182.84L114.945 182.841Z" fill="black"/>
<path d="M138.775 128.279C138.739 128.152 138.653 128.044 138.537 127.98C138.421 127.915 138.285 127.9 138.157 127.936C136.038 128.541 133.929 129.15 131.831 129.762C131.279 129.923 131.395 130.742 131.971 130.742C132.132 130.742 131.971 130.742 138.432 128.897C138.559 128.86 138.667 128.775 138.731 128.659C138.796 128.543 138.811 128.406 138.775 128.279Z" fill="black"/>
<path d="M126.138 131.959C126.1 131.832 126.013 131.725 125.897 131.662C125.78 131.599 125.643 131.585 125.516 131.623C123.403 132.252 121.302 132.885 119.212 133.52C118.665 133.686 118.785 134.499 119.357 134.499C119.52 134.499 119.366 134.497 125.802 132.582C125.929 132.544 126.036 132.457 126.099 132.341C126.162 132.224 126.176 132.087 126.138 131.96V131.959Z" fill="black"/>
<path d="M127.448 178.784C125.378 179.502 123.301 180.2 121.217 180.876C121.154 180.896 121.095 180.928 121.045 180.97C120.994 181.013 120.953 181.065 120.922 181.124C120.892 181.183 120.873 181.247 120.868 181.313C120.863 181.378 120.87 181.445 120.891 181.508C120.911 181.571 120.944 181.629 120.987 181.679C121.03 181.729 121.083 181.77 121.142 181.8C121.201 181.83 121.265 181.847 121.331 181.852C121.397 181.857 121.463 181.848 121.526 181.827C123.606 181.152 125.709 180.446 127.776 179.728C127.84 179.708 127.9 179.676 127.951 179.632C128.003 179.589 128.045 179.536 128.075 179.476C128.105 179.416 128.123 179.351 128.128 179.284C128.132 179.217 128.123 179.149 128.101 179.086C128.079 179.023 128.045 178.964 128 178.914C127.954 178.865 127.9 178.824 127.839 178.796C127.778 178.768 127.712 178.752 127.645 178.75C127.578 178.748 127.511 178.76 127.448 178.784Z" fill="black"/>
<path d="M86.1401 191.069C85.5381 191.069 85.4541 190.192 86.0461 190.078C87.0431 189.886 89.354 189.403 89.354 189.403C89.4804 189.384 89.6091 189.415 89.7139 189.488C89.8187 189.561 89.8916 189.671 89.9178 189.796C89.944 189.921 89.9214 190.051 89.8547 190.16C89.7881 190.269 89.6823 190.348 89.5591 190.382C89.1471 190.468 86.2661 191.069 86.1401 191.069Z" fill="black"/>
<path d="M156.321 148.605C156.244 149.688 155.046 149.979 154.262 150.355C153.013 150.952 151.72 151.453 150.395 151.853C148.569 152.408 146.573 153.154 146.093 151.321C145.625 149.99 145.196 148.646 144.807 147.29C144.514 146.256 143.912 144.923 144.198 143.829C144.375 143.153 145.079 142.787 145.716 142.514C147.963 141.552 152.494 139.993 152.494 139.993L152.042 138.636C152.827 138.736 153.168 139.528 153.458 139.914C153.908 140.649 154.234 141.452 154.425 142.292C156.424 148.538 156.318 148.224 156.32 148.604L156.321 148.605Z" fill="#FF9C9F"/>
<path d="M146.345 152.63C145.988 152.318 145.732 151.906 145.61 151.448C144.608 148.578 144.517 147.979 144.116 146.75C143.328 144.332 143.248 143.019 145.521 142.054C147.354 141.263 150.642 140.106 151.864 139.682L151.569 138.794C151.542 138.714 151.536 138.628 151.552 138.545C151.567 138.462 151.603 138.384 151.657 138.319C151.711 138.253 151.78 138.203 151.859 138.172C151.937 138.14 152.022 138.129 152.106 138.14C153.1 138.266 153.475 139.101 153.859 139.614C154.515 140.68 154.267 140.143 156.653 147.672C156.763 147.97 156.82 148.285 156.821 148.602C156.734 149.842 155.668 150.293 154.89 150.623C154.205 150.913 152.811 151.63 150.54 152.331C149.258 152.726 147.369 153.398 146.344 152.629L146.345 152.63ZM152.983 140.105C152.964 140.188 152.924 140.264 152.867 140.328C152.81 140.391 152.738 140.438 152.658 140.466C152.613 140.481 148.116 142.024 145.916 142.974C144.429 143.605 144.303 144.093 145.068 146.44C145.483 147.712 145.605 148.392 146.567 151.157C146.646 151.451 146.785 151.681 146.982 151.86C147.503 152.248 149.207 151.704 149.935 151.474C151.228 151.065 152.396 150.691 154.048 149.904C154.812 149.536 155.771 149.305 155.824 148.57C155.82 148.253 155.904 148.612 153.952 142.446C153.735 141.495 153.345 140.634 152.984 140.107L152.983 140.105Z" fill="black"/>
<path d="M149.26 148.555C149.684 148.555 150.091 148.386 150.392 148.086C150.692 147.786 150.86 147.379 150.86 146.955C150.86 146.531 150.692 146.124 150.392 145.824C150.091 145.524 149.684 145.355 149.26 145.355C148.836 145.355 148.429 145.524 148.129 145.824C147.829 146.124 147.66 146.531 147.66 146.955C147.66 147.379 147.829 147.786 148.129 148.086C148.429 148.386 148.836 148.555 149.26 148.555Z" fill="white"/>
<path d="M149.26 149.055C148.102 149.055 147.16 148.113 147.16 146.955C147.16 145.797 148.102 144.855 149.26 144.855C150.418 144.855 151.36 145.797 151.36 146.955C151.36 148.113 150.418 149.055 149.26 149.055ZM149.26 145.855C149.116 145.855 148.973 145.884 148.839 145.939C148.706 145.994 148.584 146.075 148.482 146.178C148.38 146.28 148.299 146.401 148.244 146.535C148.188 146.668 148.16 146.811 148.16 146.956C148.16 147.101 148.189 147.244 148.244 147.377C148.299 147.511 148.381 147.632 148.483 147.734C148.585 147.836 148.706 147.917 148.84 147.972C148.974 148.028 149.117 148.056 149.261 148.056C149.553 148.056 149.833 147.94 150.039 147.733C150.245 147.527 150.361 147.247 150.361 146.955C150.361 146.663 150.245 146.383 150.038 146.177C149.832 145.971 149.552 145.855 149.26 145.855Z" fill="black"/>
<path d="M160.09 32.732C160.041 32.7313 159.993 32.7156 159.953 32.687C159.914 32.6584 159.883 32.6183 159.867 32.572C159.835 32.476 159.921 32.318 160.026 32.232C160.532 31.814 161.281 31.626 161.525 31.041C161.769 30.456 161.282 29.769 161.461 29.127C161.518 28.921 161.695 28.867 161.865 28.946C162.587 29.138 163.007 30.02 163.417 30.116C163.612 30.1338 163.809 30.093 163.981 29.999C164.576 29.748 165.208 29.597 165.852 29.552C165.873 29.5407 165.897 29.5348 165.921 29.5348C165.945 29.5348 165.969 29.5407 165.99 29.552C166.043 29.552 166.043 29.637 166.043 29.701C166.043 30.591 164.504 31.243 165.373 32.221C165.681 32.625 166.922 33.493 166.362 34.007C166.052 34.292 165.043 34.007 164.735 33.933C164.155 33.727 163.923 33.956 163.587 34.486C162.958 35.476 162.562 36.256 162.194 36.016C161.79 35.721 162.183 34.156 161.822 33.539C161.492 32.975 160.663 32.922 160.089 32.731L160.09 32.732Z" fill="#FFEE99"/>
<path d="M14.919 63.882C14.919 63.623 15.275 63.548 15.419 63.818C15.855 64.298 16.068 65.051 16.652 65.275C17.252 65.505 18.35 64.83 18.757 65.275C18.7756 65.3186 18.7851 65.3656 18.7851 65.413C18.7851 65.4604 18.7756 65.5074 18.757 65.551C18.31 66.634 17.747 66.671 17.63 67.135C17.6138 67.333 17.6622 67.5309 17.768 67.699C18.032 68.289 18.2 68.917 18.268 69.56C18.306 69.703 18.226 69.776 18.119 69.762C17.238 69.762 16.535 68.229 15.578 69.156C15.185 69.476 14.345 70.751 13.813 70.219C13.52 69.927 13.813 68.9 13.813 68.592C14.065 67.822 13.689 67.725 12.016 66.732C11.782 66.592 11.506 66.327 11.644 66.114C11.961 65.694 13.475 66.022 14.111 65.667C14.664 65.359 14.76 64.467 14.919 63.882Z" fill="#FFEE99"/>
<path d="M180.087 105.825C180.712 105.626 181.48 105.751 181.937 105.315C182.394 104.879 182.203 104.047 182.618 103.529C182.753 103.361 182.929 103.368 183.065 103.486C183.857 104.301 183.661 104.859 184.043 105.166C184.218 105.261 184.419 105.298 184.617 105.272C185.261 105.28 185.899 105.388 186.51 105.591C186.637 105.621 186.686 105.712 186.638 105.825C186.293 106.638 184.665 106.63 184.979 107.888C185.101 108.378 185.912 109.656 185.192 109.919C184.682 110.105 183.684 109.125 183.384 108.983C183.217 108.958 183.046 108.971 182.884 109.021C182.722 109.07 182.573 109.156 182.448 109.27L181.289 110.078C181.066 110.227 180.704 110.365 180.566 110.163C180.385 109.62 181.324 108.46 181.215 107.781C181.047 106.739 179.076 106.147 180.088 105.824L180.087 105.825Z" fill="#FFEE99"/>
<path d="M45.6941 34.53C46.1537 34.53 46.5945 34.3474 46.9195 34.0224C47.2445 33.6974 47.4271 33.2566 47.4271 32.797C47.4271 32.3374 47.2445 31.8966 46.9195 31.5716C46.5945 31.2466 46.1537 31.064 45.6941 31.064C45.2344 31.064 44.7936 31.2466 44.4686 31.5716C44.1436 31.8966 43.9611 32.3374 43.9611 32.797C43.9611 33.2566 44.1436 33.6974 44.4686 34.0224C44.7936 34.3474 45.2344 34.53 45.6941 34.53Z" fill="#FFEE99"/>
<path d="M31.281 118.197C31.7717 118.197 32.2422 118.002 32.5892 117.655C32.9361 117.308 33.131 116.838 33.131 116.347C33.131 115.856 32.9361 115.386 32.5892 115.039C32.2422 114.692 31.7717 114.497 31.281 114.497C30.7904 114.497 30.3198 114.692 29.9729 115.039C29.6259 115.386 29.431 115.856 29.431 116.347C29.431 116.838 29.6259 117.308 29.9729 117.655C30.3198 118.002 30.7904 118.197 31.281 118.197Z" fill="#FFEE99"/>
<path d="M186.385 76.504C186.876 76.504 187.346 76.3091 187.693 75.9622C188.04 75.6152 188.235 75.1446 188.235 74.654C188.235 74.1633 188.04 73.6928 187.693 73.3459C187.346 72.9989 186.876 72.804 186.385 72.804C185.894 72.804 185.424 72.9989 185.077 73.3459C184.73 73.6928 184.535 74.1633 184.535 74.654C184.535 75.1446 184.73 75.6152 185.077 75.9622C185.424 76.3091 185.894 76.504 186.385 76.504Z" fill="#FFEE99"/>
<path d="M116.48 5.672C116.372 5.447 116.493 5.239 116.852 5.332C117.491 5.497 118.075 6.002 118.692 5.864C119.309 5.726 119.58 4.903 120.213 4.705C120.415 4.642 120.577 4.757 120.617 4.918C120.968 6.313 119.982 6.77 120.979 7.257C121.53 7.593 122.022 8.017 122.436 8.512C122.538 8.598 122.504 8.724 122.404 8.767C121.665 9.273 120.276 8.393 119.958 9.681C119.809 10.17 119.82 11.677 119.075 11.521C118.661 11.434 118.299 10.458 118.192 10.149C118.162 10.0145 118.104 9.88772 118.022 9.777C117.895 9.66369 117.743 9.58234 117.579 9.53972C117.414 9.4971 117.242 9.49445 117.076 9.532C115.915 9.594 115.032 9.725 115.013 9.298C115.081 8.73 116.513 8.246 116.81 7.554C117.065 6.959 116.661 6.204 116.48 5.672Z" fill="#FFEE99"/>
<path d="M159.989 33.225C160.506 33.388 161.198 33.462 161.392 33.793C161.707 34.33 161.063 36.557 162.319 36.557C163.014 36.557 163.389 35.736 164.012 34.753C164.214 34.434 164.303 34.369 164.322 34.359C164.649 34.367 166.071 34.965 166.7 34.379C166.795 34.2966 166.872 34.195 166.925 34.0809C166.978 33.9669 167.007 33.8429 167.009 33.717C167.025 32.802 165.74 32.119 165.611 31.649C165.54 31.283 166.545 30.596 166.545 29.703C166.545 29.168 166.104 28.962 165.75 29.06C165.058 29.1163 164.38 29.2855 163.742 29.561C163.697 29.5897 163.644 29.6041 163.59 29.6024C163.537 29.6006 163.485 29.5827 163.442 29.551C163.081 29.212 162.657 28.638 162.076 28.494C161.777 28.355 161.439 28.418 161.266 28.556C160.813 28.918 160.895 29.615 161.018 30.181C161.166 30.863 161.166 30.956 160.38 31.404C159.846 31.709 159.184 32.105 159.392 32.731C159.437 32.8602 159.516 32.9746 159.621 33.0617C159.727 33.1489 159.854 33.2053 159.989 33.225ZM161.996 29.97C161.961 29.807 161.927 29.651 161.92 29.506C162.516 29.842 162.638 30.456 163.373 30.614C164.046 30.676 164.167 30.318 165.363 30.114C165.021 30.618 164.489 31.117 164.636 31.868C164.756 32.334 165.024 32.603 165.373 32.941C165.534 33.097 165.885 33.437 165.984 33.632C165.853 33.646 165.56 33.625 164.905 33.462C163.671 33.024 163.307 34.001 162.493 35.273C162.488 35.1134 162.488 34.9536 162.493 34.794C162.518 33.342 162.279 32.773 160.695 32.379C161.823 31.711 162.302 31.37 161.998 29.97H161.996Z" fill="black"/>
<path d="M19.126 64.938C18.727 64.503 18.063 64.607 17.494 64.745C16.813 64.909 16.729 64.912 16.256 64.143C15.897 63.559 15.531 62.981 14.92 63.185C14.499 63.325 14.446 63.69 14.346 64.123C14.066 65.341 13.982 65.333 12.877 65.363C12.291 65.378 11.574 65.376 11.225 65.843C10.913 66.323 11.246 66.856 11.76 67.162C12.495 67.599 13.321 68.062 13.377 68.191C13.378 68.631 12.89 70.006 13.467 70.581C13.5542 70.6692 13.6588 70.7381 13.7742 70.7834C13.8896 70.8287 14.0132 70.8494 14.137 70.844C14.909 70.818 15.546 69.832 15.926 69.516C16.22 69.23 16.407 69.385 16.847 69.705C17.207 69.965 17.629 70.259 18.056 70.258C18.173 70.2729 18.2919 70.2562 18.4002 70.2096C18.5085 70.163 18.6024 70.0882 18.672 69.993C18.775 69.853 18.803 69.602 18.766 69.508C18.629 68.198 18.163 67.423 18.116 67.258C18.125 67.223 18.141 67.19 18.132 67.198C18.751 66.711 19.655 65.515 19.127 64.936L19.126 64.938ZM17.475 66.446C17.2844 66.6332 17.164 66.8803 17.1341 67.1459C17.1043 67.4114 17.1667 67.6791 17.311 67.904C17.476 68.273 17.6 68.656 17.687 69.074C17.162 68.724 16.641 68.213 15.918 68.4C15.097 68.635 14.712 69.512 14.185 69.812C14.167 69.508 14.286 68.971 14.309 68.681C14.545 67.848 14.18 67.464 13.484 67.027L12.408 66.384C12.564 66.371 12.735 66.367 12.903 66.363C14.372 66.325 14.912 66.093 15.289 64.483C15.605 64.973 15.869 65.513 16.474 65.743C17.081 65.975 17.672 65.696 18.175 65.621C18.0012 65.9414 17.7628 66.2223 17.475 66.446Z" fill="black"/>
<path d="M184.477 104.781C184.413 104.781 184.356 104.776 184.356 104.776C184.325 104.752 184.302 104.717 184.306 104.741C184.117 103.952 183.415 102.67 182.645 102.925C182.093 103.104 181.905 103.772 181.804 104.328C181.681 105.002 181.651 105.091 180.728 105.203C180.029 105.287 179.295 105.397 179.306 106.154C179.356 106.488 179.523 106.612 179.878 106.904C180.902 107.746 180.854 107.817 180.439 108.746C180.246 109.178 179.938 109.859 180.092 110.322C180.167 110.547 180.421 110.765 180.783 110.764C181.338 110.764 181.777 110.348 182.787 109.639C182.91 109.526 183.072 109.466 183.238 109.472C183.391 109.564 184.564 110.692 185.359 110.391C185.479 110.351 185.59 110.287 185.684 110.202C185.777 110.117 185.852 110.013 185.903 109.897C186.216 109.186 185.559 108.128 185.466 107.773C185.364 107.343 185.628 107.219 186.064 106.968C186.656 106.627 187.355 106.114 187.102 105.48C186.87 104.903 185.085 104.781 184.477 104.781ZM184.492 107.23C184.279 108.124 184.881 108.733 185.059 109.441C184.942 109.441 184.549 109.251 184.069 108.856C183.93 108.723 183.77 108.613 183.596 108.531C183.313 108.396 182.595 108.454 182.161 108.86L181.184 109.542C181.77 108.054 182.214 107.532 180.624 106.224C181.202 106.144 181.81 106.127 182.282 105.677C182.773 105.208 182.74 104.54 182.886 104.042C183.456 104.78 183.148 105.105 183.804 105.605C184.405 105.931 184.581 105.627 185.856 105.925C185.391 106.228 184.641 106.511 184.491 107.229L184.492 107.23Z" fill="black"/>
<path d="M45.6941 35.03C46.286 35.0292 46.8536 34.7937 47.2722 34.3751C47.6907 33.9565 47.9263 33.389 47.9271 32.797C47.9263 32.205 47.6907 31.6375 47.2722 31.2189C46.8536 30.8003 46.286 30.5648 45.6941 30.564C45.102 30.5645 44.5343 30.8 44.1157 31.2186C43.697 31.6373 43.4616 32.2049 43.4611 32.797C43.4616 33.3891 43.697 33.9567 44.1157 34.3754C44.5343 34.794 45.102 35.0295 45.6941 35.03ZM45.6941 31.564C46.0125 31.5768 46.3136 31.7123 46.5343 31.9422C46.7551 32.172 46.8784 32.4783 46.8784 32.797C46.8784 33.1157 46.7551 33.422 46.5343 33.6518C46.3136 33.8817 46.0125 34.0172 45.6941 34.03C45.3756 34.0172 45.0745 33.8817 44.8538 33.6518C44.633 33.422 44.5097 33.1157 44.5097 32.797C44.5097 32.4783 44.633 32.172 44.8538 31.9422C45.0745 31.7123 45.3756 31.5768 45.6941 31.564Z" fill="black"/>
<path d="M31.281 113.997C30.6579 113.998 30.0605 114.245 29.6199 114.686C29.1793 115.126 28.9316 115.724 28.931 116.347C28.9316 116.97 29.1793 117.568 29.6199 118.008C30.0605 118.449 30.6579 118.696 31.281 118.697C31.9041 118.696 32.5016 118.449 32.9421 118.008C33.3827 117.568 33.6305 116.97 33.631 116.347C33.6305 115.724 33.3827 115.126 32.9421 114.686C32.5016 114.245 31.9041 113.998 31.281 113.997ZM31.281 117.697C31.1037 117.697 30.9281 117.662 30.7643 117.594C30.6004 117.526 30.4516 117.427 30.3262 117.301C30.2009 117.176 30.1014 117.027 30.0336 116.863C29.9658 116.699 29.931 116.523 29.931 116.346C29.9311 116.169 29.9661 115.993 30.034 115.829C30.102 115.665 30.2015 115.517 30.3269 115.391C30.4524 115.266 30.6013 115.166 30.7652 115.099C30.9291 115.031 31.1047 114.996 31.282 114.996C31.6402 114.996 31.9837 115.139 32.2368 115.392C32.49 115.645 32.6322 115.989 32.632 116.347C32.6319 116.705 32.4895 117.049 32.2361 117.302C31.9828 117.555 31.6392 117.697 31.281 117.697Z" fill="black"/>
<path d="M186.385 72.304C185.762 72.3045 185.165 72.5523 184.724 72.9929C184.283 73.4335 184.036 74.0309 184.035 74.654C184.036 75.2771 184.283 75.8745 184.724 76.3151C185.165 76.7557 185.762 77.0035 186.385 77.004C187.008 77.0035 187.606 76.7557 188.046 76.3151C188.487 75.8745 188.735 75.2771 188.735 74.654C188.735 74.0309 188.487 73.4335 188.046 72.9929C187.606 72.5523 187.008 72.3045 186.385 72.304ZM186.385 76.004C185.641 76.004 185.035 75.399 185.035 74.654C185.035 73.909 185.641 73.304 186.385 73.304C187.129 73.304 187.735 73.909 187.735 74.654C187.735 75.399 187.129 76.004 186.385 76.004Z" fill="black"/>
<path d="M63.194 55.218C61.508 54.501 59.571 53.458 59.554 51.754C59.554 51.294 59.699 50.819 59.852 50.317C60.554 48.014 60.405 46.985 56.988 45.082C56.08 44.577 54.876 43.478 55.238 42.598C55.403 42.326 55.783 41.57 55.764 41.281C55.715 40.539 55.31 39.859 54.74 39.505C52.9926 38.0013 51.1516 36.6098 49.228 35.339C49.1173 35.2687 48.9834 35.2447 48.8551 35.2722C48.7269 35.2997 48.6146 35.3765 48.5424 35.486C48.4702 35.5956 48.444 35.7291 48.4694 35.8578C48.4948 35.9865 48.5697 36.1 48.678 36.174C50.5855 37.4367 52.4124 38.817 54.148 40.307C54.482 40.519 54.706 40.872 54.758 41.263C54.6552 41.5719 54.5183 41.8683 54.35 42.147C53.738 43.607 54.99 45.113 56.501 45.957C59.541 47.654 59.449 48.211 58.896 50.027C58.728 50.577 58.556 51.147 58.556 51.76C58.577 54.05 60.837 55.303 62.803 56.14C63.423 56.4 63.794 55.474 63.195 55.22L63.194 55.218Z" fill="black"/>
<path d="M33.754 67.168C34.264 67.2 34.732 67.476 34.975 67.846C35.249 68.436 34.659 70.144 37.762 70.472L42.462 70.977C43.295 70.951 44.101 71.281 44.627 71.827C45 72.36 44.97 73.124 45.521 73.792C46.502 74.983 48.17 74.576 49.577 74.416C50.6243 74.3026 51.6835 74.4347 52.6708 74.8018C53.6581 75.1689 54.5463 75.761 55.265 76.531C55.3088 76.5823 55.3625 76.6242 55.4229 76.6542C55.4833 76.6842 55.5491 76.7017 55.6164 76.7056C55.6838 76.7095 55.7512 76.6997 55.8146 76.6769C55.8781 76.6541 55.9363 76.6187 55.9857 76.5728C56.0351 76.5269 56.0747 76.4715 56.1021 76.4099C56.1296 76.3483 56.1443 76.2817 56.1453 76.2143C56.1464 76.1469 56.1338 76.0799 56.1083 76.0175C56.0828 75.9551 56.045 75.8984 55.997 75.851C55.1715 74.9667 54.1513 74.2869 53.0173 73.8654C51.8833 73.444 50.6667 73.2925 49.464 73.423C48.378 73.549 46.913 73.913 46.291 73.157C46.112 72.94 46.013 72.633 45.909 72.307C45.796 71.954 45.679 71.59 45.398 71.197C44.628 70.387 43.547 69.944 42.499 69.981C37.67 69.457 36.472 69.486 36.169 68.738C36.045 68.443 36.108 67.909 35.848 67.366C35.401 66.668 34.641 66.221 33.873 66.177C30.4802 65.5635 26.9895 65.7776 23.697 66.801C23.5704 66.8405 23.4646 66.9287 23.403 67.0462C23.3414 67.1637 23.329 67.3009 23.3685 67.4275C23.4081 67.5541 23.4963 67.6599 23.6137 67.7215C23.7312 67.7831 23.8684 67.7955 23.995 67.756C27.153 66.7774 30.5006 66.576 33.753 67.169L33.754 67.168Z" fill="black"/>
<path d="M57.8231 98.512C56.3301 97.357 54.2201 97.428 52.8441 98.745C52.1061 99.452 51.6191 100.695 50.8221 101.132C50.0121 100.808 49.3521 100.154 48.3361 100.007C46.8081 99.79 45.3941 100.817 44.1281 103.06C43.0821 104.911 42.0131 105.782 41.0441 105.669C40.4059 105.477 39.753 105.337 39.0921 105.252C37.8631 105.252 37.0581 106.251 36.3701 107.329L32.9581 112.665C32.5991 113.226 33.4501 113.752 33.8001 113.204C37.5761 107.29 38.0421 106.255 39.0231 106.247C39.6071 106.329 40.1901 106.457 40.8381 106.644C42.3591 106.832 43.7181 105.821 44.9991 103.552C45.7161 102.281 46.8531 100.807 48.1951 100.997C49.0501 101.121 50.4771 102.358 51.0321 102.137C52.3271 101.621 52.7891 100.184 53.5361 99.467C54.5461 98.502 56.1061 98.447 57.2111 99.303C57.2627 99.3456 57.3225 99.3774 57.3867 99.3965C57.4509 99.4155 57.5183 99.4215 57.5849 99.414C57.6515 99.4066 57.7158 99.3858 57.7742 99.3529C57.8326 99.3201 57.8838 99.2758 57.9248 99.2228C57.9657 99.1698 57.9956 99.1091 58.0126 99.0443C58.0297 98.9795 58.0335 98.912 58.0239 98.8457C58.0143 98.7794 57.9915 98.7157 57.9569 98.6583C57.9222 98.601 57.8763 98.5513 57.8221 98.512H57.8231Z" fill="black"/>
<path d="M149.72 48.605C150.353 47.351 151.037 46.718 151.677 46.717C152.141 46.793 152.613 46.793 153.077 46.717C153.363 46.669 153.999 46.207 154.268 45.597L157.961 39.323C158.028 39.2087 158.047 39.0724 158.014 38.944C157.981 38.8156 157.898 38.7057 157.784 38.6385C157.669 38.5713 157.533 38.5522 157.405 38.5855C157.276 38.6188 157.166 38.7017 157.099 38.816C153.008 45.766 153.248 45.504 152.836 45.742C152.479 45.7887 152.118 45.7823 151.763 45.723C150.379 45.723 149.45 46.921 148.826 48.157C147.558 50.67 147.054 50.624 145.571 50.417C144.947 50.329 144.303 50.239 143.594 50.481C142.596 50.965 141.84 51.806 141.491 52.793L138.958 57.771C138.903 57.8886 138.895 58.0232 138.937 58.1461C138.98 58.2691 139.068 58.3708 139.184 58.4298C139.3 58.4887 139.434 58.5001 139.558 58.4617C139.682 58.4233 139.787 58.338 139.849 58.224L142.407 53.187C142.679 52.4134 143.24 51.7747 143.971 51.404C144.397 51.26 144.9 51.331 145.431 51.406C147.359 51.676 148.258 51.498 149.719 48.604L149.72 48.605Z" fill="black"/>
<path d="M181.647 76.562C181.72 76.4545 181.748 76.3228 181.726 76.1948C181.704 76.0669 181.632 75.9526 181.527 75.8763C181.422 75.8 181.291 75.7676 181.163 75.786C181.034 75.8045 180.918 75.8722 180.838 75.975C180.551 76.3732 180.12 76.6441 179.636 76.7305C179.153 76.8169 178.655 76.712 178.247 76.438C177.82 76.161 178.745 74.281 177.418 73.741C177.118 73.6449 176.796 73.6414 176.494 73.731C174.058 74.27 171.765 75.3243 169.77 76.823C169.297 77.173 168.818 77.478 168.571 77.363C168.305 77.1767 168.087 76.9299 167.934 76.643C167.025 75.441 165.397 74.953 163.983 75.529C162.569 76.105 161.598 77.768 160.342 77.918C159.14 78.061 158.06 76.76 156.705 76.185C155.931 75.9043 155.106 75.7962 154.286 75.8683C153.466 75.9403 152.672 76.1907 151.959 76.602C150.626 77.3892 149.415 78.3676 148.366 79.506C148.278 79.6037 148.231 79.7324 148.237 79.864C148.243 79.9957 148.301 80.1197 148.398 80.209C148.495 80.2984 148.623 80.3459 148.755 80.3412C148.886 80.3365 149.011 80.28 149.101 80.184C150.083 79.1183 151.216 78.2019 152.463 77.464C153.045 77.1278 153.693 76.9224 154.363 76.862C155.032 76.8015 155.706 76.8875 156.339 77.114C157.623 77.661 158.769 79.112 160.461 78.91C162.155 78.708 163.122 76.96 164.361 76.454C165.345 76.052 166.495 76.398 167.097 77.184C167.316 77.584 167.631 77.931 168.069 78.224C168.965 78.664 169.876 77.989 170.368 77.624C173.325 75.408 176.724 74.578 177.081 74.68C177.442 74.828 176.646 76.59 177.699 77.273C178.322 77.6887 179.081 77.8466 179.818 77.7136C180.554 77.5806 181.21 77.1671 181.648 76.56L181.647 76.562Z" fill="black"/>
<path d="M175.897 104.356C168.08 101.973 164.094 103.845 163.079 102.923C162.691 102.569 163.335 102.172 163.551 101.391C163.623 100.981 163.561 100.558 163.375 100.185C163.188 99.8124 162.887 99.5095 162.515 99.321C161.902 99.0193 161.229 98.8568 160.546 98.845C156.077 98.491 151.586 98.491 147.117 98.845C147.052 98.8502 146.988 98.8682 146.929 98.8981C146.871 98.9279 146.819 98.969 146.776 99.0189C146.734 99.0689 146.701 99.1268 146.681 99.1892C146.661 99.2517 146.653 99.3175 146.658 99.383C146.663 99.4485 146.681 99.5123 146.711 99.5708C146.741 99.6293 146.782 99.6813 146.832 99.7239C146.933 99.81 147.064 99.8525 147.196 99.842C151.599 99.492 156.064 99.492 160.501 99.843C161.043 99.8493 161.577 99.9756 162.065 100.213C162.436 100.404 162.637 100.809 162.577 101.168C162.459 101.579 161.971 101.956 161.958 102.64C161.934 103.911 163.378 104.318 164.717 104.192C168.384 103.855 172.082 104.236 175.604 105.313C175.731 105.352 175.868 105.338 175.985 105.276C176.102 105.213 176.189 105.107 176.228 104.98C176.267 104.853 176.253 104.716 176.191 104.599C176.128 104.482 176.022 104.395 175.895 104.356H175.897Z" fill="black"/>
<path d="M116.344 12.831C116.288 12.8647 116.238 12.9091 116.199 12.9618C116.16 13.0145 116.131 13.0744 116.115 13.1381C116.099 13.2019 116.096 13.2681 116.106 13.3331C116.115 13.3981 116.137 13.4606 116.171 13.517C116.423 13.9422 116.501 14.4485 116.388 14.9298C116.275 15.411 115.981 15.83 115.566 16.099C115.2 16.375 113.791 14.785 112.782 15.785C112.57 16.0239 112.439 16.3234 112.407 16.641C111.955 19.0919 112.027 21.6105 112.616 24.032C112.755 24.604 112.847 25.166 112.653 25.346C112.397 25.506 112.103 25.608 111.726 25.654C111.009 25.849 110.375 26.273 109.921 26.8615C109.466 27.45 109.217 28.1707 109.21 28.914C109.215 29.645 109.446 30.342 109.67 31.016C110.342 33.035 110.276 33.564 108.264 34.875C107.828 35.16 107.377 35.454 106.967 35.839C106.404 36.4386 105.98 37.1548 105.725 37.9366C105.471 38.7185 105.391 39.5469 105.492 40.363C105.692 41.899 106.115 43.393 106.75 44.805C107.02 45.407 107.934 44.999 107.662 44.395C107.068 43.0744 106.671 41.6738 106.484 40.238C106.401 39.5731 106.464 38.898 106.669 38.2602C106.875 37.6223 107.217 37.0372 107.673 36.546C108.681 35.604 110.415 35.07 110.929 33.494C111.444 31.916 110.219 30.345 110.209 28.916C110.219 27.843 110.949 26.899 111.908 26.634C112.359 26.587 112.8 26.434 113.25 26.144C114.697 24.868 112.334 22.62 113.398 16.773C113.406 16.6624 113.445 16.5565 113.512 16.468C113.607 16.374 113.996 16.575 114.28 16.722C114.81 16.996 115.536 17.372 116.145 16.915C118.304 15.48 117.344 12.235 116.347 12.831H116.344Z" fill="black"/>
<path d="M122.819 8.191C121.839 7.018 121.038 6.819 121.017 6.638C121.213 6.047 121.257 5.41 121.099 4.785C121.039 4.546 120.868 4.352 120.574 4.224C119.992 4.055 119.505 4.508 119.1 4.952C118.631 5.466 118.557 5.524 117.72 5.138C117.06 4.834 116.443 4.568 116.03 5.18C115.861 5.532 115.984 5.787 116.133 6.172C116.581 7.326 116.488 7.407 115.605 8.017C115.057 8.395 114.571 8.72 114.513 9.321C114.53 9.701 114.842 10.107 115.696 10.107C117.489 10.003 117.452 9.972 117.647 10.117C117.737 10.273 118.145 12.034 119.181 12.034C120.443 12.034 120.228 9.964 120.566 9.536C120.809 9.277 122.011 9.65 122.599 9.228C123.044 9.038 123.103 8.398 122.818 8.192L122.819 8.191ZM119.815 8.876C119.297 9.51 119.405 10.343 119.215 11.045C119.124 10.989 118.895 10.653 118.68 10.041C118.635 9.83806 118.548 9.64689 118.424 9.48C118.275 9.276 117.805 9.001 117.33 9.001C117.188 9.001 117.33 9.019 115.808 9.1C116.32 8.709 117.009 8.362 117.27 7.752C117.531 7.143 117.322 6.483 117.125 5.966C118.326 6.507 118.893 6.662 119.838 5.627C119.952 5.502 120.063 5.381 120.174 5.294C120.214 5.641 120.177 5.995 120.063 6.338C119.97 6.649 120.022 6.973 120.117 7.129C120.472 7.698 120.813 7.589 121.691 8.444C121.141 8.456 120.355 8.3 119.814 8.877L119.815 8.876Z" fill="black"/>
<path d="M75.1171 117.913C75.1171 108.572 82.2631 100.899 91.3871 100.064C80.8691 99.094 71.8051 107.366 71.8051 117.913C71.8051 128.46 80.8381 136.726 91.3861 135.763C82.2621 134.927 75.1171 127.254 75.1171 117.913Z" fill="#FFEB8D"/>
<path d="M95.9361 135.602C105.706 134.004 112.33 124.788 110.732 115.018C109.133 105.249 99.9181 98.624 90.1481 100.223C80.3781 101.821 73.7541 111.037 75.3521 120.807C76.9511 130.577 86.1671 137.201 95.9361 135.602Z" fill="var(--ion-color-light)6CC"/>
<path d="M93.0421 99.488H89.7301C79.5701 99.488 71.3051 107.754 71.3051 117.913C71.3051 128.072 79.5701 136.338 89.7301 136.338H93.0421C103.202 136.338 111.467 128.073 111.467 117.913C111.467 107.753 103.201 99.488 93.0421 99.488ZM72.3051 117.913C72.3051 109.591 78.1701 102.612 85.9851 100.893C79.3171 103.668 74.6171 110.252 74.6171 117.913C74.6171 125.574 79.3171 132.158 85.9841 134.933C78.1701 133.215 72.3051 126.236 72.3051 117.913ZM93.0421 135.338C83.4341 135.338 75.6171 127.521 75.6171 117.913C75.6171 108.305 83.4341 100.488 93.0421 100.488C102.65 100.488 110.467 108.305 110.467 117.913C110.467 127.521 102.65 135.338 93.0421 135.338Z" fill="black"/>
<path d="M93.091 132.674C101.185 132.674 107.746 126.113 107.746 118.019C107.746 109.925 101.185 103.364 93.091 103.364C84.997 103.364 78.436 109.925 78.436 118.019C78.436 126.113 84.997 132.674 93.091 132.674Z" fill="#FFEB8D"/>
<path d="M93.091 133.174C84.735 133.174 77.936 126.376 77.936 118.019C77.936 109.662 84.734 102.864 93.091 102.864C101.448 102.864 108.246 109.662 108.246 118.019C108.246 126.376 101.447 133.174 93.091 133.174ZM93.091 103.864C85.286 103.864 78.936 110.214 78.936 118.019C78.936 125.824 85.286 132.174 93.091 132.174C100.896 132.174 107.246 125.824 107.246 118.019C107.246 110.214 100.896 103.864 93.091 103.864Z" fill="black"/>
<path d="M103.296 84.708C103.296 78.735 106.217 73.444 110.709 70.187C104.589 73.04 100.347 79.246 100.347 86.443C100.347 101.167 117.077 109.453 128.784 100.964C117.014 106.448 103.296 97.889 103.296 84.708Z" fill="#79E1CF"/>
<path d="M138.891 87.722C140.556 77.964 133.995 68.703 124.236 67.038C114.477 65.373 105.217 71.934 103.552 81.693C101.887 91.452 108.448 100.712 118.207 102.377C127.965 104.042 137.226 97.481 138.891 87.722Z" fill="#E5F6FF"/>
<path d="M139.646 84.708C139.646 74.548 131.38 66.283 121.221 66.283C115.075 66.283 108.685 70.365 106.163 72.569C102.295 75.949 99.847 80.916 99.847 86.444C99.847 96.604 108.113 104.869 118.272 104.869C126.907 104.869 139.646 97.393 139.646 84.708ZM100.847 86.443C100.847 81.331 103.06 76.726 106.578 73.536C96.658 86.506 107.474 105.328 123.883 102.941C112.609 106.785 100.847 98.354 100.847 86.443ZM121.221 102.133C111.613 102.133 103.796 94.316 103.796 84.708C103.796 75.1 111.613 67.283 121.221 67.283C130.829 67.283 138.646 75.1 138.646 84.708C138.646 94.316 130.829 102.133 121.221 102.133Z" fill="black"/>
<path d="M121.318 99.43C129.412 99.43 135.973 92.869 135.973 84.775C135.973 76.681 129.412 70.12 121.318 70.12C113.224 70.12 106.663 76.681 106.663 84.775C106.663 92.869 113.224 99.43 121.318 99.43Z" fill="#79E1CF"/>
<path d="M121.318 99.93C112.962 99.93 106.163 93.132 106.163 84.775C106.163 76.418 112.961 69.62 121.318 69.62C129.675 69.62 136.473 76.418 136.473 84.775C136.473 93.132 129.674 99.93 121.318 99.93ZM121.318 70.62C113.513 70.62 107.163 76.97 107.163 84.775C107.163 92.58 113.513 98.93 121.318 98.93C129.123 98.93 135.473 92.58 135.473 84.775C135.473 76.97 129.123 70.62 121.318 70.62Z" fill="black"/>
<path d="M78.5401 65.674C78.5401 56.938 84.7971 49.663 93.0741 48.086C83.2211 48.128 75.2471 56.128 75.2471 65.99C75.2471 77.219 85.4711 85.684 96.5221 83.578C94.1642 83.5888 91.8274 83.1336 89.6459 82.2387C87.4645 81.3437 85.4813 80.0265 83.8104 78.3629C82.1395 76.6992 80.8137 74.7218 79.9093 72.5443C79.0048 70.3667 78.5395 68.0319 78.5401 65.674Z" fill="#D2CFFF"/>
<path d="M99.9751 83.228C109.67 81.278 115.95 71.84 114 62.145C112.05 52.45 102.61 46.17 92.9161 48.12C83.2211 50.07 76.9421 59.509 78.8921 69.203C80.8421 78.898 90.2811 85.178 99.9751 83.228Z" fill="#9292DD"/>
<path d="M114.85 65.674C114.85 55.526 106.594 47.269 96.4451 47.269C81.7111 47.269 74.7471 56.461 74.7471 65.99C74.7471 76.138 83.0031 84.395 93.1521 84.395C107.886 84.395 114.85 75.203 114.85 65.674ZM75.7471 65.99C75.7471 58.257 80.8171 51.685 87.8081 49.425C82.0021 52.524 78.0411 58.645 78.0411 65.674C78.0411 73.94 83.5181 80.95 91.0331 83.267C82.4331 82.218 75.7471 74.87 75.7471 65.99ZM96.4451 83.078C86.8481 83.078 79.0401 75.27 79.0401 65.673C79.0401 56.076 86.8481 48.268 96.4451 48.268C106.042 48.268 113.85 56.076 113.85 65.673C113.85 75.27 106.042 83.078 96.4451 83.078Z" fill="black"/>
<path d="M96.4641 80.445C104.558 80.445 111.119 73.884 111.119 65.79C111.119 57.696 104.558 51.135 96.4641 51.135C88.3701 51.135 81.8101 57.696 81.8101 65.79C81.8101 73.884 88.3701 80.445 96.4641 80.445Z" fill="#D2CFFF"/>
<path d="M96.4641 80.944C88.1081 80.944 81.3091 74.146 81.3091 65.789C81.3091 57.432 88.1091 50.634 96.4641 50.634C104.82 50.634 111.619 57.432 111.619 65.789C111.619 74.146 104.821 80.944 96.4641 80.944ZM96.4641 51.634C88.6591 51.634 82.3091 57.984 82.3091 65.789C82.3091 73.594 88.6591 79.944 96.4641 79.944C104.269 79.944 110.619 73.594 110.619 65.789C110.619 57.984 104.269 51.634 96.4641 51.634Z" fill="black"/>
</svg>
