<svg width="37" height="36" viewBox="0 0 37 36" fill="none" xmlns="http://www.w3.org/2000/svg">
<rect x="0.66658" width="36" height="36" rx="18" fill="#E3E8EF"/>
<path d="M16.8292 24.1426L17.3162 25.238C17.461 25.564 17.6973 25.8411 17.9964 26.0355C18.2956 26.2299 18.6447 26.3334 19.0014 26.3333C19.3582 26.3334 19.7073 26.2299 20.0064 26.0355C20.3055 25.8411 20.5418 25.564 20.6866 25.238L21.1736 24.1426C21.347 23.7539 21.6387 23.4299 22.007 23.2167C22.3776 23.0029 22.8064 22.9118 23.232 22.9565L24.4236 23.0833C24.7784 23.1209 25.1364 23.0547 25.4542 22.8928C25.7721 22.7309 26.0361 22.4803 26.2144 22.1713C26.3929 21.8625 26.4779 21.5086 26.4592 21.1524C26.4404 20.7962 26.3187 20.4532 26.1088 20.1648L25.4033 19.1954C25.152 18.8476 25.0178 18.429 25.0199 18C25.0199 17.5722 25.1554 17.1553 25.407 16.8093L26.1125 15.8398C26.3224 15.5515 26.4441 15.2084 26.4629 14.8522C26.4816 14.4961 26.3966 14.1421 26.2181 13.8333C26.0398 13.5244 25.7758 13.2737 25.4579 13.1119C25.1401 12.95 24.7821 12.8838 24.4274 12.9213L23.2357 13.0481C22.8101 13.0928 22.3813 13.0018 22.0107 12.788C21.6416 12.5735 21.3499 12.2478 21.1774 11.8574L20.6866 10.762C20.5418 10.436 20.3055 10.1589 20.0064 9.9645C19.7073 9.77007 19.3582 9.66661 19.0014 9.66667C18.6447 9.66661 18.2956 9.77007 17.9964 9.9645C17.6973 10.1589 17.461 10.436 17.3162 10.762L16.8292 11.8574C16.6566 12.2478 16.3649 12.5735 15.9959 12.788C15.6252 13.0018 15.1964 13.0928 14.7709 13.0481L13.5755 12.9213C13.2208 12.8838 12.8628 12.95 12.5449 13.1119C12.2271 13.2737 11.963 13.5244 11.7848 13.8333C11.6063 14.1421 11.5212 14.4961 11.54 14.8522C11.5587 15.2084 11.6804 15.5515 11.8903 15.8398L12.5959 16.8093C12.8475 17.1553 12.983 17.5722 12.9829 18C12.983 18.4278 12.8475 18.8447 12.5959 19.1907L11.8903 20.1602C11.6804 20.4485 11.5587 20.7916 11.54 21.1478C11.5212 21.5039 11.6063 21.8579 11.7848 22.1667C11.9632 22.4755 12.2273 22.726 12.5451 22.8878C12.8629 23.0497 13.2208 23.116 13.5755 23.0787L14.7672 22.9519C15.1927 22.9072 15.6215 22.9982 15.9922 23.212C16.3626 23.4259 16.6557 23.7517 16.8292 24.1426Z" stroke="var(--ion-color-text-2)" stroke-width="1.5" stroke-linecap="round" stroke-linejoin="round"/>
<path d="M18.9999 20.5C20.3806 20.5 21.4999 19.3807 21.4999 18C21.4999 16.6193 20.3806 15.5 18.9999 15.5C17.6192 15.5 16.4999 16.6193 16.4999 18C16.4999 19.3807 17.6192 20.5 18.9999 20.5Z" stroke="var(--ion-color-text-2)" stroke-width="1.5" stroke-linecap="round" stroke-linejoin="round"/>
</svg>
