<svg width="32" height="39" viewBox="0 0 32 39" fill="none" xmlns="http://www.w3.org/2000/svg">
<g clip-path="url(#clip0_822_10303)">
<path d="M20.5784 10.9776C20.578 10.9776 20.5776 10.9772 20.5776 10.9768V5.12731C20.5776 4.0845 19.6876 3.23975 18.5889 3.23975H10.963C10.435 3.23975 9.93076 3.4378 9.55768 3.79191L0.581752 12.3115C0.208677 12.6656 0 13.1457 0 13.6454V22.2054C0 23.2482 0.890017 24.093 1.98869 24.093H8.15233C9.251 24.093 10.141 23.2482 10.141 22.2054V14.1855C10.141 13.4563 10.7638 12.8651 11.5321 12.8651H18.5905C19.6889 12.8651 20.5787 12.0208 20.5792 10.9784C20.5792 10.9779 20.5788 10.9776 20.5784 10.9776Z" fill="white"/>
<path d="M30.401 13.0146H24.2374C23.1387 13.0146 22.2487 13.8594 22.2487 14.9022V22.9221C22.2487 23.6513 21.6259 24.2425 20.8576 24.2425H13.7992C12.7005 24.2425 11.8105 25.0873 11.8105 26.1301V31.9803C11.8105 33.0231 12.7005 33.8679 13.7992 33.8679H21.4251C21.9531 33.8679 22.4574 33.6683 22.8305 33.3157L31.8064 24.7962C32.1795 24.4421 32.3881 23.9619 32.3881 23.4623V14.9022C32.3881 13.8594 31.4981 13.0146 30.3995 13.0146H30.401Z" fill="white"/>
</g>
<defs>
<clipPath id="clip0_822_10303">
<rect width="32" height="39" fill="white"/>
</clipPath>
</defs>
</svg>
