<svg width="11" height="10" viewBox="0 0 11 10" fill="none" xmlns="http://www.w3.org/2000/svg">
<g id="Group">
<path id="Vector" d="M10.3 6.80015H10.216C9.95198 5.76815 9.01598 5.00015 7.89998 5.00015C6.78398 5.00015 5.84793 5.76815 5.58398 6.80015H0.699976C0.363976 6.80015 0.0999756 7.06415 0.0999756 7.40015C0.0999756 7.73615 0.363976 8.00015 0.699976 8.00015H5.58398C5.84798 9.03215 6.78398 9.80015 7.89998 9.80015C9.01598 9.80015 9.95202 9.03215 10.216 8.00015H10.3C10.636 8.00015 10.9 7.73615 10.9 7.40015C10.9 7.06415 10.636 6.80015 10.3 6.80015ZM7.90002 8.60015C7.24 8.60015 6.70002 8.06017 6.70002 7.40015C6.70002 6.74013 7.24 6.20015 7.90002 6.20015C8.56004 6.20015 9.10002 6.74013 9.10002 7.40015C9.10002 8.06017 8.56004 8.60015 7.90002 8.60015Z" fill="#9AA4B2"/>
<path id="Vector_2" d="M0.700037 3.20001H0.784077C1.04808 4.23201 1.98408 5.00001 3.10008 5.00001C4.21608 5.00001 5.15212 4.23201 5.41608 3.20001H10.3001C10.6361 3.20001 10.9001 2.93601 10.9001 2.60001C10.9001 2.26401 10.6361 2.00001 10.3001 2.00001H5.41608C5.15208 0.968012 4.21608 0.200012 3.10008 0.200012C1.98408 0.200012 1.04803 0.968012 0.784077 2.00001H0.700037C0.364037 2.00001 0.100037 2.26401 0.100037 2.60001C0.100037 2.93601 0.364037 3.20001 0.700037 3.20001ZM3.10004 1.40001C3.76006 1.40001 4.30004 1.93999 4.30004 2.60001C4.30004 3.26003 3.76006 3.80001 3.10004 3.80001C2.44002 3.80001 1.90004 3.26003 1.90004 2.60001C1.90004 1.93999 2.44002 1.40001 3.10004 1.40001Z" fill="#9AA4B2"/>
</g>
</svg>
