<svg width="17" height="16" viewBox="0 0 17 16" fill="none" xmlns="http://www.w3.org/2000/svg">
<g clip-path="url(#clip0_8856_40460)">
<path d="M6.89337 5.99998C7.05011 5.55442 7.35948 5.17872 7.76668 4.9394C8.17388 4.70009 8.65264 4.61261 9.11816 4.69245C9.58368 4.7723 10.0059 5.01433 10.3101 5.37567C10.6143 5.737 10.7807 6.19433 10.78 6.66665C10.78 7.99998 8.78004 8.66665 8.78004 8.66665M8.83337 11.3333H8.84004M15.5 7.99998C15.5 11.6819 12.5153 14.6666 8.83337 14.6666C5.15148 14.6666 2.16671 11.6819 2.16671 7.99998C2.16671 4.31808 5.15148 1.33331 8.83337 1.33331C12.5153 1.33331 15.5 4.31808 15.5 7.99998Z" stroke="#9AA4B2" stroke-width="1.33333" stroke-linecap="round" stroke-linejoin="round"/>
</g>
<defs>
<clipPath id="clip0_8856_40460">
<rect width="16" height="16" fill="white" transform="translate(0.833374)"/>
</clipPath>
</defs>
</svg>
