<svg width="90" height="36" viewBox="0 0 90 36" fill="none" xmlns="http://www.w3.org/2000/svg">
<path d="M6.10577 34.4915C5.26715 34.4915 4.54611 34.1949 3.94271 33.6018C3.3393 32.9983 3.0376 32.2722 3.0376 31.4233C3.0376 30.5847 3.3393 29.8688 3.94271 29.2756C4.54611 28.6722 5.26715 28.3705 6.10577 28.3705C6.94443 28.3705 7.66543 28.6722 8.26887 29.2756C8.87226 29.8688 9.17398 30.5847 9.17398 31.4233C9.17398 31.9858 9.03077 32.5023 8.74443 32.9728C8.46827 33.433 8.1001 33.8012 7.63987 34.0773C7.17965 34.3534 6.66827 34.4915 6.10577 34.4915ZM19.9049 20.2091V34.2H15.318V2.78186H19.8435V14.4716H20.135C20.6873 13.2034 21.531 12.1961 22.6663 11.4495C23.8015 10.7029 25.2845 10.3296 27.1152 10.3296C28.731 10.3296 30.1424 10.662 31.3493 11.3268C32.5663 11.9915 33.5072 12.9836 34.172 14.3029C34.847 15.612 35.1845 17.2483 35.1845 19.212V34.2H30.5975V19.7643C30.5975 18.0358 30.1527 16.6961 29.2629 15.7449C28.3731 14.7836 27.1356 14.3029 25.5504 14.3029C24.4663 14.3029 23.4947 14.533 22.6356 14.9932C21.7868 15.4534 21.1169 16.1284 20.6259 17.0182C20.1453 17.8978 19.9049 18.9614 19.9049 20.2091ZM56.2321 24.4279V10.6364H60.8343V34.2H56.3243V30.1194H56.0787C55.5366 31.3773 54.6675 32.4256 53.4709 33.2643C52.2843 34.0927 50.8065 34.5069 49.0371 34.5069C47.5237 34.5069 46.1838 34.1745 45.0181 33.5097C43.8621 32.8347 42.9521 31.8375 42.2871 30.5182C41.6327 29.1989 41.3054 27.5677 41.3054 25.6245V10.6364H45.8925V25.0722C45.8925 26.6779 46.3371 27.9563 47.2271 28.9074C48.117 29.8586 49.2726 30.3341 50.6942 30.3341C51.5532 30.3341 52.4071 30.1194 53.256 29.6898C54.1153 29.2603 54.8259 28.6108 55.3886 27.7415C55.961 26.8722 56.2425 25.7677 56.2321 24.4279ZM67.3658 34.2V2.78186H71.9529V14.4563H72.2291C72.4947 13.9654 72.8785 13.3978 73.3796 12.7534C73.8807 12.1091 74.5763 11.5466 75.4658 11.0659C76.3557 10.575 77.5319 10.3296 78.9942 10.3296C80.8964 10.3296 82.5942 10.8103 84.0875 11.7716C85.5807 12.733 86.7518 14.1188 87.6007 15.929C88.4597 17.7393 88.8891 19.9177 88.8891 22.4643C88.8891 25.0108 88.4647 27.1944 87.6158 29.0148C86.7669 30.825 85.6013 32.2211 84.1181 33.2029C82.6352 34.1745 80.9425 34.6603 79.0403 34.6603C77.6085 34.6603 76.4375 34.4199 75.5274 33.9393C74.6274 33.4585 73.9214 32.896 73.4102 32.2518C72.8987 31.6074 72.5052 31.0347 72.2291 30.5336H71.8453V34.2H67.3658ZM71.8608 22.4182C71.8608 24.075 72.1013 25.5273 72.5819 26.775C73.0625 28.0228 73.758 28.9995 74.6681 29.7052C75.5785 30.4006 76.6931 30.7483 78.0125 30.7483C79.383 30.7483 80.5285 30.3853 81.4487 29.6591C82.3692 28.9228 83.0647 27.9256 83.5352 26.6677C84.0158 25.4097 84.2563 23.9932 84.2563 22.4182C84.2563 20.8637 84.0209 19.4677 83.5507 18.2302C83.0903 16.9927 82.3947 16.0159 81.4641 15.3C80.5436 14.5841 79.3931 14.2262 78.0125 14.2262C76.683 14.2262 75.558 14.5688 74.6375 15.254C73.7274 15.9393 73.0369 16.8955 72.5664 18.1228C72.0959 19.35 71.8608 20.7819 71.8608 22.4182Z" fill="#B84794"/>
</svg>
