<svg width="200" height="200" viewBox="0 0 200 200" fill="none" xmlns="http://www.w3.org/2000/svg">
<g clip-path="url(#clip0_3972_45426)">
<path d="M138.171 49.0184C140.06 50.4127 141.855 51.7449 143.803 53.1903C144.113 52.8347 144.452 52.4745 144.76 52.0891C148.96 46.8277 156.146 45.1448 162.239 48.0007C168.352 50.8661 171.639 57.5559 170.212 64.2251C168.841 70.6247 163.078 75.4339 156.426 75.5185C154.826 75.5388 154.47 75.9789 154.394 77.5197C154.161 82.2477 153.627 86.9604 153.365 91.6876C152.783 102.19 155.238 111.993 160.066 121.32C162.256 125.553 164.348 129.932 165.721 134.475C169.072 145.562 165.402 154.728 155.627 160.997C148.437 165.608 140.425 168.014 132.124 169.489C107.915 173.79 84.1044 172.376 60.8404 164.109C54.1721 161.739 47.9261 158.536 42.5873 153.796C37.0854 148.911 33.4986 143.006 33.0158 135.473C32.7443 131.236 34.0072 127.429 36.2699 123.955C37.9436 121.385 39.6893 118.828 41.6865 116.51C47.3754 109.906 49.5445 102.118 50.0041 93.6206C50.3187 87.8045 50.2464 81.8611 51.4743 76.22C55.7182 56.724 67.8183 44.3146 87.2998 40.1303C105.212 36.2831 122.282 39.5022 138.171 49.0184ZM134.712 150.944C132.13 151.465 129.564 152.096 126.962 152.483C122.765 153.108 118.534 153.499 114.337 154.121C106.645 155.262 98.9211 154.706 91.2101 154.634C88.4199 154.608 85.6311 154.188 82.8462 153.903C79.4969 153.561 76.1523 153.171 72.7275 152.593C71.4551 152.248 70.1992 151.805 68.9053 151.589C67.7731 151.4 66.3999 151.648 66.398 152.982C66.3968 153.841 67.2385 155.013 68.0353 155.496C69.5284 156.401 71.2331 156.995 72.9023 157.564C82.2763 160.763 91.9463 162.356 101.831 162.458C106.289 162.504 110.759 162.185 115.213 161.872C122.05 161.391 128.697 159.953 135.027 157.284C137.318 156.318 139.602 155.214 141.124 153.093C142.019 151.846 141.586 150.463 140.154 150.423C138.43 150.375 136.694 150.75 134.712 150.944ZM67.691 110.974C65.9465 113.676 63.8962 116.232 62.5155 119.109C58.5453 127.381 59.9949 135.17 66.3753 141.757C69.6237 145.11 73.4984 147.473 77.8483 149.1C84.6695 151.651 91.7944 152.452 99.0004 152.636C108.325 152.875 117.38 151.492 125.909 147.53C136.512 142.604 141.889 133.038 140.333 121.541C139.012 111.783 134.351 103.553 127.922 96.2786C126.278 94.4191 124.373 92.7524 122.417 91.2141C114.547 85.0247 105.946 83.9894 96.9449 88.3127C85.6697 93.728 76.3014 101.707 67.691 110.974ZM157.7 66.8857C156.533 66.4622 155.309 66.1495 154.208 65.5947C150.715 63.8352 148.526 60.8061 146.602 57.5391C146.342 57.0978 145.978 56.7173 145.657 56.3003C145.388 56.5275 145.29 56.581 145.236 56.6634C145.151 56.7913 145.078 56.9329 145.032 57.0789C143.668 61.3968 144.39 65.3222 147.368 68.7478C152.267 74.3835 161.414 73.9089 165.684 67.8122C165.987 67.3799 166.054 66.7828 166.142 66.5236C163.289 66.6647 160.627 66.7965 157.7 66.8857ZM69.8044 68.4328C72.1549 63.5532 75.032 59.0881 79.4967 55.8192C79.8687 55.5468 79.9003 54.8096 80.0901 54.2884C79.5013 54.2122 78.7643 53.8731 78.3503 54.1067C76.8176 54.9717 75.2908 55.9049 73.9429 57.0296C68.5551 61.525 64.9144 67.3095 62.01 73.6062C61.1554 75.4589 61.6943 77.1755 63.2739 77.8042C64.9668 78.4779 66.4205 77.5495 67.1304 75.5006C67.9289 73.1957 68.8452 70.9317 69.8044 68.4328ZM157.733 50.2553C156.487 50.4317 156.324 51.3286 157.04 51.9834C158.221 53.0636 159.607 53.9639 161.025 54.7147C161.47 54.9505 162.299 54.463 162.952 54.3065C162.71 53.6709 162.652 52.7547 162.192 52.4528C160.877 51.5907 159.398 50.9783 157.733 50.2553ZM83.5657 53.3899C83.986 52.895 84.4064 52.4001 84.8268 51.9052C84.4197 51.5945 83.993 51.0124 83.6105 51.0401C83.1008 51.077 82.6256 51.5883 82.1356 51.8958C82.5358 52.394 82.936 52.8921 83.5657 53.3899Z" fill="#AA017D"/>
<path d="M159.681 35.8634C158.962 40.0698 155.535 42.5073 151.836 41.5731C148.08 40.6245 146.013 36.8658 147.25 33.2313C148.232 30.3458 151.255 28.5195 154.248 29.0028C157.542 29.5348 159.627 32.1126 159.681 35.8634ZM156.908 32.6745C156.46 32.1851 156.012 31.6958 155.593 31.2378C155.375 32.9573 155.517 34.5957 154.909 35.8774C154.261 37.2416 152.902 38.2682 151.638 39.6832C152.398 39.7819 153.018 39.9663 153.622 39.9232C156.37 39.7266 159.13 36.0692 156.908 32.6745ZM149.106 33.6931C149.172 34.0163 149.237 34.3394 149.302 34.6625C149.609 34.5278 150.085 34.4719 150.191 34.244C150.519 33.5352 150.708 32.7613 150.951 32.0126C150.728 31.9114 150.505 31.8101 150.282 31.7089C149.912 32.291 149.541 32.8731 149.106 33.6931Z" fill="#A8067C"/>
<path d="M67.7599 110.887C76.3014 101.707 85.6697 93.728 96.9449 88.3127C105.946 83.9894 114.547 85.0247 122.417 91.2141C124.373 92.7523 126.278 94.419 127.922 96.2786C134.351 103.553 139.012 111.783 140.333 121.541C141.889 133.038 136.512 142.604 125.909 147.53C117.38 151.492 108.325 152.875 99.0004 152.636C91.7944 152.452 84.6695 151.651 77.8483 149.1C73.4984 147.473 69.6237 145.11 66.3753 141.757C59.9949 135.17 58.5453 127.381 62.5155 119.109C63.8962 116.232 65.9465 113.676 67.7599 110.887ZM122.385 123.619C120.913 124.849 120.585 126.455 120.944 128.239C121.281 129.921 122.573 131.111 123.954 131.112C125.31 131.112 126.464 130.068 126.933 128.399C127.045 128.002 127.113 127.594 127.482 127.189C129.579 127.536 131.349 126.608 133.049 125.626C135.552 124.179 138.2 119.98 135.876 116.402C135.111 115.225 133.955 114.236 132.81 113.389C130.749 111.866 127.025 112.31 125.157 114.045C122.347 116.654 121.805 119.863 122.385 123.619ZM82.0411 120.531C81.5382 120.4 81.0399 120.246 80.5316 120.14C76.9425 119.392 73.0478 120.691 71.4592 123.172C68.86 127.231 69.231 133.571 72.869 137.129C75.5305 139.731 78.7607 141.126 82.2305 142.154C86.5089 143.423 90.8531 143.464 95.1852 142.648C98.2495 142.071 99.2933 139.998 97.8195 137.232C96.6577 135.052 95.1255 133.05 93.611 131.082C90.4343 126.953 87.1018 122.963 82.0411 120.531ZM114.149 131.092C111.708 132.983 111.127 136.231 112.783 138.727C114.294 141.005 117.109 141.057 118.596 138.782C119.873 136.83 119.929 134.754 118.824 132.71C117.839 130.887 116.385 130.365 114.149 131.092ZM103.608 124.069C101.826 126.383 101.735 129.275 103.381 131.246C104.859 133.016 107.218 133.02 108.6 131.178C109.97 129.353 110.104 127.33 109.146 125.284C108.029 122.901 105.962 122.398 103.608 124.069Z" fill="#FEF4FC"/>
<path d="M134.963 150.943C136.694 150.75 138.43 150.375 140.154 150.423C141.586 150.463 142.019 151.846 141.124 153.093C139.602 155.214 137.318 156.318 135.027 157.284C128.697 159.953 122.05 161.391 115.213 161.872C110.759 162.185 106.289 162.504 101.831 162.458C91.9463 162.356 82.2764 160.763 72.9023 157.564C71.2332 156.995 69.5285 156.401 68.0353 155.496C67.2386 155.013 66.3969 153.841 66.3981 152.982C66.3999 151.648 67.7732 151.4 68.9054 151.589C70.1992 151.805 71.4552 152.248 72.7002 152.777C73.1231 153.546 73.4545 154.377 74.0488 154.664C75.2546 155.248 76.5911 155.579 77.894 155.94C88.5412 158.898 99.3844 159.588 110.368 158.788C116.247 158.361 122.09 157.663 127.714 155.885C130.046 155.148 132.197 153.798 134.355 152.594C134.744 152.377 134.77 151.51 134.963 150.943Z" fill="#C01E9C"/>
<path d="M134.838 150.943C134.77 151.51 134.744 152.377 134.355 152.594C132.197 153.798 130.045 155.148 127.714 155.885C122.09 157.663 116.247 158.361 110.368 158.788C99.3844 159.588 88.5412 158.898 77.894 155.94C76.5911 155.579 75.2546 155.248 74.0488 154.664C73.4544 154.377 73.1231 153.546 72.7392 152.881C76.1523 153.171 79.4969 153.561 82.8463 153.903C85.6311 154.188 88.4199 154.608 91.2101 154.634C98.9211 154.706 106.645 155.262 114.337 154.121C118.534 153.499 122.765 153.108 126.962 152.483C129.564 152.096 132.13 151.465 134.838 150.943Z" fill="#940B76"/>
<path d="M157.832 66.907C160.627 66.7965 163.289 66.6647 166.142 66.5236C166.054 66.7829 165.987 67.3799 165.684 67.8122C161.414 73.9089 152.267 74.3835 147.368 68.7478C144.39 65.3222 143.668 61.3968 145.032 57.0789C145.078 56.9329 145.151 56.7913 145.236 56.6634C145.29 56.581 145.388 56.5275 145.657 56.3003C145.979 56.7173 146.342 57.0978 146.602 57.5391C148.526 60.8061 150.715 63.8352 154.208 65.5947C155.309 66.1495 156.533 66.4622 157.832 66.907Z" fill="#C11D9C"/>
<path d="M69.7574 68.5414C68.8453 70.9317 67.929 73.1958 67.1304 75.5006C66.4205 77.5495 64.9669 78.478 63.274 77.8042C61.6943 77.1756 61.1554 75.459 62.01 73.6062C64.9144 67.3096 68.5552 61.525 73.9429 57.0296C75.2908 55.905 76.8176 54.9717 78.3504 54.1067C78.7643 53.8732 79.5014 54.2122 80.0901 54.2884C79.9004 54.8097 79.8687 55.5469 79.4967 55.8192C75.032 59.0881 72.155 63.5532 69.7574 68.5414Z" fill="#FDF5FC"/>
<path d="M157.858 50.2615C159.398 50.9783 160.877 51.5907 162.192 52.4528C162.652 52.7547 162.71 53.6709 162.952 54.3065C162.299 54.463 161.47 54.9505 161.025 54.7147C159.607 53.9639 158.221 53.0636 157.04 51.9834C156.324 51.3286 156.487 50.4317 157.858 50.2615Z" fill="#FBEDF8"/>
<path d="M83.4509 53.3901C82.936 52.8921 82.5358 52.394 82.1356 51.8959C82.6256 51.5883 83.1008 51.077 83.6105 51.0401C83.993 51.0124 84.4197 51.5946 84.8268 51.9052C84.4064 52.4001 83.986 52.895 83.4509 53.3901Z" fill="#FBE1F6"/>
<path d="M156.974 32.7713C159.13 36.0692 156.37 39.7265 153.622 39.9231C153.018 39.9663 152.398 39.7819 151.638 39.6832C152.902 38.2681 154.261 37.2416 154.909 35.8774C155.517 34.5956 155.375 32.9573 155.593 31.2378C156.012 31.6958 156.46 32.1851 156.974 32.7713Z" fill="#C11C9B"/>
<path d="M149.139 33.5742C149.542 32.8731 149.912 32.291 150.282 31.7089C150.505 31.8101 150.728 31.9113 150.951 32.0126C150.708 32.7612 150.519 33.5352 150.191 34.244C150.085 34.4718 149.609 34.5278 149.302 34.6625C149.237 34.3394 149.172 34.0162 149.139 33.5742Z" fill="#F9D6F2"/>
<path d="M82.1573 120.571C87.1018 122.963 90.4343 126.953 93.611 131.082C95.1254 133.05 96.6577 135.052 97.8195 137.232C99.2933 139.998 98.2495 142.071 95.1852 142.648C90.8531 143.464 86.5089 143.423 82.2305 142.154C78.7607 141.126 75.5305 139.731 72.869 137.129C69.231 133.571 68.8599 127.231 71.4592 123.172C73.0478 120.691 76.9425 119.392 80.5316 120.14C81.0398 120.246 81.5382 120.4 82.1573 120.571Z" fill="#FEE5F8"/>
<path d="M122.5 123.442C121.805 119.863 122.347 116.654 125.157 114.045C127.025 112.31 130.749 111.866 132.81 113.389C133.955 114.236 135.111 115.225 135.876 116.402C138.2 119.98 135.552 124.179 133.049 125.626C131.349 126.608 129.579 127.536 127.312 127.069C126.658 123.696 125.187 122.585 122.5 123.442Z" fill="#FEE5F8"/>
<path d="M114.254 131.034C116.385 130.365 117.839 130.887 118.824 132.71C119.929 134.754 119.873 136.83 118.596 138.782C117.109 141.057 114.294 141.005 112.783 138.727C111.127 136.231 111.708 132.983 114.254 131.034Z" fill="#9B3B79"/>
<path d="M103.691 123.988C105.962 122.398 108.029 122.901 109.146 125.284C110.104 127.33 109.97 129.353 108.601 131.178C107.218 133.02 104.859 133.016 103.381 131.246C101.735 129.275 101.826 126.383 103.691 123.988ZM104.033 126.061C103.682 127.163 104.064 128.02 105.177 128.14C105.722 128.199 106.587 127.7 106.851 127.209C107.064 126.81 106.779 125.857 106.392 125.483C105.621 124.736 104.776 125.049 104.033 126.061Z" fill="#9A407A"/>
<path d="M122.443 123.53C125.187 122.585 126.658 123.696 127.172 127.07C127.113 127.594 127.045 128.002 126.933 128.399C126.464 130.068 125.31 131.112 123.954 131.112C122.573 131.111 121.281 129.921 120.944 128.239C120.585 126.455 120.913 124.849 122.443 123.53ZM122.273 125.703C121.925 126.543 122 127.333 122.948 127.591C123.372 127.707 124.141 127.449 124.379 127.103C124.616 126.759 124.533 125.72 124.328 125.638C123.77 125.414 123.074 125.534 122.273 125.703Z" fill="#9A417B"/>
<path d="M104.08 125.957C104.776 125.049 105.621 124.736 106.392 125.483C106.779 125.857 107.064 126.81 106.851 127.209C106.587 127.7 105.722 128.199 105.177 128.14C104.064 128.02 103.682 127.163 104.08 125.957Z" fill="#F8EBF5"/>
<path d="M122.353 125.611C123.074 125.534 123.77 125.414 124.328 125.638C124.533 125.72 124.616 126.759 124.379 127.103C124.141 127.449 123.372 127.707 122.948 127.591C122 127.333 121.925 126.543 122.353 125.611Z" fill="#F8E8F4"/>
</g>
<defs>
<clipPath id="clip0_3972_45426">
<rect width="200" height="200" fill="white"/>
</clipPath>
</defs>
</svg>
