<svg width="50" height="50" viewBox="0 0 50 50" fill="none" xmlns="http://www.w3.org/2000/svg">
<g clip-path="url(#clip0_2401_28440)">
<path d="M49.9994 24.9997C49.9994 11.1927 38.8067 0 24.9997 0C11.1927 0 0 11.1927 0 24.9997C0 38.8067 11.1927 49.9994 24.9997 49.9994C38.8067 49.9994 49.9994 38.8067 49.9994 24.9997Z" fill="#9B3678"/>
<path d="M34.2641 16.0386C29.1142 10.8887 20.7662 10.8887 15.6163 16.0386C10.4665 21.1885 10.4727 29.5302 15.6226 34.6801C20.7724 39.83 29.1142 39.8238 34.2579 34.6801C39.4016 29.5364 39.4078 21.1823 34.2641 16.0386ZM17.6396 32.6631C13.6055 28.6289 13.6086 22.0929 17.6396 18.0619C21.6706 14.0308 28.2067 14.0277 32.2408 18.0619C36.275 22.096 36.275 28.6289 32.2408 32.6631C28.2067 36.6972 21.6706 36.6941 17.6396 32.6631Z" fill="white" fill-opacity="0.4"/>
<path fill-rule="evenodd" clip-rule="evenodd" d="M17.0182 6.23678C19.5298 5.19476 22.2218 4.65845 24.9404 4.65845C27.659 4.65845 30.3509 5.19476 32.8625 6.23678C35.3742 7.27879 37.6563 8.80609 39.5786 10.7314L40.2292 11.383C40.8703 12.0252 40.8703 13.0653 40.2292 13.7074L38.9318 15.0069C38.2892 15.6505 37.2463 15.6505 36.6037 15.0069L35.9568 14.359C34.5101 12.91 32.7926 11.7606 30.9024 10.9764C29.0122 10.1922 26.9863 9.78866 24.9404 9.78866C22.8944 9.78866 20.8685 10.1922 18.9783 10.9764C17.0881 11.7606 15.3706 12.91 13.9239 14.359L13.2771 15.0069C12.6345 15.6505 11.5916 15.6505 10.949 15.0069L9.65152 13.7074C9.01037 13.0653 9.01037 12.0252 9.65152 11.383L10.3021 10.7314C12.2244 8.80609 14.5066 7.27879 17.0182 6.23678Z" fill="white"/>
<path fill-rule="evenodd" clip-rule="evenodd" d="M4.5473 27.8197C4.90229 30.5161 5.78492 33.1163 7.14478 35.4716C8.50464 37.827 10.3152 39.8914 12.4729 41.5471C14.6306 43.2027 17.0932 44.4172 19.7203 45.1211L20.6062 45.3585C21.4837 45.5936 22.3857 45.0729 22.6208 44.1954L23.0956 42.4235C23.3307 41.546 22.81 40.644 21.9325 40.4089L21.0465 40.1715C19.0695 39.6417 17.2161 38.7278 15.5923 37.4818C13.9684 36.2357 12.6059 34.6821 11.5825 32.9095C10.5591 31.1369 9.89483 29.1801 9.62767 27.1508C9.36051 25.1215 9.49567 23.0595 10.0255 21.0824L10.2629 20.1965C10.498 19.319 9.97718 18.417 9.09967 18.1819L7.3278 17.7071C6.45029 17.472 5.54832 17.9928 5.31319 18.8703L5.07581 19.7562C4.37189 22.3832 4.1923 25.1232 4.5473 27.8197Z" fill="white"/>
<path fill-rule="evenodd" clip-rule="evenodd" d="M45.4228 27.8197C45.0678 30.5161 44.1852 33.1163 42.8253 35.4716C41.4655 37.827 39.655 39.8914 37.4973 41.5471C35.3396 43.2027 32.8769 44.4172 30.2499 45.1211L29.3639 45.3585C28.4864 45.5936 27.5845 45.0729 27.3493 44.1954L26.8746 42.4235C26.6394 41.546 27.1602 40.644 28.0377 40.4089L28.9236 40.1715C30.9007 39.6417 32.754 38.7278 34.3779 37.4818C36.0017 36.2357 37.3642 34.6821 38.3876 32.9095C39.411 31.1369 40.0753 29.1801 40.3424 27.1508C40.6096 25.1215 40.4745 23.0595 39.9447 21.0824L39.7073 20.1965C39.4722 19.319 39.9929 18.417 40.8705 18.1819L42.6423 17.7071C43.5198 17.472 44.4218 17.9928 44.6569 18.8703L44.8943 19.7562C45.5982 22.3832 45.7778 25.1232 45.4228 27.8197Z" fill="white"/>
<path fill-rule="evenodd" clip-rule="evenodd" d="M19.6906 24.0825H28.8041C28.9181 24.0825 29.0226 24.13 29.1082 24.2155L30.5526 25.698C30.8187 25.9736 30.6287 26.4393 30.2485 26.4393H21.1351C21.0211 26.4393 20.9165 26.3917 20.831 26.3062L19.3865 24.8237C19.1204 24.5482 19.3105 24.0825 19.6906 24.0825ZM19.3865 22.1154L20.831 20.6329C20.907 20.5474 21.0211 20.4999 21.1351 20.4999H30.239C30.6191 20.4999 30.8092 20.9655 30.5431 21.2411L29.1082 22.7236C29.0321 22.8091 28.9181 22.8566 28.8041 22.8566H19.6906C19.3105 22.8566 19.1204 22.391 19.3865 22.1154ZM30.5431 28.3969L29.0987 29.8794C29.0131 29.9649 28.9086 30.0124 28.7946 30.0124H19.6906C19.3105 30.0124 19.1204 29.5468 19.3865 29.2712L20.831 27.7887C20.907 27.7032 21.0211 27.6557 21.1351 27.6557H30.239C30.6191 27.6557 30.8092 28.1213 30.5431 28.3969Z" fill="white"/>
</g>
<defs>
<clipPath id="clip0_2401_28440">
<rect width="50" height="50" fill="white"/>
</clipPath>
</defs>
</svg>
