<svg width="20" height="20" viewBox="0 0 20 20" fill="none" xmlns="http://www.w3.org/2000/svg">
<path d="M6.66666 6.66669H6.67499M1.66666 4.33335L1.66666 8.06212C1.66666 8.46977 1.66666 8.67359 1.71271 8.86541C1.75353 9.03547 1.82087 9.19804 1.91226 9.34716C2.01533 9.51536 2.15945 9.65948 2.4477 9.94773L8.83823 16.3383C9.82827 17.3283 10.3233 17.8233 10.8941 18.0088C11.3962 18.1719 11.9371 18.1719 12.4392 18.0088C13.01 17.8233 13.505 17.3283 14.4951 16.3383L16.3382 14.4951C17.3283 13.5051 17.8233 13.0101 18.0088 12.4392C18.1719 11.9371 18.1719 11.3963 18.0088 10.8941C17.8233 10.3233 17.3283 9.8283 16.3382 8.83826L9.9477 2.44774C9.65945 2.15948 9.51532 2.01536 9.34713 1.91229C9.19801 1.82091 9.03543 1.75357 8.86537 1.71274C8.67356 1.66669 8.46974 1.66669 8.06209 1.66669L4.33332 1.66669C3.3999 1.66669 2.93319 1.66669 2.57667 1.84834C2.26307 2.00813 2.0081 2.2631 1.84831 2.5767C1.66666 2.93322 1.66666 3.39993 1.66666 4.33335ZM7.08332 6.66669C7.08332 6.89681 6.89678 7.08335 6.66666 7.08335C6.43654 7.08335 6.24999 6.89681 6.24999 6.66669C6.24999 6.43657 6.43654 6.25002 6.66666 6.25002C6.89678 6.25002 7.08332 6.43657 7.08332 6.66669Z" stroke="#364152" stroke-width="1.66667" stroke-linecap="round" stroke-linejoin="round"/>
</svg>
