<svg width="200" height="200" viewBox="0 0 200 200" fill="none" xmlns="http://www.w3.org/2000/svg">
<g id="Users People Rewards Someone Top Of A Podium 1">
<g id="Group">
<path id="Vector" d="M81.0419 144.019C81.1979 144.419 80.5089 144.754 79.7509 145.004C74.6149 146.695 71.5699 146.125 64.2849 146.212C60.9599 146.252 54.6609 146.039 52.7659 146.149C44.6169 146.623 31.2659 145.713 29.0949 144.934C20.7679 141.95 54.9669 140.371 71.8389 141.882C72.8449 141.972 80.2529 141.999 81.0419 144.019Z" fill="#E5F6FF"/>
<path id="Vector_2" d="M123.946 108.077C123.893 109.102 123.023 109.233 119.837 110.031C112.232 111.931 96.637 110.744 90.23 111.039C88.4723 110.972 86.7193 110.814 84.978 110.565C71.097 109.008 69.885 109.25 68.939 107.486C69.0436 107.271 69.1968 107.083 69.3864 106.936C69.5761 106.79 69.797 106.69 70.032 106.643C72.4639 106.104 74.9419 105.8 77.432 105.734C80.732 110.215 104.081 109.988 111.179 107.783C111.546 107.673 111.885 107.487 112.175 107.238C112.465 106.988 112.7 106.68 112.864 106.334C120.351 106.799 121.208 107.264 123.946 108.077Z" fill="#E5F6FF"/>
<path id="Vector_3" d="M172.586 171.447C172.586 183.84 172.538 188.662 172.543 190.547C172.543 191.647 172.794 192.02 171.968 192.26C163.931 194.591 141.768 193.72 133.613 193.783C133.244 193.783 132.876 193.662 132.507 193.652C128.716 193.552 121.82 193.552 119.194 190.881C118.747 190.426 118.92 184.83 118.907 184.369C118.742 178.153 118.588 179.569 118.926 177.321C119.245 175.202 118.804 173.621 118.996 171.334C120.708 172.038 122.534 172.422 124.385 172.467C138.543 173.714 143.814 173.124 143.835 173.124C161.59 172.886 163.908 174.032 172.586 171.447Z" fill="#E5F6FF"/>
<path id="Vector_4" d="M124.171 109.919C122.856 110.463 121.483 110.852 120.079 111.08C109.748 113.042 76.7699 112.538 68.4319 108.91C68.7017 110.775 68.6852 112.67 68.3829 114.529C68.0169 119.229 68.3039 116.519 68.4739 120.442C68.5239 121.594 68.0739 119.811 68.5959 131.092C68.6289 131.821 68.5959 134.297 68.5959 135.649C68.5959 136.149 68.7959 137.724 68.7959 140.524C72.0859 140.943 78.9149 141.454 78.8179 141.841C82.8179 143.16 82.1409 142.122 82.1409 154.495C82.2262 155.437 82.2134 156.386 82.1029 157.325C81.7199 159.196 82.4449 170.706 82.0879 174.579C81.7169 178.614 82.0339 175.843 81.9639 180.225C81.8813 180.899 81.8595 181.579 81.8989 182.257C82.0689 183.252 82.1989 190.342 82.1989 191.117C86.5989 191.487 81.6989 191.117 90.1989 191.283C103.657 191.549 89.2129 190.939 110.899 191.241C111.924 191.255 111.45 191.153 114.426 191.141C115.598 191.215 116.774 191.138 117.926 190.911C117.926 190.195 117.811 187.911 117.802 186.068C117.802 185.301 117.919 184.535 117.902 183.768C117.882 182.715 117.743 181.675 117.74 180.626C117.74 179.108 117.94 176.626 117.94 174.275C117.94 173.346 117.828 172.415 117.82 171.484C117.856 170.704 118.151 169.959 118.66 169.366C119.168 168.774 119.86 168.368 120.625 168.214C121.587 168.014 122.541 167.793 123.506 167.563C124.152 152.781 123.138 123.163 124.112 113.332C124.18 112.689 124.171 113.859 124.171 109.919Z" fill="#E5F6FF"/>
<path id="Vector_5" d="M81.2553 145.431C81.3392 146.203 81.3137 146.983 81.1793 147.748C81.0173 149.505 81.4383 149.826 81.1983 152.174C81.0833 153.299 81.2553 155.674 81.0783 157.018C80.9329 159.16 80.8995 161.309 80.9783 163.454C81.4673 175.911 80.5393 169.361 81.2013 189.508C81.2513 191.014 81.5013 191.827 80.4413 192.172C73.0333 194.592 69.3753 193.194 60.3673 193.528C53.3783 193.787 37.2363 193.517 37.1353 193.513C35.3583 193.453 27.6203 192.33 27.5473 190.325C27.3218 185.404 27.3969 180.473 27.7723 175.56C27.8723 171.052 27.2793 177.117 27.2793 145.06C27.7933 144.87 27.0223 145.724 30.5273 146.216C36.9283 146.914 43.3614 147.276 49.8003 147.299C50.9393 147.282 52.0743 147.099 53.2133 147.07C56.6803 146.97 73.6823 147.725 77.8403 146.48C78.9673 146.143 80.0923 145.787 81.2553 145.431Z" fill="#E5F6FF"/>
<path id="Vector_6" d="M158.07 143.114C159.389 149.352 157.964 153.777 152.719 158.014C151.198 159.252 149.369 160.053 147.427 160.331C128.32 164.181 123.533 138.498 139.866 132.705C142.377 131.682 145.144 131.466 147.783 132.085C150.423 132.705 152.804 134.131 154.597 136.165C156.551 137.989 157.784 140.456 158.07 143.114Z" fill="var(--ion-color-light)59E"/>
<path id="Vector_7" d="M153.79 144.049C154.39 147.399 153.607 149.872 152.315 151.489C151.565 152.793 150.459 153.856 149.126 154.553C147.597 155.465 145.852 155.953 144.072 155.968C139.877 155.581 136.737 154.344 135.033 149.836C133.766 146.482 134.648 143.405 136.352 140.612C139.2 135.941 148.077 134.512 151.798 139.923C152.941 141.011 153.649 142.477 153.79 144.049Z" fill="var(--ion-color-light)BD4"/>
<path id="Vector_8" d="M150.158 149.286C148.314 150.008 145.753 148.056 144.611 149.761C142.804 152.13 142.794 152.467 142.101 152.32C141.292 148.841 141.587 148.667 140.612 148.379C137.135 147.352 137.323 147.199 137.864 146.661C138.518 146.163 139.211 145.719 139.936 145.334C141.436 144.558 140.565 143.013 141.789 140.468C142.726 140.607 143.592 141.051 144.251 141.731C145.492 142.702 144.634 142.531 148.851 141.221C150.077 140.843 148.457 144.447 148.173 145.362C147.946 146.111 149.758 147.818 150.158 149.286Z" fill="var(--ion-color-light)59E"/>
<path id="Vector_9" d="M126.936 62.8691C128.865 68.3691 126.485 73.1081 123.32 78.0321C119.72 83.6271 113.259 87.2681 107.952 83.2321C112.299 79.8841 109.943 79.9931 111.81 80.7221C117.245 82.8441 125.747 70.5351 123.45 64.1531C121.95 59.9801 116.729 60.9181 117.164 64.2961C117.328 65.5751 119.432 66.6961 120.028 65.5031C120.274 65.0101 120.164 64.7781 119.581 64.6121L119.16 64.9021C117.16 64.4141 118.86 61.8021 120.66 62.7311C125.006 64.9751 121.515 70.7981 116.352 68.0131C115.692 67.6571 115.927 67.5031 116.444 64.0771C117.282 58.5291 116.358 58.1771 118.487 57.4291C119.251 57.168 120.067 57.0928 120.866 57.2099C121.665 57.3269 122.425 57.6328 123.082 58.1021C125.289 59.6621 126.02 60.2541 126.936 62.8691Z" fill="var(--ion-color-light)59E"/>
<path id="Vector_10" d="M113.157 45.1929C119.774 46.5089 120.157 48.6869 119.057 52.5639C118.207 55.5639 114.131 54.5909 114.371 55.7639C114.544 56.6069 116.342 56.7399 115.919 58.2909C115.678 59.1759 115.434 69.0459 113.181 74.4799C111.303 78.5812 108.005 81.8654 103.896 83.7269C101.025 85.1149 93.6031 85.0869 100.449 86.3209C99.5761 102.336 98.4191 97.6859 110.249 102.526C110.728 102.726 111.709 103.006 111.797 103.326C112.066 105.667 84.4351 106.57 79.0611 103.418C77.9451 102.627 82.2001 101.718 82.9841 101.443C91.1411 98.5789 90.9701 99.3549 91.3451 94.2639C92.0451 84.7769 90.7331 86.8639 92.8691 85.7639C93.3781 85.5019 93.2151 84.9209 92.2691 84.6849C76.2691 80.6949 79.4561 62.3309 79.6041 56.5779C79.6331 55.4549 80.1671 55.2849 81.8111 54.0839C81.8981 52.9909 81.4741 53.5189 79.4781 52.8649C78.8243 52.677 78.2315 52.3203 77.7594 51.8305C77.2874 51.3407 76.9527 50.7352 76.7891 50.0749C77.0361 46.4659 76.1691 43.8519 90.5071 43.4829C98.099 43.0944 105.71 43.669 113.157 45.1929Z" fill="var(--ion-color-light)59E"/>
<path id="Vector_11" d="M111.948 106.22C110.919 108.591 87.348 110.062 79.311 106.142C77.989 105.497 78.089 105.408 78.18 104.009C78.182 103.985 78.19 103.962 78.2032 103.942C78.2164 103.922 78.2344 103.905 78.2555 103.894C78.2767 103.883 78.3004 103.877 78.3244 103.877C78.3484 103.877 78.372 103.883 78.393 103.895C84.313 107.422 105.424 106.934 111.904 104.695C112.333 104.547 112.1 105.79 111.948 106.22Z" fill="var(--ion-color-light)59E"/>
<path id="Vector_12" d="M104.978 61.1333C106.235 62.6868 106.946 64.6108 107 66.6083C106.787 70.0643 106.158 72.6083 103.129 75.1863C100.241 77.6433 98.2223 77.3183 96.4953 77.4613C81.6803 76.0733 85.3003 57.2483 96.0323 57.3993C100.823 57.4613 102.651 58.8703 104.978 61.1333Z" fill="var(--ion-color-light)BD4"/>
<path id="Vector_13" d="M99.6771 61L99.3281 73.537H95.2281C95.2281 65.765 96.5841 64.965 93.3941 66.737C92.6682 65.9969 92.0881 65.1268 91.6841 64.172C95.5931 60.792 95.9571 60.617 96.8291 60.689C99.9291 60.945 98.9701 60.777 99.6771 61Z" fill="var(--ion-color-light)59E"/>
<path id="Vector_14" d="M79.8199 78.4755C80.4309 78.2475 79.9199 77.8755 82.9999 81.5485C70.0309 89.5575 57.0369 57.1485 73.6289 54.0205C74.3172 53.9577 75.0109 54.0468 75.6609 54.2815C76.9169 54.7362 77.9534 55.6508 78.5609 56.8405L78.6519 56.7515C78.3649 63.1725 78.6089 64.7515 76.8829 65.3865C76.2139 65.6966 75.4778 65.834 74.742 65.7861C74.0062 65.7383 73.2941 65.5066 72.6709 65.1125C72.2736 64.9145 71.9131 64.65 71.6049 64.3305C69.6619 61.5665 72.7829 58.8055 74.6689 59.4705C75.2689 59.6805 76.5429 61.3255 74.6329 61.9385L74.1089 61.4385C73.9429 61.5625 73.6209 61.6875 73.6089 61.8385C73.4489 63.9455 77.2529 62.8915 76.5909 60.4675C76.0999 58.6915 74.8999 57.8905 73.0749 58.4995C67.4749 60.3735 69.2479 69.1995 73.0939 75.0375C74.7229 77.5135 77.0569 79.5055 79.8199 78.4755Z" fill="var(--ion-color-light)59E"/>
<path id="Vector_15" d="M59.9082 115.745C61.3602 122.593 59.2982 127.057 54.2892 130.832C52.8278 131.965 51.0956 132.698 49.2642 132.956C43.9702 134.062 41.1642 132.81 37.9422 131.056C36.4496 130.195 35.206 128.962 34.3332 127.476C24.5492 112 44.7392 96.6379 56.3892 108.748C58.3661 110.581 59.6155 113.065 59.9082 115.745Z" fill="var(--ion-color-light)59E"/>
<path id="Vector_16" d="M54.1522 124.122C53.398 125.427 52.2882 126.491 50.9522 127.19C49.424 128.102 47.6798 128.589 45.9002 128.6C31.9332 127.3 34.1652 109.61 46.2722 109.015C54.3352 108.622 58.4382 118.741 54.1522 124.122Z" fill="var(--ion-color-light)BD4"/>
<path id="Vector_17" d="M51.9933 121.9C51.79 121.991 51.5731 122.049 51.3513 122.071C47.9043 121.744 47.3513 121.255 46.4973 122.335C44.3373 125.07 43.9663 126.618 43.3973 122.36C43.1443 120.465 41.7693 121.26 39.3223 119.797C40.1423 118.335 42.4223 118.402 42.7423 116.569C43.3063 113.34 43.1253 114.252 43.6643 113.092C46.0523 113.317 46.1503 115.723 48.0873 114.686C48.9197 114.322 49.7877 114.046 50.6773 113.862C50.8313 113.859 50.9847 113.883 51.1303 113.934C51.0681 115.208 50.7173 116.451 50.1043 117.569C49.6123 118.939 51.5203 120.135 51.9933 121.9Z" fill="var(--ion-color-light)59E"/>
<path id="Vector_18" d="M165.057 172.016C168.412 171.838 175.176 170.438 171.436 169.135C163.499 166.371 119.518 166.67 119.473 170.064C123.058 172.896 147.486 172.1 152.02 172.134C158.358 172.182 160.464 172.26 165.057 172.016Z" fill="#E5F6FF"/>
<path id="Vector_19" d="M173.633 170.52C173.65 170.999 173.693 171.477 173.761 171.952C173.725 174.829 173.345 175.089 173.677 176.975C173.877 178.096 173.507 178.112 173.643 180.59C173.77 182.907 173.457 183.134 173.563 187.066C173.799 188.439 173.843 189.838 173.691 191.223C173.682 191.694 173.525 192.15 173.243 192.528C172.962 192.905 172.569 193.185 172.12 193.329C166.004 195.47 132.52 195.069 126.062 194.424C125.517 194.37 124.984 194.169 124.438 194.1C120.404 193.589 119.011 191.826 118.207 191.994C116.297 192.227 114.372 192.309 112.449 192.238C111.969 192.251 111.491 192.347 111.009 192.365C110.982 192.365 112.239 192.114 94.0441 192.537C90.7125 192.32 87.3716 192.284 84.0361 192.43C83.1601 192.449 82.1971 191.89 81.4611 192.723C80.9701 193.278 80.2141 193.311 79.5661 193.565C74.7431 195.449 63.6661 194.115 58.2011 194.78C57.9541 194.843 40.9541 194.942 34.5691 194.3C32.2051 194.062 26.6591 192.847 26.5691 190.469C26.3921 185.914 26.4321 176.977 26.6601 176.284C26.8681 175.649 26.0721 158.693 26.4241 147.376C26.4701 145.876 25.4761 143.233 29.2101 142.229C38.7481 139.664 61.1761 140.614 67.5541 140.614C67.6031 139.529 67.2871 125.27 67.2721 124.19C67.2221 120.49 67.4271 119.668 67.0891 117.935C67.0111 117.535 67.1841 114.61 67.1891 114.589C67.3981 112.021 67.6631 111.516 67.3681 109.956C66.3871 104.775 71.0621 105.342 77.3981 104.556C77.3981 101.392 78.6321 102.109 88.9241 98.3419C90.5501 97.7469 90.2121 95.4589 90.4681 89.4969C90.7471 82.9969 90.1131 86.7579 84.9001 82.1539C84.2001 81.5359 84.8421 82.4298 80.8371 83.5598C71.9171 86.0788 64.8671 73.4089 64.7611 63.8739C64.9236 61.8591 65.4665 59.8934 66.3611 58.0809C67.4611 55.6429 68.4461 55.1329 71.0971 53.6729C74.0101 52.0729 77.3141 53.2119 78.2381 54.7009L78.6851 54.4439C78.5501 52.5799 74.6691 53.4649 76.0331 47.1659C76.1378 46.6941 76.3441 46.2509 76.6377 45.8671C76.9313 45.4833 77.3052 45.1682 77.7331 44.9439C78.1343 44.6779 78.5489 44.4326 78.9751 44.2089C85.6921 41.5029 116.455 41.4829 120.108 47.6899C120.549 48.5576 120.697 49.545 120.529 50.5039C120.258 53.0319 119.771 54.6529 117.469 55.6299C117.212 57.3499 117.223 56.5889 117.869 56.4239C118.904 56.0717 120.008 55.9663 121.091 56.1159C122.593 56.4326 123.972 57.178 125.059 58.2619C125.951 58.9568 126.696 59.8218 127.251 60.8068C127.807 61.7917 128.161 62.877 128.294 63.9999C129.26 69.8379 127.505 73.0119 124.472 78.1239C121.612 82.9449 115.886 87.3059 110.372 85.5919C108.987 85.1222 107.684 84.4386 106.51 83.5659C102.378 85.4839 101.628 85.7309 101.445 87.2719C101.384 87.7859 100.959 93.8388 100.959 96.1278C100.959 98.8819 101.859 98.5559 108.3 100.902C113.811 102.908 112.99 102.738 113.114 105.302C125.88 106.322 125.105 107.339 125.187 110.068C125.278 113.082 124.639 128.308 124.873 132.201C124.946 133.406 124.78 134.585 124.758 135.781C124.623 142.899 124.967 143.27 124.703 146.806C124.598 148.206 125.128 154.112 124.846 162.162C124.746 164.977 124.636 165.952 124.636 167.427C135.325 166.372 146.075 166.078 156.805 166.546C157.736 166.583 158.673 166.483 159.605 166.532C160.905 166.599 163.969 166.999 164.394 166.999C167.209 167.007 173.987 167.711 173.633 170.52ZM172.543 190.542C172.543 188.662 172.586 183.842 172.586 171.447C163.9 174.031 161.693 172.885 143.835 173.119C143.814 173.119 138.543 173.709 124.385 172.462C122.536 172.417 120.711 172.033 119 171.329C118.808 173.62 119.249 175.197 118.93 177.316C118.592 179.565 118.746 178.158 118.911 184.364C118.924 184.825 118.751 190.421 119.198 190.876C121.824 193.546 128.945 193.601 132.511 193.647C132.88 193.647 133.248 193.784 133.617 193.778C139.1 193.689 164.139 194.652 171.972 192.255C172.806 192 172.545 191.657 172.543 190.542ZM165.057 172.017C168.412 171.839 175.176 170.439 171.436 169.136C163.499 166.372 119.518 166.671 119.473 170.065C123.058 172.897 147.486 172.101 152.02 172.135C158.358 172.183 160.464 172.261 165.057 172.017ZM123.32 78.0328C126.481 73.1118 128.857 68.3769 126.936 62.8699C126.024 60.2558 125.29 59.6618 123.083 58.1069C122.426 57.6378 121.666 57.3321 120.867 57.215C120.068 57.098 119.252 57.173 118.488 57.4339C116.359 58.1769 117.277 58.5339 116.445 64.0819C115.932 67.5079 115.693 67.6618 116.353 68.0178C117.058 68.473 117.874 68.7272 118.713 68.7531C119.552 68.779 120.382 68.5756 121.114 68.1649C121.484 67.9587 121.809 67.681 122.07 67.3479C122.325 66.9637 122.492 66.5279 122.558 66.0716C122.625 65.6154 122.589 65.1501 122.455 64.7091C122.32 64.2682 122.089 63.8625 121.779 63.5213C121.469 63.1802 121.087 62.9119 120.661 62.7359C118.854 61.8029 117.161 64.4198 119.161 64.9068L119.582 64.6168C120.165 64.7828 120.275 65.0169 120.029 65.5079C119.429 66.6999 117.329 65.5799 117.165 64.3009C116.73 60.9249 121.946 59.9818 123.451 64.1578C125.342 69.4068 120.408 77.3578 115.68 80.3059C114.979 80.7616 114.161 81.0041 113.325 81.0041C112.488 81.0041 111.67 80.7616 110.969 80.3059C110.079 81.3952 109.068 82.3787 107.953 83.2369C113.217 87.2369 119.687 83.6878 123.32 78.0328ZM124.171 109.92C122.856 110.463 121.483 110.853 120.079 111.081C109.748 113.043 76.7701 112.539 68.4321 108.911C68.7019 110.775 68.6854 112.67 68.3831 114.53C68.0171 119.23 68.3041 116.52 68.4741 120.443C68.5241 121.595 68.0741 119.812 68.5961 131.093C68.6291 131.822 68.5961 134.298 68.5961 135.65C68.5961 136.15 68.7961 137.725 68.7961 140.525C76.4211 141.496 73.7221 140.736 79.0751 141.837C79.0911 141.541 79.0911 141.245 79.0751 140.949C78.5061 136.276 78.5351 139.54 78.9421 132.706C79.0911 130.719 79.1201 128.726 79.0291 126.736C78.6371 122.878 79.0601 123.484 79.2391 118.312C79.3051 116.417 78.9951 115.939 79.2641 114.347L79.8581 114.456C80.1859 117.81 80.1487 121.189 79.7471 124.535C79.8251 126.875 80.1191 124.356 79.8981 132.047C79.8081 135.206 79.3801 136.4 79.5721 138.468C79.6871 139.704 80.2421 140.892 79.9151 142.179C80.7321 142.442 81.5331 142.69 81.7981 143.568C82.2447 144.892 82.3772 146.302 82.1851 147.686C81.9991 148.833 82.3291 157.324 81.9641 180.226C81.8815 180.9 81.8597 181.58 81.8991 182.258C82.0691 183.253 82.1991 190.343 82.1991 191.118C86.5991 191.488 81.6991 191.118 90.1991 191.284C103.657 191.55 89.2131 190.94 110.899 191.242C111.924 191.256 111.45 191.154 114.426 191.142C115.598 191.216 116.774 191.138 117.926 190.912C117.926 190.196 117.811 187.912 117.802 186.069C117.802 185.302 117.919 184.536 117.902 183.769C117.882 182.716 117.743 181.676 117.74 180.627C117.74 179.109 117.94 176.627 117.94 174.276C117.94 173.347 117.828 172.416 117.82 171.485C117.856 170.705 118.152 169.96 118.66 169.367C119.168 168.775 119.86 168.369 120.625 168.215C121.587 168.015 122.541 167.794 123.506 167.564C123.584 165.772 123.892 159.364 123.697 150.948C123.271 132.328 124.171 113.994 124.171 109.92ZM119.837 110.032C123.023 109.232 123.893 109.103 123.946 108.078C121.208 107.265 120.346 106.817 112.86 106.335C112.696 106.681 112.462 106.988 112.171 107.238C111.881 107.488 111.542 107.674 111.175 107.784C104.075 109.984 80.7281 110.214 77.4281 105.735C74.938 105.8 72.46 106.105 70.0281 106.644C69.7932 106.69 69.5722 106.791 69.3826 106.937C69.193 107.083 69.0398 107.271 68.9351 107.487C69.8181 109.138 71.7971 109.049 74.4591 109.387C78.3591 109.875 78.1891 109.95 79.6401 110.107C79.7401 110.118 89.9401 111.057 90.2261 111.045C96.7101 110.742 112.177 111.95 119.837 110.032ZM122.6 68.4439C121.659 69.2502 120.484 69.7338 119.248 69.8238C118.012 69.9138 116.779 69.6054 115.731 68.9439C113.231 77.8999 114.467 73.9869 111.466 79.3849C111.931 79.7128 112.473 79.9144 113.039 79.9698C113.605 80.0252 114.176 79.9325 114.695 79.7008C119.233 77.4268 122.715 70.4659 122.6 68.4439ZM119.056 52.5739C120.156 48.6879 119.769 46.5139 113.156 45.2029C105.706 43.6848 98.093 43.1189 90.5001 43.5189C87.2871 43.6049 81.0091 43.9189 78.2861 45.6519C76.8861 46.5399 76.9561 47.5829 76.7861 50.1099C76.95 50.7703 77.2848 51.3759 77.757 51.8659C78.2293 52.3558 78.8222 52.7128 79.4761 52.9009C81.4761 53.5539 81.8951 53.0269 81.8091 54.1199C80.1641 55.3199 79.6311 55.4909 79.6021 56.6129C79.4541 62.3669 76.2731 80.7319 92.2671 84.7209C93.2131 84.9569 93.3741 85.5349 92.8671 85.7989C92.4671 86.0059 91.9531 86.1989 91.6351 86.3569C91.2201 94.8749 91.7041 97.9809 89.6581 99.0048C83.2431 102.216 75.4651 102.467 80.4821 104.064C87.5231 106.305 112.068 105.741 111.795 103.356C111.618 102.709 103.395 100.218 102.285 99.7339C99.2061 98.3919 99.8371 97.5919 100.451 86.3489C93.5571 85.1319 100.925 85.1778 103.898 83.7538C108.011 81.8983 111.311 78.6124 113.183 74.5069C115.441 69.0709 115.683 59.2019 115.921 58.3189C116.334 56.7729 114.547 56.6509 114.373 55.7919C114.127 54.6259 118.214 55.5739 119.06 52.5739H119.056ZM111.944 106.22C112.096 105.786 112.157 105.326 112.123 104.868C112.076 104.1 110.439 106.268 98.4881 106.38C92.6551 106.433 82.9171 106.613 78.3801 103.91C78.3592 103.898 78.3356 103.892 78.3117 103.892C78.2877 103.892 78.2641 103.898 78.243 103.909C78.2219 103.92 78.204 103.937 78.1909 103.957C78.1778 103.977 78.17 104 78.1681 104.024C78.0881 105.447 77.9681 105.507 79.2981 106.157C87.6251 110.217 110.982 108.446 111.948 106.22H111.944ZM81.1791 147.749C81.3108 146.984 81.3363 146.204 81.2551 145.432C80.0921 145.788 78.9691 146.139 77.8411 146.481C73.6881 147.74 56.6811 146.97 53.2141 147.071C52.0751 147.104 50.9401 147.282 49.8011 147.3C43.3629 147.28 36.9303 146.919 30.5301 146.22C27.0251 145.728 27.7921 144.874 27.2821 145.064C27.2821 177.285 27.8641 171.442 27.7751 175.564C27.3712 180.475 27.2961 185.408 27.5501 190.329C27.6341 192.34 35.4831 193.445 37.1381 193.517C40.6381 193.671 37.1601 193.317 53.7071 193.766C54.9711 193.8 56.2341 193.41 57.4981 193.726C57.8771 193.821 57.4091 193.642 60.3701 193.532C68.7601 193.221 73.1351 194.542 80.4441 192.176C81.4971 191.835 81.2551 191.018 81.2041 189.512C80.9951 183.277 80.8471 155.512 81.1981 152.178C81.4461 149.819 81.0281 149.507 81.1791 147.749ZM79.7511 145.005C80.5091 144.754 81.1981 144.42 81.0421 144.02C79.2491 139.431 18.4921 141.16 29.0951 144.935C31.2101 145.688 44.3511 146.643 52.7661 146.15C54.6661 146.039 60.9601 146.25 64.2851 146.213C71.5701 146.124 74.6131 146.7 79.7511 145.005ZM83.0001 81.5489C79.9221 77.8769 80.4311 78.2488 79.8201 78.4758C77.0571 79.5058 74.7271 77.5139 73.1051 75.0438C69.2661 69.1978 67.4901 60.3829 73.0861 58.5069C74.9071 57.8959 76.1141 58.6959 76.5981 60.4709C77.2611 62.8999 73.4401 63.9569 73.6161 61.8419C73.6161 61.6929 73.9491 61.5679 74.1161 61.4419L74.6401 61.9419C76.5501 61.3299 75.2721 59.6828 74.6761 59.4739C72.7761 58.8109 69.6691 61.5739 71.6121 64.3349C71.9207 64.6532 72.2807 64.9173 72.6771 65.1158C73.2997 65.5115 74.0119 65.744 74.7481 65.7919C75.4842 65.8398 76.2205 65.7015 76.8891 65.3899C78.6161 64.7579 78.3631 63.1809 78.6581 56.7549C78.3491 57.0549 77.7281 54.7879 75.6721 54.2849C75.022 54.0503 74.3284 53.9612 73.6401 54.0239C67.0551 55.2669 62.9261 61.9138 68.0971 73.7398C72.0371 82.7528 78.5191 84.3169 83.0001 81.5489ZM80.7321 76.8299C79.132 73.4024 78.2833 69.6723 78.2431 65.8899C77.0448 66.6861 75.5921 67.0055 74.1703 66.7853C72.7485 66.5651 71.4604 65.8213 70.5591 64.6998C70.3251 66.6078 70.8191 67.7328 71.7191 70.1308C72.4547 72.4758 73.7424 74.61 75.4741 76.3538C75.9371 76.9005 76.5279 77.3244 77.1941 77.5878C77.801 77.7589 78.4405 77.7792 79.057 77.6472C79.6736 77.5151 80.2486 77.2345 80.7321 76.8299Z" fill="black"/>
<path id="Vector_20" d="M161.553 176.985C162.085 180.985 161.689 183.935 161.604 187.211C161.548 189.317 162.05 190.119 161.336 190.147C160.386 190.185 160.861 186.207 160.875 185.247C161.01 176.047 160.256 175.686 160.875 175.183C161.511 175.119 161.365 175.572 161.553 176.985Z" fill="black"/>
<path id="Vector_21" d="M159.127 142.989C160.234 148.789 159.515 153.016 154.652 157.743C153.152 159.199 149.852 161.289 147.759 161.363C145.864 161.431 139.716 163.226 133.515 157.748C131.905 156.044 130.636 154.048 129.775 151.868C126.952 145.003 130.55 133.284 142.53 130.855C145.346 130.284 151.261 131.117 154.363 134.574C158.015 138.643 158.372 139.028 159.127 142.989ZM152.719 158.015C157.965 153.779 159.394 149.351 158.07 143.115C157.78 140.455 156.544 137.989 154.587 136.165C152.794 134.131 150.413 132.706 147.773 132.086C145.134 131.466 142.367 131.682 139.856 132.705C123.399 138.548 128.503 164.142 147.416 160.33C149.362 160.056 151.196 159.255 152.719 158.015Z" fill="black"/>
<path id="Vector_22" d="M139.182 155.932C130.682 152.378 132.32 138.367 140.713 136.232C144.007 135.392 146.594 134.565 150.577 137.374C151.833 138.259 152.906 139.38 153.736 140.674C158.7 151.973 148.214 159.71 139.182 155.932ZM152.315 151.489C153.605 149.872 154.385 147.399 153.79 144.049C153.648 142.477 152.94 141.011 151.798 139.923C148.09 134.502 139.198 135.941 136.352 140.612C134.652 143.405 133.762 146.481 135.033 149.836C136.742 154.342 139.877 155.581 144.072 155.968C145.852 155.954 147.597 155.465 149.126 154.553C150.458 153.855 151.565 152.792 152.315 151.489Z" fill="black"/>
<path id="Vector_23" d="M151.019 148.642C151.11 148.843 151.148 149.064 151.129 149.284C151.111 149.504 151.036 149.716 150.911 149.899C150.787 150.081 150.619 150.229 150.421 150.328C150.223 150.427 150.004 150.473 149.783 150.463C148.445 150.495 147.109 150.33 145.818 149.973C144.011 152.241 143.829 152.801 142.983 153.273C142.827 153.38 142.647 153.449 142.459 153.472C142.27 153.496 142.079 153.473 141.901 153.407C141.724 153.34 141.565 153.232 141.438 153.091C141.311 152.95 141.219 152.78 141.172 152.597C139.801 148.085 141.96 150.122 137.287 148.169C137.125 148.1 136.98 147.995 136.865 147.862C136.75 147.728 136.668 147.57 136.624 147.399C136.58 147.229 136.576 147.05 136.613 146.878C136.649 146.706 136.725 146.544 136.834 146.406C137.479 145.621 138.287 144.985 139.201 144.542C140.054 144.113 139.779 143.949 140.464 141.173C140.864 139.552 141.872 139.188 142.526 139.511C147.284 141.859 143.171 141.642 148.621 140.267C149.996 139.92 150.665 140.967 150.321 142.167C149.997 143.291 149.573 144.386 149.165 145.576C150.621 147.732 150.673 147.71 151.019 148.642ZM148.178 145.362C148.441 144.527 150.096 140.838 148.856 141.221C144.634 142.527 145.487 142.708 144.256 141.731C143.601 141.045 142.734 140.6 141.794 140.468C140.548 143.06 141.447 144.562 139.941 145.334C139.007 145.764 138.173 146.385 137.494 147.158C138.005 147.474 137.825 147.558 140.617 148.379C141.592 148.667 141.297 148.841 142.106 152.32C143.506 152.62 144.26 148.446 146.478 149.079C147.361 149.237 149.384 149.588 150.163 149.286C150.158 148.367 147.928 146.157 148.178 145.362Z" fill="black"/>
<path id="Vector_24" d="M145.771 175.899C146.548 177.599 145.985 179.034 145.961 182.454C145.925 187.526 146.174 189.342 146.043 189.999C146.023 190.093 145.97 190.177 145.894 190.236C145.818 190.294 145.723 190.324 145.627 190.32C145.532 190.315 145.44 190.277 145.37 190.211C145.3 190.146 145.255 190.058 145.243 189.962C145.013 185.999 145.029 182.024 145.291 178.062C145.332 177.122 145.131 177.111 145.222 175.9L145.771 175.899Z" fill="black"/>
<path id="Vector_25" d="M140.359 44.0696C140.734 44.2172 141.056 44.4762 141.279 44.8118C141.503 45.1474 141.618 45.5434 141.61 45.9466C140.978 46.4466 141.26 46.4096 140.671 45.7636C140.471 45.4772 140.225 45.2253 139.944 45.0176C139.019 44.5327 137.994 44.2675 136.95 44.2426C135.029 44.1926 134.326 45.5486 132.925 47.2646C131.256 49.3096 129.581 48.0646 127.325 47.4376C125.597 46.9546 124.925 47.8776 123.955 48.2376C123.248 48.4996 123.066 47.6046 123.513 47.2896C125.853 45.6426 127.702 46.0636 130.224 47.1826C133.168 48.4876 132.464 40.7766 140.359 44.0696Z" fill="black"/>
<path id="Vector_26" d="M133.258 21.9932C133.344 22.1872 133.522 22.4142 133.519 22.6122C133.519 23.5065 133.456 24.3997 133.33 25.2852C133.022 26.6213 132.291 27.8224 131.246 28.7108C130.202 29.5991 128.899 30.1273 127.53 30.2172C122.068 30.6702 123.411 31.1762 122.339 33.3802C121.962 34.1379 121.806 34.9868 121.89 35.8292C121.903 36.2167 121.83 36.6023 121.678 36.9588C121.526 37.3153 121.297 37.6342 121.008 37.8929C120.719 38.1517 120.377 38.344 120.006 38.4566C119.635 38.5691 119.244 38.599 118.86 38.5442C117.932 38.3555 116.967 38.5264 116.16 39.0222C116.027 38.9945 115.906 38.9239 115.816 38.821C115.727 38.7182 115.673 38.5887 115.664 38.4526C115.655 38.3164 115.691 38.1811 115.766 38.0672C115.841 37.9534 115.952 37.8673 116.08 37.8222C117.891 36.8522 119.152 37.6122 120.024 37.2472C121.389 36.6772 119.939 35.9212 121.524 32.4472C121.942 31.5302 121.732 30.9212 122.558 30.3282C124.15 29.1852 126.179 29.3222 128.195 29.0282C129.34 28.8583 130.39 28.2984 131.169 27.443C131.948 26.5877 132.408 25.4894 132.47 24.3342C132.562 22.6632 132.416 22.1412 133.258 21.9932Z" fill="black"/>
<path id="Vector_27" d="M128.341 175.615L128.92 175.71C128.92 177.633 128.708 178.336 128.747 179.61C128.828 180.552 128.793 181.501 128.64 182.434C128.456 183.276 129.188 183.267 128.796 185.488C128.758 185.699 128.848 187.688 128.852 187.764C128.952 189.427 129.316 190.254 128.614 190.31C128.246 190.34 128.179 190.058 128.157 189.775C127.912 186.566 127.989 186.981 127.947 186.789C127.656 185.747 128.171 184.708 127.978 183.927C127.794 183.126 127.772 182.297 127.915 181.487C127.991 181.018 127.783 176.988 128.341 175.615Z" fill="black"/>
<path id="Vector_28" d="M119.4 6.42054C118.393 5.49154 117.294 5.98554 116.378 6.47154C108.578 10.6005 116.449 17.3345 111.202 20.6525C110.148 21.3185 110.859 20.7335 105.433 23.4935C105.296 23.5622 105.179 23.6652 105.094 23.7925C105.009 23.9197 104.958 24.0669 104.947 24.2195C104.824 24.9593 104.753 25.7068 104.736 26.4565C104.721 27.8145 106.815 30.1265 103.858 32.0565C102.818 32.7375 102.121 32.9945 102.119 34.3395C102.135 34.6103 102.071 34.8798 101.933 35.1138C101.796 35.3478 101.592 35.5356 101.348 35.6535C100.533 35.3885 100.615 35.5675 101.156 33.3985C101.697 31.2295 105.123 30.9185 104.237 28.8555C103.181 26.3975 103.57 27.0725 103.737 24.4905C103.872 22.4545 105.59 21.9505 109.95 20.0995C114.974 17.9665 108.99 12.6935 113.267 7.84154C117.448 3.09954 120.972 5.49954 119.4 6.42054Z" fill="black"/>
<path id="Vector_29" d="M117.137 49.0543C117.16 54.3103 80.3023 52.4973 79.5513 47.5253C79.4453 46.8253 80.0443 46.3543 80.6633 46.0113C81.1013 45.7693 81.2953 45.8933 81.4743 46.4773C81.3552 46.5916 81.2268 46.6956 81.0903 46.7883C79.4543 47.7363 81.9203 48.7883 84.9383 49.4823C95.6153 51.9303 118.609 51.5473 115.981 48.6013C115.781 48.3773 115.037 48.1753 115.301 47.6203C115.478 47.2983 115.766 47.3823 116.181 47.5973C116.471 47.7123 116.719 47.9139 116.89 48.1746C117.061 48.4354 117.147 48.7426 117.137 49.0543Z" fill="black"/>
<path id="Vector_30" d="M85.591 46.5386C96.019 45.4096 113.78 47.0766 113.283 48.8016C113.189 49.1286 112.883 49.2416 112.483 49.0696C108.321 47.2516 85.9269 46.2036 83.4489 48.0626C82.6639 48.6556 81.6 46.9696 85.591 46.5386Z" fill="black"/>
<path id="Vector_31" d="M111.268 160.013C111.385 177.628 112.23 167.269 111.803 182.504C111.727 185.224 111.765 185.515 110.849 185.435C110.443 183.535 111.423 182.182 110.689 171.144C110.296 165.244 110.423 146.413 110.468 144.216C110.501 142.588 110.868 142.224 110.487 140.295C109.836 136.984 110.487 135.733 110.587 132.195C110.813 124.418 110.187 126.909 110.587 121.427C111.127 114.073 110.126 114.478 111.429 114.644C112.002 121 111.574 117.287 111.299 124.386C111.235 126.024 111.677 125.675 111.56 130.186C111.403 136.232 110.736 137.086 111.469 140.65C111.661 141.581 111.146 145.674 111.402 153.098C111.426 153.72 111.251 157.517 111.268 160.013Z" fill="black"/>
<path id="Vector_32" d="M107.934 66.4243C108.318 76.3573 97.4872 82.3183 89.0442 75.5003C86.2042 73.2063 83.8562 66.4133 87.7532 60.9233C90.3652 57.2443 93.2142 56.4023 97.0852 56.4023C99.6738 56.4183 102.174 57.3447 104.148 59.0193C105.337 59.8498 106.303 60.9592 106.964 62.2503C107.624 63.5413 107.957 64.9745 107.934 66.4243ZM107.004 66.6083C106.951 64.6098 106.239 62.6849 104.978 61.1333C102.734 58.9613 100.947 57.4753 96.0322 57.4083C85.3002 57.2623 81.6802 76.0863 96.5002 77.4733C98.2272 77.3303 100.245 77.6553 103.134 75.1993C106.168 72.6183 106.788 70.0643 107 66.6083H107.004Z" fill="black"/>
<path id="Vector_33" d="M96.3753 59.7428C100.391 59.9618 100.625 59.9948 100.587 61.0248C100.087 74.3098 100.566 74.5948 99.2523 74.5558C94.1793 74.4028 94.2853 74.5239 94.3133 73.6059C94.4303 69.7859 94.4943 71.9208 94.4943 67.1718C93.6523 67.6858 93.3633 68.0149 92.7743 67.4799C91.9296 66.5997 91.2519 65.5733 90.7743 64.4508C90.6965 64.2948 90.6797 64.1154 90.7272 63.9476C90.7747 63.7798 90.8832 63.6359 91.0313 63.5438C95.9363 59.5938 95.7003 59.7058 96.3753 59.7428ZM99.3283 73.5428L99.6773 60.9998C98.9703 60.7728 99.9213 60.9378 96.8113 60.6838C95.9453 60.6138 95.5903 60.7838 91.6813 64.1668C92.0853 65.1216 92.6654 65.9917 93.3913 66.7318C94.3453 66.2038 95.3283 65.4079 95.5103 66.4379C95.5103 66.4649 95.2273 73.5128 95.2253 73.5378L99.3283 73.5428Z" fill="black"/>
<path id="Vector_34" d="M97.1613 100.583C95.4612 100.819 93.7299 100.675 92.0923 100.161C91.7997 100.043 91.5264 99.8816 91.2812 99.6829C91.7993 98.7169 91.3812 99.0529 92.7552 99.3129C96.1132 99.9479 94.9553 99.8579 98.3463 99.4129C99.7253 99.0379 99.8843 100.529 97.1613 100.583Z" fill="black"/>
<path id="Vector_35" d="M95.4271 114.962C95.7266 117.001 95.782 119.069 95.5921 121.122C95.4701 121.896 95.5601 130.177 95.5281 132.011C95.3953 133.463 95.3429 134.921 95.3711 136.379C95.613 138.852 95.6003 141.344 95.3331 143.815C95.2111 154.408 95.5701 150.861 95.4531 186.502C95.4531 187.494 95.9531 187.995 95.1121 188.14C94.3241 187.84 94.5281 188.108 94.5891 177.665C94.7751 146.077 94.1511 145.255 94.4521 143.234C95.0521 139.234 94.1801 135.469 94.4971 133.241C94.8181 130.975 94.5561 124.266 94.6021 121.974C94.6231 120.909 94.8351 119.843 94.8521 118.774C94.8751 117.374 94.6801 116.653 94.6801 114.996L95.4271 114.962Z" fill="black"/>
<path id="Vector_36" d="M87.349 33.7066C88.508 34.4376 88.103 36.5976 87.099 35.5496C87.143 33.9346 84.868 34.3996 85.099 32.6956C85.423 30.3566 86.142 30.0356 84.328 28.9056C83.309 28.2696 82.002 28.1246 82.103 26.2646C82.175 24.9296 82.916 23.7376 83.89 21.8646C84.415 20.8556 84.08 20.8646 81.363 18.5436C79.357 16.8266 77.701 16.1306 81.104 11.6506C81.368 11.3182 81.5442 10.9248 81.6168 10.5066C81.6893 10.0883 81.6557 9.65856 81.5191 9.25666C81.3824 8.85477 81.1472 8.49358 80.8348 8.20618C80.5224 7.91877 80.1429 7.71434 79.731 7.61161C79.205 7.49761 79.099 7.40061 79.213 6.81161C81.42 5.70261 84.013 9.98761 81.85 12.4596C81.1952 13.1833 80.686 14.0263 80.35 14.9426C80.1907 15.2111 80.1433 15.5315 80.2181 15.8346C80.293 16.1377 80.484 16.3992 80.75 16.5626C85.6 20.6476 86.07 19.8996 83.872 24.3996C82.936 26.3166 82.82 26.9816 84.218 27.6386C87.18 29.0296 86.675 30.3766 86.092 32.9136L87.349 33.7066Z" fill="black"/>
<path id="Vector_37" d="M74.4229 39.9501C75.1149 40.1851 74.8119 41.2271 74.1369 41.0181C71.9439 40.3391 71.6589 40.1931 71.5229 39.0551C71.2869 37.0741 64.0609 37.2951 64.0909 34.2551C64.1519 28.1241 68.0479 27.7551 59.4179 25.8181C57.3589 25.3551 56.4489 24.9441 55.8679 22.6891C55.5419 21.4251 55.5929 19.0951 56.5899 18.2671C56.9549 17.9671 57.9249 18.4411 57.2219 19.0771C56.5749 19.6631 56.2809 21.7181 57.2889 23.5361C57.8959 24.6281 58.8409 24.4441 60.9489 25.0561C64.7799 26.1681 66.7959 26.4121 65.9429 30.0281C64.6209 35.6281 64.4429 34.6041 70.6429 36.8951C71.5989 37.2491 72.4529 37.4371 72.4859 38.4181C72.5249 39.5881 73.2409 39.5491 74.4229 39.9501Z" fill="black"/>
<path id="Vector_38" d="M70.5333 176.3C70.5333 177.085 70.4333 177.871 70.4473 178.656C70.6322 180.479 70.6463 182.316 70.4893 184.142C70.3393 187.469 71.0393 189.599 70.1893 189.533C69.7243 189.497 69.7383 189.143 69.6583 187.566C69.6583 187.481 69.5363 156.535 69.5583 156.453C69.8223 155.548 69.0693 154.837 69.4213 150.595C69.4743 149.954 69.8823 149.888 70.0383 150.595C70.3493 152 70.5283 157.262 70.5333 176.3Z" fill="black"/>
<path id="Vector_39" d="M66.0269 48.4839C66.9999 48.6839 66.7809 49.6969 65.8729 49.6619C62.6869 49.5379 62.0989 49.3779 60.0189 49.9969C57.8339 50.6459 56.7189 50.8409 55.6429 49.6969C54.4549 48.4349 54.0289 47.2399 51.7379 47.6969C49.8279 48.0729 48.7609 50.4909 47.9289 49.2739C47.5769 48.7599 47.6289 48.4739 48.1709 48.0739C48.9519 48.5309 48.4229 48.5149 50.0999 47.3279C50.8495 46.7284 51.796 46.4304 52.7538 46.4924C53.7117 46.5544 54.6118 46.9718 55.2779 47.6629C56.2259 48.6399 56.6579 49.6719 58.0899 49.3269C60.5109 48.7429 61.1899 48.2969 63.0219 48.3789C64.0248 48.3347 65.0296 48.3698 66.0269 48.4839Z" fill="black"/>
<path id="Vector_40" d="M61.564 119.057C61.577 121.117 61.1632 123.156 60.3487 125.047C59.5343 126.938 58.3369 128.64 56.832 130.046C55.173 131.697 51.808 133.927 49.588 133.992C47.583 134.051 41.551 135.816 35.346 130.371C33.734 128.669 32.4655 126.673 31.61 124.49C28.722 117.424 32.684 106.001 43.967 103.574C47.411 102.834 53.174 103.849 56.213 107.218C60.8 112.3 60.37 112.046 61.564 119.057ZM54.289 130.832C59.295 127.053 61.36 122.593 59.908 115.745C59.6182 113.063 58.3683 110.577 56.389 108.745C44.774 96.6795 24.508 111.923 34.333 127.48C35.2052 128.966 36.4489 130.199 37.942 131.059C41.168 132.809 43.971 134.071 49.264 132.96C51.0955 132.699 52.8275 131.966 54.289 130.832Z" fill="black"/>
<path id="Vector_41" d="M40.8739 128.492C32.5589 124.852 34.1969 110.992 42.5589 108.859C45.8469 108.021 48.4489 107.199 52.4199 110.004C53.6764 110.889 54.7492 112.01 55.5789 113.304C60.5659 124.619 49.9309 132.457 40.8739 128.492ZM54.1519 124.122C58.4609 118.712 54.2899 108.622 46.2739 109.022C34.1669 109.614 31.9349 127.297 45.9019 128.607C47.6828 128.597 49.4283 128.109 50.9559 127.194C52.2909 126.493 53.3992 125.428 54.1519 124.122Z" fill="black"/>
<path id="Vector_42" d="M54.3093 183.089C54.3626 184.08 54.3465 185.074 54.2613 186.063C54.3523 187.811 54.6683 190.678 53.4973 189.318C53.3913 189.196 53.4793 182.632 53.2973 179.918C53.0123 175.687 53.4493 176.047 53.3343 172.665C53.0953 165.602 53.1243 169.765 53.4973 163.188C53.4973 163.035 53.3533 158.72 53.5753 155.988C53.6233 155.388 53.3143 152.788 53.4753 151.046C53.5683 150.035 54.1553 150.594 54.1873 151.127C54.4964 156.935 54.4677 162.756 54.1013 168.56C54.0723 170.268 54.2473 171.978 54.2533 173.688C54.2533 174.901 54.1103 176.116 54.0903 177.331C54.0723 178.464 54.2713 180.309 54.2713 180.377C54.2069 181.281 54.2196 182.188 54.3093 183.089Z" fill="black"/>
<path id="Vector_43" d="M52.4002 120.29C53.4942 122 52.8212 123.033 51.5802 123.097C46.1012 123.381 49.1372 120.797 45.6522 125.215C44.7182 126.401 43.4692 126.283 43.0112 125.3C42.6216 124.23 42.3931 123.109 42.3332 121.972C41.2702 121.614 40.3442 121.338 39.2332 120.848C38.0012 120.304 37.9392 118.756 40.8782 117.248C41.9302 116.707 41.6052 116.548 42.2892 113.813C42.7102 112.13 43.7152 111.825 44.3402 112.128C49.1402 114.455 44.9972 114.253 50.4352 112.893C51.7912 112.553 52.4282 113.509 52.1872 114.723C51.2002 119.686 49.8522 116.305 52.4002 120.29ZM51.9912 121.9C51.5162 120.131 49.6042 118.962 50.1042 117.569C50.7165 116.45 51.0672 115.208 51.1302 113.934C50.9847 113.883 50.8313 113.859 50.6772 113.862C49.7877 114.046 48.9197 114.322 48.0872 114.686C46.1542 115.722 46.0572 113.317 43.6642 113.092C43.1252 114.252 43.2932 113.338 42.7422 116.569C42.4252 118.425 40.1422 118.32 39.3322 119.791C41.7792 121.265 43.1562 120.456 43.4072 122.354C43.9712 126.612 44.3522 125.077 46.5072 122.328C47.3512 121.251 47.9212 121.671 51.3612 122.065C51.5801 122.049 51.7942 121.993 51.9932 121.9H51.9912Z" fill="black"/>
<path id="Vector_44" d="M38.0003 152.332C38.0883 154.723 38.4553 152.901 38.2113 156.268C38.1603 156.974 38.2683 187.768 38.1733 188.984C38.1413 189.392 37.4833 189.751 37.3313 189.055C36.9683 187.391 37.3983 158.497 37.3623 158.393C36.8453 156.863 37.7823 155.61 37.2233 153.615C37.0662 152.6 37.0662 151.567 37.2233 150.551C37.2392 150.46 37.2878 150.377 37.3603 150.318C37.4327 150.26 37.5239 150.23 37.6169 150.234C37.7099 150.238 37.7983 150.275 37.8655 150.34C37.9328 150.404 37.9743 150.491 37.9823 150.583C38.0153 150.93 37.9733 151.499 38.0003 152.332Z" fill="black"/>
</g>
</g>
</svg>
