<svg width="208" height="57" viewBox="0 0 208 57" fill="none" xmlns="http://www.w3.org/2000/svg">
<path d="M28.7895 18.0313C27.2827 17.1222 25.5654 16.676 23.6545 16.676C20.8682 16.676 18.5532 17.6862 16.7097 19.6981C14.9335 17.6862 12.8206 16.676 10.371 16.676C8.29171 16.676 6.51552 17.4505 5.03395 18.991V17.3831H0V39.6824H5.03395V28.5454C5.03395 26.0957 5.32016 24.3701 5.89259 23.3599C6.22931 22.7201 6.75964 22.2235 7.47517 21.8531C8.19911 21.4827 8.97357 21.2975 9.81536 21.2975C11.5242 21.2975 12.7027 21.9036 13.3425 23.1074C13.8812 24.1512 14.1506 25.7927 14.1506 28.0403V39.6655H19.1846V28.5454C19.1846 26.0957 19.454 24.3701 19.9927 23.3599C20.3294 22.7201 20.8598 22.2235 21.5753 21.8531C22.2992 21.4827 23.0737 21.2975 23.9155 21.2975C25.5907 21.2975 26.7523 21.9036 27.3837 23.1074C27.9224 24.1512 28.1918 25.7927 28.1918 28.0403V39.6655H33.2258V27.6362C33.2258 24.8836 32.788 22.737 31.921 21.1965C31.1718 19.858 30.128 18.7974 28.7895 18.0313Z" fill="white"/>
<path d="M57.9667 37.3506C60.5173 35.0356 61.7884 32.0809 61.7884 28.4949C61.7884 25.4055 60.7951 22.7538 58.8169 20.5399C56.5356 17.9556 53.6146 16.6676 50.0622 16.6676C47.0065 16.6676 44.3716 17.6778 42.1577 19.6897C39.6071 22.0046 38.3359 24.9425 38.3359 28.4949C38.3359 31.5843 39.3293 34.2528 41.3075 36.5004C43.6224 39.0847 46.5435 40.3726 50.0622 40.3726C53.1516 40.3726 55.7864 39.3709 57.9667 37.3506ZM43.4204 28.4949C43.4204 26.483 43.9591 24.8162 45.0282 23.5114C46.2657 21.9709 47.9493 21.1965 50.0622 21.1965C51.9057 21.1965 53.4378 21.8026 54.6416 23.0063C56.0474 24.3532 56.7545 26.1799 56.7545 28.4949C56.7545 30.5068 56.1989 32.1819 55.0961 33.5288C53.8503 35.0356 52.1751 35.7933 50.0622 35.7933C48.2523 35.7933 46.7202 35.204 45.4828 34.0339C44.1107 32.6533 43.4204 30.8098 43.4204 28.4949Z" fill="white"/>
<path d="M77.2936 16.6676C74.2463 16.6676 71.6115 17.6778 69.3976 19.6897C66.8469 22.0046 65.5674 24.9425 65.5674 28.4949C65.5674 31.5843 66.5607 34.2528 68.5389 36.5004C70.8539 39.0847 73.7749 40.3726 77.2936 40.3726C80.383 40.3726 83.0179 39.3625 85.1981 37.3506C87.7488 35.0356 89.0199 32.0893 89.0199 28.4949C89.0199 25.4055 88.035 22.7538 86.0567 20.5399C83.7755 17.9556 80.8544 16.6676 77.2936 16.6676Z" fill="white"/>
<path d="M109.4 18.0313C107.893 17.1222 106.243 16.676 104.467 16.676C102.32 16.676 100.443 17.4505 98.8269 18.991V17.3831H93.793V39.6824H98.8269V28.4949C98.8269 26.1463 99.0963 24.4711 99.635 23.4609C100.039 22.8212 100.628 22.3077 101.42 21.9036C102.211 21.4995 103.07 21.2975 104.012 21.2975C105.923 21.2975 107.236 21.9541 107.935 23.2589C108.474 24.2354 108.743 25.8264 108.743 28.0403V39.6655H113.777V27.6362C113.777 24.7825 113.323 22.5854 112.422 21.045C111.715 19.8075 110.713 18.7974 109.4 18.0313Z" fill="white"/>
<path d="M136.178 19.2856C134.132 17.5431 131.918 16.6676 129.536 16.6676C126.581 16.6676 123.997 17.6778 121.783 19.6897C119.266 22.0383 118.012 24.9761 118.012 28.4949C118.012 31.5506 119.005 34.2023 120.983 36.4499C123.265 39.0678 126.118 40.3726 129.536 40.3726C131.986 40.3726 134.199 39.4972 136.178 37.7546V40.1201C136.178 42.3004 135.639 44.026 134.57 45.3056C133.366 46.8124 131.565 47.57 129.182 47.57C127.743 47.57 126.548 47.3175 125.613 46.8124C124.67 46.3073 123.618 45.3813 122.44 44.0429C122.339 43.9082 122.137 43.6725 121.833 43.3358L118.559 46.6104C119.535 47.7215 120.217 48.4707 120.621 48.8748C122.97 51.0214 125.857 52.0989 129.275 52.0989C132.6 52.0989 135.327 51.1224 137.474 49.1778C139.957 46.9639 141.203 43.9419 141.203 40.1201V17.3747H136.169V19.2856H136.178ZM134.62 33.5288C133.417 35.0356 131.767 35.7933 129.687 35.7933C127.878 35.7933 126.362 35.204 125.159 34.0339C123.786 32.6618 123.096 30.8098 123.096 28.4949C123.096 26.483 123.635 24.8162 124.704 23.5114C125.941 21.9709 127.625 21.1965 129.738 21.1965C131.514 21.1965 132.996 21.8026 134.166 23.0063C135.538 24.3532 136.228 26.1799 136.228 28.4949C136.228 30.5068 135.689 32.1904 134.62 33.5288Z" fill="white"/>
<path d="M163.604 19.2856C161.322 17.5431 159.041 16.6676 156.76 16.6676C153.872 16.6676 151.355 17.6946 149.209 19.7402C146.692 22.1225 145.438 25.0435 145.438 28.4949C145.438 31.4832 146.414 34.1181 148.359 36.3993C150.64 39.051 153.443 40.3726 156.768 40.3726C159.083 40.3726 161.364 39.4972 163.612 37.7546V39.6655H168.646V17.3747H163.612V19.2856H163.604ZM162.097 33.5288C160.851 35.0356 159.209 35.7933 157.164 35.7933C155.32 35.7933 153.788 35.204 152.584 34.0339C151.212 32.6618 150.522 30.8098 150.522 28.4949C150.522 26.483 151.061 24.8162 152.13 23.5114C153.367 21.9709 155.051 21.1965 157.164 21.1965C158.974 21.1965 160.472 21.8026 161.642 23.0063C163.014 24.3532 163.705 26.1799 163.705 28.4949C163.705 30.5068 163.174 32.1904 162.097 33.5288Z" fill="white"/>
<path d="M179.614 32.6197V21.9036H183.133V17.3748H179.614V10.4299L174.631 12.3913V17.3748H172.215V21.9036H174.631V32.6197C174.631 34.8337 175.069 36.5762 175.936 37.8557C176.946 39.3289 178.436 40.0696 180.414 40.0696C181.357 40.0696 182.375 39.9013 183.487 39.5646V34.8842C182.409 35.1872 181.626 35.3387 181.121 35.3387C180.111 35.3387 179.614 34.438 179.614 32.6197Z" fill="white"/>
<path d="M208 29C208 25.6748 207.091 22.8801 205.281 20.5988C203.202 17.9808 200.466 16.676 197.082 16.676C194.194 16.676 191.694 17.6862 189.581 19.6981C187.165 22.013 185.953 24.9509 185.953 28.5033C185.953 31.66 186.913 34.3454 188.824 36.5593C191.038 39.1099 193.891 40.3811 197.376 40.3811C201.804 40.3811 205.281 38.2681 207.798 34.0423L203.471 32.2325C203.404 32.3335 203.336 32.4345 203.269 32.5355C201.922 34.7158 199.961 35.8101 197.376 35.8101C195.87 35.8101 194.573 35.406 193.504 34.5979C192.292 33.6551 191.509 32.283 191.139 30.4731H208C208 29.7239 208 29.2357 208 29ZM191.139 26.584C191.442 24.9762 192.081 23.6966 193.049 22.7622C194.119 21.6847 195.482 21.1544 197.124 21.1544C200.146 21.1544 202.107 22.9643 203.008 26.5924H191.139V26.584Z" fill="white"/>
<path d="M28.0489 12.4418C28.5961 12.8795 29.3874 12.7953 29.8251 12.2482C34.7917 6.06936 42.1743 2.52539 50.0872 2.52539C58.4715 2.52539 66.3844 6.60811 71.2584 13.4519C71.5026 13.7971 71.8898 13.9823 72.2854 13.9823C72.538 13.9823 72.7989 13.9065 73.0178 13.7466C73.5818 13.3425 73.7165 12.5512 73.3124 11.9872C67.9754 4.47836 59.2881 0 50.0872 0C41.4083 0 33.3018 3.88911 27.8553 10.6656C27.4176 11.2127 27.5102 12.004 28.0489 12.4418Z" fill="white"/>
<path d="M73.0512 43.2011C72.4787 42.797 71.6959 42.9317 71.2918 43.5041C66.4178 50.3648 58.4965 54.4643 50.0869 54.4643C49.3882 54.4643 48.8242 55.0283 48.8242 55.727C48.8242 56.4257 49.3882 56.9897 50.0869 56.9897C59.313 56.9897 68.0004 52.4945 73.3458 44.9604C73.7499 44.388 73.6152 43.6051 73.0512 43.2011Z" fill="white"/>
</svg>
