<svg width="50" height="10" viewBox="0 0 50 10" fill="none" xmlns="http://www.w3.org/2000/svg">
<g clip-path="url(#clip0_2401_28449)">
<path d="M0.939941 9.31367V0.757515H3.98974C4.65262 0.757515 5.2027 0.871708 5.63997 1.1001C6.08003 1.32848 6.40869 1.64461 6.62593 2.04846C6.84318 2.44953 6.95181 2.91326 6.95181 3.43966C6.95181 3.96328 6.84179 4.42423 6.62176 4.82252C6.40451 5.21802 6.07586 5.52578 5.6358 5.74582C5.19852 5.96585 4.64844 6.07586 3.98556 6.07586H1.67524V4.96457H3.86858C4.28637 4.96457 4.62616 4.90468 4.88797 4.78492C5.15256 4.66516 5.34613 4.49109 5.46868 4.26269C5.59123 4.03431 5.6525 3.75997 5.6525 3.43966C5.6525 3.11659 5.58984 2.83667 5.4645 2.59993C5.34195 2.36318 5.14839 2.18215 4.88379 2.05681C4.62198 1.92869 4.27801 1.86464 3.85188 1.86464H2.23089V9.31367H0.939941ZM5.16371 5.45337L7.27768 9.31367H5.80709L3.7349 5.45337H5.16371ZM11.1077 9.44318C10.4754 9.44318 9.93091 9.3081 9.47416 9.03793C9.02017 8.76498 8.66923 8.38202 8.42135 7.88904C8.17625 7.39326 8.0537 6.81255 8.0537 6.14689C8.0537 5.48958 8.17625 4.91025 8.42135 4.40892C8.66923 3.90759 9.0146 3.51626 9.45744 3.23496C9.90307 2.95365 10.424 2.813 11.0199 2.813C11.382 2.813 11.733 2.87288 12.0728 2.99265C12.4126 3.11241 12.7175 3.30041 12.9877 3.55665C13.2579 3.81288 13.4709 4.14571 13.6269 4.55515C13.7829 4.96178 13.8608 5.45616 13.8608 6.03826V6.48112H8.75975V5.54528H12.6368C12.6368 5.21663 12.5699 4.92558 12.4362 4.67212C12.3026 4.41588 12.1145 4.21396 11.8722 4.06634C11.6327 3.91872 11.3514 3.84492 11.0283 3.84492C10.6774 3.84492 10.371 3.93125 10.1092 4.10394C9.85013 4.27383 9.64962 4.49666 9.50758 4.77239C9.36832 5.04534 9.29869 5.34196 9.29869 5.66226V6.39338C9.29869 6.8223 9.37389 7.18717 9.52429 7.48796C9.67747 7.78876 9.89052 8.01855 10.1635 8.1773C10.4364 8.33327 10.7553 8.41126 11.1202 8.41126C11.357 8.41126 11.5728 8.37783 11.7678 8.31099C11.9628 8.24136 12.1312 8.13831 12.2733 8.00183C12.4153 7.86536 12.524 7.69685 12.5992 7.49632L13.7815 7.70939C13.6868 8.05754 13.5169 8.36252 13.2718 8.62433C13.0294 8.88335 12.7244 9.08528 12.3568 9.23011C11.992 9.37216 11.5756 9.44318 11.1077 9.44318ZM18.3008 2.89656V3.89922H14.6744V2.89656H18.3008ZM15.6688 9.31367V2.1529C15.6688 1.75183 15.7565 1.419 15.932 1.15441C16.1075 0.887027 16.34 0.687885 16.6297 0.556981C16.9193 0.42329 17.2341 0.356445 17.5739 0.356445C17.8245 0.356445 18.0391 0.377335 18.2173 0.419113C18.3955 0.458105 18.5278 0.494313 18.6142 0.527736L18.3217 1.53876C18.2633 1.52206 18.188 1.50256 18.0961 1.48027C18.0041 1.4552 17.8928 1.44267 17.7619 1.44267C17.4583 1.44267 17.241 1.51788 17.1101 1.66827C16.982 1.81867 16.918 2.03592 16.918 2.32002V9.31367H15.6688ZM22.1026 9.44318C21.4704 9.44318 20.9259 9.3081 20.4691 9.03793C20.0151 8.76498 19.6642 8.38202 19.4163 7.88904C19.1712 7.39326 19.0487 6.81255 19.0487 6.14689C19.0487 5.48958 19.1712 4.91025 19.4163 4.40892C19.6642 3.90759 20.0095 3.51626 20.4524 3.23496C20.8981 2.95365 21.4189 2.813 22.0149 2.813C22.377 2.813 22.7279 2.87288 23.0677 2.99265C23.4075 3.11241 23.7125 3.30041 23.9827 3.55665C24.2528 3.81288 24.4659 4.14571 24.6218 4.55515C24.7778 4.96178 24.8558 5.45616 24.8558 6.03826V6.48112H19.7547V5.54528H23.6317C23.6317 5.21663 23.5648 4.92558 23.4312 4.67212C23.2975 4.41588 23.1094 4.21396 22.8672 4.06634C22.6277 3.91872 22.3463 3.84492 22.0233 3.84492C21.6723 3.84492 21.3659 3.93125 21.1042 4.10394C20.8451 4.27383 20.6445 4.49666 20.5025 4.77239C20.3633 5.04534 20.2937 5.34196 20.2937 5.66226V6.39338C20.2937 6.8223 20.3689 7.18717 20.5192 7.48796C20.6724 7.78876 20.8855 8.01855 21.1585 8.1773C21.4314 8.33327 21.7503 8.41126 22.1151 8.41126C22.3519 8.41126 22.5678 8.37783 22.7627 8.31099C22.9577 8.24136 23.1262 8.13831 23.2683 8.00183C23.4103 7.86536 23.5189 7.69685 23.5941 7.49632L24.7764 7.70939C24.6817 8.05754 24.5118 8.36252 24.2667 8.62433C24.0244 8.88335 23.7194 9.08528 23.3518 9.23011C22.9869 9.37216 22.5705 9.44318 22.1026 9.44318ZM26.2418 9.31367V2.89656H27.4491V3.91594H27.516C27.633 3.57058 27.8391 3.29902 28.1343 3.10126C28.4324 2.90073 28.7693 2.80046 29.1453 2.80046C29.2234 2.80046 29.3152 2.80324 29.4211 2.80882C29.5297 2.81439 29.6146 2.82135 29.6759 2.8297V4.02456C29.6258 4.01064 29.5367 3.99531 29.4086 3.97861C29.2804 3.95911 29.1523 3.94936 29.0242 3.94936C28.729 3.94936 28.4658 4.01203 28.2346 4.13736C28.0062 4.25991 27.8251 4.4312 27.6915 4.65123C27.5578 4.86848 27.4909 5.11636 27.4909 5.39488V9.31367H26.2418ZM30.757 9.31367V2.89656H31.9643V3.91594H32.0312C32.1482 3.57058 32.3543 3.29902 32.6495 3.10126C32.9475 2.90073 33.2845 2.80046 33.6605 2.80046C33.7386 2.80046 33.8304 2.80324 33.9363 2.80882C34.0449 2.81439 34.1298 2.82135 34.1911 2.8297V4.02456C34.141 4.01064 34.0519 3.99531 33.9238 3.97861C33.7956 3.95911 33.6675 3.94936 33.5393 3.94936C33.2442 3.94936 32.9809 4.01203 32.7497 4.13736C32.5214 4.25991 32.3403 4.4312 32.2067 4.65123C32.073 4.86848 32.0061 5.11636 32.0061 5.39488V9.31367H30.757ZM37.0822 9.45571C36.6755 9.45571 36.3079 9.38051 35.9792 9.23011C35.6505 9.07692 35.3901 8.8555 35.198 8.56584C35.0086 8.27618 34.9139 7.92107 34.9139 7.5005C34.9139 7.13842 34.9835 6.8404 35.1228 6.60645C35.262 6.37249 35.45 6.18727 35.6868 6.0508C35.9235 5.91432 36.1881 5.81127 36.4805 5.74164C36.773 5.67201 37.071 5.61909 37.3746 5.58288C37.759 5.53832 38.0709 5.50212 38.3104 5.47426C38.5499 5.44363 38.7241 5.39488 38.8327 5.32804C38.9413 5.26119 38.9956 5.15257 38.9956 5.00217V4.97292C38.9956 4.60806 38.8926 4.32536 38.6864 4.12483C38.4831 3.92429 38.1795 3.82403 37.7756 3.82403C37.3551 3.82403 37.0237 3.91733 36.7813 4.10394C36.5418 4.28776 36.3761 4.49248 36.2842 4.71808L35.1102 4.45069C35.2494 4.06077 35.4528 3.74604 35.7202 3.50651C35.9903 3.2642 36.3009 3.08873 36.6518 2.98011C37.0028 2.8687 37.3718 2.813 37.759 2.813C38.0152 2.813 38.2868 2.84364 38.5737 2.90491C38.8633 2.9634 39.1335 3.07202 39.3842 3.23077C39.6376 3.38954 39.845 3.61653 40.0066 3.91176C40.1682 4.2042 40.249 4.58439 40.249 5.0523V9.31367H39.0291V8.43632H38.9789C38.8981 8.59787 38.777 8.75663 38.6154 8.9126C38.4539 9.06857 38.2464 9.19808 37.9929 9.30114C37.7394 9.40418 37.4359 9.45571 37.0822 9.45571ZM37.3538 8.45304C37.699 8.45304 37.9943 8.3848 38.2394 8.24832C38.4873 8.11185 38.6753 7.9336 38.8034 7.71357C38.9343 7.49074 38.9997 7.25262 38.9997 6.99916V6.17195C38.9552 6.21652 38.8689 6.25829 38.7407 6.29729C38.6154 6.3335 38.472 6.36553 38.3104 6.39338C38.1489 6.41844 37.9915 6.44212 37.8384 6.4644C37.6851 6.4839 37.557 6.50061 37.454 6.51454C37.2117 6.54517 36.9902 6.59669 36.7897 6.66912C36.592 6.74153 36.4332 6.84597 36.3135 6.98245C36.1965 7.11614 36.138 7.29439 36.138 7.5172C36.138 7.82636 36.2522 8.06032 36.4805 8.21908C36.709 8.37505 37 8.45304 37.3538 8.45304ZM43.1619 0.757515V9.31367H41.9128V0.757515H43.1619ZM49.6511 4.46323L48.5189 4.66376C48.4716 4.51893 48.3963 4.38107 48.2933 4.25017C48.1931 4.11925 48.0566 4.01203 47.8839 3.92847C47.7112 3.84491 47.4953 3.80314 47.2363 3.80314C46.8826 3.80314 46.5874 3.88252 46.3506 4.04127C46.1139 4.19724 45.9955 4.39917 45.9955 4.64706C45.9955 4.86152 46.0748 5.03419 46.2337 5.16511C46.3924 5.29601 46.6487 5.40323 47.0024 5.48679L48.0217 5.72075C48.6122 5.85722 49.0523 6.06751 49.3419 6.3516C49.6316 6.63569 49.7764 7.00473 49.7764 7.45871C49.7764 7.84308 49.665 8.18566 49.4422 8.48646C49.2222 8.78448 48.9144 9.01843 48.5189 9.18833C48.1262 9.35822 47.6708 9.44318 47.1528 9.44318C46.4341 9.44318 45.8479 9.28999 45.3939 8.98362C44.9399 8.67446 44.6614 8.23579 44.5584 7.66761L45.7657 7.48378C45.8409 7.79852 45.9955 8.03665 46.2294 8.19819C46.4635 8.35695 46.7684 8.43632 47.1444 8.43632C47.5539 8.43632 47.8811 8.35138 48.1262 8.18148C48.3713 8.00879 48.4939 7.79852 48.4939 7.55063C48.4939 7.3501 48.4187 7.18159 48.2683 7.04512C48.1206 6.90864 47.8937 6.80559 47.5873 6.73596L46.501 6.49782C45.9022 6.36135 45.4593 6.14411 45.1725 5.84609C44.8884 5.54807 44.7463 5.17067 44.7463 4.7139C44.7463 4.33511 44.8522 4.00367 45.0639 3.71958C45.2755 3.43549 45.568 3.21407 45.9412 3.05531C46.3144 2.89376 46.7419 2.813 47.2238 2.813C47.9173 2.813 48.4632 2.9634 48.8615 3.2642C49.2597 3.56221 49.523 3.96189 49.6511 4.46323Z" fill="#B84794"/>
</g>
<defs>
<clipPath id="clip0_2401_28449">
<rect width="50" height="9.80392" fill="white"/>
</clipPath>
</defs>
</svg>
