<svg width="90" height="18" viewBox="0 0 90 18" fill="none" xmlns="http://www.w3.org/2000/svg">
<g clip-path="url(#clip0_2401_28449)">
<path d="M1.69189 16.7647V1.36365H7.18153C8.37472 1.36365 9.36486 1.5692 10.152 1.9803C10.9441 2.39138 11.5356 2.96041 11.9267 3.68735C12.3177 4.40927 12.5133 5.244 12.5133 6.19152C12.5133 7.13403 12.3152 7.96374 11.9192 8.68065C11.5281 9.39255 10.9365 9.94653 10.1444 10.3426C9.35734 10.7387 8.3672 10.9367 7.17401 10.9367H3.01543V8.93634H6.96345C7.71546 8.93634 8.32709 8.82855 8.79835 8.61298C9.27461 8.3974 9.62304 8.08408 9.84362 7.67297C10.0642 7.26188 10.1745 6.76807 10.1745 6.19152C10.1745 5.60998 10.0617 5.10614 9.83611 4.68C9.61552 4.25385 9.26709 3.92798 8.79082 3.70238C8.31957 3.47177 7.70042 3.35647 6.93338 3.35647H4.01559V16.7647H1.69189ZM9.29468 9.81619L13.0998 16.7647H10.4528L6.72281 9.81619H9.29468ZM19.9938 16.9978C18.8558 16.9978 17.8756 16.7547 17.0535 16.2684C16.2363 15.7771 15.6046 15.0878 15.1584 14.2004C14.7172 13.308 14.4967 12.2627 14.4967 11.0645C14.4967 9.88136 14.7172 8.83858 15.1584 7.93618C15.6046 7.03378 16.2263 6.3294 17.0234 5.82305C17.8255 5.31668 18.7631 5.06352 19.8359 5.06352C20.4876 5.06352 21.1194 5.17131 21.731 5.38688C22.3426 5.60246 22.8915 5.94086 23.3778 6.40208C23.8642 6.86331 24.2476 7.46241 24.5284 8.19938C24.8092 8.93133 24.9495 9.8212 24.9495 10.869V11.6661H15.7675V9.98163H22.7462C22.7462 9.39005 22.6259 8.86616 22.3852 8.40993C22.1446 7.94871 21.8062 7.58525 21.3699 7.31954C20.9388 7.05382 20.4325 6.92098 19.8509 6.92098C19.2193 6.92098 18.6678 7.07638 18.1965 7.38721C17.7302 7.69302 17.3693 8.0941 17.1136 8.59042C16.863 9.08174 16.7376 9.61565 16.7376 10.1922V11.5082C16.7376 12.2803 16.873 12.937 17.1437 13.4784C17.4195 14.0199 17.8029 14.4335 18.2942 14.7193C18.7855 15 19.3596 15.1404 20.0164 15.1404C20.4426 15.1404 20.831 15.0802 21.182 14.9599C21.533 14.8346 21.8362 14.6491 22.0919 14.4034C22.3476 14.1578 22.5431 13.8545 22.6785 13.4935L24.8067 13.877C24.6362 14.5037 24.3304 15.0527 23.8892 15.5239C23.453 15.9902 22.904 16.3536 22.2422 16.6143C21.5856 16.87 20.8361 16.9978 19.9938 16.9978ZM32.9415 5.21392V7.01872H26.414V5.21392H32.9415ZM28.2038 16.7647V3.87534C28.2038 3.15342 28.3617 2.55432 28.6776 2.07806C28.9935 1.59677 29.4121 1.23831 29.9335 1.00269C30.4548 0.762045 31.0213 0.641724 31.6329 0.641724C32.0842 0.641724 32.4703 0.679324 32.7911 0.754525C33.1119 0.824711 33.35 0.889885 33.5055 0.950046L32.9791 2.7699C32.8739 2.73982 32.7383 2.70472 32.573 2.66461C32.4075 2.61949 32.207 2.59694 31.9714 2.59694C31.4249 2.59694 31.0338 2.73231 30.7982 3.00301C30.5676 3.27374 30.4523 3.66478 30.4523 4.17615V16.7647H28.2038ZM39.7846 16.9978C38.6468 16.9978 37.6666 16.7547 36.8445 16.2684C36.0272 15.7771 35.3955 15.0878 34.9494 14.2004C34.5082 13.308 34.2876 12.2627 34.2876 11.0645C34.2876 9.88136 34.5082 8.83858 34.9494 7.93618C35.3955 7.03378 36.0172 6.3294 36.8143 5.82305C37.6165 5.31668 38.5539 5.06352 39.6269 5.06352C40.2786 5.06352 40.9102 5.17131 41.5218 5.38688C42.1335 5.60246 42.6825 5.94086 43.1688 6.40208C43.655 6.86331 44.0386 7.46241 44.3192 8.19938C44.6 8.93133 44.7405 9.8212 44.7405 10.869V11.6661H35.5585V9.98163H42.5371C42.5371 9.39005 42.4167 8.86616 42.1762 8.40993C41.9355 7.94871 41.597 7.58525 41.1609 7.31954C40.7298 7.05382 40.2234 6.92098 39.6419 6.92098C39.0101 6.92098 38.4586 7.07638 37.9875 7.38721C37.5212 7.69302 37.1602 8.0941 36.9045 8.59042C36.6539 9.08174 36.5286 9.61565 36.5286 10.1922V11.5082C36.5286 12.2803 36.6639 12.937 36.9346 13.4784C37.2103 14.0199 37.5939 14.4335 38.0852 14.7193C38.5765 15 39.1506 15.1404 39.8072 15.1404C40.2334 15.1404 40.622 15.0802 40.9728 14.9599C41.3238 14.8346 41.6272 14.6491 41.8829 14.4034C42.1386 14.1578 42.3339 13.8545 42.4695 13.4935L44.5975 13.877C44.4271 14.5037 44.1212 15.0527 43.6801 15.5239C43.244 15.9902 42.695 16.3536 42.0332 16.6143C41.3764 16.87 40.6269 16.9978 39.7846 16.9978ZM47.2352 16.7647V5.21392H49.4085V7.04881H49.5288C49.7394 6.42716 50.1105 5.93835 50.6418 5.5824C51.1783 5.22144 51.7848 5.04095 52.4616 5.04095C52.6021 5.04095 52.7674 5.04596 52.958 5.056C53.1535 5.06602 53.3064 5.07855 53.4166 5.09359V7.24433C53.3265 7.21927 53.1661 7.19168 52.9354 7.16161C52.7048 7.12651 52.4741 7.10897 52.2436 7.10897C51.7121 7.10897 51.2385 7.22177 50.8224 7.44737C50.4112 7.66796 50.0852 7.97629 49.8447 8.37234C49.604 8.76338 49.4836 9.20957 49.4836 9.71091V16.7647H47.2352ZM55.3626 16.7647V5.21392H57.5358V7.04881H57.6562C57.8667 6.42716 58.2376 5.93835 58.7692 5.5824C59.3055 5.22144 59.9122 5.04095 60.5889 5.04095C60.7294 5.04095 60.8948 5.04596 61.0854 5.056C61.2809 5.06602 61.4337 5.07855 61.544 5.09359V7.24433C61.4538 7.21927 61.2934 7.19168 61.0628 7.16161C60.8321 7.12651 60.6015 7.10897 60.3708 7.10897C59.8395 7.10897 59.3656 7.22177 58.9495 7.44737C58.5385 7.66796 58.2126 7.97629 57.9721 8.37234C57.7313 8.76338 57.611 9.20957 57.611 9.71091V16.7647H55.3626ZM66.7479 17.0204C66.0159 17.0204 65.3542 16.885 64.7626 16.6143C64.1709 16.3386 63.7022 15.94 63.3563 15.4186C63.0154 14.8972 62.8449 14.258 62.8449 13.501C62.8449 12.8493 62.9702 12.3128 63.221 11.8917C63.4716 11.4706 63.8101 11.1372 64.2362 10.8916C64.6622 10.6459 65.1385 10.4604 65.6649 10.3351C66.1914 10.2097 66.7278 10.1145 67.2743 10.0493C67.9661 9.9691 68.5276 9.90393 68.9588 9.8538C69.3899 9.79865 69.7033 9.71091 69.8988 9.59059C70.0944 9.47027 70.1921 9.27474 70.1921 9.00402V8.95138C70.1921 8.29463 70.0066 7.78577 69.6355 7.42482C69.2695 7.06385 68.7232 6.88337 67.9961 6.88337C67.2392 6.88337 66.6426 7.05132 66.2063 7.38721C65.7752 7.7181 65.477 8.08658 65.3115 8.49266L63.1984 8.01137C63.449 7.30951 63.815 6.74299 64.2964 6.31184C64.7826 5.87569 65.3416 5.55984 65.9732 5.36431C66.605 5.16379 67.2692 5.06352 67.9661 5.06352C68.4274 5.06352 68.9162 5.11867 69.4326 5.22896C69.9539 5.33424 70.4402 5.52975 70.8915 5.81551C71.3476 6.10129 71.7211 6.50987 72.0119 7.0413C72.3027 7.56769 72.4481 8.25202 72.4481 9.09427V16.7647H70.2523V15.1855H70.1619C70.0165 15.4763 69.7986 15.762 69.5078 16.0428C69.2169 16.3235 68.8435 16.5567 68.3872 16.7422C67.931 16.9277 67.3846 17.0204 66.7479 17.0204ZM67.2368 15.2156C67.8583 15.2156 68.3898 15.0928 68.831 14.8471C69.2771 14.6015 69.6156 14.2806 69.846 13.8845C70.0818 13.4835 70.1995 13.0548 70.1995 12.5986V11.1096C70.1194 11.1899 69.9639 11.265 69.7333 11.3352C69.5078 11.4004 69.2496 11.4581 68.9588 11.5082C68.6679 11.5533 68.3847 11.5959 68.1091 11.636C67.8332 11.6711 67.6026 11.7012 67.4171 11.7263C66.9811 11.7814 66.5824 11.8742 66.2215 12.0045C65.8656 12.1349 65.5797 12.3229 65.3642 12.5685C65.1537 12.8092 65.0483 13.13 65.0483 13.5311C65.0483 14.0876 65.2539 14.5087 65.6649 14.7945C66.0761 15.0752 66.6 15.2156 67.2368 15.2156ZM77.6914 1.36365V16.7647H75.443V1.36365H77.6914ZM89.372 8.03394L87.3339 8.3949C87.2489 8.1342 87.1133 7.88604 86.9279 7.65042C86.7475 7.41478 86.5019 7.22177 86.1909 7.07137C85.8802 6.92096 85.4916 6.84577 85.0253 6.84577C84.3886 6.84577 83.8573 6.98865 83.4311 7.27441C83.0049 7.55516 82.7919 7.91864 82.7919 8.36482C82.7919 8.75085 82.9347 9.06167 83.2206 9.29731C83.5063 9.53294 83.9676 9.72594 84.6043 9.87635L86.4391 10.2975C87.5019 10.5431 88.2941 10.9216 88.8154 11.433C89.3369 11.9444 89.5975 12.6086 89.5975 13.4258C89.5975 14.1177 89.397 14.7343 88.9959 15.2757C88.5999 15.8122 88.046 16.2333 87.3339 16.5391C86.6272 16.8449 85.8075 16.9978 84.875 16.9978C83.5815 16.9978 82.5262 16.7221 81.7089 16.1706C80.8919 15.6141 80.3905 14.8245 80.2051 13.8018L82.3783 13.4709C82.5136 14.0375 82.7919 14.4661 83.213 14.7569C83.6342 15.0426 84.1831 15.1855 84.86 15.1855C85.5969 15.1855 86.186 15.0326 86.6272 14.7268C87.0683 14.4159 87.2889 14.0375 87.2889 13.5912C87.2889 13.2303 87.1536 12.927 86.8829 12.6813C86.6171 12.4357 86.2086 12.2502 85.6571 12.1248L83.7018 11.6962C82.6239 11.4506 81.8268 11.0595 81.3105 10.5231C80.7991 9.98664 80.5434 9.30734 80.5434 8.48514C80.5434 7.80331 80.7339 7.20674 81.1149 6.69536C81.4959 6.184 82.0223 5.78544 82.6942 5.49968C83.366 5.2089 84.1354 5.06352 85.0028 5.06352C86.2511 5.06352 87.2337 5.33424 87.9507 5.87569C88.6675 6.41211 89.1413 7.13152 89.372 8.03394Z" fill="#B84794"/>
</g>
<defs>
<clipPath id="clip0_2401_28449">
<rect width="90" height="17.6471" fill="white"/>
</clipPath>
</defs>
</svg>
