<svg width="13" height="12" viewBox="0 0 13 12" fill="none" xmlns="http://www.w3.org/2000/svg">
<g id="icon-refresh" clip-path="url(#clip0_9251_19464)">
<path id="Vector" d="M12.1466 4.23513V0.706082L10.9111 1.94156C9.8173 0.741165 8.22912 0 6.5 0C3.1827 0 0.5 2.6827 0.5 6C0.5 9.3173 3.18203 12 6.5 12C8.19405 12 9.71142 11.2939 10.8059 10.165L9.81797 9.14128C9.00601 10.0234 7.80561 10.5879 6.5 10.5879C3.95892 10.5879 1.91216 8.5411 1.91216 6.00002C1.91216 3.45894 3.95892 1.41218 6.5 1.41218C7.84135 1.41218 9.07615 2.01238 9.92317 2.92954L8.61757 4.23515L12.1466 4.23513Z" fill="#9AA4B2"/>
</g>
<defs>
<clipPath id="clip0_9251_19464">
<rect width="12" height="12" fill="white" transform="translate(0.5)"/>
</clipPath>
</defs>
</svg>
