<svg width="13" height="12" viewBox="0 0 13 12" fill="none" xmlns="http://www.w3.org/2000/svg">
<g id="icon-route">
<path id="Vector" d="M4.61894 6.99859H7.29173C8.46242 6.99859 9.42699 6.04958 9.44255 4.89521C9.44255 3.72452 8.47798 2.79183 7.29173 2.79183L5.25212 2.79109C5.04675 2.33215 4.58781 2 4.0503 2C3.32298 2 2.73725 2.60129 2.73725 3.31305C2.73725 4.0248 3.33854 4.62609 4.0503 4.62609C4.60414 4.62609 5.06232 4.29394 5.25212 3.835H7.29248C7.90934 3.835 8.41573 4.34139 8.41573 4.91079C8.41573 5.4802 7.90934 5.98659 7.29248 5.98659H4.65083C3.48013 5.98659 2.51556 6.93559 2.5 8.08997C2.5 9.27622 3.46457 10.1933 4.65083 10.1933H6.84911C7.05447 10.6523 7.51341 11 8.05093 11C8.77825 11 9.36398 10.3987 9.36398 9.68695C9.36398 8.95964 8.76269 8.37391 8.05093 8.37391C7.49709 8.37391 7.03891 8.70606 6.84911 9.165L4.63527 9.16574C4.01841 9.16574 3.51202 8.65935 3.51202 8.08995C3.51202 7.50498 4.00209 7.01415 4.61894 6.99859Z" fill="black" fill-opacity="0.35"/>
</g>
</svg>
