<svg width="117" height="32" viewBox="0 0 117 32" fill="none" xmlns="http://www.w3.org/2000/svg">
<g id="Logo (Full Colour Black) 1">
<path id="Vector" d="M21.3244 25.2732C10.8865 25.0594 9.89832 21.2417 9.89832 16.2687C9.89832 11.2957 11.0409 7.3711 21.3244 7.26423C31.6078 7.15736 32.7504 11.2957 32.7504 16.2687C32.7504 21.2417 31.7622 25.487 21.3244 25.2732Z" fill="#6DC4FE"/>
<path id="Vector_2" fill-rule="evenodd" clip-rule="evenodd" d="M18.1376 22.1466C18.1354 22.1466 18.1331 22.1466 18.1307 22.1466C15.3911 22.1466 13.1702 19.9382 13.1702 17.2139C13.1702 14.8522 14.8392 12.8782 17.0684 12.3946C18.1933 10.8327 20.0336 9.81494 22.113 9.81494C25.3181 9.81494 27.9553 12.233 28.2801 15.3346C29.1341 16.0409 29.6779 17.1055 29.6779 18.2964C29.6779 20.4229 27.9443 22.1466 25.8059 22.1466C25.7988 22.1466 25.7916 22.1466 25.7845 22.1466H22.1392C22.1305 22.1466 22.1217 22.1466 22.113 22.1466C22.1042 22.1466 22.0955 22.1466 22.0868 22.1466H18.1376ZM20.8107 14.8095C21.3987 14.8095 21.8753 14.3356 21.8753 13.7509C21.8753 13.1662 21.3987 12.6923 20.8107 12.6923C20.2228 12.6923 19.7461 13.1662 19.7461 13.7509C19.7461 14.3356 20.2228 14.8095 20.8107 14.8095ZM25.0688 14.8095C25.6567 14.8095 26.1334 14.3356 26.1334 13.7509C26.1334 13.1662 25.6567 12.6923 25.0688 12.6923C24.4808 12.6923 24.0042 13.1662 24.0042 13.7509C24.0042 14.3356 24.4808 14.8095 25.0688 14.8095ZM24.8784 15.7681C25.2826 15.7116 25.6238 15.6638 25.8292 15.6638C26.3331 15.6638 26.7416 16.0701 26.7416 16.5712C26.7416 18.659 25.0394 20.3516 22.9398 20.3516C20.8401 20.3516 19.1379 18.659 19.1379 16.5712C19.1379 16.0701 19.5465 15.6638 20.0504 15.6638C20.2558 15.6638 20.5969 15.7116 21.0011 15.7681C21.5886 15.8503 22.3092 15.9512 22.9398 15.9512C23.5703 15.9512 24.291 15.8503 24.8784 15.7681ZM22.9396 19.5956C23.7728 19.5956 24.5279 19.2623 25.0771 18.7226H25.0768C25.3212 18.4824 25.2412 18.0716 24.9258 17.9362C24.3929 17.7076 23.6987 17.5692 22.9395 17.5692C22.1802 17.5692 21.486 17.7076 20.9531 17.9362C20.6378 18.0716 20.5577 18.4826 20.8021 18.7226C21.3515 19.2623 22.1064 19.5956 22.9396 19.5956Z" fill="#F7F9FB"/>
<path id="Vector_3" d="M93.0151 22.0018V12.506H95.045L95.1897 13.5871C95.431 13.2627 95.6909 13.0165 95.9687 12.8484C96.2588 12.6681 96.555 12.542 96.8567 12.47C97.1708 12.3979 97.4671 12.3618 97.7448 12.3618C98.349 12.3618 98.8618 12.482 99.285 12.7222C99.7197 12.9624 100.058 13.3228 100.3 13.8034C100.541 13.467 100.813 13.1967 101.115 12.9925C101.417 12.7763 101.737 12.6201 102.075 12.524C102.414 12.4159 102.77 12.3618 103.144 12.3618C103.882 12.3618 104.473 12.518 104.921 12.8303C105.368 13.1306 105.693 13.551 105.899 14.0916C106.104 14.6202 106.207 15.2268 106.207 15.9115V22.0018H103.996V16.6143C103.996 16.374 103.984 16.1217 103.96 15.8574C103.936 15.5932 103.869 15.3469 103.761 15.1187C103.664 14.8904 103.519 14.7043 103.326 14.5601C103.133 14.416 102.86 14.3439 102.51 14.3439C102.16 14.3439 101.87 14.422 101.641 14.5781C101.423 14.7223 101.242 14.9205 101.097 15.1727C100.964 15.413 100.868 15.6833 100.807 15.9836C100.759 16.2719 100.735 16.5602 100.735 16.8485V22.0018H98.5238V16.5962C98.5238 16.368 98.506 16.1277 98.4696 15.8755C98.4457 15.6112 98.3845 15.365 98.2886 15.1367C98.2035 14.8964 98.0589 14.7043 97.8531 14.5601C97.6605 14.416 97.3882 14.3439 97.0378 14.3439C96.5303 14.3439 96.1443 14.482 95.8782 14.7583C95.6244 15.0346 95.4496 15.371 95.3529 15.7674C95.2678 16.1637 95.226 16.5422 95.226 16.9025V22.0018H93.0151Z" fill="white"/>
<path id="Vector_4" d="M87.1499 22.1279C85.7722 22.1279 84.7155 21.7735 83.9782 21.0647C83.2534 20.356 82.8914 19.2749 82.8914 17.8214V12.5059H85.1022V17.6772C85.1022 18.1818 85.1688 18.6202 85.3011 18.9926C85.4465 19.365 85.6701 19.6532 85.9717 19.8575C86.2858 20.0497 86.6788 20.1458 87.1499 20.1458C87.6574 20.1458 88.0558 20.0437 88.3459 19.8395C88.6476 19.6232 88.8587 19.3289 88.9802 18.9566C89.1009 18.5842 89.1612 18.1577 89.1612 17.6772V12.5059H91.3721V17.8214C91.3721 19.3109 90.9969 20.4041 90.2481 21.1008C89.5116 21.7855 88.4781 22.1279 87.1499 22.1279Z" fill="white"/>
<path id="Vector_5" d="M79.5557 22.1096C78.5044 22.1096 77.7378 21.8213 77.2542 21.2447C76.771 20.6681 76.5294 19.8693 76.5294 18.8483V14.4516H75.0616V12.5056H76.5294V9.83887H78.7403V12.5056H81.6397V14.4516H78.7403V18.4338C78.7403 18.7461 78.7767 19.0284 78.8486 19.2806C78.9213 19.5329 79.0544 19.7311 79.2478 19.8753C79.4404 20.0194 79.7065 20.0975 80.0446 20.1096C80.3347 20.1096 80.5822 20.0615 80.788 19.9654C80.993 19.8693 81.1624 19.7612 81.2955 19.641L82.0381 21.3168C81.8083 21.509 81.5484 21.6652 81.2591 21.7853C80.9814 21.9054 80.6975 21.9895 80.4074 22.0376C80.1173 22.0856 79.8334 22.1096 79.5557 22.1096Z" fill="white"/>
<path id="Vector_6" d="M70.1402 22.128C69.1495 22.128 68.316 21.9297 67.6395 21.5334C66.963 21.1249 66.4496 20.5544 66.0992 19.8216C65.7489 19.0888 65.5737 18.2419 65.5737 17.2809C65.5737 16.3199 65.755 15.473 66.1173 14.7403C66.4797 13.9955 67.0113 13.4129 67.712 12.9924C68.4126 12.572 69.2643 12.3618 70.267 12.3618C71.0039 12.3618 71.6562 12.488 72.224 12.7402C72.8038 12.9924 73.269 13.3648 73.6193 13.8574C73.9817 14.3379 74.2112 14.9385 74.3079 15.6592H72.1334C71.9884 15.2027 71.7468 14.8724 71.4086 14.6682C71.0824 14.452 70.6898 14.3439 70.2308 14.3439C69.6146 14.3439 69.1254 14.494 68.763 14.7944C68.4126 15.0827 68.159 15.449 68.0019 15.8935C67.8449 16.338 67.7664 16.8004 67.7664 17.2809C67.7664 17.7854 67.8509 18.26 68.02 18.7044C68.1891 19.1368 68.4489 19.4852 68.7992 19.7495C69.1616 20.0137 69.6267 20.1459 70.1945 20.1459C70.6535 20.1459 71.0643 20.0438 71.4267 19.8396C71.8012 19.6354 72.0428 19.305 72.1516 18.8486H74.3985C74.3139 19.5813 74.0662 20.194 73.6556 20.6864C73.2568 21.167 72.7495 21.5274 72.1334 21.7676C71.5173 22.0078 70.8529 22.128 70.1402 22.128Z" fill="white"/>
<path id="Vector_7" d="M55.379 22.0018V12.506H57.4447L57.5716 13.7132C57.8252 13.3769 58.1212 13.1126 58.4595 12.9204C58.7977 12.7282 59.1541 12.59 59.5286 12.506C59.9031 12.4098 60.2534 12.3618 60.5796 12.3618C61.4857 12.3618 62.1984 12.56 62.7178 12.9564C63.2493 13.3528 63.6238 13.8814 63.8413 14.542C64.0587 15.2027 64.1675 15.9415 64.1675 16.7584V22.0018H61.9568V17.1187C61.9568 16.7704 61.9326 16.434 61.8843 16.1097C61.8359 15.7734 61.7393 15.473 61.5944 15.2087C61.4614 14.9445 61.2682 14.7343 61.0145 14.5781C60.7608 14.422 60.4225 14.3439 59.9998 14.3439C59.4803 14.3439 59.0394 14.482 58.677 14.7583C58.3145 15.0346 58.0427 15.407 57.8615 15.8754C57.6803 16.3319 57.5897 16.8545 57.5897 17.4431V22.0018H55.379Z" fill="white"/>
<path id="Vector_8" d="M48.6215 22.128C48.1745 22.128 47.7517 22.0679 47.3531 21.9478C46.9544 21.8277 46.5981 21.6535 46.2839 21.4253C45.9698 21.185 45.7162 20.8907 45.5229 20.5424C45.3417 20.182 45.2511 19.7615 45.2511 19.281C45.2511 18.6684 45.3719 18.1699 45.6134 17.7854C45.8551 17.389 46.1813 17.0887 46.592 16.8845C47.0148 16.6803 47.492 16.5422 48.0235 16.4701C48.5551 16.386 49.1107 16.344 49.6906 16.344H51.557C51.557 15.9235 51.4906 15.5631 51.3577 15.2628C51.2248 14.9505 51.0134 14.7043 50.7235 14.524C50.4456 14.3439 50.0833 14.2538 49.6363 14.2538C49.3464 14.2538 49.0745 14.2898 48.8209 14.3619C48.5792 14.422 48.3678 14.524 48.1866 14.6682C48.0175 14.8004 47.8967 14.9745 47.8242 15.1907H45.5591C45.6437 14.6983 45.8128 14.2778 46.0665 13.9294C46.3323 13.569 46.6524 13.2747 47.0269 13.0465C47.4135 12.8183 47.8363 12.6501 48.2953 12.542C48.7544 12.4219 49.2195 12.3618 49.6906 12.3618C51.0799 12.3618 52.0885 12.7582 52.7168 13.551C53.3571 14.3439 53.6772 15.455 53.6772 16.8845V22.0018H51.7202L51.6658 20.7766C51.3879 21.185 51.0557 21.4853 50.6691 21.6775C50.2825 21.8697 49.908 21.9898 49.5456 22.0379C49.1832 22.098 48.8752 22.128 48.6215 22.128ZM49.0564 20.3441C49.5396 20.3441 49.9685 20.254 50.343 20.0738C50.7174 19.8937 51.0134 19.6414 51.2309 19.317C51.4604 18.9927 51.5752 18.6204 51.5752 18.1999V17.8936H49.8356C49.5456 17.8936 49.2557 17.9056 48.9658 17.9296C48.688 17.9416 48.4342 17.9897 48.2047 18.0737C47.9752 18.1458 47.788 18.26 47.643 18.4161C47.5101 18.5723 47.4437 18.7945 47.4437 19.0828C47.4437 19.3711 47.5161 19.6054 47.6611 19.7855C47.8181 19.9657 48.0175 20.1039 48.2591 20.2C48.5127 20.296 48.7785 20.3441 49.0564 20.3441Z" fill="white"/>
<path id="Vector_9" d="M40.19 22.128C39.7309 22.128 39.2719 22.0799 38.8128 21.9838C38.3659 21.8877 37.943 21.7316 37.5443 21.5154C37.1457 21.287 36.8135 20.9807 36.5477 20.5964C36.2819 20.212 36.1068 19.7314 36.0222 19.1549H38.2511C38.3477 19.4191 38.4987 19.6354 38.7041 19.8035C38.9215 19.9597 39.1691 20.0798 39.447 20.1639C39.7369 20.236 40.0208 20.272 40.2987 20.272C40.4678 20.272 40.649 20.26 40.8423 20.236C41.0477 20.212 41.2349 20.1639 41.404 20.0918C41.5853 20.0197 41.7302 19.9177 41.8389 19.7855C41.9477 19.6414 42.002 19.4552 42.002 19.227C42.002 19.0107 41.9416 18.8425 41.8208 18.7224C41.7 18.5903 41.5369 18.4882 41.3315 18.4161C41.1262 18.332 40.8785 18.266 40.5886 18.2179C40.0691 18.1098 39.5135 17.9957 38.9215 17.8755C38.3296 17.7434 37.8161 17.5392 37.3812 17.2629C37.2001 17.1548 37.043 17.0287 36.9101 16.8845C36.7772 16.7404 36.6625 16.5842 36.5658 16.416C36.4813 16.2358 36.4148 16.0437 36.3665 15.8394C36.3303 15.6352 36.3122 15.413 36.3122 15.1727C36.3122 14.6682 36.4148 14.2417 36.6202 13.8934C36.8376 13.533 37.1215 13.2447 37.4718 13.0285C37.8342 12.8003 38.245 12.632 38.7041 12.524C39.1631 12.4159 39.6343 12.3618 40.1175 12.3618C40.7698 12.3618 41.3618 12.4639 41.8933 12.6681C42.4248 12.8724 42.8658 13.1847 43.2161 13.6051C43.5785 14.0255 43.796 14.5601 43.8685 15.2087H41.7664C41.706 14.9084 41.5188 14.6682 41.2047 14.488C40.9027 14.3078 40.5161 14.2177 40.045 14.2177C39.8759 14.2177 39.7007 14.2357 39.5195 14.2718C39.3383 14.2958 39.1631 14.3439 38.994 14.416C38.837 14.476 38.7041 14.5721 38.5954 14.7042C38.4987 14.8364 38.4504 14.9985 38.4504 15.1907C38.4504 15.3709 38.4926 15.5271 38.5772 15.6592C38.6739 15.7914 38.8128 15.9055 38.994 16.0016C39.1873 16.0857 39.4108 16.1577 39.6645 16.2178C40.0752 16.3019 40.504 16.386 40.951 16.47C41.398 16.5541 41.7845 16.6383 42.1108 16.7224C42.4973 16.8304 42.8477 16.9866 43.1617 17.1908C43.4758 17.383 43.7174 17.6413 43.8866 17.9657C44.0678 18.278 44.1583 18.6804 44.1583 19.1729C44.1583 19.7495 44.0376 20.23 43.796 20.6144C43.5664 20.9988 43.2584 21.2991 42.8718 21.5154C42.4852 21.7316 42.0564 21.8877 41.5853 21.9838C41.1141 22.0799 40.649 22.128 40.19 22.128Z" fill="white"/>
</g>
</svg>
