<svg width="1501" height="416" viewBox="0 0 1501 416" fill="none" xmlns="http://www.w3.org/2000/svg">
<path d="M275.659 328.553C140.729 325.774 127.955 276.144 127.955 211.495C127.955 146.845 142.725 95.8258 275.659 94.4365C408.592 93.0472 423.362 146.845 423.362 211.495C423.362 276.144 410.588 331.332 275.659 328.553Z" fill="#6DC4FE"/>
<path fill-rule="evenodd" clip-rule="evenodd" d="M234.463 287.906C234.434 287.906 234.404 287.907 234.374 287.907C198.959 287.907 170.249 259.197 170.249 223.782C170.249 193.08 191.825 167.418 220.641 161.13C235.183 140.826 258.972 127.595 285.852 127.595C327.285 127.595 361.375 159.03 365.574 199.351C376.614 208.532 383.643 222.372 383.643 237.854C383.643 265.498 361.233 287.907 333.59 287.907C333.498 287.907 333.405 287.907 333.313 287.906H286.191C286.078 287.907 285.965 287.907 285.852 287.907C285.739 287.907 285.626 287.907 285.513 287.906H234.463ZM269.018 192.524C276.619 192.524 282.78 186.363 282.78 178.762C282.78 171.162 276.619 165.001 269.018 165.001C261.418 165.001 255.256 171.162 255.256 178.762C255.256 186.363 261.418 192.524 269.018 192.524ZM324.062 192.524C331.662 192.524 337.824 186.363 337.824 178.762C337.824 171.162 331.662 165.001 324.062 165.001C316.461 165.001 310.3 171.162 310.3 178.762C310.3 186.363 316.461 192.524 324.062 192.524ZM321.601 204.986C326.826 204.251 331.236 203.63 333.891 203.63C340.405 203.63 345.686 208.912 345.686 215.426C345.686 242.568 323.682 264.572 296.54 264.572C269.397 264.572 247.393 242.568 247.393 215.426C247.393 208.912 252.675 203.63 259.189 203.63C261.844 203.63 266.254 204.251 271.479 204.986C279.073 206.055 288.388 207.366 296.54 207.366C304.691 207.366 314.007 206.055 321.601 204.986ZM296.538 254.743C307.309 254.743 317.069 250.411 324.169 243.395H324.165C327.325 240.272 326.29 234.932 322.213 233.172C315.325 230.199 306.351 228.4 296.536 228.4C286.721 228.4 277.747 230.199 270.859 233.172C266.782 234.932 265.747 240.274 268.907 243.395C276.009 250.411 285.767 254.743 296.538 254.743Z" fill="#F7F9FB"/>
<path d="M1202.4 286.021V162.575H1228.64L1230.51 176.63C1233.63 172.413 1236.99 169.212 1240.58 167.026C1244.33 164.683 1248.16 163.043 1252.06 162.107C1256.12 161.17 1259.95 160.701 1263.54 160.701C1271.35 160.701 1277.98 162.263 1283.45 165.386C1289.07 168.509 1293.44 173.194 1296.57 179.441C1299.69 175.068 1303.2 171.554 1307.11 168.9C1311.01 166.089 1315.15 164.059 1319.52 162.809C1323.9 161.404 1328.5 160.701 1333.34 160.701C1342.87 160.701 1350.52 162.731 1356.3 166.791C1362.08 170.695 1366.29 176.161 1368.95 183.188C1371.6 190.06 1372.93 197.946 1372.93 206.847V286.021H1344.35V215.983C1344.35 212.859 1344.2 209.58 1343.88 206.144C1343.57 202.709 1342.71 199.507 1341.31 196.54C1340.06 193.573 1338.18 191.153 1335.69 189.279C1333.19 187.405 1329.67 186.468 1325.14 186.468C1320.62 186.468 1316.87 187.483 1313.9 189.513C1311.09 191.387 1308.75 193.964 1306.87 197.243C1305.16 200.366 1303.91 203.88 1303.13 207.784C1302.5 211.532 1302.19 215.28 1302.19 219.028V286.021H1273.61V215.748C1273.61 212.781 1273.38 209.658 1272.91 206.379C1272.6 202.943 1271.81 199.742 1270.57 196.775C1269.47 193.651 1267.6 191.153 1264.94 189.279C1262.45 187.405 1258.93 186.468 1254.4 186.468C1247.84 186.468 1242.85 188.264 1239.41 191.855C1236.13 195.447 1233.87 199.82 1232.62 204.973C1231.52 210.126 1230.98 215.046 1230.98 219.73V286.021H1202.4Z" fill="#1B1B1C"/>
<path d="M1126.58 287.661C1108.77 287.661 1095.11 283.054 1085.58 273.84C1076.21 264.627 1071.53 250.572 1071.53 231.677V162.575H1100.11V229.803C1100.11 236.362 1100.97 242.061 1102.68 246.902C1104.56 251.744 1107.45 255.491 1111.35 258.146C1115.41 260.645 1120.49 261.894 1126.58 261.894C1133.14 261.894 1138.29 260.567 1142.04 257.912C1145.94 255.101 1148.67 251.275 1150.24 246.434C1151.8 241.593 1152.58 236.049 1152.58 229.803V162.575H1181.16V231.677C1181.16 251.041 1176.31 265.252 1166.63 274.309C1157.11 283.21 1143.75 287.661 1126.58 287.661Z" fill="#1B1B1C"/>
<path d="M1028.41 287.427C1014.82 287.427 1004.91 283.679 998.659 276.183C992.413 268.687 989.289 258.302 989.289 245.029V187.873H970.316V162.575H989.289V127.907H1017.87V162.575H1055.35V187.873H1017.87V239.641C1017.87 243.701 1018.34 247.371 1019.27 250.65C1020.21 253.93 1021.93 256.506 1024.43 258.38C1026.92 260.254 1030.36 261.269 1034.73 261.426C1038.48 261.426 1041.68 260.801 1044.34 259.552C1046.99 258.302 1049.18 256.897 1050.9 255.335L1060.5 277.12C1057.53 279.619 1054.17 281.649 1050.43 283.21C1046.84 284.772 1043.17 285.865 1039.42 286.49C1035.67 287.114 1032 287.427 1028.41 287.427Z" fill="#1B1B1C"/>
<path d="M906.697 287.661C893.891 287.661 883.116 285.084 874.371 279.931C865.626 274.621 858.989 267.204 854.46 257.678C849.931 248.152 847.667 237.142 847.667 224.649C847.667 212.156 850.01 201.147 854.694 191.621C859.379 181.939 866.25 174.365 875.308 168.899C884.365 163.434 895.375 160.701 908.336 160.701C917.862 160.701 926.295 162.341 933.635 165.62C941.13 168.899 947.143 173.74 951.671 180.143C956.356 186.39 959.323 194.198 960.573 203.567H932.463C930.589 197.633 927.466 193.339 923.094 190.684C918.877 187.873 913.802 186.468 907.868 186.468C899.903 186.468 893.579 188.42 888.894 192.324C884.365 196.072 881.086 200.835 879.056 206.613C877.026 212.391 876.011 218.403 876.011 224.649C876.011 231.208 877.104 237.377 879.29 243.155C881.476 248.776 884.834 253.305 889.362 256.741C894.047 260.176 900.06 261.894 907.399 261.894C913.333 261.894 918.643 260.567 923.328 257.912C928.169 255.257 931.292 250.963 932.698 245.029H961.744C960.651 254.554 957.449 262.519 952.14 268.921C946.986 275.168 940.428 279.853 932.463 282.976C924.499 286.099 915.91 287.661 906.697 287.661Z" fill="#1B1B1C"/>
<path d="M715.88 286.021V162.575H742.583L744.223 178.269C747.502 173.897 751.328 170.461 755.701 167.962C760.073 165.464 764.68 163.668 769.521 162.575C774.362 161.325 778.891 160.701 783.107 160.701C794.82 160.701 804.033 163.277 810.748 168.431C817.619 173.584 822.46 180.455 825.271 189.044C828.082 197.633 829.488 207.237 829.488 217.856V286.021H800.91V222.541C800.91 218.012 800.598 213.64 799.973 209.423C799.348 205.051 798.099 201.147 796.225 197.711C794.507 194.276 792.009 191.543 788.729 189.513C785.45 187.483 781.077 186.468 775.612 186.468C768.897 186.468 763.197 188.263 758.512 191.855C753.827 195.447 750.313 200.288 747.971 206.378C745.628 212.312 744.457 219.106 744.457 226.758V286.021H715.88Z" fill="#1B1B1C"/>
<path d="M628.526 287.661C622.748 287.661 617.282 286.88 612.129 285.319C606.975 283.757 602.369 281.493 598.308 278.526C594.248 275.402 590.969 271.576 588.47 267.048C586.128 262.363 584.957 256.897 584.957 250.651C584.957 242.686 586.518 236.206 589.641 231.208C592.765 226.055 596.981 222.151 602.291 219.496C607.756 216.841 613.925 215.046 620.796 214.109C627.667 213.015 634.85 212.469 642.346 212.469H666.473C666.473 207.003 665.614 202.318 663.897 198.414C662.179 194.354 659.446 191.153 655.698 188.81C652.106 186.468 647.422 185.297 641.644 185.297C637.896 185.297 634.382 185.765 631.103 186.702C627.979 187.483 625.246 188.81 622.904 190.684C620.718 192.402 619.156 194.666 618.219 197.477H588.939C590.032 191.075 592.218 185.609 595.498 181.08C598.933 176.395 603.071 172.569 607.912 169.602C612.91 166.635 618.375 164.449 624.309 163.043C630.244 161.482 636.256 160.701 642.346 160.701C660.305 160.701 673.344 165.854 681.465 176.161C689.742 186.468 693.88 200.913 693.88 219.496V286.021H668.582L667.879 270.093C664.287 275.402 659.993 279.306 654.995 281.805C649.998 284.304 645.157 285.865 640.472 286.49C635.787 287.271 631.805 287.661 628.526 287.661ZM634.148 264.471C640.394 264.471 645.938 263.3 650.779 260.957C655.62 258.615 659.446 255.335 662.257 251.119C665.224 246.903 666.708 242.062 666.708 236.596V232.614H644.22C640.472 232.614 636.724 232.77 632.976 233.082C629.385 233.238 626.105 233.863 623.138 234.956C620.171 235.893 617.751 237.377 615.877 239.407C614.159 241.437 613.3 244.326 613.3 248.074C613.3 251.822 614.237 254.867 616.111 257.209C618.141 259.552 620.718 261.348 623.841 262.597C627.12 263.846 630.556 264.471 634.148 264.471Z" fill="#1B1B1C"/>
<path d="M519.532 287.661C513.598 287.661 507.664 287.036 501.73 285.787C495.952 284.538 490.486 282.508 485.332 279.697C480.179 276.729 475.885 272.747 472.449 267.75C469.013 262.753 466.749 256.506 465.656 249.011H494.468C495.717 252.446 497.669 255.257 500.324 257.443C503.135 259.474 506.336 261.035 509.928 262.128C513.676 263.065 517.346 263.534 520.938 263.534C523.124 263.534 525.466 263.378 527.965 263.065C530.62 262.753 533.04 262.128 535.226 261.191C537.569 260.254 539.443 258.927 540.848 257.209C542.254 255.335 542.956 252.915 542.956 249.948C542.956 247.137 542.176 244.95 540.614 243.389C539.052 241.671 536.944 240.344 534.289 239.407C531.635 238.314 528.433 237.455 524.685 236.83C517.97 235.425 510.787 233.941 503.135 232.379C495.483 230.662 488.846 228.007 483.224 224.415C480.882 223.01 478.852 221.37 477.134 219.496C475.416 217.622 473.933 215.592 472.683 213.406C471.59 211.063 470.731 208.565 470.107 205.91C469.638 203.255 469.404 200.366 469.404 197.243C469.404 190.684 470.731 185.14 473.386 180.612C476.197 175.927 479.867 172.179 484.395 169.368C489.08 166.401 494.39 164.214 500.324 162.809C506.258 161.404 512.349 160.701 518.595 160.701C527.028 160.701 534.68 162.028 541.551 164.683C548.422 167.338 554.122 171.398 558.651 176.864C563.336 182.329 566.147 189.279 567.084 197.711H539.911C539.13 193.807 536.71 190.684 532.65 188.342C528.746 185.999 523.748 184.828 517.658 184.828C515.472 184.828 513.207 185.062 510.865 185.531C508.523 185.843 506.258 186.468 504.072 187.405C502.042 188.185 500.324 189.435 498.919 191.152C497.669 192.87 497.045 194.978 497.045 197.477C497.045 199.819 497.591 201.85 498.684 203.567C499.934 205.285 501.73 206.769 504.072 208.018C506.571 209.111 509.46 210.048 512.739 210.829C518.049 211.922 523.592 213.015 529.37 214.108C535.148 215.201 540.145 216.295 544.362 217.388C549.359 218.793 553.888 220.823 557.948 223.478C562.008 225.977 565.131 229.334 567.318 233.551C569.66 237.611 570.831 242.842 570.831 249.245C570.831 256.741 569.27 262.987 566.147 267.984C563.179 272.982 559.197 276.886 554.2 279.697C549.203 282.508 543.659 284.538 537.569 285.787C531.478 287.036 525.466 287.661 519.532 287.661Z" fill="#1B1B1C"/>
</svg>
