<svg width="800" height="691" viewBox="0 0 800 691" fill="none" xmlns="http://www.w3.org/2000/svg">
<path d="M400 556.709C156.373 551.691 133.308 462.08 133.308 345.349C133.308 228.619 159.977 136.499 400 133.99C640.023 131.482 666.692 228.619 666.692 345.349C666.692 462.08 643.627 561.726 400 556.709Z" fill="#6DC4FE"/>
<path fill-rule="evenodd" clip-rule="evenodd" d="M325.647 483.317C325.584 483.317 325.52 483.318 325.457 483.318C261.512 483.318 209.674 431.48 209.674 367.534C209.674 312.101 248.629 265.766 300.658 254.413C326.915 217.751 369.869 193.86 418.404 193.86C493.213 193.86 554.766 250.619 562.348 323.423C582.282 340 594.974 364.99 594.974 392.943C594.974 442.856 554.511 483.319 504.598 483.319C504.434 483.319 504.27 483.318 504.106 483.317H419.027C418.819 483.318 418.612 483.319 418.404 483.319C418.196 483.319 417.988 483.318 417.781 483.317H325.647ZM388.01 311.097C401.733 311.097 412.858 299.972 412.858 286.248C412.858 272.525 401.733 261.4 388.01 261.4C374.286 261.4 363.161 272.525 363.161 286.248C363.161 299.972 374.286 311.097 388.01 311.097ZM487.395 311.097C501.119 311.097 512.244 299.972 512.244 286.248C512.244 272.525 501.119 261.4 487.395 261.4C473.672 261.4 462.547 272.525 462.547 286.248C462.547 299.972 473.672 311.097 487.395 311.097ZM482.952 333.597C492.386 332.27 500.349 331.149 505.143 331.149C516.904 331.149 526.44 340.685 526.44 352.447C526.44 401.456 486.711 441.185 437.702 441.185C388.694 441.185 348.964 401.456 348.964 352.447C348.964 340.685 358.5 331.149 370.262 331.149C375.056 331.149 383.018 332.27 392.452 333.597C406.164 335.527 422.984 337.894 437.702 337.894C452.42 337.894 469.24 335.527 482.952 333.597ZM437.699 423.438C457.147 423.438 474.769 415.617 487.589 402.948H487.582C493.288 397.31 491.419 387.668 484.057 384.49C471.62 379.122 455.417 375.874 437.696 375.874C419.974 375.874 403.771 379.122 391.334 384.49C383.972 387.668 382.104 397.313 387.809 402.948C400.632 415.617 418.25 423.438 437.699 423.438Z" fill="#F7F9FB"/>
</svg>
