<svg width="20" height="20" viewBox="0 0 20 20" fill="none" xmlns="http://www.w3.org/2000/svg">
<path d="M8.74976 11.25L17.4998 2.50002M8.85608 11.5234L11.0462 17.1551C11.2391 17.6512 11.3356 17.8993 11.4746 17.9717C11.5951 18.0345 11.7386 18.0345 11.8592 17.9719C11.9983 17.8997 12.095 17.6517 12.2886 17.1558L17.7805 3.08269C17.9552 2.63504 18.0426 2.41121 17.9948 2.26819C17.9533 2.14398 17.8558 2.04651 17.7316 2.00501C17.5886 1.95723 17.3647 2.04458 16.9171 2.21927L2.84398 7.71122C2.34808 7.90474 2.10013 8.0015 2.02788 8.14059C1.96524 8.26116 1.96532 8.4047 2.0281 8.5252C2.10052 8.66421 2.34859 8.76067 2.84471 8.95361L8.47638 11.1437C8.57708 11.1829 8.62744 11.2024 8.66984 11.2327C8.70742 11.2595 8.74028 11.2924 8.76709 11.3299C8.79734 11.3723 8.81692 11.4227 8.85608 11.5234Z" stroke="#364152" stroke-width="1.66667" stroke-linecap="round" stroke-linejoin="round"/>
</svg>
