<svg width="66" height="30" viewBox="0 0 66 30" fill="none" xmlns="http://www.w3.org/2000/svg">
<g opacity="0.7" clip-path="url(#clip0_3881_12081)">
<mask id="mask0_3881_12081" style="mask-type:luminance" maskUnits="userSpaceOnUse" x="36" y="0" width="30" height="30">
<path d="M66 0H36.8823V30H66V0Z" fill="white"/>
</mask>
<g mask="url(#mask0_3881_12081)">
<path d="M65.9996 14.9998C65.9996 6.71562 59.4815 0 51.441 0C43.4004 0 36.8823 6.71562 36.8823 14.9998C36.8823 23.284 43.4004 29.9996 51.441 29.9996C59.4815 29.9996 65.9996 23.284 65.9996 14.9998Z" fill="#9B3678"/>
<path d="M56.836 9.62312C53.837 6.53318 48.9755 6.53318 45.9764 9.62312C42.9774 12.7131 42.9811 17.7181 45.9801 20.808C48.9791 23.898 53.837 23.8942 56.8324 20.808C59.8279 17.7218 59.8315 12.7093 56.836 9.62312ZM47.1547 19.5978C44.8054 17.1773 44.8073 13.2557 47.1547 10.8371C49.5022 8.41844 53.3085 8.41658 55.6578 10.8371C58.0071 13.2576 58.0071 17.1773 55.6578 19.5978C53.3085 22.0183 49.5022 22.0164 47.1547 19.5978Z" fill="white" fill-opacity="0.4"/>
<path fill-rule="evenodd" clip-rule="evenodd" d="M46.7927 3.74204C48.2553 3.11683 49.823 2.79504 51.4062 2.79504C52.9894 2.79504 54.557 3.11683 56.0197 3.74204C57.4824 4.36725 58.8114 5.28363 59.9308 6.43881L60.3097 6.82977C60.683 7.21509 60.683 7.83915 60.3097 8.22441L59.5541 9.00411C59.1799 9.39027 58.5726 9.39027 58.1984 9.00411L57.8216 8.61537C56.9792 7.74597 55.979 7.05633 54.8782 6.58581C53.7774 6.11529 52.5976 5.87317 51.4062 5.87317C50.2147 5.87317 49.0349 6.11529 47.9342 6.58581C46.8334 7.05633 45.8332 7.74597 44.9907 8.61537L44.6141 9.00411C44.2398 9.39027 43.6325 9.39027 43.2583 9.00411L42.5027 8.22441C42.1293 7.83915 42.1293 7.21509 42.5027 6.82977L42.8816 6.43881C44.001 5.28363 45.3301 4.36725 46.7927 3.74204Z" fill="white"/>
<path fill-rule="evenodd" clip-rule="evenodd" d="M39.5304 16.6919C39.7372 18.3097 40.2512 19.8698 41.0431 21.283C41.835 22.6963 42.8894 23.9349 44.1459 24.9283C45.4025 25.9217 46.8366 26.6504 48.3665 27.0727L48.8824 27.2152C49.3934 27.3562 49.9187 27.0438 50.0556 26.5173L50.3321 25.4542C50.469 24.9277 50.1658 24.3865 49.6548 24.2454L49.1388 24.103C47.9875 23.7851 46.9081 23.2367 45.9625 22.4891C45.0168 21.7415 44.2234 20.8093 43.6274 19.7458C43.0314 18.6822 42.6446 17.5081 42.489 16.2905C42.3334 15.073 42.4121 13.8358 42.7207 12.6495L42.8589 12.118C42.9958 11.5915 42.6925 11.0503 42.1815 10.9092L41.1497 10.6243C40.6386 10.4833 40.1134 10.7957 39.9764 11.3222L39.8382 11.8538C39.4283 13.43 39.3237 15.074 39.5304 16.6919Z" fill="white"/>
<path fill-rule="evenodd" clip-rule="evenodd" d="M63.3345 16.6919C63.1278 18.3097 62.6138 19.8698 61.8218 21.283C61.0299 22.6963 59.9756 23.9349 58.7191 24.9283C57.4625 25.9217 56.0284 26.6504 54.4985 27.0727L53.9825 27.2152C53.4715 27.3562 52.9463 27.0438 52.8093 26.5173L52.5329 25.4542C52.3959 24.9277 52.6992 24.3865 53.2102 24.2454L53.7261 24.103C54.8775 23.7851 55.9568 23.2367 56.9025 22.4891C57.8481 21.7415 58.6415 20.8093 59.2375 19.7458C59.8335 18.6822 60.2204 17.5081 60.3759 16.2905C60.5315 15.073 60.4528 13.8358 60.1443 12.6495L60.0061 12.118C59.8691 11.5915 60.1724 11.0503 60.6834 10.9092L61.7153 10.6243C62.2263 10.4833 62.7516 10.7957 62.8885 11.3222L63.0267 11.8538C63.4366 13.43 63.5412 15.074 63.3345 16.6919Z" fill="white"/>
<path fill-rule="evenodd" clip-rule="evenodd" d="M48.3494 14.4495H53.6567C53.7231 14.4495 53.7839 14.478 53.8338 14.5293L54.6749 15.4188C54.8299 15.5841 54.7193 15.8636 54.4978 15.8636H49.1906C49.1242 15.8636 49.0633 15.835 49.0135 15.7837L48.1723 14.8942C48.0174 14.7289 48.1281 14.4495 48.3494 14.4495ZM48.1723 13.2692L49.0135 12.3797C49.0578 12.3284 49.1242 12.2999 49.1906 12.2999H54.4923C54.7137 12.2999 54.8244 12.5793 54.6694 12.7446L53.8338 13.6341C53.7895 13.6854 53.7231 13.7139 53.6567 13.7139H48.3494C48.1281 13.7139 48.0174 13.4346 48.1723 13.2692ZM54.6694 17.0381L53.8283 17.9276C53.7784 17.9789 53.7176 18.0074 53.6512 18.0074H48.3494C48.1281 18.0074 48.0174 17.7281 48.1723 17.5627L49.0135 16.6732C49.0578 16.6219 49.1242 16.5934 49.1906 16.5934H54.4923C54.7137 16.5934 54.8244 16.8728 54.6694 17.0381Z" fill="white"/>
</g>
</g>
<g opacity="0.7">
<mask id="mask1_3881_12081" style="mask-type:luminance" maskUnits="userSpaceOnUse" x="0" y="0" width="30" height="30">
<path d="M30 0H0V30H30V0Z" fill="white"/>
</mask>
<g mask="url(#mask1_3881_12081)">
<path d="M15.0063 0.0297852H15.0308C23.3069 0.0297852 30.0186 6.55461 30.0186 14.6004V15.4115C30.0186 23.4572 23.3069 29.982 15.0308 29.982H15.0063C6.73024 29.982 0.0185547 23.4572 0.0185547 15.4115V14.6004C0.0185547 6.55461 6.73024 0.0297852 15.0063 0.0297852Z" fill="#232323"/>
<path d="M21.4293 11.3021C21.3802 11.3559 21.3189 11.3976 21.2514 11.4214C21.1839 11.4513 21.1102 11.4632 21.0366 11.4632H7.14093C6.65013 11.4632 6.39861 10.8668 6.74217 10.5089L9.02439 8.15308C9.07347 8.09936 9.13479 8.05765 9.20841 8.02779C9.27591 7.99798 9.34953 7.98608 9.42315 7.98608H23.374C23.871 7.98608 24.1164 8.58846 23.7667 8.94631L21.4293 11.3021ZM21.4293 21.835C21.325 21.9363 21.1839 21.996 21.0366 21.996H7.14093C6.65013 21.996 6.39861 21.4115 6.74217 21.0656L9.02439 18.7634C9.07347 18.7097 9.14097 18.6679 9.20841 18.6441C9.27591 18.6143 9.34953 18.6024 9.42315 18.6024H23.374C23.871 18.6024 24.1164 19.1928 23.7667 19.5388L21.4293 21.835ZM21.4293 13.4552C21.325 13.3538 21.1839 13.2942 21.0366 13.2942H7.14093C6.65013 13.2942 6.39861 13.8787 6.74217 14.2247L9.02439 16.5268C9.07347 16.5805 9.14097 16.6223 9.20841 16.6461C9.27591 16.6759 9.34953 16.6879 9.42315 16.6879H23.374C23.871 16.6879 24.1164 16.0974 23.7667 15.7514L21.4293 13.4552Z" fill="url(#paint0_linear_3881_12081)"/>
</g>
</g>
<defs>
<linearGradient id="paint0_linear_3881_12081" x1="7.64427" y1="22.1708" x2="22.4071" y2="7.38653" gradientUnits="userSpaceOnUse">
<stop stop-color="#CF41E8"/>
<stop offset="1" stop-color="#10F2B0"/>
</linearGradient>
<clipPath id="clip0_3881_12081">
<rect width="29.1176" height="30" fill="white" transform="translate(36.8823)"/>
</clipPath>
</defs>
</svg>
