<svg width="50" height="52" viewBox="0 0 50 52" fill="none" xmlns="http://www.w3.org/2000/svg">
<g clip-path="url(#clip0_2401_28425)">
<path d="M25.0103 0.0511475H25.0512C38.8447 0.0511475 50.0308 11.2372 50.0308 25.0307V26.4213C50.0308 40.2147 38.8447 51.4008 25.0512 51.4008H25.0103C11.2169 51.4008 0.0307617 40.2147 0.0307617 26.4213V25.0307C0.0307617 11.2372 11.2169 0.0511475 25.0103 0.0511475Z" fill="#232323"/>
<path d="M35.7156 19.3762C35.6338 19.4683 35.5316 19.5398 35.4191 19.5807C35.3066 19.6319 35.1839 19.6523 35.0612 19.6523H11.9017C11.0837 19.6523 10.6645 18.6298 11.2371 18.0163L15.0408 13.9775C15.1226 13.8854 15.2248 13.8139 15.3475 13.7627C15.46 13.7116 15.5827 13.6912 15.7054 13.6912H38.9569C39.7852 13.6912 40.1942 14.7239 39.6113 15.3374L35.7156 19.3762ZM35.7156 37.4335C35.5418 37.6073 35.3066 37.7096 35.0612 37.7096H11.9017C11.0837 37.7096 10.6645 36.7075 11.2371 36.1145L15.0408 32.1676C15.1226 32.0756 15.2351 32.004 15.3475 31.9631C15.46 31.912 15.5827 31.8916 15.7054 31.8916H38.9569C39.7852 31.8916 40.1942 32.9038 39.6113 33.4969L35.7156 37.4335ZM35.7156 23.0674C35.5418 22.8936 35.3066 22.7914 35.0612 22.7914H11.9017C11.0837 22.7914 10.6645 23.7934 11.2371 24.3865L15.0408 28.3333C15.1226 28.4253 15.2351 28.4969 15.3475 28.5378C15.46 28.5889 15.5827 28.6094 15.7054 28.6094H38.9569C39.7852 28.6094 40.1942 27.5971 39.6113 27.004L35.7156 23.0674Z" fill="url(#paint0_linear_2401_28425)"/>
</g>
<defs>
<linearGradient id="paint0_linear_2401_28425" x1="12.7406" y1="38.0093" x2="38.0407" y2="13.3776" gradientUnits="userSpaceOnUse">
<stop stop-color="#CF41E8"/>
<stop offset="1" stop-color="#10F2B0"/>
</linearGradient>
<clipPath id="clip0_2401_28425">
<rect width="50" height="51.4315" fill="white"/>
</clipPath>
</defs>
</svg>
