<svg width="70" height="30" viewBox="0 0 70 30" fill="none" xmlns="http://www.w3.org/2000/svg">
<g clip-path="url(#clip0_1362_207)">
<mask id="mask0_1362_207" style="mask-type:luminance" maskUnits="userSpaceOnUse" x="40" y="3" width="30" height="24">
<path d="M69.7094 3.4375H40.3125V26.4775H69.7094V3.4375Z" fill="white"/>
</mask>
<g mask="url(#mask0_1362_207)">
<path d="M45.0876 21.0226C45.265 20.8452 45.5089 20.7417 45.7676 20.7417H69.2289C69.6577 20.7417 69.872 21.2591 69.569 21.5622L64.9343 26.1968C64.7569 26.3742 64.513 26.4777 64.2543 26.4777H40.793C40.3643 26.4777 40.1499 25.9603 40.453 25.6572L45.0876 21.0226Z" fill="url(#paint0_linear_1362_207)" fill-opacity="0.6"/>
<path d="M45.0876 3.71838C45.2724 3.54098 45.5163 3.4375 45.7676 3.4375H69.2289C69.6577 3.4375 69.872 3.95492 69.569 4.25798L64.9343 8.89259C64.7569 9.06999 64.513 9.17348 64.2543 9.17348H40.793C40.3643 9.17348 40.1499 8.65605 40.453 8.35299L45.0876 3.71838Z" fill="url(#paint1_linear_1362_207)" fill-opacity="0.6"/>
<path d="M64.9343 12.3146C64.7569 12.1372 64.513 12.0337 64.2543 12.0337H40.793C40.3643 12.0337 40.1499 12.5511 40.453 12.8542L45.0876 17.4888C45.265 17.6662 45.5089 17.7697 45.7676 17.7697H69.2289C69.6577 17.7697 69.872 17.2522 69.569 16.9492L64.9343 12.3146Z" fill="url(#paint2_linear_1362_207)" fill-opacity="0.6"/>
</g>
</g>
<g clip-path="url(#clip1_1362_207)">
<mask id="mask1_1362_207" style="mask-type:luminance" maskUnits="userSpaceOnUse" x="0" y="0" width="30" height="30">
<path d="M30 0H0V30H30V0Z" fill="white"/>
</mask>
<g mask="url(#mask1_1362_207)">
<path d="M15 30C23.3125 30 30 23.3125 30 15C30 6.68745 23.3125 0 15 0C6.68745 0 0 6.68745 0 15C0 23.3125 6.68745 30 15 30Z" fill="#2775CA" fill-opacity="0.6"/>
<path d="M19.1251 17.3749C19.1251 15.1874 17.8126 14.4374 15.1876 14.125C13.3126 13.8749 12.9376 13.375 12.9376 12.4999C12.9376 11.6248 13.5626 11.0624 14.8126 11.0624C15.9376 11.0624 16.5626 11.4374 16.8751 12.3749C16.9376 12.5624 17.1251 12.6874 17.3126 12.6874H18.3125C18.5626 12.6874 18.7501 12.4999 18.7501 12.25V12.1874C18.5 10.8124 17.375 9.74993 15.9376 9.62498V8.12498C15.9376 7.87493 15.7501 7.68743 15.4376 7.62488H14.5001C14.2501 7.62488 14.0626 7.81238 14 8.12498V9.56243C12.125 9.81248 10.9376 11.0624 10.9376 12.625C10.9376 14.6875 12.1876 15.4999 14.8126 15.8125C16.5626 16.1249 17.1251 16.4999 17.1251 17.5C17.1251 18.5 16.25 19.1875 15.0626 19.1875C13.4375 19.1875 12.875 18.4999 12.6875 17.5624C12.6251 17.3125 12.4376 17.1874 12.2501 17.1874H11.1875C10.9376 17.1874 10.7501 17.3749 10.7501 17.6249V17.6875C11 19.2499 12.0001 20.3749 14.0626 20.6875V22.1875C14.0626 22.4374 14.2501 22.6249 14.5625 22.6874H15.5C15.7501 22.6874 15.9376 22.4999 16.0001 22.1875V20.6875C17.8751 20.3749 19.1251 19.0624 19.1251 17.3749Z" fill="white" fill-opacity="0.6"/>
<path d="M11.8127 23.9376C6.93762 22.1876 4.43757 16.7501 6.25017 11.9375C7.18767 9.31252 9.2502 7.31257 11.8127 6.37507C12.0627 6.25012 12.1877 6.06262 12.1877 5.75002V4.87507C12.1877 4.62502 12.0627 4.43752 11.8127 4.37512C11.7501 4.37512 11.6251 4.37512 11.5626 4.43752C5.62512 6.31252 2.37507 12.6251 4.25007 18.5626C5.37507 22.0625 8.06265 24.7501 11.5626 25.8751C11.8126 26.0001 12.0627 25.8751 12.1251 25.6251C12.1876 25.5627 12.1877 25.5001 12.1877 25.3752V24.5001C12.1877 24.3126 12.0002 24.0627 11.8127 23.9376ZM18.4377 4.43752C18.1876 4.31257 17.9376 4.43752 17.8752 4.68757C17.8126 4.75012 17.8127 4.81252 17.8127 4.93762V5.81257C17.8127 6.06262 18.0002 6.31252 18.1877 6.43762C23.0627 8.18752 25.5627 13.625 23.7501 18.4376C22.8126 21.0626 20.7501 23.0626 18.1877 24.0001C17.9376 24.1251 17.8127 24.3126 17.8127 24.6252V25.5001C17.8127 25.7502 17.9376 25.9377 18.1877 26.0001C18.2502 26.0001 18.3751 26.0001 18.4377 25.9377C24.3751 24.0627 27.6252 17.75 25.7502 11.8126C24.6252 8.25007 21.8751 5.56252 18.4377 4.43752Z" fill="white" fill-opacity="0.6"/>
</g>
</g>
<defs>
<linearGradient id="paint0_linear_1362_207" x1="66.9877" y1="0.66906" x2="50.7506" y2="31.7697" gradientUnits="userSpaceOnUse">
<stop stop-color="#00FFA3"/>
<stop offset="1" stop-color="#DC1FFF"/>
</linearGradient>
<linearGradient id="paint1_linear_1362_207" x1="59.8879" y1="-3.03775" x2="43.6508" y2="28.0628" gradientUnits="userSpaceOnUse">
<stop stop-color="#00FFA3"/>
<stop offset="1" stop-color="#DC1FFF"/>
</linearGradient>
<linearGradient id="paint2_linear_1362_207" x1="63.4152" y1="-1.1966" x2="47.1781" y2="29.904" gradientUnits="userSpaceOnUse">
<stop stop-color="#00FFA3"/>
<stop offset="1" stop-color="#DC1FFF"/>
</linearGradient>
<clipPath id="clip0_1362_207">
<rect width="30" height="24" fill="white" transform="translate(40 3)"/>
</clipPath>
<clipPath id="clip1_1362_207">
<rect width="30" height="30" fill="white"/>
</clipPath>
</defs>
</svg>
