<svg width="40" height="40" viewBox="0 0 40 40" fill="none" xmlns="http://www.w3.org/2000/svg">
<g id="icon / usdc" clip-path="url(#clip0_79_4038)">
<path id="Vector" d="M20 40C31.0834 40 40 31.0834 40 20C40 8.9166 31.0834 0 20 0C8.9166 0 0 8.9166 0 20C0 31.0834 8.9166 40 20 40Z" fill="#2775CA"/>
<path id="Vector_2" d="M25.5001 23.1665C25.5001 20.2499 23.7501 19.2499 20.2501 18.8333C17.7501 18.4999 17.2501 17.8333 17.2501 16.6665C17.2501 15.4997 18.0835 14.7499 19.7501 14.7499C21.2501 14.7499 22.0835 15.2499 22.5001 16.4999C22.5835 16.7499 22.8335 16.9165 23.0835 16.9165H24.4167C24.7501 16.9165 25.0001 16.6665 25.0001 16.3333V16.2499C24.6667 14.4165 23.1667 12.9999 21.2501 12.8333V10.8333C21.2501 10.4999 21.0001 10.2499 20.5835 10.1665H19.3335C19.0001 10.1665 18.7501 10.4165 18.6667 10.8333V12.7499C16.1667 13.0833 14.5835 14.7499 14.5835 16.8333C14.5835 19.5833 16.2501 20.6665 19.7501 21.0833C22.0835 21.4999 22.8335 21.9999 22.8335 23.3333C22.8335 24.6667 21.6667 25.5833 20.0835 25.5833C17.9167 25.5833 17.1667 24.6665 16.9167 23.4165C16.8335 23.0833 16.5835 22.9165 16.3335 22.9165H14.9167C14.5835 22.9165 14.3335 23.1665 14.3335 23.4999V23.5833C14.6667 25.6665 16.0001 27.1665 18.7501 27.5833V29.5833C18.7501 29.9165 19.0001 30.1665 19.4167 30.2499H20.6667C21.0001 30.2499 21.2501 29.9999 21.3335 29.5833V27.5833C23.8335 27.1665 25.5001 25.4165 25.5001 23.1665Z" fill="white"/>
<path id="Vector_3" d="M15.7502 31.9168C9.25016 29.5835 5.91676 22.3335 8.33356 15.9167C9.58356 12.4167 12.3336 9.7501 15.7502 8.5001C16.0836 8.3335 16.2502 8.0835 16.2502 7.6667V6.5001C16.2502 6.1667 16.0836 5.9167 15.7502 5.8335C15.6668 5.8335 15.5002 5.8335 15.4168 5.9167C7.50016 8.4167 3.16676 16.8335 5.66676 24.7501C7.16676 29.4167 10.7502 33.0002 15.4168 34.5002C15.7502 34.6668 16.0836 34.5002 16.1668 34.1668C16.2502 34.0836 16.2502 34.0002 16.2502 33.8336V32.6668C16.2502 32.4168 16.0002 32.0836 15.7502 31.9168ZM24.5836 5.9167C24.2502 5.7501 23.9168 5.9167 23.8336 6.2501C23.7502 6.3335 23.7502 6.4167 23.7502 6.5835V7.7501C23.7502 8.0835 24.0002 8.4167 24.2502 8.5835C30.7502 10.9167 34.0836 18.1667 31.6668 24.5835C30.4168 28.0835 27.6668 30.7502 24.2502 32.0002C23.9168 32.1668 23.7502 32.4168 23.7502 32.8336V34.0002C23.7502 34.3336 23.9168 34.5836 24.2502 34.6668C24.3336 34.6668 24.5002 34.6668 24.5836 34.5836C32.5002 32.0836 36.8336 23.6667 34.3336 15.7501C32.8336 11.0001 29.1668 7.4167 24.5836 5.9167Z" fill="white"/>
</g>
<defs>
<clipPath id="clip0_79_4038">
<rect width="40" height="40" fill="white"/>
</clipPath>
</defs>
</svg>
