<svg width="12" height="12" viewBox="0 0 12 12" fill="none" xmlns="http://www.w3.org/2000/svg">
<path d="M8 4.00016V2.25049C8 1.83462 8 1.62668 7.9124 1.49889C7.83586 1.38725 7.71732 1.31141 7.58388 1.2887C7.43114 1.26271 7.24235 1.34984 6.86475 1.52412L2.42951 3.57115C2.09275 3.72658 1.92438 3.80429 1.80105 3.92482C1.69203 4.03137 1.60881 4.16143 1.55775 4.30507C1.5 4.46755 1.5 4.653 1.5 5.02389V7.50016M8.25 7.25016H8.255M1.5 5.60016L1.5 8.90016C1.5 9.46021 1.5 9.74024 1.60899 9.95415C1.70487 10.1423 1.85785 10.2953 2.04601 10.3912C2.25992 10.5002 2.53995 10.5002 3.1 10.5002H8.9C9.46005 10.5002 9.74008 10.5002 9.95399 10.3912C10.1422 10.2953 10.2951 10.1423 10.391 9.95415C10.5 9.74024 10.5 9.46021 10.5 8.90016V5.60016C10.5 5.04011 10.5 4.76008 10.391 4.54617C10.2951 4.35801 10.1422 4.20503 9.95399 4.10915C9.74008 4.00016 9.46005 4.00016 8.9 4.00016L3.1 4.00016C2.53995 4.00016 2.25992 4.00016 2.04601 4.10915C1.85785 4.20502 1.70487 4.35801 1.60899 4.54617C1.5 4.76008 1.5 5.04011 1.5 5.60016ZM8.5 7.25016C8.5 7.38823 8.38807 7.50016 8.25 7.50016C8.11193 7.50016 8 7.38823 8 7.25016C8 7.11209 8.11193 7.00016 8.25 7.00016C8.38807 7.00016 8.5 7.11209 8.5 7.25016Z" stroke="#697586" stroke-linecap="round" stroke-linejoin="round"/>
</svg>
