<svg width="52" height="52" viewBox="0 0 52 52" fill="none" xmlns="http://www.w3.org/2000/svg">
<g filter="url(#filter0_d_2261_15014)">
<path d="M2.5 11C2.5 5.75329 6.75329 1.5 12 1.5H40C45.2467 1.5 49.5 5.75329 49.5 11V39C49.5 44.2467 45.2467 48.5 40 48.5H12C6.75329 48.5 2.5 44.2467 2.5 39V11Z" stroke="#667085" shape-rendering="crispEdges"/>
<path fill-rule="evenodd" clip-rule="evenodd" d="M15.25 19C15.25 16.3766 17.3766 14.25 20 14.25C22.6234 14.25 24.75 16.3766 24.75 19V19.432L26.7833 17.3987C28.6383 15.5437 31.6459 15.5437 33.5008 17.3987C35.3558 19.2537 35.3558 22.2612 33.5008 24.1162L31.367 26.25H32C34.6234 26.25 36.75 28.3766 36.75 31C36.75 33.6234 34.6234 35.75 32 35.75H20C17.3766 35.75 15.25 33.6234 15.25 31V19ZM23.4641 34.25H32C33.7949 34.25 35.25 32.7949 35.25 31C35.25 29.2051 33.7949 27.75 32 27.75H29.867L23.8889 33.7281C23.7596 33.9121 23.6176 34.0865 23.4641 34.25ZM24.75 30.7457L32.4402 23.0555C33.7094 21.7863 33.7094 19.7285 32.4402 18.4593C31.171 17.1901 29.1132 17.1901 27.844 18.4593L24.75 21.5533V30.7457ZM20 15.75C18.2051 15.75 16.75 17.2051 16.75 19V31C16.75 32.7949 18.2051 34.25 20 34.25C21.7949 34.25 23.25 32.7949 23.25 31V19C23.25 17.2051 21.7949 15.75 20 15.75ZM20 30.75C19.8619 30.75 19.75 30.8619 19.75 31C19.75 31.1381 19.8619 31.25 20 31.25C20.1381 31.25 20.25 31.1381 20.25 31C20.25 30.8619 20.1381 30.75 20 30.75ZM18.25 31C18.25 30.0335 19.0335 29.25 20 29.25C20.9665 29.25 21.75 30.0335 21.75 31C21.75 31.9665 20.9665 32.75 20 32.75C19.0335 32.75 18.25 31.9665 18.25 31Z" fill="#121926"/>
</g>
<defs>
<filter id="filter0_d_2261_15014" x="0" y="0" width="52" height="52" filterUnits="userSpaceOnUse" color-interpolation-filters="sRGB">
<feFlood flood-opacity="0" result="BackgroundImageFix"/>
<feColorMatrix in="SourceAlpha" type="matrix" values="0 0 0 0 0 0 0 0 0 0 0 0 0 0 0 0 0 0 127 0" result="hardAlpha"/>
<feOffset dy="1"/>
<feGaussianBlur stdDeviation="1"/>
<feComposite in2="hardAlpha" operator="out"/>
<feColorMatrix type="matrix" values="0 0 0 0 0.0627451 0 0 0 0 0.0941176 0 0 0 0 0.156863 0 0 0 0.05 0"/>
<feBlend mode="normal" in2="BackgroundImageFix" result="effect1_dropShadow_2261_15014"/>
<feBlend mode="normal" in="SourceGraphic" in2="effect1_dropShadow_2261_15014" result="shape"/>
</filter>
</defs>
</svg>
