<svg width="52" height="52" viewBox="0 0 52 52" fill="none" xmlns="http://www.w3.org/2000/svg">
<g filter="url(#filter0_d_2261_15007)">
<path d="M2.5 11C2.5 5.75329 6.75329 1.5 12 1.5H40C45.2467 1.5 49.5 5.75329 49.5 11V39C49.5 44.2467 45.2467 48.5 40 48.5H12C6.75329 48.5 2.5 44.2467 2.5 39V11Z" stroke="#667085" shape-rendering="crispEdges"/>
<path d="M31.2705 19.7506C28.3451 16.8251 23.603 16.8251 20.6776 19.7506C17.7522 22.676 17.7557 27.4145 20.6812 30.3399C23.6066 33.2653 28.3451 33.2618 31.267 30.3399C34.1889 27.4181 34.1924 22.6724 31.2705 19.7506ZM21.827 29.1941C19.5354 26.9025 19.5371 23.1897 21.827 20.8999C24.1168 18.6101 27.8296 18.6083 30.1212 20.8999C32.4128 23.1915 32.4128 26.9025 30.1212 29.1941C27.8296 31.4857 24.1168 31.484 21.827 29.1941Z" fill="#121926"/>
<path d="M28.4315 25.1424C27.4628 25.6717 26.6638 26.4706 26.1345 27.4394C26.0521 27.5892 25.8374 27.5892 25.7575 27.4394C25.2282 26.4706 24.4292 25.6717 23.4605 25.1424C23.3106 25.06 23.3106 24.8452 23.4605 24.7653C24.4292 24.236 25.2282 23.4371 25.7575 22.4683C25.8399 22.3185 26.0546 22.3185 26.1345 22.4683C26.6638 23.4371 27.4628 24.236 28.4315 24.7653C28.5813 24.8477 28.5813 25.0625 28.4315 25.1424Z" fill="#121926"/>
<path fill-rule="evenodd" clip-rule="evenodd" d="M21.3624 13.9187C22.8244 13.3122 24.3914 13 25.9739 13C27.5563 13 29.1233 13.3122 30.5854 13.9187C32.0474 14.5253 33.3758 15.4143 34.4948 16.5351L34.8735 16.9144C35.2467 17.2882 35.2467 17.8936 34.8735 18.2674L34.1183 19.0239C33.7442 19.3985 33.1371 19.3985 32.7631 19.0239L32.3865 18.6467C31.5444 17.8033 30.5447 17.1342 29.4444 16.6777C28.3441 16.2212 27.1648 15.9863 25.9739 15.9863C24.7829 15.9863 23.6036 16.2212 22.5034 16.6777C21.4031 17.1342 20.4033 17.8033 19.5612 18.6467L19.1847 19.0239C18.8106 19.3985 18.2035 19.3985 17.8295 19.0239L17.0742 18.2674C16.701 17.8936 16.701 17.2882 17.0742 16.9144L17.4529 16.5351C18.5719 15.4143 19.9003 14.5253 21.3624 13.9187Z" fill="#121926"/>
<path fill-rule="evenodd" clip-rule="evenodd" d="M14.1031 26.4823C14.3098 28.0519 14.8236 29.5654 15.6151 30.9365C16.4067 32.3075 17.4606 33.5093 18.7166 34.473C19.9726 35.4368 21.4061 36.1437 22.9353 36.5535L23.451 36.6916C23.9618 36.8285 24.4868 36.5254 24.6237 36.0146L24.9001 34.9832C25.0369 34.4724 24.7338 33.9473 24.223 33.8105L23.7073 33.6723C22.5565 33.3639 21.4776 32.8319 20.5324 32.1066C19.5872 31.3813 18.794 30.4769 18.1983 29.4451C17.6026 28.4133 17.2159 27.2742 17.0604 26.093C16.9049 24.9117 16.9836 23.7114 17.2919 22.5606L17.4301 22.0449C17.567 21.5341 17.2639 21.009 16.7531 20.8722L15.7217 20.5958C15.2109 20.4589 14.6858 20.762 14.549 21.2728L14.4108 21.7885C14.001 23.3178 13.8965 24.9127 14.1031 26.4823Z" fill="#121926"/>
<path fill-rule="evenodd" clip-rule="evenodd" d="M37.8969 26.4823C37.6902 28.0519 37.1764 29.5654 36.3849 30.9365C35.5933 32.3075 34.5394 33.5093 33.2834 34.473C32.0274 35.4368 30.5939 36.1437 29.0647 36.5535L28.549 36.6916C28.0382 36.8285 27.5132 36.5254 27.3763 36.0146L27.0999 34.9832C26.9631 34.4724 27.2662 33.9473 27.777 33.8105L28.2927 33.6723C29.4435 33.3639 30.5224 32.8319 31.4676 32.1066C32.4128 31.3813 33.206 30.4769 33.8017 29.4451C34.3974 28.4133 34.7841 27.2742 34.9396 26.093C35.0951 24.9117 35.0164 23.7114 34.7081 22.5606L34.5699 22.0449C34.433 21.5341 34.7361 21.009 35.2469 20.8722L36.2783 20.5958C36.7891 20.4589 37.3142 20.762 37.451 21.2728L37.5892 21.7885C37.999 23.3178 38.1035 24.9127 37.8969 26.4823Z" fill="#121926"/>
</g>
<defs>
<filter id="filter0_d_2261_15007" x="0" y="0" width="52" height="52" filterUnits="userSpaceOnUse" color-interpolation-filters="sRGB">
<feFlood flood-opacity="0" result="BackgroundImageFix"/>
<feColorMatrix in="SourceAlpha" type="matrix" values="0 0 0 0 0 0 0 0 0 0 0 0 0 0 0 0 0 0 127 0" result="hardAlpha"/>
<feOffset dy="1"/>
<feGaussianBlur stdDeviation="1"/>
<feComposite in2="hardAlpha" operator="out"/>
<feColorMatrix type="matrix" values="0 0 0 0 0.0627451 0 0 0 0 0.0941176 0 0 0 0 0.156863 0 0 0 0.05 0"/>
<feBlend mode="normal" in2="BackgroundImageFix" result="effect1_dropShadow_2261_15007"/>
<feBlend mode="normal" in="SourceGraphic" in2="effect1_dropShadow_2261_15007" result="shape"/>
</filter>
</defs>
</svg>
