<svg width="24" height="24" viewBox="0 0 24 24" fill="none" xmlns="http://www.w3.org/2000/svg">
<path d="M17.2705 6.75056C14.3451 3.82515 9.60303 3.82515 6.67762 6.75056C3.75221 9.67596 3.75574 14.4145 6.68115 17.3399C9.60656 20.2653 14.3451 20.2618 17.267 17.3399C20.1889 14.4181 20.1924 9.67243 17.2705 6.75056ZM7.82695 16.1941C5.53535 13.9025 5.53712 10.1897 7.82695 7.89989C10.1168 5.61005 13.8296 5.60829 16.1212 7.89989C18.4128 10.1915 18.4128 13.9025 16.1212 16.1941C13.8296 18.4857 10.1168 18.484 7.82695 16.1941Z" fill="#121926"/>
<path d="M14.4315 12.1424C13.4628 12.6717 12.6638 13.4706 12.1345 14.4394C12.0521 14.5892 11.8374 14.5892 11.7575 14.4394C11.2282 13.4706 10.4292 12.6717 9.46045 12.1424C9.31065 12.06 9.31065 11.8452 9.46045 11.7653C10.4292 11.236 11.2282 10.4371 11.7575 9.46831C11.8399 9.31851 12.0546 9.31851 12.1345 9.46831C12.6638 10.4371 13.4628 11.236 14.4315 11.7653C14.5813 11.8477 14.5813 12.0625 14.4315 12.1424Z" fill="#121926"/>
<path fill-rule="evenodd" clip-rule="evenodd" d="M7.36237 0.918744C8.82439 0.31219 10.3914 0 11.9739 0C13.5563 0 15.1233 0.312189 16.5854 0.918744C18.0474 1.5253 19.3758 2.41434 20.4948 3.53511L20.8735 3.9144C21.2467 4.28821 21.2467 4.89364 20.8735 5.26744L20.1183 6.02387C19.7442 6.39852 19.1371 6.39852 18.7631 6.02387L18.3865 5.64674C17.5444 4.80327 16.5447 4.1342 15.4444 3.67772C14.3441 3.22124 13.1648 2.98629 11.9739 2.98629C10.7829 2.98629 9.60364 3.22124 8.50336 3.67772C7.40307 4.1342 6.40333 4.80327 5.5612 5.64674L5.18466 6.02387C4.81061 6.39852 4.20352 6.39852 3.82947 6.02387L3.07424 5.26744C2.70103 4.89364 2.70103 4.28821 3.07424 3.9144L3.45293 3.53511C4.57191 2.41434 5.90034 1.5253 7.36237 0.918744Z" fill="#121926"/>
<path fill-rule="evenodd" clip-rule="evenodd" d="M0.103137 13.4823C0.309779 15.0519 0.823556 16.5654 1.61513 17.9365C2.40671 19.3075 3.46058 20.5093 4.71658 21.473C5.97258 22.4368 7.4061 23.1437 8.93531 23.5535L9.45101 23.6916C9.96181 23.8285 10.4868 23.5254 10.6237 23.0146L10.9001 21.9832C11.0369 21.4724 10.7338 20.9473 10.223 20.8105L9.70732 20.6723C8.55647 20.3639 7.47763 19.8319 6.53239 19.1066C5.58716 18.3813 4.79404 17.4769 4.19832 16.4451C3.60259 15.4133 3.21594 14.2742 3.06042 13.093C2.90491 11.9117 2.98358 10.7114 3.29195 9.56056L3.43013 9.04485C3.567 8.53405 3.26387 8.00902 2.75307 7.87215L1.72167 7.59579C1.21087 7.45892 0.685832 7.76205 0.548964 8.27285L0.410782 8.78855C0.00103212 10.3178 -0.103506 11.9127 0.103137 13.4823Z" fill="#121926"/>
<path fill-rule="evenodd" clip-rule="evenodd" d="M23.8969 13.4823C23.6902 15.0519 23.1764 16.5654 22.3849 17.9365C21.5933 19.3075 20.5394 20.5093 19.2834 21.473C18.0274 22.4368 16.5939 23.1437 15.0647 23.5535L14.549 23.6916C14.0382 23.8285 13.5132 23.5254 13.3763 23.0146L13.0999 21.9832C12.9631 21.4724 13.2662 20.9473 13.777 20.8105L14.2927 20.6723C15.4435 20.3639 16.5224 19.8319 17.4676 19.1066C18.4128 18.3813 19.206 17.4769 19.8017 16.4451C20.3974 15.4133 20.7841 14.2742 20.9396 13.093C21.0951 11.9117 21.0164 10.7114 20.7081 9.56056L20.5699 9.04485C20.433 8.53405 20.7361 8.00902 21.2469 7.87215L22.2783 7.59579C22.7891 7.45892 23.3142 7.76205 23.451 8.27285L23.5892 8.78855C23.999 10.3178 24.1035 11.9127 23.8969 13.4823Z" fill="#121926"/>
</svg>
