<svg width="154" height="49" viewBox="0 0 154 49" fill="none" xmlns="http://www.w3.org/2000/svg">
<path d="M61.5456 18.4811H65.466V33.822C65.4589 35.2283 65.1606 36.4392 64.5712 37.4549C63.9817 38.4634 63.1578 39.2411 62.0996 39.788C61.0484 40.3277 59.8233 40.5976 58.4241 40.5976C57.1457 40.5976 55.9952 40.3703 54.9724 39.9158C53.9568 39.4541 53.1507 38.7723 52.5541 37.8703C51.9575 36.9684 51.6592 35.8462 51.6592 34.5039H55.5903C55.5974 35.0934 55.7253 35.6012 55.9739 36.0273C56.2295 36.4534 56.5811 36.7801 57.0285 37.0074C57.476 37.2347 57.9909 37.3483 58.5733 37.3483C59.2054 37.3483 59.7416 37.2169 60.182 36.9541C60.6223 36.6843 60.9561 36.2865 61.1834 35.761C61.4177 35.2354 61.5385 34.5891 61.5456 33.822V18.4811ZM80.0133 33.4172V23.9357H83.8698V40.2993H80.1305V37.3909H79.96C79.5907 38.3071 78.9834 39.0564 78.1383 39.6388C77.3002 40.2212 76.2668 40.5124 75.0381 40.5124C73.9657 40.5124 73.0175 40.2745 72.1937 39.7986C71.3769 39.3157 70.7377 38.6161 70.2761 37.6999C69.8144 36.7766 69.5836 35.6615 69.5836 34.3547V23.9357H73.4401V33.7581C73.4401 34.7951 73.7242 35.6189 74.2924 36.2297C74.8606 36.8405 75.6063 37.1459 76.5296 37.1459C77.0978 37.1459 77.6482 37.0074 78.1809 36.7304C78.7136 36.4534 79.1503 36.0415 79.4913 35.4946C79.8393 34.9407 80.0133 34.2482 80.0133 33.4172ZM87.8355 46.4357V23.9357H91.6282V26.6416H91.8519C92.0507 26.2439 92.3313 25.8213 92.6935 25.3739C93.0557 24.9193 93.5458 24.5323 94.1637 24.2127C94.7816 23.886 95.5699 23.7226 96.5287 23.7226C97.7929 23.7226 98.9328 24.0458 99.9485 24.6921C100.971 25.3313 101.781 26.2794 102.377 27.5365C102.981 28.7865 103.283 30.3206 103.283 32.1388C103.283 33.9357 102.988 35.4627 102.399 36.7198C101.809 37.9769 101.007 38.9357 99.9911 39.5962C98.9755 40.2567 97.8249 40.587 96.5394 40.587C95.6019 40.587 94.8242 40.4307 94.2063 40.1182C93.5884 39.8057 93.0912 39.4293 92.7148 38.9889C92.3455 38.5415 92.0578 38.1189 91.8519 37.7212H91.6921V46.4357H87.8355ZM91.6175 32.1175C91.6175 33.1757 91.7666 34.1026 92.0649 34.898C92.3703 35.6935 92.8071 36.3149 93.3753 36.7624C93.9506 37.2027 94.6466 37.4229 95.4634 37.4229C96.3157 37.4229 97.0294 37.1956 97.6047 36.7411C98.18 36.2794 98.6132 35.6509 98.9044 34.8554C99.2027 34.0529 99.3519 33.1402 99.3519 32.1175C99.3519 31.1019 99.2063 30.1999 98.9151 29.4115C98.6239 28.6232 98.1907 28.0053 97.6154 27.5578C97.0401 27.1104 96.3228 26.8867 95.4634 26.8867C94.6395 26.8867 93.9399 27.1033 93.3647 27.5365C92.7894 27.9698 92.3526 28.577 92.0543 29.3583C91.7631 30.1395 91.6175 31.0593 91.6175 32.1175ZM106.586 40.2993V23.9357H110.442V40.2993H106.586ZM108.524 21.6132C107.914 21.6132 107.388 21.4108 106.948 21.006C106.507 20.5941 106.287 20.1005 106.287 19.5252C106.287 18.9428 106.507 18.4492 106.948 18.0443C107.388 17.6324 107.914 17.4264 108.524 17.4264C109.142 17.4264 109.668 17.6324 110.101 18.0443C110.542 18.4492 110.762 18.9428 110.762 19.5252C110.762 20.1005 110.542 20.5941 110.101 21.006C109.668 21.4108 109.142 21.6132 108.524 21.6132ZM122.579 23.9357V26.9186H113.172V23.9357H122.579ZM115.494 20.0152H119.351V35.3774C119.351 35.8959 119.429 36.2936 119.585 36.5706C119.749 36.8405 119.962 37.0252 120.225 37.1246C120.487 37.224 120.779 37.2737 121.098 37.2737C121.34 37.2737 121.56 37.256 121.759 37.2205C121.965 37.185 122.121 37.153 122.227 37.1246L122.877 40.1395C122.671 40.2105 122.377 40.2887 121.993 40.3739C121.617 40.4591 121.155 40.5088 120.608 40.523C119.642 40.5514 118.772 40.4059 117.998 40.0862C117.224 39.7595 116.61 39.2553 116.155 38.5735C115.708 37.8916 115.487 37.0394 115.494 36.0166V20.0152ZM132.873 40.6189C131.232 40.6189 129.815 40.278 128.622 39.5962C127.436 38.9073 126.523 37.9343 125.884 36.6772C125.245 35.413 124.925 33.925 124.925 32.2134C124.925 30.5301 125.245 29.0529 125.884 27.7816C126.53 26.5032 127.432 25.5088 128.59 24.7986C129.748 24.0813 131.108 23.7226 132.67 23.7226C133.679 23.7226 134.631 23.886 135.526 24.2127C136.428 24.5323 137.223 25.0294 137.912 25.7041C138.608 26.3789 139.155 27.2382 139.553 28.2823C139.95 29.3192 140.149 30.555 140.149 31.9897V33.1722H126.736V30.5728H136.452C136.445 29.8341 136.285 29.1772 135.973 28.6019C135.66 28.0195 135.224 27.5614 134.663 27.2276C134.109 26.8938 133.462 26.7269 132.724 26.7269C131.935 26.7269 131.243 26.9186 130.646 27.3022C130.05 27.6786 129.584 28.1757 129.251 28.7936C128.924 29.4044 128.757 30.0756 128.75 30.8071V33.0763C128.75 34.028 128.924 34.8448 129.272 35.5266C129.62 36.2013 130.106 36.7198 130.731 37.082C131.356 37.4371 132.088 37.6147 132.926 37.6147C133.487 37.6147 133.995 37.5365 134.45 37.3803C134.904 37.2169 135.298 36.979 135.632 36.6665C135.966 36.354 136.218 35.9669 136.388 35.5053L139.989 35.9101C139.762 36.8618 139.329 37.6928 138.69 38.403C138.057 39.1061 137.248 39.653 136.261 40.0436C135.273 40.4272 134.144 40.6189 132.873 40.6189ZM143.412 40.2993V23.9357H147.151V26.663H147.322C147.62 25.7184 148.131 24.9904 148.856 24.479C149.587 23.9605 150.422 23.7013 151.359 23.7013C151.572 23.7013 151.81 23.712 152.073 23.7333C152.343 23.7475 152.567 23.7723 152.744 23.8078V27.3554C152.581 27.2986 152.322 27.2489 151.966 27.2063C151.618 27.1566 151.281 27.1317 150.954 27.1317C150.251 27.1317 149.619 27.2844 149.058 27.5898C148.504 27.8881 148.067 28.3036 147.748 28.8362C147.428 29.3689 147.268 29.9833 147.268 30.6793V40.2993H143.412Z" fill="black"/>
<mask id="mask0_2261_14804" style="mask-type:luminance" maskUnits="userSpaceOnUse" x="0" y="8" width="41" height="40">
<path d="M40.7856 8.09961H0.785645V47.7463H40.7856V8.09961Z" fill="white"/>
</mask>
<g mask="url(#mask0_2261_14804)">
<g filter="url(#filter0_d_2261_14804)">
<path d="M4.61494 39.2798C6.28993 41.6096 8.43848 43.559 10.9197 45.0003C13.401 46.4415 16.1588 47.3419 19.0125 47.6426C17.5443 45.4333 15.4102 43.4008 12.746 41.8533C10.0818 40.3059 7.26034 39.4605 4.61494 39.2798Z" fill="#1C1C1C"/>
<path d="M16.3259 35.6919C11.1931 32.7099 5.63756 31.9499 1.66241 33.2924C2.04617 34.5607 2.55227 35.7888 3.17359 36.9592C6.62731 36.8792 10.3982 37.8172 13.907 39.8552C17.4158 41.8931 20.0995 44.7058 21.7418 47.7464C23.0669 47.7057 24.3852 47.5369 25.6779 47.2424C24.8742 43.1248 21.4575 38.6746 16.3259 35.6919Z" fill="#1C1C1C"/>
<path d="M40.7857 23.5877C40.1331 20.9332 38.9522 18.4375 37.3137 16.2495C35.6752 14.0615 33.6126 12.2262 31.249 10.853C28.8855 9.47985 26.2694 8.59706 23.5572 8.25734C20.8449 7.91763 18.0919 8.12796 15.4627 8.87577C19.8551 9.41331 24.7306 11.0622 29.512 13.84C34.2935 16.6178 38.1443 20.0359 40.7857 23.5877Z" fill="#1C1C1C"/>
<path d="M34.395 33.3227C32.1466 29.5889 28.2952 26.0135 23.5506 23.2573C18.8062 20.501 13.7936 18.9267 9.44015 18.8225C5.61014 18.7318 2.73562 19.8452 1.55571 21.8765C1.54899 21.8885 1.53959 21.8999 1.53219 21.9121C1.42603 22.293 1.33465 22.6746 1.25133 23.0577C2.89891 22.4073 4.80786 22.0451 6.93049 22.0047C11.6508 21.9162 16.9335 23.4259 21.8084 26.2581C26.6832 29.0903 30.6147 32.9331 32.875 37.0762C33.8884 38.9428 34.5206 40.7805 34.7712 42.5363C35.0629 42.2756 35.3491 42.0061 35.6266 41.726C35.6341 41.7132 35.6388 41.6997 35.6461 41.6863C36.8261 39.6531 36.3698 36.6051 34.395 33.3227Z" fill="#1C1C1C"/>
<path d="M19.941 29.4696C12.6755 25.2486 4.64656 24.5874 0.785645 27.5331C0.793228 28.4551 0.863719 29.3756 0.996629 30.2881C2.13238 29.9438 3.30292 29.7269 4.48663 29.6417C8.80111 29.3171 13.5577 30.5192 17.8742 33.0281C22.1906 35.5372 25.5933 39.0756 27.4491 42.9814C27.9622 44.0515 28.3534 45.1757 28.6156 46.3331C29.4743 45.9964 30.3093 45.6019 31.1146 45.1525C31.761 40.3387 27.2087 33.6914 19.941 29.4696Z" fill="#1C1C1C"/>
<path d="M38.132 27.073C35.8583 23.3431 31.9732 19.7577 27.195 16.9833C22.417 14.2089 17.3848 12.6097 13.0173 12.4813C9.68792 12.3852 7.10906 13.1922 5.77191 14.7168C11.3241 13.7761 18.6474 15.3572 25.7457 19.4808C32.844 23.6045 37.8472 29.1842 39.7784 34.4729C40.4402 32.5572 39.8644 29.9173 38.132 27.073Z" fill="#1C1C1C"/>
</g>
</g>
<defs>
<filter id="filter0_d_2261_14804" x="-21.9592" y="-12.3707" width="85.4896" height="85.1366" filterUnits="userSpaceOnUse" color-interpolation-filters="sRGB">
<feFlood flood-opacity="0" result="BackgroundImageFix"/>
<feColorMatrix in="SourceAlpha" type="matrix" values="0 0 0 0 0 0 0 0 0 0 0 0 0 0 0 0 0 0 127 0" result="hardAlpha"/>
<feOffset dy="2.27449"/>
<feGaussianBlur stdDeviation="11.3724"/>
<feComposite in2="hardAlpha" operator="out"/>
<feColorMatrix type="matrix" values="0 0 0 0 0 0 0 0 0 0 0 0 0 0 0 0 0 0 0.1 0"/>
<feBlend mode="normal" in2="BackgroundImageFix" result="effect1_dropShadow_2261_14804"/>
<feBlend mode="normal" in="SourceGraphic" in2="effect1_dropShadow_2261_14804" result="shape"/>
</filter>
</defs>
</svg>
