<svg width="221" height="70" viewBox="0 0 221 70" fill="none" xmlns="http://www.w3.org/2000/svg">
<g clip-path="url(#clip0_2324_20395)">
<path d="M138.144 47.2637H138.509C139.148 47.2637 139.673 46.7452 139.673 46.1035V24.251C139.673 23.6093 139.148 23.0908 138.509 23.0908H138.144C137.505 23.0908 136.98 23.6093 136.98 24.251V46.1035C136.98 46.7452 137.505 47.2637 138.144 47.2637Z" fill="black" stroke="black"/>
<path d="M93.6139 47.2637H93.9789C94.6176 47.2637 95.1425 46.7452 95.1425 46.1035V24.251C95.1425 23.6093 94.6176 23.0908 93.9789 23.0908H93.6139C92.9752 23.0908 92.4502 23.6093 92.4502 24.251V46.1035C92.4502 46.7452 92.9752 47.2637 93.6139 47.2637Z" fill="black" stroke="black"/>
<path d="M122.25 24.416C122.25 24.383 122.25 24.383 122.25 24.35C122.217 24.152 122.15 23.9539 121.985 23.7889C121.951 23.7558 121.885 23.7228 121.852 23.6898C121.852 23.6898 121.852 23.6898 121.819 23.6898C121.785 23.6568 121.719 23.6568 121.686 23.6238H121.653C121.62 23.6238 121.586 23.5908 121.52 23.5908C121.487 23.5908 121.487 23.5908 121.454 23.5908C121.42 23.5908 121.387 23.5908 121.354 23.5908C121.321 23.5908 121.321 23.5908 121.288 23.5908C121.255 23.5908 121.221 23.5908 121.188 23.5908H121.155C121.122 23.5908 121.055 23.6238 121.022 23.6238C121.022 23.6238 120.989 23.6238 120.989 23.6568C120.956 23.6898 120.923 23.6898 120.89 23.7228C120.856 23.7228 120.856 23.7558 120.823 23.7558C120.79 23.7889 120.757 23.7889 120.757 23.8219C120.724 23.8549 120.724 23.8549 120.724 23.8879C120.69 23.9209 120.69 23.9209 120.657 23.9539L107.617 44.288L101.08 34.121C100.815 33.7248 100.284 33.5927 99.885 33.8568C99.4868 34.121 99.3541 34.6491 99.6195 35.0453L106.887 46.3676C106.92 46.4006 106.92 46.4336 106.953 46.4336C106.953 46.4666 106.986 46.4666 106.986 46.4996C107.02 46.5326 107.02 46.5326 107.053 46.5657C107.086 46.5987 107.086 46.5987 107.119 46.6317C107.152 46.6317 107.152 46.6647 107.185 46.6647C107.219 46.6647 107.252 46.6977 107.252 46.6977C107.285 46.6977 107.318 46.7307 107.351 46.7307C107.385 46.7307 107.385 46.7307 107.418 46.7637C107.451 46.7637 107.484 46.7637 107.517 46.7637C107.55 46.7637 107.55 46.7637 107.584 46.7637C107.617 46.7637 107.65 46.7637 107.683 46.7637C107.716 46.7637 107.716 46.7637 107.75 46.7637C107.783 46.7637 107.816 46.7637 107.849 46.7307C107.882 46.7307 107.882 46.7307 107.915 46.6977C107.949 46.6977 107.982 46.6647 108.015 46.6317C108.015 46.6317 108.048 46.6317 108.048 46.5987C108.081 46.5657 108.115 46.5657 108.148 46.5326L108.181 46.4996C108.214 46.4666 108.214 46.4666 108.247 46.4336C108.28 46.4006 108.28 46.4006 108.314 46.3676L120.491 27.3869V45.9055C120.491 46.3676 120.89 46.7637 121.354 46.7637C121.819 46.7637 122.217 46.3676 122.217 45.9055L122.25 24.416Z" fill="black"/>
<mask id="mask0_2324_20395" style="mask-type:luminance" maskUnits="userSpaceOnUse" x="97" y="22" width="27" height="27">
<path d="M123.481 22.5908H97.4814V48.5908H123.481V22.5908Z" fill="white"/>
<path d="M122.25 24.416C122.25 24.383 122.25 24.383 122.25 24.35C122.217 24.152 122.15 23.9539 121.985 23.7889C121.951 23.7558 121.885 23.7228 121.852 23.6898C121.852 23.6898 121.852 23.6898 121.819 23.6898C121.785 23.6568 121.719 23.6568 121.686 23.6238H121.653C121.62 23.6238 121.586 23.5908 121.52 23.5908C121.487 23.5908 121.487 23.5908 121.454 23.5908C121.42 23.5908 121.387 23.5908 121.354 23.5908C121.321 23.5908 121.321 23.5908 121.288 23.5908C121.255 23.5908 121.221 23.5908 121.188 23.5908H121.155C121.122 23.5908 121.055 23.6238 121.022 23.6238C121.022 23.6238 120.989 23.6238 120.989 23.6568C120.956 23.6898 120.923 23.6898 120.89 23.7228C120.856 23.7228 120.856 23.7558 120.823 23.7558C120.79 23.7889 120.757 23.7889 120.757 23.8219C120.724 23.8549 120.724 23.8549 120.724 23.8879C120.69 23.9209 120.69 23.9209 120.657 23.9539L107.617 44.288L101.08 34.121C100.815 33.7248 100.284 33.5927 99.885 33.8568C99.4868 34.121 99.3541 34.6491 99.6195 35.0453L106.887 46.3676C106.92 46.4006 106.92 46.4336 106.953 46.4336C106.953 46.4666 106.986 46.4666 106.986 46.4996C107.02 46.5326 107.02 46.5326 107.053 46.5657C107.086 46.5987 107.086 46.5987 107.119 46.6317C107.152 46.6317 107.152 46.6647 107.185 46.6647C107.219 46.6647 107.252 46.6977 107.252 46.6977C107.285 46.6977 107.318 46.7307 107.351 46.7307C107.385 46.7307 107.385 46.7307 107.418 46.7637C107.451 46.7637 107.484 46.7637 107.517 46.7637C107.55 46.7637 107.55 46.7637 107.584 46.7637C107.617 46.7637 107.65 46.7637 107.683 46.7637C107.716 46.7637 107.716 46.7637 107.75 46.7637C107.783 46.7637 107.816 46.7637 107.849 46.7307C107.882 46.7307 107.882 46.7307 107.915 46.6977C107.949 46.6977 107.982 46.6647 108.015 46.6317C108.015 46.6317 108.048 46.6317 108.048 46.5987C108.081 46.5657 108.115 46.5657 108.148 46.5326L108.181 46.4996C108.214 46.4666 108.214 46.4666 108.247 46.4336C108.28 46.4006 108.28 46.4006 108.314 46.3676L120.491 27.3869V45.9055C120.491 46.3676 120.89 46.7637 121.354 46.7637C121.819 46.7637 122.217 46.3676 122.217 45.9055L122.25 24.416Z" fill="black"/>
</mask>
<g mask="url(#mask0_2324_20395)">
<path d="M122.249 24.416L123.249 24.4176V24.416H122.249ZM122.249 24.35H123.249V24.2668L123.235 24.1848L122.249 24.35ZM121.851 23.6898L122.556 22.9809L122.264 22.6898H121.851V23.6898ZM121.818 23.6898L121.112 24.3988L121.405 24.6898H121.818V23.6898ZM121.685 23.6238L122.39 22.9149L122.098 22.6238H121.685V23.6238ZM120.988 23.6568L121.693 24.3658L121.988 24.0726V23.6568H120.988ZM120.889 23.7228V24.7228H121.301L121.594 24.4318L120.889 23.7228ZM120.822 23.7558V22.7558H120.41L120.117 23.0469L120.822 23.7558ZM120.756 23.8219L121.461 24.5308L121.756 24.2376V23.8219H120.756ZM120.723 23.8879L121.428 24.5968L121.723 24.3036V23.8879H120.723ZM120.656 23.9539L119.951 23.245L119.874 23.3221L119.815 23.4141L120.656 23.9539ZM107.616 44.288L106.775 44.8288L107.617 46.1387L108.458 44.8278L107.616 44.288ZM101.079 34.121L101.92 33.5802L101.915 33.5722L101.91 33.5644L101.079 34.121ZM99.6195 35.0453L100.461 34.5051L100.455 34.4968L100.45 34.4886L99.6195 35.0453ZM106.886 46.3676L106.044 46.9077L106.103 46.9996L106.181 47.0765L106.886 46.3676ZM106.952 46.4336H107.952V45.4336H106.952V46.4336ZM106.985 46.4996H105.985V46.9154L106.28 47.2086L106.985 46.4996ZM107.118 46.6317L106.413 47.3406L106.705 47.6317H107.118V46.6317ZM107.251 46.6977L106.546 47.4067L106.838 47.6977H107.251V46.6977ZM107.417 46.7637L106.712 47.4727L107.004 47.7637H107.417V46.7637ZM107.848 46.7307V45.7307H107.435L107.143 46.0218L107.848 46.7307ZM107.914 46.6977V45.6977H107.502L107.209 45.9887L107.914 46.6977ZM108.014 46.6317V45.6317H107.601L107.309 45.9227L108.014 46.6317ZM108.047 46.5987L107.342 45.8897L107.047 46.1829V46.5987H108.047ZM108.313 46.3676L109.018 47.0765L109.095 46.9995L109.154 46.9076L108.313 46.3676ZM120.49 27.3869H121.49V23.9764L119.649 26.8469L120.49 27.3869ZM122.216 45.9055L121.216 45.9039V45.9055H122.216ZM123.249 24.416C123.249 24.4159 123.249 24.415 123.249 24.4149C123.249 24.4148 123.249 24.4138 123.249 24.4138C123.249 24.4139 123.249 24.4137 123.249 24.4138C123.249 24.4137 123.249 24.4127 123.249 24.4127C123.249 24.4126 123.249 24.4117 123.249 24.4116C123.249 24.4117 123.249 24.4115 123.249 24.4116V24.4106C123.249 24.4107 123.249 24.4105 123.249 24.4106C123.249 24.4106 123.249 24.4096 123.249 24.4095C123.249 24.4095 123.249 24.4086 123.249 24.4085C123.249 24.4084 123.249 24.4075 123.249 24.4074C123.249 24.4073 123.249 24.4064 123.249 24.4063C123.249 24.4062 123.249 24.4053 123.249 24.4052C123.249 24.4053 123.249 24.4051 123.249 24.4052C123.249 24.4051 123.249 24.4041 123.249 24.404C123.249 24.4041 123.249 24.4039 123.249 24.404V24.4029C123.249 24.403 123.249 24.4028 123.249 24.4029C123.249 24.4028 123.249 24.4018 123.249 24.4017C123.249 24.4016 123.249 24.4006 123.249 24.4005C123.249 24.4004 123.249 24.3994 123.249 24.3993V24.3983V24.3972V24.3962C123.249 24.3963 123.249 24.3961 123.249 24.3962C123.249 24.3961 123.249 24.3952 123.249 24.3951C123.249 24.3952 123.249 24.395 123.249 24.3951V24.3941C123.249 24.3942 123.249 24.394 123.249 24.3941C123.249 24.394 123.249 24.393 123.249 24.393C123.249 24.3931 123.249 24.3929 123.249 24.393V24.392C123.249 24.3921 123.249 24.3919 123.249 24.392V24.3909C123.249 24.3908 123.249 24.3899 123.249 24.3899C123.249 24.39 123.249 24.3898 123.249 24.3899C123.249 24.3899 123.249 24.3889 123.249 24.3888C123.249 24.3888 123.249 24.3879 123.249 24.3878C123.249 24.3878 123.249 24.3868 123.249 24.3867C123.249 24.3866 123.249 24.3857 123.249 24.3857C123.249 24.3856 123.249 24.3846 123.249 24.3846V24.3836C123.249 24.3836 123.249 24.3826 123.249 24.3825C123.249 24.3824 123.249 24.3815 123.249 24.3815V24.3804C123.249 24.3804 123.249 24.3795 123.249 24.3794C123.249 24.3794 123.249 24.3784 123.249 24.3783C123.249 24.3783 123.249 24.3774 123.249 24.3773V24.3762C123.249 24.3761 123.249 24.3752 123.249 24.3751C123.249 24.375 123.249 24.374 123.249 24.374C123.249 24.3741 123.249 24.3739 123.249 24.374C123.249 24.3739 123.249 24.3729 123.249 24.3729C123.249 24.373 123.249 24.3728 123.249 24.3729C123.249 24.3728 123.249 24.3719 123.249 24.3719C123.249 24.3719 123.249 24.3709 123.249 24.3708C123.249 24.3709 123.249 24.3707 123.249 24.3708C123.249 24.3707 123.249 24.3698 123.249 24.3697C123.249 24.3698 123.249 24.3696 123.249 24.3697C123.249 24.3696 123.249 24.3687 123.249 24.3686C123.249 24.3686 123.249 24.3676 123.249 24.3675C123.249 24.3674 123.249 24.3664 123.249 24.3663C123.249 24.3662 123.249 24.3652 123.249 24.3651C123.249 24.365 123.249 24.3641 123.249 24.364C123.249 24.3641 123.249 24.3639 123.249 24.364V24.3629C123.249 24.363 123.249 24.3628 123.249 24.3629V24.3619C123.249 24.362 123.249 24.3618 123.249 24.3619C123.249 24.3618 123.249 24.3609 123.249 24.3608C123.249 24.3609 123.249 24.3607 123.249 24.3608V24.3598V24.3587V24.3577C123.249 24.3576 123.249 24.3566 123.249 24.3565C123.249 24.3564 123.249 24.3554 123.249 24.3553C123.249 24.3552 123.249 24.3542 123.249 24.3541C123.249 24.354 123.249 24.3531 123.249 24.353C123.249 24.3529 123.249 24.352 123.249 24.3519C123.249 24.3518 123.249 24.3501 123.249 24.35C123.249 24.3501 123.249 24.3499 123.249 24.35H121.249C121.249 24.3499 121.249 24.3501 121.249 24.35C121.249 24.3501 121.249 24.3509 121.249 24.351C121.249 24.3511 121.249 24.352 121.249 24.3521C121.249 24.3522 121.249 24.3531 121.249 24.3532C121.249 24.3533 121.249 24.3542 121.249 24.3543C121.249 24.3544 121.249 24.3554 121.249 24.3555C121.249 24.3556 121.249 24.3566 121.249 24.3567V24.3578C121.249 24.3579 121.249 24.3589 121.249 24.359C121.249 24.3589 121.249 24.3591 121.249 24.359C121.249 24.3591 121.249 24.36 121.249 24.3601C121.249 24.36 121.249 24.3602 121.249 24.3601C121.249 24.3602 121.249 24.3612 121.249 24.3613C121.249 24.3612 121.249 24.3614 121.249 24.3613C121.249 24.3614 121.249 24.3624 121.249 24.3625C121.249 24.3624 121.249 24.3626 121.249 24.3625V24.3636C121.249 24.3635 121.249 24.3637 121.249 24.3636V24.3647C121.249 24.3648 121.249 24.3656 121.249 24.3657C121.249 24.3658 121.249 24.3668 121.249 24.3669V24.368C121.249 24.3681 121.249 24.3691 121.249 24.3691V24.3701C121.249 24.37 121.249 24.3702 121.249 24.3701C121.249 24.3702 121.249 24.3711 121.249 24.3712C121.249 24.3711 121.249 24.3713 121.249 24.3712V24.3722C121.249 24.3721 121.249 24.3723 121.249 24.3722V24.3733C121.249 24.3732 121.249 24.3734 121.249 24.3733V24.3743C121.249 24.3742 121.249 24.3744 121.249 24.3743C121.249 24.3743 121.249 24.3753 121.249 24.3754V24.3764C121.249 24.3765 121.249 24.3775 121.249 24.3775C121.249 24.3776 121.249 24.3785 121.249 24.3785C121.249 24.3786 121.249 24.3796 121.249 24.3796V24.3806C121.249 24.3806 121.249 24.3816 121.249 24.3817C121.249 24.3818 121.249 24.3827 121.249 24.3827V24.3838C121.249 24.3838 121.249 24.3847 121.249 24.3848C121.249 24.3849 121.249 24.3859 121.249 24.3859C121.249 24.386 121.249 24.3869 121.249 24.3869C121.249 24.387 121.249 24.388 121.249 24.388C121.249 24.3881 121.249 24.389 121.249 24.389C121.249 24.3889 121.249 24.3891 121.249 24.389C121.249 24.389 121.249 24.39 121.249 24.3901C121.249 24.3902 121.249 24.3911 121.249 24.3911C121.249 24.391 121.249 24.3912 121.249 24.3911V24.3922C121.249 24.3921 121.249 24.3923 121.249 24.3922V24.3932C121.249 24.3931 121.249 24.3933 121.249 24.3932V24.3943C121.249 24.3942 121.249 24.3944 121.249 24.3943C121.249 24.3944 121.249 24.3952 121.249 24.3953C121.249 24.3952 121.249 24.3954 121.249 24.3953C121.249 24.3954 121.249 24.3964 121.249 24.3964V24.3974C121.249 24.3975 121.249 24.3985 121.249 24.3986V24.3997C121.249 24.3998 121.249 24.4006 121.249 24.4007C121.249 24.4008 121.249 24.4018 121.249 24.4019C121.249 24.4018 121.249 24.402 121.249 24.4019V24.403C121.249 24.4029 121.249 24.4031 121.249 24.403C121.249 24.4031 121.249 24.4041 121.249 24.4042C121.249 24.4041 121.249 24.4043 121.249 24.4042C121.249 24.4043 121.249 24.4053 121.249 24.4054C121.249 24.4055 121.249 24.4064 121.249 24.4065C121.249 24.4066 121.249 24.4075 121.249 24.4076C121.249 24.4077 121.249 24.4087 121.249 24.4087C121.249 24.4088 121.249 24.4098 121.249 24.4099C121.249 24.41 121.249 24.4109 121.249 24.4109C121.249 24.4109 121.249 24.4119 121.249 24.412V24.413C121.249 24.4129 121.249 24.4131 121.249 24.413V24.4141C121.249 24.4142 121.249 24.415 121.249 24.4151L123.249 24.416ZM123.235 24.1848C123.184 23.8793 123.061 23.45 122.689 23.0799L121.278 24.4978C121.272 24.4916 121.265 24.4837 121.26 24.475C121.254 24.4665 121.251 24.4601 121.25 24.4575C121.249 24.4553 121.25 24.4578 121.253 24.4673C121.255 24.4769 121.259 24.4922 121.263 24.5153L123.235 24.1848ZM122.689 23.0799C122.656 23.0473 122.626 23.0211 122.602 23.0018C122.578 22.9822 122.556 22.9661 122.54 22.9539C122.509 22.9316 122.479 22.9118 122.47 22.906C122.454 22.8953 122.459 22.8986 122.467 22.9044C122.473 22.9083 122.483 22.9162 122.497 22.9275C122.511 22.9386 122.532 22.9565 122.556 22.9809L121.146 24.3988C121.178 24.4314 121.209 24.4576 121.232 24.4769C121.256 24.4964 121.278 24.5126 121.295 24.5248C121.326 24.5471 121.356 24.5668 121.365 24.5727C121.381 24.5833 121.375 24.5801 121.367 24.5743C121.362 24.5704 121.351 24.5625 121.337 24.5512C121.324 24.5401 121.303 24.5222 121.278 24.4978L122.689 23.0799ZM121.851 23.6898C121.851 22.6898 121.851 22.6898 121.851 22.6898H121.849H121.847C121.847 22.6898 121.846 22.6898 121.845 22.6898C121.845 22.6898 121.844 22.6898 121.843 22.6898C121.843 22.6898 121.842 22.6898 121.841 22.6898C121.84 22.6898 121.839 22.6898 121.839 22.6898C121.838 22.6898 121.837 22.6898 121.837 22.6898C121.836 22.6898 121.835 22.6898 121.835 22.6898H121.833C121.833 22.6898 121.832 22.6898 121.831 22.6898C121.83 22.6898 121.829 22.6898 121.829 22.6898H121.827C121.826 22.6898 121.825 22.6898 121.825 22.6898C121.824 22.6898 121.823 22.6898 121.823 22.6898H121.821H121.819L121.818 24.6898H121.82H121.822C121.822 24.6898 121.823 24.6898 121.824 24.6898C121.824 24.6898 121.825 24.6898 121.826 24.6898H121.828C121.828 24.6898 121.829 24.6898 121.83 24.6898C121.831 24.6898 121.832 24.6898 121.832 24.6898H121.834C121.834 24.6898 121.835 24.6898 121.836 24.6898C121.836 24.6898 121.837 24.6898 121.838 24.6898C121.838 24.6898 121.839 24.6898 121.84 24.6898C121.841 24.6898 121.842 24.6898 121.842 24.6898C121.843 24.6898 121.844 24.6898 121.844 24.6898C121.845 24.6898 121.846 24.6898 121.846 24.6898H121.848H121.85C121.85 24.6898 121.851 24.6898 121.851 23.6898ZM122.523 22.9809C122.399 22.8572 122.271 22.7914 122.2 22.7591C122.162 22.742 122.129 22.7298 122.108 22.7222C122.088 22.715 122.07 22.709 122.066 22.7076C122.058 22.7049 122.064 22.7068 122.071 22.7096C122.08 22.7127 122.101 22.7203 122.127 22.7322C122.176 22.7543 122.282 22.8077 122.39 22.9149L120.98 24.3328C121.104 24.4564 121.231 24.5222 121.303 24.5546C121.341 24.5717 121.373 24.5839 121.394 24.5914C121.414 24.5986 121.432 24.6046 121.437 24.606C121.445 24.6087 121.439 24.6069 121.431 24.6041C121.422 24.6009 121.402 24.5933 121.376 24.5814C121.327 24.5594 121.22 24.5059 121.112 24.3988L122.523 22.9809ZM121.685 22.6238H121.652V24.6238H121.685V22.6238ZM121.652 22.6238C121.731 22.6238 121.798 22.6337 121.849 22.6446C121.898 22.6552 121.937 22.6677 121.958 22.6751C121.969 22.679 121.977 22.6823 121.983 22.6843C121.988 22.6863 121.991 22.6877 121.991 22.6877C121.991 22.6878 121.991 22.6877 121.99 22.6873C121.989 22.687 121.987 22.6862 121.986 22.6854C121.982 22.6839 121.975 22.6812 121.968 22.6782C121.936 22.6656 121.875 22.6422 121.795 22.6233C121.714 22.6038 121.621 22.5908 121.519 22.5908V24.5908C121.45 24.5908 121.387 24.5819 121.331 24.5686C121.278 24.5559 121.239 24.5407 121.228 24.5364C121.226 24.5354 121.224 24.5348 121.225 24.5353C121.226 24.5356 121.226 24.5357 121.228 24.5364C121.23 24.537 121.232 24.538 121.234 24.539C121.242 24.5423 121.266 24.5519 121.295 24.5622C121.325 24.5727 121.372 24.5878 121.43 24.6002C121.489 24.6129 121.564 24.6238 121.652 24.6238V22.6238ZM121.519 22.5908C121.518 22.5908 121.517 22.5908 121.517 22.5908C121.517 22.5908 121.516 22.5908 121.515 22.5908C121.514 22.5908 121.513 22.5908 121.513 22.5908C121.512 22.5908 121.511 22.5908 121.511 22.5908H121.509H121.507C121.506 22.5908 121.505 22.5908 121.505 22.5908H121.503C121.503 22.5908 121.502 22.5908 121.501 22.5908H121.499H121.497C121.496 22.5908 121.495 22.5908 121.495 22.5908H121.493C121.492 22.5908 121.492 22.5908 121.492 22.5908C121.492 22.5908 121.491 22.5908 121.49 22.5908C121.49 22.5908 121.489 22.5908 121.488 22.5908H121.486C121.486 22.5908 121.485 22.5908 121.484 22.5908C121.483 22.5908 121.482 22.5908 121.482 22.5908C121.481 22.5908 121.48 22.5908 121.48 22.5908H121.478C121.477 22.5908 121.476 22.5908 121.476 22.5908C121.475 22.5908 121.474 22.5908 121.474 22.5908C121.474 22.5908 121.473 22.5908 121.472 22.5908C121.471 22.5908 121.47 22.5908 121.47 22.5908C121.469 22.5908 121.468 22.5908 121.468 22.5908C121.468 22.5908 121.467 22.5908 121.466 22.5908H121.464C121.464 22.5908 121.463 22.5908 121.462 22.5908C121.461 22.5908 121.46 22.5908 121.46 22.5908C121.459 22.5908 121.458 22.5908 121.458 22.5908H121.456H121.454L121.453 24.5908H121.455H121.457C121.457 24.5908 121.458 24.5908 121.459 24.5908C121.459 24.5908 121.46 24.5908 121.461 24.5908C121.462 24.5908 121.463 24.5908 121.463 24.5908H121.465C121.466 24.5908 121.467 24.5908 121.467 24.5908C121.467 24.5908 121.468 24.5908 121.469 24.5908C121.469 24.5908 121.47 24.5908 121.471 24.5908C121.472 24.5908 121.473 24.5908 121.473 24.5908C121.473 24.5908 121.474 24.5908 121.475 24.5908C121.475 24.5908 121.476 24.5908 121.477 24.5908H121.479C121.479 24.5908 121.48 24.5908 121.481 24.5908C121.481 24.5908 121.482 24.5908 121.483 24.5908C121.484 24.5908 121.485 24.5908 121.485 24.5908H121.487C121.488 24.5908 121.489 24.5908 121.489 24.5908C121.49 24.5908 121.491 24.5908 121.491 24.5908C121.491 24.5908 121.492 24.5908 121.493 24.5908C121.493 24.5908 121.494 24.5908 121.495 24.5908C121.495 24.5908 121.496 24.5908 121.497 24.5908C121.498 24.5908 121.499 24.5908 121.499 24.5908H121.501C121.501 24.5908 121.502 24.5908 121.503 24.5908C121.503 24.5908 121.504 24.5908 121.505 24.5908C121.505 24.5908 121.505 24.5908 121.506 24.5908H121.508H121.51C121.51 24.5908 121.511 24.5908 121.512 24.5908C121.512 24.5908 121.513 24.5908 121.514 24.5908C121.515 24.5908 121.516 24.5908 121.516 24.5908C121.516 24.5908 121.518 24.5908 121.519 24.5908V22.5908ZM121.454 22.5908C121.454 22.5908 121.453 22.5908 121.452 22.5908C121.451 22.5908 121.45 22.5908 121.45 22.5908H121.448C121.448 22.5908 121.447 22.5908 121.446 22.5908C121.445 22.5908 121.444 22.5908 121.444 22.5908C121.443 22.5908 121.442 22.5908 121.442 22.5908H121.44C121.44 22.5908 121.439 22.5908 121.438 22.5908C121.437 22.5908 121.436 22.5908 121.436 22.5908H121.434C121.434 22.5908 121.433 22.5908 121.432 22.5908C121.431 22.5908 121.43 22.5908 121.43 22.5908C121.429 22.5908 121.428 22.5908 121.428 22.5908H121.426C121.426 22.5908 121.425 22.5908 121.424 22.5908C121.423 22.5908 121.422 22.5908 121.422 22.5908H121.42C121.42 22.5908 121.419 22.5908 121.418 22.5908C121.417 22.5908 121.416 22.5908 121.416 22.5908H121.414H121.412C121.412 22.5908 121.411 22.5908 121.41 22.5908C121.409 22.5908 121.408 22.5908 121.408 22.5908H121.406C121.406 22.5908 121.405 22.5908 121.404 22.5908C121.403 22.5908 121.402 22.5908 121.402 22.5908H121.4H121.398C121.398 22.5908 121.397 22.5908 121.396 22.5908C121.395 22.5908 121.394 22.5908 121.394 22.5908H121.392C121.392 22.5908 121.391 22.5908 121.39 22.5908C121.389 22.5908 121.388 22.5908 121.388 22.5908H121.386H121.384C121.384 22.5908 121.383 22.5908 121.382 22.5908C121.381 22.5908 121.38 22.5908 121.38 22.5908H121.378C121.378 22.5908 121.377 22.5908 121.376 22.5908C121.375 22.5908 121.374 22.5908 121.374 22.5908H121.372H121.37C121.37 22.5908 121.369 22.5908 121.368 22.5908C121.367 22.5908 121.367 22.5908 121.367 22.5908H121.365C121.365 22.5908 121.364 22.5908 121.363 22.5908C121.363 22.5908 121.362 22.5908 121.361 22.5908C121.36 22.5908 121.359 22.5908 121.359 22.5908H121.357C121.357 22.5908 121.356 22.5908 121.355 22.5908C121.354 22.5908 121.353 22.5908 121.353 22.5908V24.5908C121.353 24.5908 121.353 24.5908 121.354 24.5908C121.355 24.5908 121.356 24.5908 121.356 24.5908H121.358C121.358 24.5908 121.359 24.5908 121.36 24.5908C121.361 24.5908 121.362 24.5908 121.362 24.5908C121.363 24.5908 121.364 24.5908 121.364 24.5908H121.366C121.366 24.5908 121.367 24.5908 121.368 24.5908C121.369 24.5908 121.37 24.5908 121.37 24.5908H121.372C121.372 24.5908 121.373 24.5908 121.374 24.5908C121.375 24.5908 121.376 24.5908 121.376 24.5908H121.378H121.38C121.38 24.5908 121.38 24.5908 121.381 24.5908C121.382 24.5908 121.383 24.5908 121.383 24.5908H121.385H121.387C121.387 24.5908 121.388 24.5908 121.389 24.5908C121.39 24.5908 121.391 24.5908 121.391 24.5908H121.393L121.394 24.5914C121.394 24.5914 121.394 24.5908 121.395 24.5908C121.396 24.5908 121.397 24.5908 121.397 24.5908H121.399H121.401C121.401 24.5908 121.402 24.5908 121.403 24.5908C121.404 24.5908 121.405 24.5908 121.405 24.5908H121.407C121.407 24.5908 121.408 24.5908 121.409 24.5908C121.41 24.5908 121.411 24.5908 121.411 24.5908H121.413H121.415C121.415 24.5908 121.416 24.5908 121.417 24.5908C121.418 24.5908 121.419 24.5908 121.419 24.5908H121.421C121.421 24.5908 121.422 24.5908 121.423 24.5908C121.424 24.5908 121.425 24.5908 121.425 24.5908H121.427C121.427 24.5908 121.428 24.5908 121.429 24.5908C121.429 24.5908 121.43 24.5908 121.431 24.5908C121.432 24.5908 121.433 24.5908 121.433 24.5908H121.435C121.435 24.5908 121.436 24.5908 121.437 24.5908C121.438 24.5908 121.439 24.5908 121.439 24.5908H121.441C121.441 24.5908 121.442 24.5908 121.443 24.5908C121.443 24.5908 121.444 24.5908 121.445 24.5908C121.446 24.5908 121.447 24.5908 121.447 24.5908H121.449C121.449 24.5908 121.45 24.5908 121.451 24.5908C121.451 24.5908 121.452 24.5908 121.453 24.5908L121.454 22.5908ZM121.353 22.5908H121.351H121.349C121.349 22.5908 121.348 22.5908 121.347 22.5908H121.345C121.344 22.5908 121.343 22.5908 121.343 22.5908C121.342 22.5908 121.341 22.5908 121.341 22.5908C121.341 22.5908 121.34 22.5908 121.339 22.5908C121.338 22.5908 121.337 22.5908 121.337 22.5908H121.335H121.333C121.332 22.5908 121.331 22.5908 121.331 22.5908C121.331 22.5908 121.33 22.5908 121.329 22.5908H121.327C121.327 22.5908 121.326 22.5908 121.325 22.5908C121.325 22.5908 121.324 22.5908 121.323 22.5908C121.322 22.5908 121.321 22.5908 121.321 22.5908H121.319C121.318 22.5908 121.317 22.5908 121.317 22.5908C121.316 22.5908 121.315 22.5908 121.315 22.5908C121.315 22.5908 121.314 22.5908 121.313 22.5908C121.313 22.5908 121.312 22.5908 121.311 22.5908C121.31 22.5908 121.309 22.5908 121.309 22.5908H121.307C121.307 22.5908 121.306 22.5908 121.305 22.5908H121.303C121.302 22.5908 121.301 22.5908 121.301 22.5908H121.299C121.299 22.5908 121.298 22.5908 121.297 22.5908H121.295C121.295 22.5908 121.294 22.5908 121.293 22.5908H121.291H121.289C121.288 22.5908 121.287 22.5908 121.287 22.5908V24.5908C121.288 24.5908 121.289 24.5908 121.289 24.5908C121.289 24.5908 121.29 24.5908 121.291 24.5908H121.293C121.294 24.5908 121.295 24.5908 121.295 24.5908C121.295 24.5908 121.296 24.5908 121.297 24.5908C121.298 24.5908 121.298 24.5908 121.298 24.5908H121.3C121.3 24.5908 121.301 24.5908 121.302 24.5908H121.304C121.305 24.5908 121.306 24.5908 121.306 24.5908H121.308C121.308 24.5908 121.309 24.5908 121.31 24.5908C121.311 24.5908 121.312 24.5908 121.312 24.5908C121.313 24.5908 121.314 24.5908 121.314 24.5908C121.314 24.5908 121.315 24.5908 121.316 24.5908C121.316 24.5908 121.317 24.5908 121.318 24.5908H121.32C121.32 24.5908 121.321 24.5908 121.322 24.5908C121.323 24.5908 121.324 24.5908 121.324 24.5908C121.325 24.5908 121.326 24.5908 121.326 24.5908H121.328C121.329 24.5908 121.33 24.5908 121.33 24.5908C121.33 24.5908 121.331 24.5908 121.332 24.5908H121.334H121.336C121.336 24.5908 121.337 24.5908 121.338 24.5908C121.339 24.5908 121.34 24.5908 121.34 24.5908C121.34 24.5908 121.341 24.5908 121.342 24.5908C121.342 24.5908 121.343 24.5908 121.344 24.5908H121.346C121.347 24.5908 121.348 24.5908 121.348 24.5908H121.35H121.353V22.5908ZM121.287 22.5908H121.285C121.285 22.5908 121.284 22.5908 121.283 22.5908C121.282 22.5908 121.281 22.5908 121.281 22.5908H121.279H121.277C121.277 22.5908 121.276 22.5908 121.275 22.5908C121.274 22.5908 121.273 22.5908 121.273 22.5908H121.271C121.271 22.5908 121.27 22.5908 121.269 22.5908C121.268 22.5908 121.267 22.5908 121.267 22.5908H121.265H121.263C121.263 22.5908 121.262 22.5908 121.261 22.5908C121.26 22.5908 121.259 22.5908 121.259 22.5908H121.257C121.257 22.5908 121.256 22.5908 121.255 22.5908C121.254 22.5908 121.253 22.5908 121.253 22.5908H121.251H121.249C121.249 22.5908 121.248 22.5908 121.247 22.5908C121.246 22.5908 121.245 22.5908 121.245 22.5908H121.243H121.242C121.242 22.5908 121.241 22.5908 121.24 22.5908C121.239 22.5908 121.238 22.5908 121.238 22.5908H121.236C121.236 22.5908 121.235 22.5908 121.234 22.5908C121.233 22.5908 121.232 22.5908 121.232 22.5908H121.23C121.23 22.5908 121.229 22.5908 121.228 22.5908C121.228 22.5908 121.227 22.5908 121.226 22.5908C121.225 22.5908 121.224 22.5908 121.224 22.5908H121.222C121.222 22.5908 121.221 22.5908 121.22 22.5908C121.219 22.5908 121.218 22.5908 121.218 22.5908H121.216C121.216 22.5908 121.215 22.5908 121.214 22.5908C121.214 22.5908 121.213 22.5908 121.212 22.5908C121.211 22.5908 121.21 22.5908 121.21 22.5908H121.208C121.208 22.5908 121.207 22.5908 121.206 22.5908C121.205 22.5908 121.204 22.5908 121.204 22.5908H121.202C121.202 22.5908 121.201 22.5908 121.2 22.5908C121.2 22.5908 121.199 22.5908 121.198 22.5908C121.197 22.5908 121.196 22.5908 121.196 22.5908H121.194C121.194 22.5908 121.193 22.5908 121.192 22.5908C121.191 22.5908 121.19 22.5908 121.19 22.5908H121.188L121.187 24.5908H121.189C121.189 24.5908 121.19 24.5908 121.191 24.5908C121.192 24.5908 121.193 24.5908 121.193 24.5908H121.195C121.195 24.5908 121.196 24.5908 121.197 24.5908C121.198 24.5908 121.199 24.5908 121.199 24.5908C121.2 24.5908 121.201 24.5908 121.201 24.5908H121.203C121.203 24.5908 121.204 24.5908 121.205 24.5908C121.206 24.5908 121.207 24.5908 121.207 24.5908H121.209C121.209 24.5908 121.21 24.5908 121.211 24.5908C121.212 24.5908 121.213 24.5908 121.213 24.5908C121.214 24.5908 121.215 24.5908 121.215 24.5908H121.217C121.217 24.5908 121.218 24.5908 121.219 24.5908C121.22 24.5908 121.221 24.5908 121.221 24.5908H121.223C121.223 24.5908 121.224 24.5908 121.225 24.5908C121.226 24.5908 121.227 24.5908 121.227 24.5908C121.228 24.5908 121.229 24.5908 121.229 24.5908H121.231C121.231 24.5908 121.232 24.5908 121.233 24.5908C121.234 24.5908 121.235 24.5908 121.235 24.5908H121.237C121.237 24.5908 121.238 24.5908 121.239 24.5908C121.24 24.5908 121.241 24.5908 121.241 24.5908H121.243H121.245C121.245 24.5908 121.246 24.5908 121.247 24.5908C121.248 24.5908 121.249 24.5908 121.249 24.5908H121.251C121.251 24.5908 121.252 24.5908 121.253 24.5908C121.254 24.5908 121.255 24.5908 121.255 24.5908C121.256 24.5908 121.256 24.5908 121.256 24.5908H121.258C121.258 24.5908 121.259 24.5908 121.26 24.5908C121.261 24.5908 121.262 24.5908 121.262 24.5908H121.264H121.266C121.266 24.5908 121.267 24.5908 121.268 24.5908C121.269 24.5908 121.27 24.5908 121.27 24.5908H121.272C121.272 24.5908 121.273 24.5908 121.274 24.5908C121.275 24.5908 121.276 24.5908 121.276 24.5908H121.278H121.28C121.28 24.5908 121.281 24.5908 121.282 24.5908C121.283 24.5908 121.284 24.5908 121.284 24.5908H121.287V22.5908ZM121.188 22.5908H121.154V24.5908H121.187L121.188 22.5908ZM121.154 22.5908C121.072 22.5908 121.005 22.6005 120.964 22.6078C120.921 22.6155 120.886 22.6244 120.862 22.6308C120.838 22.6375 120.817 22.6438 120.804 22.6481C120.79 22.6523 120.778 22.6564 120.773 22.6581C120.766 22.6606 120.765 22.6606 120.767 22.6602C120.768 22.6598 120.777 22.6571 120.79 22.6535C120.802 22.6502 120.827 22.6438 120.859 22.638C120.89 22.6325 120.947 22.6238 121.021 22.6238V24.6238C121.103 24.6238 121.17 24.6141 121.211 24.6068C121.254 24.5991 121.29 24.5902 121.313 24.5838C121.338 24.5771 121.358 24.5708 121.372 24.5665C121.385 24.5623 121.397 24.5582 121.402 24.5565C121.41 24.554 121.41 24.554 121.409 24.5544C121.407 24.5548 121.399 24.5575 121.386 24.5611C121.374 24.5644 121.349 24.5708 121.316 24.5766C121.285 24.5821 121.228 24.5908 121.154 24.5908V22.5908ZM121.021 23.6238C121.021 22.6238 121.022 22.6238 121.021 22.6238C121.021 22.6238 121.02 22.6238 121.019 22.6238C121.019 22.6238 121.018 22.6238 121.017 22.6238C121.016 22.6238 121.015 22.6238 121.013 22.6238C121.011 22.6239 121.008 22.6239 121.005 22.6239C121 22.624 120.994 22.6242 120.988 22.6244C120.976 22.6248 120.963 22.6254 120.949 22.6264C120.922 22.6283 120.889 22.6317 120.853 22.6378C120.784 22.6491 120.678 22.6736 120.559 22.7326C120.437 22.7935 120.283 22.9007 120.163 23.081C120.037 23.2679 119.988 23.4725 119.988 23.6568H121.988C121.988 23.8246 121.943 24.0169 121.824 24.1944C121.709 24.3655 121.564 24.4665 121.45 24.5233C121.34 24.5781 121.242 24.6006 121.18 24.6108C121.146 24.6164 121.116 24.6195 121.091 24.6214C121.078 24.6223 121.066 24.6229 121.054 24.6233C121.048 24.6235 121.043 24.6236 121.037 24.6237C121.035 24.6237 121.032 24.6238 121.029 24.6238C121.028 24.6238 121.027 24.6238 121.025 24.6238C121.025 24.6238 121.024 24.6238 121.023 24.6238C121.023 24.6238 121.021 24.6238 121.021 23.6238ZM120.283 22.9479C120.336 22.8948 120.39 22.8554 120.435 22.8272C120.456 22.8141 120.474 22.8047 120.484 22.7994C120.492 22.7949 120.499 22.7916 120.493 22.7945C120.491 22.7957 120.475 22.8031 120.459 22.812C120.44 22.8217 120.415 22.8357 120.385 22.854C120.323 22.8926 120.253 22.9443 120.183 23.0139L121.594 24.4318C121.54 24.4849 121.487 24.5242 121.442 24.5525C121.42 24.5656 121.403 24.575 121.393 24.5803C121.385 24.5848 121.378 24.5881 121.384 24.5852C121.386 24.584 121.401 24.5765 121.418 24.5676C121.436 24.558 121.462 24.5439 121.491 24.5256C121.553 24.4871 121.623 24.4354 121.693 24.3658L120.283 22.9479ZM120.889 22.7228C120.8 22.7228 120.706 22.7341 120.609 22.7609C120.512 22.7879 120.428 22.8265 120.356 22.8693C120.287 22.9108 120.235 22.9529 120.202 22.9817C120.186 22.9961 120.173 23.0084 120.164 23.0163C120.157 23.0237 120.15 23.0302 120.15 23.0304C120.148 23.0323 120.153 23.0278 120.158 23.0225C120.164 23.0166 120.175 23.0063 120.189 22.9938C120.218 22.9689 120.265 22.9304 120.329 22.892C120.396 22.8523 120.475 22.8162 120.565 22.7911C120.655 22.7661 120.742 22.7558 120.822 22.7558V24.7558C120.911 24.7558 121.005 24.7446 121.102 24.7178C121.198 24.6908 121.283 24.6521 121.354 24.6094C121.424 24.5678 121.476 24.5258 121.509 24.497C121.525 24.4826 121.538 24.4703 121.546 24.4623C121.554 24.455 121.561 24.4484 121.561 24.4483C121.563 24.4464 121.558 24.4509 121.553 24.4562C121.546 24.4621 121.536 24.4724 121.521 24.4849C121.493 24.5098 121.446 24.5482 121.381 24.5867C121.315 24.6264 121.236 24.6624 121.146 24.6876C121.056 24.7126 120.969 24.7228 120.889 24.7228V22.7228ZM120.117 23.0469C120.194 22.9704 120.346 22.8743 120.224 22.9555C120.188 22.979 120.057 23.0662 119.944 23.2269C119.811 23.4158 119.756 23.6272 119.756 23.8219H121.756C121.756 24 121.705 24.199 121.579 24.3777C121.474 24.528 121.352 24.6069 121.329 24.6222C121.315 24.6317 121.302 24.6396 121.311 24.6343C121.314 24.6322 121.331 24.6219 121.351 24.6088C121.394 24.58 121.459 24.5332 121.527 24.4648L120.117 23.0469ZM120.051 23.1129C120.05 23.1136 120.022 23.1413 119.995 23.1706C119.967 23.2019 119.895 23.2837 119.833 23.4057C119.763 23.5451 119.738 23.6743 119.728 23.7682C119.724 23.8084 119.723 23.8408 119.723 23.8568C119.723 23.8721 119.723 23.8866 119.723 23.8879H121.723C121.723 23.861 121.724 23.9123 121.718 23.9683C121.71 24.052 121.686 24.1729 121.62 24.304C121.563 24.4178 121.497 24.4914 121.478 24.5124C121.461 24.5313 121.445 24.5466 121.461 24.5308L120.051 23.1129ZM120.017 23.1789C120.001 23.1954 119.993 23.2036 119.984 23.2119C119.976 23.2201 119.968 23.2284 119.951 23.245L121.362 24.6628C121.378 24.6464 121.386 24.6381 121.395 24.6299C121.403 24.6216 121.411 24.6134 121.428 24.5968L120.017 23.1789ZM119.815 23.4141L106.774 43.7481L108.458 44.8278L121.498 24.4937L119.815 23.4141ZM108.457 43.7472L101.92 33.5802L100.238 34.6618L106.775 44.8288L108.457 43.7472ZM101.91 33.5644C101.368 32.7557 100.232 32.4262 99.3323 33.0234L100.437 34.6902C100.393 34.7197 100.341 34.7236 100.308 34.7159C100.278 34.7092 100.259 34.6937 100.248 34.6776L101.91 33.5644ZM99.3323 33.0234C98.5214 33.5615 98.1832 34.6982 98.7888 35.602L100.45 34.4886C100.481 34.5348 100.486 34.5901 100.477 34.6275C100.469 34.6605 100.452 34.6804 100.437 34.6902L99.3323 33.0234ZM98.778 35.5854L106.044 46.9077L107.727 45.8275L100.461 34.5051L98.778 35.5854ZM106.181 47.0765C106.104 46.9999 106.006 46.8476 106.088 46.9697C106.112 47.0055 106.2 47.1365 106.361 47.2486C106.55 47.38 106.76 47.4336 106.952 47.4336V45.4336C107.128 45.4336 107.326 45.4831 107.504 45.6073C107.655 45.7122 107.734 45.8328 107.75 45.8562C107.759 45.8706 107.767 45.8837 107.762 45.8751C107.76 45.8717 107.749 45.8548 107.736 45.8351C107.707 45.7916 107.66 45.7271 107.591 45.6587L106.181 47.0765ZM105.952 46.4336C105.952 46.5231 105.964 46.6183 105.991 46.7155C106.019 46.813 106.058 46.8979 106.101 46.9697C106.143 47.0393 106.186 47.0912 106.215 47.1238C106.229 47.1402 106.241 47.1531 106.249 47.1613C106.257 47.1689 106.263 47.1754 106.264 47.1755C106.265 47.1775 106.261 47.173 106.256 47.1676C106.25 47.1614 106.239 47.1506 106.227 47.1365C106.202 47.1082 106.163 47.061 106.124 46.9965C106.084 46.9299 106.047 46.8507 106.021 46.7596C105.996 46.6689 105.985 46.5809 105.985 46.4996H107.985C107.985 46.4101 107.974 46.3149 107.947 46.2177C107.919 46.1202 107.88 46.0353 107.837 45.9636C107.795 45.8939 107.752 45.8421 107.723 45.8094C107.709 45.7931 107.696 45.7801 107.688 45.7719C107.681 45.7643 107.674 45.7578 107.674 45.7577C107.672 45.7558 107.677 45.7602 107.682 45.7657C107.688 45.7718 107.698 45.7826 107.711 45.7968C107.736 45.825 107.775 45.8722 107.814 45.9368C107.854 46.0034 107.891 46.0826 107.916 46.1736C107.942 46.2644 107.952 46.3523 107.952 46.4336H105.952ZM106.28 47.2086C106.297 47.2251 106.305 47.2333 106.313 47.2415C106.322 47.2498 106.33 47.2581 106.346 47.2746L107.757 45.8567C107.74 45.8402 107.732 45.832 107.724 45.8238C107.716 45.8155 107.707 45.8072 107.691 45.7907L106.28 47.2086ZM106.346 47.2746C106.363 47.2911 106.371 47.2994 106.38 47.3077C106.388 47.3159 106.396 47.3241 106.413 47.3406L107.823 45.9227C107.807 45.9062 107.798 45.8979 107.79 45.8897C107.782 45.8814 107.774 45.8732 107.757 45.8567L106.346 47.2746ZM107.118 47.6317C107.038 47.6317 106.951 47.6215 106.861 47.5964C106.77 47.5713 106.692 47.5351 106.625 47.4955C106.561 47.457 106.514 47.4185 106.485 47.3936C106.471 47.3811 106.46 47.3708 106.454 47.3649C106.448 47.3596 106.444 47.3551 106.446 47.357C106.446 47.3571 106.453 47.3637 106.46 47.371C106.468 47.379 106.482 47.3913 106.498 47.4057C106.531 47.4345 106.583 47.4766 106.652 47.5182C106.724 47.5609 106.808 47.5996 106.905 47.6266C107.002 47.6534 107.096 47.6647 107.184 47.6647V45.6647C107.265 45.6647 107.352 45.6749 107.442 45.6999C107.532 45.7251 107.611 45.7612 107.677 45.8009C107.742 45.8394 107.789 45.8778 107.817 45.9028C107.832 45.9152 107.842 45.9255 107.849 45.9315C107.854 45.9368 107.859 45.9413 107.857 45.9393C107.857 45.9392 107.85 45.9327 107.842 45.9253C107.834 45.9174 107.821 45.905 107.805 45.8907C107.772 45.8618 107.72 45.8198 107.65 45.7782C107.579 45.7354 107.494 45.6967 107.398 45.6698C107.301 45.6429 107.207 45.6317 107.118 45.6317V47.6317ZM107.184 47.6647C107.031 47.6647 106.911 47.6275 106.839 47.599C106.765 47.5697 106.711 47.5367 106.677 47.5146C106.643 47.4914 106.615 47.4697 106.596 47.4535C106.586 47.445 106.577 47.4368 106.569 47.4292C106.565 47.4253 106.561 47.4215 106.557 47.4178C106.555 47.4159 106.553 47.4141 106.551 47.4122C106.55 47.4113 106.549 47.4104 106.548 47.4095C106.548 47.409 106.548 47.4085 106.547 47.4081C106.547 47.4079 106.547 47.4069 106.546 47.4067C106.546 47.4065 106.546 47.4067 107.251 46.6977C107.956 45.9887 107.956 45.9885 107.956 45.9883C107.956 45.9883 107.955 45.9881 107.955 45.988C107.955 45.9882 107.955 45.9877 107.955 45.988C107.954 45.9875 107.954 45.9863 107.953 45.9859C107.952 45.9849 107.951 45.9839 107.95 45.983C107.948 45.981 107.946 45.9789 107.944 45.9768C107.94 45.9726 107.935 45.9681 107.93 45.9634C107.92 45.9539 107.908 45.9432 107.894 45.9315C107.868 45.9092 107.83 45.8792 107.783 45.8478C107.72 45.8063 107.5 45.6647 107.184 45.6647V47.6647ZM107.251 47.6977C107.172 47.6977 107.104 47.6879 107.051 47.6762C106.998 47.6647 106.955 47.6506 106.926 47.6398C106.897 47.629 106.876 47.6192 106.866 47.6144C106.856 47.6101 106.849 47.6065 106.855 47.6095C106.857 47.6106 106.873 47.6184 106.89 47.6265C106.909 47.6352 106.939 47.6486 106.976 47.6625C107.013 47.6764 107.064 47.6931 107.125 47.7064C107.187 47.7199 107.263 47.7307 107.35 47.7307V45.7307C107.429 45.7307 107.497 45.7405 107.551 45.7522C107.604 45.7637 107.646 45.7778 107.675 45.7886C107.704 45.7994 107.725 45.8092 107.736 45.814C107.745 45.8183 107.752 45.8219 107.746 45.8189C107.744 45.8178 107.728 45.81 107.711 45.8019C107.692 45.7932 107.662 45.7798 107.625 45.7659C107.588 45.752 107.537 45.7353 107.476 45.722C107.414 45.7085 107.338 45.6977 107.251 45.6977V47.6977ZM107.35 47.7307C107.377 47.7307 107.326 47.7318 107.271 47.7263C107.189 47.7181 107.069 47.695 106.938 47.6302C106.825 47.5738 106.751 47.5087 106.73 47.4897C106.711 47.4727 106.696 47.4569 106.712 47.4727L108.122 46.0548C108.121 46.054 108.093 46.0259 108.064 45.9996C108.032 45.9713 107.951 45.9 107.829 45.8394C107.69 45.7705 107.562 45.7454 107.469 45.7361C107.429 45.7322 107.397 45.7313 107.381 45.731C107.366 45.7307 107.352 45.7307 107.35 45.7307V47.7307ZM107.417 47.7637C107.417 47.7637 107.418 47.7637 107.419 47.7637C107.42 47.7637 107.421 47.7637 107.421 47.7637H107.423C107.423 47.7637 107.424 47.7637 107.425 47.7637C107.426 47.7637 107.427 47.7637 107.427 47.7637H107.429H107.431C107.431 47.7637 107.432 47.7637 107.433 47.7637C107.434 47.7637 107.435 47.7637 107.435 47.7637H107.437C107.437 47.7637 107.438 47.7637 107.439 47.7637C107.44 47.7637 107.441 47.7637 107.441 47.7637H107.443H107.445C107.445 47.7637 107.446 47.7637 107.447 47.7637C107.448 47.7637 107.449 47.7637 107.449 47.7637H107.451C107.451 47.7637 107.452 47.7637 107.453 47.7637C107.454 47.7637 107.455 47.7637 107.455 47.7637H107.457H107.459C107.459 47.7637 107.46 47.7637 107.461 47.7637C107.462 47.7637 107.463 47.7637 107.463 47.7637H107.465C107.465 47.7637 107.466 47.7637 107.467 47.7637C107.468 47.7637 107.469 47.7637 107.469 47.7637H107.471C107.471 47.7637 107.472 47.7637 107.473 47.7637C107.473 47.7637 107.474 47.7637 107.475 47.7637C107.476 47.7637 107.477 47.7637 107.477 47.7637H107.479C107.479 47.7637 107.48 47.7637 107.481 47.7637C107.482 47.7637 107.483 47.7637 107.483 47.7637H107.485C107.485 47.7637 107.486 47.7637 107.487 47.7637C107.487 47.7637 107.488 47.7637 107.489 47.7637C107.49 47.7637 107.491 47.7637 107.491 47.7637H107.493C107.493 47.7637 107.494 47.7637 107.495 47.7637C107.496 47.7637 107.497 47.7637 107.497 47.7637H107.499C107.499 47.7637 107.5 47.7637 107.501 47.7637C107.501 47.7637 107.502 47.7637 107.503 47.7637C107.504 47.7637 107.505 47.7637 107.505 47.7637H107.506C107.506 47.7637 107.507 47.7637 107.508 47.7637C107.508 47.7637 107.509 47.7637 107.51 47.7637C107.511 47.7637 107.512 47.7637 107.512 47.7637H107.514C107.514 47.7637 107.515 47.7637 107.516 47.7637V45.7637C107.515 45.7637 107.514 45.7637 107.514 45.7637H107.512C107.512 45.7637 107.511 45.7637 107.51 45.7637C107.509 45.7637 107.508 45.7637 107.508 45.7637H107.506H107.505C107.505 45.7637 107.504 45.7637 107.503 45.7637C107.502 45.7637 107.501 45.7637 107.501 45.7637H107.499C107.499 45.7637 107.498 45.7637 107.497 45.7637C107.496 45.7637 107.495 45.7637 107.495 45.7637C107.494 45.7637 107.493 45.7637 107.493 45.7637H107.492C107.492 45.7637 107.491 45.7637 107.49 45.7637C107.489 45.7637 107.488 45.7637 107.488 45.7637C107.487 45.7637 107.486 45.7637 107.486 45.7637H107.484C107.484 45.7637 107.483 45.7637 107.482 45.7637C107.481 45.7637 107.48 45.7637 107.48 45.7637H107.478C107.478 45.7637 107.477 45.7637 107.476 45.7637C107.475 45.7637 107.474 45.7637 107.474 45.7637C107.473 45.7637 107.472 45.7637 107.472 45.7637H107.47C107.47 45.7637 107.469 45.7637 107.468 45.7637C107.467 45.7637 107.466 45.7637 107.466 45.7637H107.464C107.464 45.7637 107.463 45.7637 107.462 45.7637C107.461 45.7637 107.46 45.7637 107.46 45.7637H107.458H107.456C107.456 45.7637 107.455 45.7637 107.454 45.7637C107.453 45.7637 107.452 45.7637 107.452 45.7637H107.45C107.45 45.7637 107.449 45.7637 107.448 45.7637C107.447 45.7637 107.446 45.7637 107.446 45.7637H107.444H107.442C107.442 45.7637 107.441 45.7637 107.44 45.7637C107.439 45.7637 107.438 45.7637 107.438 45.7637H107.436C107.436 45.7637 107.435 45.7637 107.434 45.7637C107.433 45.7637 107.432 45.7637 107.432 45.7637H107.43H107.428C107.428 45.7637 107.427 45.7637 107.426 45.7637C107.425 45.7637 107.424 45.7637 107.424 45.7637H107.422C107.422 45.7637 107.421 45.7637 107.42 45.7637C107.419 45.7637 107.418 45.7637 107.418 45.7637L107.417 47.7637ZM107.516 47.7637C107.517 47.7637 107.518 47.7637 107.518 47.7637C107.518 47.7637 107.519 47.7637 107.52 47.7637C107.521 47.7637 107.522 47.7637 107.522 47.7637C107.522 47.7637 107.523 47.7637 107.524 47.7637C107.525 47.7637 107.526 47.7637 107.526 47.7637C107.527 47.7637 107.528 47.7637 107.528 47.7637C107.528 47.7637 107.529 47.7637 107.53 47.7637C107.53 47.7637 107.531 47.7637 107.532 47.7637C107.532 47.7637 107.533 47.7637 107.534 47.7637C107.534 47.7637 107.535 47.7637 107.536 47.7637H107.538C107.539 47.7637 107.54 47.7637 107.54 47.7637H107.542H107.544C107.545 47.7637 107.546 47.7637 107.546 47.7637H107.548C107.549 47.7637 107.55 47.7637 107.55 47.7637H107.552C107.552 47.7637 107.553 47.7637 107.554 47.7637H107.556C107.556 47.7637 107.557 47.7637 107.558 47.7637C107.559 47.7637 107.56 47.7637 107.56 47.7637H107.562C107.563 47.7637 107.564 47.7637 107.564 47.7637C107.565 47.7637 107.566 47.7637 107.566 47.7637C107.567 47.7637 107.568 47.7637 107.568 47.7637H107.57C107.57 47.7637 107.571 47.7637 107.572 47.7637C107.572 47.7637 107.573 47.7637 107.574 47.7637C107.575 47.7637 107.576 47.7637 107.576 47.7637C107.576 47.7637 107.577 47.7637 107.578 47.7637C107.579 47.7637 107.58 47.7637 107.58 47.7637C107.58 47.7637 107.581 47.7637 107.582 47.7637L107.583 45.7637C107.582 45.7637 107.581 45.7637 107.581 45.7637C107.581 45.7637 107.58 45.7637 107.579 45.7637C107.578 45.7637 107.577 45.7637 107.577 45.7637C107.577 45.7637 107.576 45.7637 107.575 45.7637C107.574 45.7637 107.573 45.7637 107.573 45.7637C107.572 45.7637 107.571 45.7637 107.571 45.7637H107.569C107.569 45.7637 107.568 45.7637 107.567 45.7637C107.567 45.7637 107.566 45.7637 107.565 45.7637C107.565 45.7637 107.564 45.7637 107.563 45.7637H107.561C107.561 45.7637 107.56 45.7637 107.559 45.7637C107.558 45.7637 107.557 45.7637 107.557 45.7637H107.555C107.554 45.7637 107.553 45.7637 107.553 45.7637H107.551C107.551 45.7637 107.55 45.7637 107.549 45.7637H107.547C107.547 45.7637 107.546 45.7637 107.545 45.7637H107.543H107.541C107.541 45.7637 107.54 45.7637 107.539 45.7637H107.537C107.536 45.7637 107.535 45.7637 107.535 45.7637C107.534 45.7637 107.533 45.7637 107.533 45.7637C107.532 45.7637 107.531 45.7637 107.531 45.7637C107.53 45.7637 107.529 45.7637 107.529 45.7637C107.529 45.7637 107.528 45.7637 107.527 45.7637C107.527 45.7637 107.526 45.7637 107.525 45.7637C107.524 45.7637 107.523 45.7637 107.523 45.7637C107.523 45.7637 107.522 45.7637 107.521 45.7637C107.52 45.7637 107.519 45.7637 107.519 45.7637C107.519 45.7637 107.517 45.7637 107.516 45.7637V47.7637ZM107.582 47.7637C107.583 47.7637 107.584 47.7637 107.584 47.7637H107.586C107.586 47.7637 107.587 47.7637 107.588 47.7637C107.589 47.7637 107.59 47.7637 107.59 47.7637H107.592C107.592 47.7637 107.593 47.7637 107.594 47.7637C107.594 47.7637 107.595 47.7637 107.596 47.7637C107.597 47.7637 107.598 47.7637 107.598 47.7637H107.6C107.6 47.7637 107.601 47.7637 107.602 47.7637C107.603 47.7637 107.604 47.7637 107.604 47.7637H107.606C107.606 47.7637 107.607 47.7637 107.608 47.7637C107.608 47.7637 107.609 47.7637 107.61 47.7637C107.611 47.7637 107.612 47.7637 107.612 47.7637H107.614C107.614 47.7637 107.615 47.7637 107.616 47.7637C107.617 47.7637 107.618 47.7637 107.618 47.7637H107.62C107.62 47.7637 107.621 47.7637 107.622 47.7637C107.622 47.7637 107.623 47.7637 107.624 47.7637C107.625 47.7637 107.626 47.7637 107.626 47.7637H107.628C107.628 47.7637 107.629 47.7637 107.63 47.7637C107.63 47.7637 107.63 47.7637 107.631 47.7637C107.632 47.7637 107.633 47.7637 107.633 47.7637H107.635C107.635 47.7637 107.636 47.7637 107.637 47.7637C107.638 47.7637 107.639 47.7637 107.639 47.7637H107.641C107.641 47.7637 107.642 47.7637 107.643 47.7637C107.643 47.7637 107.644 47.7637 107.645 47.7637C107.646 47.7637 107.647 47.7637 107.647 47.7637H107.649C107.649 47.7637 107.65 47.7637 107.651 47.7637C107.652 47.7637 107.653 47.7637 107.653 47.7637H107.655C107.655 47.7637 107.656 47.7637 107.657 47.7637C107.658 47.7637 107.659 47.7637 107.659 47.7637C107.66 47.7637 107.661 47.7637 107.661 47.7637H107.663C107.663 47.7637 107.664 47.7637 107.665 47.7637C107.666 47.7637 107.667 47.7637 107.667 47.7637H107.669C107.669 47.7637 107.67 47.7637 107.671 47.7637C107.672 47.7637 107.673 47.7637 107.673 47.7637C107.674 47.7637 107.675 47.7637 107.675 47.7637H107.677C107.677 47.7637 107.678 47.7637 107.679 47.7637C107.68 47.7637 107.681 47.7637 107.681 47.7637L107.682 45.7637C107.682 45.7637 107.681 45.7637 107.68 45.7637C107.679 45.7637 107.678 45.7637 107.678 45.7637H107.676C107.676 45.7637 107.675 45.7637 107.674 45.7637C107.674 45.7637 107.673 45.7637 107.672 45.7637C107.671 45.7637 107.67 45.7637 107.67 45.7637H107.668C107.668 45.7637 107.667 45.7637 107.666 45.7637C107.665 45.7637 107.664 45.7637 107.664 45.7637H107.662C107.662 45.7637 107.661 45.7637 107.66 45.7637C107.66 45.7637 107.659 45.7637 107.658 45.7637C107.657 45.7637 107.656 45.7637 107.656 45.7637H107.654C107.654 45.7637 107.653 45.7637 107.652 45.7637C107.651 45.7637 107.65 45.7637 107.65 45.7637H107.648C107.648 45.7637 107.647 45.7637 107.646 45.7637C107.645 45.7637 107.644 45.7637 107.644 45.7637C107.643 45.7637 107.642 45.7637 107.642 45.7637H107.64C107.64 45.7637 107.639 45.7637 107.638 45.7637C107.637 45.7637 107.636 45.7637 107.636 45.7637H107.634C107.634 45.7637 107.633 45.7637 107.632 45.7637C107.631 45.7637 107.63 45.7637 107.63 45.7637C107.629 45.7637 107.628 45.7637 107.628 45.7637H107.626C107.626 45.7637 107.625 45.7637 107.624 45.7637C107.623 45.7637 107.622 45.7637 107.622 45.7637H107.62C107.62 45.7637 107.619 45.7637 107.618 45.7637C107.618 45.7637 107.618 45.7637 107.617 45.7637C107.616 45.7637 107.615 45.7637 107.615 45.7637H107.613C107.613 45.7637 107.612 45.7637 107.611 45.7637C107.61 45.7637 107.609 45.7637 107.609 45.7637C107.608 45.7637 107.607 45.7637 107.607 45.7637H107.605C107.605 45.7637 107.604 45.7637 107.603 45.7637C107.602 45.7637 107.601 45.7637 107.601 45.7637H107.599C107.599 45.7637 107.598 45.7637 107.597 45.7637C107.596 45.7637 107.595 45.7637 107.595 45.7637C107.594 45.7637 107.593 45.7637 107.593 45.7637H107.591C107.591 45.7637 107.59 45.7637 107.589 45.7637C107.588 45.7637 107.587 45.7637 107.587 45.7637H107.585H107.583L107.582 47.7637ZM107.681 47.7637H107.683C107.684 47.7637 107.685 47.7637 107.685 47.7637C107.686 47.7637 107.687 47.7637 107.687 47.7637H107.689H107.691C107.692 47.7637 107.693 47.7637 107.693 47.7637H107.695H107.697C107.698 47.7637 107.699 47.7637 107.699 47.7637H107.701C107.701 47.7637 107.702 47.7637 107.703 47.7637C107.703 47.7637 107.704 47.7637 107.705 47.7637C107.705 47.7637 107.706 47.7637 107.707 47.7637C107.707 47.7637 107.708 47.7637 107.709 47.7637C107.71 47.7637 107.711 47.7637 107.711 47.7637C107.712 47.7637 107.713 47.7637 107.713 47.7637C107.713 47.7637 107.714 47.7637 107.715 47.7637C107.716 47.7637 107.717 47.7637 107.717 47.7637C107.717 47.7637 107.718 47.7637 107.719 47.7637C107.719 47.7637 107.72 47.7637 107.721 47.7637C107.722 47.7637 107.723 47.7637 107.723 47.7637C107.723 47.7637 107.724 47.7637 107.725 47.7637C107.725 47.7637 107.726 47.7637 107.727 47.7637C107.727 47.7637 107.728 47.7637 107.729 47.7637C107.73 47.7637 107.731 47.7637 107.731 47.7637H107.733C107.734 47.7637 107.735 47.7637 107.735 47.7637C107.735 47.7637 107.736 47.7637 107.737 47.7637C107.738 47.7637 107.739 47.7637 107.739 47.7637H107.741H107.743C107.744 47.7637 107.745 47.7637 107.745 47.7637C107.746 47.7637 107.747 47.7637 107.747 47.7637H107.749V45.7637H107.747H107.745H107.743H107.742H107.74C107.74 45.7637 107.739 45.7637 107.738 45.7637C107.737 45.7637 107.736 45.7637 107.736 45.7637C107.736 45.7637 107.735 45.7637 107.734 45.7637H107.732C107.732 45.7637 107.731 45.7637 107.73 45.7637C107.729 45.7637 107.728 45.7637 107.728 45.7637C107.727 45.7637 107.726 45.7637 107.726 45.7637C107.725 45.7637 107.724 45.7637 107.724 45.7637C107.724 45.7637 107.723 45.7637 107.722 45.7637C107.721 45.7637 107.72 45.7637 107.72 45.7637C107.719 45.7637 107.718 45.7637 107.718 45.7637C107.718 45.7637 107.717 45.7637 107.716 45.7637C107.715 45.7637 107.714 45.7637 107.714 45.7637C107.714 45.7637 107.713 45.7637 107.712 45.7637C107.712 45.7637 107.711 45.7637 107.71 45.7637C107.709 45.7637 107.708 45.7637 107.708 45.7637C107.707 45.7637 107.706 45.7637 107.706 45.7637C107.705 45.7637 107.704 45.7637 107.704 45.7637C107.703 45.7637 107.702 45.7637 107.702 45.7637H107.7C107.7 45.7637 107.699 45.7637 107.698 45.7637H107.696H107.694C107.694 45.7637 107.693 45.7637 107.692 45.7637H107.69H107.688C107.688 45.7637 107.687 45.7637 107.686 45.7637C107.686 45.7637 107.685 45.7637 107.684 45.7637C107.683 45.7637 107.682 45.7637 107.682 45.7637L107.681 47.7637ZM107.749 47.7637C107.796 47.7637 108.209 47.7819 108.553 47.4396L107.143 46.0218C107.257 45.9078 107.402 45.8276 107.557 45.7891C107.678 45.759 107.784 45.7637 107.749 45.7637V47.7637ZM107.848 47.7307C107.849 47.7307 107.864 47.7307 107.879 47.7304C107.895 47.7301 107.927 47.7292 107.967 47.7253C108.06 47.716 108.188 47.6909 108.327 47.6219C108.448 47.5614 108.53 47.4901 108.562 47.4618C108.591 47.4355 108.619 47.4073 108.62 47.4066L107.209 45.9887C107.193 46.0045 107.209 45.9888 107.228 45.9717C107.249 45.9528 107.323 45.8876 107.436 45.8312C107.566 45.7664 107.686 45.7433 107.769 45.7351C107.824 45.7296 107.875 45.7307 107.848 45.7307V47.7307ZM107.914 47.6977C108.256 47.6977 108.488 47.5341 108.562 47.4785C108.647 47.4154 108.716 47.3441 108.719 47.3406L107.309 45.9227C107.279 45.9523 107.315 45.914 107.366 45.8756C107.407 45.8448 107.606 45.6977 107.914 45.6977V47.6977ZM108.014 46.6317C108.014 47.6317 108.015 47.6317 108.015 47.6317C108.016 47.6317 108.017 47.6317 108.018 47.6317C108.019 47.6317 108.021 47.6317 108.022 47.6316C108.025 47.6316 108.027 47.6316 108.03 47.6315C108.036 47.6315 108.042 47.6313 108.048 47.6311C108.06 47.6307 108.073 47.6301 108.086 47.6291C108.114 47.6271 108.146 47.6237 108.183 47.6177C108.251 47.6064 108.357 47.5819 108.476 47.5229C108.598 47.462 108.752 47.3548 108.873 47.1745C108.998 46.9876 109.047 46.783 109.047 46.5987H107.047C107.047 46.4308 107.092 46.2386 107.211 46.061C107.326 45.89 107.471 45.7889 107.585 45.7322C107.696 45.6774 107.794 45.6549 107.856 45.6446C107.889 45.6391 107.919 45.6359 107.945 45.6341C107.957 45.6332 107.97 45.6326 107.981 45.6322C107.987 45.632 107.993 45.6319 107.998 45.6318C108.001 45.6318 108.003 45.6317 108.006 45.6317C108.007 45.6317 108.009 45.6317 108.01 45.6317C108.011 45.6317 108.011 45.6317 108.012 45.6317H108.014C108.014 45.6317 108.014 45.6317 108.014 46.6317ZM108.752 47.3076C108.699 47.3607 108.646 47.4001 108.6 47.4283C108.579 47.4414 108.562 47.4508 108.552 47.4561C108.543 47.4606 108.536 47.464 108.542 47.461C108.545 47.4598 108.56 47.4524 108.577 47.4435C108.595 47.4338 108.62 47.4198 108.65 47.4015C108.712 47.3629 108.782 47.3112 108.852 47.2416L107.442 45.8237C107.495 45.7706 107.548 45.7312 107.594 45.703C107.615 45.6899 107.632 45.6805 107.642 45.6752C107.651 45.6707 107.658 45.6674 107.652 45.6703C107.649 45.6715 107.634 45.6789 107.617 45.6878C107.599 45.6975 107.574 45.7115 107.544 45.7298C107.482 45.7684 107.412 45.8201 107.342 45.8897L108.752 47.3076ZM108.852 47.2416L108.885 47.2085L107.475 45.7907L107.441 45.8238L108.852 47.2416ZM108.885 47.2085C108.899 47.1952 108.878 47.2158 108.891 47.2028C108.902 47.192 108.882 47.2122 108.892 47.2014C108.894 47.2002 108.892 47.2013 108.894 47.2001C108.894 47.1998 108.896 47.1979 108.896 47.1976C108.91 47.1843 108.892 47.2016 108.905 47.189C108.911 47.1825 108.902 47.1916 108.909 47.1853C108.909 47.1854 108.909 47.1852 108.909 47.1853C108.91 47.185 108.909 47.1848 108.91 47.1844C108.911 47.1841 108.912 47.1822 108.912 47.1819C108.914 47.1798 108.916 47.1775 108.918 47.1756C108.92 47.1741 108.923 47.1709 108.925 47.1692C108.933 47.1608 108.92 47.1744 108.928 47.1658C108.938 47.1556 108.921 47.1725 108.932 47.1622C108.955 47.1396 108.926 47.1682 108.952 47.1426L107.541 45.7247C107.528 45.738 107.548 45.7174 107.535 45.7305C107.524 45.7413 107.545 45.721 107.534 45.7318C107.533 45.7331 107.534 45.7319 107.533 45.7331C107.532 45.7335 107.53 45.7354 107.53 45.7356C107.517 45.7489 107.534 45.7316 107.521 45.7443C107.515 45.7507 107.524 45.7416 107.518 45.748C107.518 45.748 107.517 45.7483 107.517 45.7484C107.517 45.7481 107.517 45.7488 107.517 45.7484C107.517 45.7485 107.516 45.7492 107.516 45.7493C107.516 45.749 107.516 45.7496 107.516 45.7493C107.516 45.7496 107.514 45.7511 107.514 45.7514C107.512 45.7534 107.51 45.7558 107.508 45.7577C107.506 45.7592 107.503 45.7624 107.502 45.764C107.493 45.7724 107.507 45.7589 107.498 45.7674C107.488 45.7776 107.505 45.7608 107.494 45.7711C107.472 45.7937 107.5 45.765 107.475 45.7907L108.885 47.2085ZM108.952 47.1426C108.968 47.1261 108.976 47.1178 108.985 47.1096C108.993 47.1013 109.001 47.0931 109.018 47.0765L107.607 45.6587C107.591 45.6751 107.583 45.6834 107.574 45.6916C107.566 45.6999 107.558 45.7081 107.541 45.7247L108.952 47.1426ZM109.154 46.9076L121.332 27.9269L119.649 26.8469L107.471 45.8276L109.154 46.9076ZM119.49 27.3869V45.9055H121.49V27.3869H119.49ZM119.49 45.9055C119.49 46.9248 120.341 47.7637 121.353 47.7637V45.7637C121.408 45.7637 121.44 45.7864 121.453 45.7989C121.465 45.8115 121.49 45.8454 121.49 45.9055H119.49ZM121.353 47.7637C122.365 47.7637 123.216 46.9248 123.216 45.9055H121.216C121.216 45.8454 121.241 45.8115 121.253 45.7989C121.266 45.7864 121.298 45.7637 121.353 45.7637V47.7637ZM123.216 45.907L123.249 24.4176L121.249 24.4151L121.216 45.9039L123.216 45.907Z" fill="black"/>
</g>
<path d="M176.867 39.0441H177.265C177.904 39.0441 178.429 38.5256 178.429 37.884V24.2178C178.429 23.5761 177.904 23.0576 177.265 23.0576H176.867C176.229 23.0576 175.704 23.5761 175.704 24.2178V37.8509C175.704 38.5096 176.213 39.0441 176.867 39.0441Z" fill="black" stroke="black"/>
<path d="M156.448 23.4673C155.921 22.9432 155.042 22.9432 154.515 23.4673C154.259 23.722 154.102 24.0791 154.102 24.449V45.9054C154.102 46.6461 154.727 47.2636 155.465 47.2636C156.203 47.2636 156.828 46.6461 156.828 45.9054V27.6983L176.083 46.854C176.607 47.3753 177.48 47.3782 178.008 46.8625C178.58 46.3366 178.579 45.4832 178.049 44.9567L156.448 23.4673Z" fill="black" stroke="black"/>
<path d="M76.475 35.4873L76.4706 35.4784L76.4659 35.4696C76.1101 34.8124 75.3165 34.5354 74.6287 34.9038C73.9794 35.2516 73.6955 36.0259 74.0442 36.7077L74.6313 38.2093H63.3446L70.1649 25.0457C70.5343 24.3578 70.2514 23.5682 69.5939 23.216C68.9298 22.8602 68.0798 23.0998 67.7481 23.7984L56.6385 45.2427C56.2691 45.9306 56.5519 46.7202 57.2095 47.0724C57.8973 47.4408 58.6909 47.1638 59.0466 46.5065L59.0511 46.4981L61.9309 40.9258H75.922L78.8018 46.4981L78.8063 46.5065C79.1577 47.1557 79.9363 47.434 80.6182 47.0856C80.9733 46.9368 81.2406 46.6695 81.3658 46.3303C81.4925 45.9874 81.4589 45.6109 81.2837 45.281L76.475 35.4873Z" fill="black"/>
<path d="M69.5939 23.216C70.2514 23.5682 70.5343 24.3578 70.1649 25.0457L63.3446 38.2093H74.6313L74.0442 36.7077C73.6955 36.0259 73.9794 35.2516 74.6287 34.9038C75.3165 34.5354 76.1101 34.8124 76.4659 35.4696L76.4706 35.4784L76.475 35.4873L81.2837 45.281C81.4589 45.6109 81.4925 45.9874 81.3658 46.3303C81.2406 46.6695 80.9733 46.9368 80.6182 47.0856C79.9363 47.434 79.1577 47.1557 78.8063 46.5065L78.8018 46.4981L75.922 40.9258H61.9309L59.0511 46.4981L59.0466 46.5065C58.6909 47.1638 57.8973 47.4408 57.2095 47.0724C56.5519 46.7202 56.2691 45.9306 56.6385 45.2427L67.7481 23.7984C68.0798 23.0998 68.9298 22.8602 69.5939 23.216ZM69.5939 23.216L69.3596 23.6535" stroke="black"/>
<path d="M44.8804 44.7954L27.9159 33.5552V24.4159C27.9159 23.6752 27.2914 23.0576 26.5531 23.0576C25.8149 23.0576 25.1904 23.6752 25.1904 24.4159V45.8723C25.1904 46.613 25.8149 47.2306 26.5531 47.2306C27.2914 47.2306 27.9159 46.613 27.9159 45.8723V36.8019L43.3654 47.0482C43.9864 47.46 44.8287 47.3101 45.2517 46.6788L45.3363 46.5525V46.5093C45.651 45.9199 45.4511 45.1739 44.8804 44.7954Z" fill="black" stroke="black"/>
<path d="M33.0271 31.5068L33.0333 31.517L33.0399 31.5269L33.239 31.824C33.582 32.3358 34.3181 32.5197 34.8598 32.1604L44.8807 25.4925C44.8806 25.4926 44.8807 25.4924 44.8807 25.4925C45.3943 25.1517 45.5824 24.4157 45.2188 23.8732L45.0197 23.5761C44.6767 23.0642 43.9406 22.8804 43.3989 23.2397L33.378 29.9076C33.3781 29.9075 33.3779 29.9077 33.378 29.9076C32.8573 30.2531 32.6892 30.9465 33.0271 31.5068Z" fill="black"/>
<path d="M44.8807 25.4925L34.8598 32.1604C34.3181 32.5197 33.582 32.3358 33.239 31.824L33.0399 31.5269L33.0333 31.517L33.0271 31.5068C32.6892 30.9465 32.8573 30.2531 33.378 29.9076M44.8807 25.4925C44.8807 25.4924 44.8806 25.4926 44.8807 25.4925ZM44.8807 25.4925C45.3943 25.1517 45.5824 24.4157 45.2188 23.8732M45.2188 23.8732L44.8034 24.1515M45.2188 23.8732L45.0197 23.5761C44.6767 23.0642 43.9406 22.8804 43.3989 23.2397L33.378 29.9076M33.378 29.9076C33.3779 29.9077 33.3781 29.9075 33.378 29.9076Z" stroke="black"/>
<path d="M209.962 44.3311L209.952 44.3336C208.409 44.7493 206.761 44.9435 204.939 44.9435C203.116 44.9435 201.435 44.7492 199.893 44.3336C198.347 43.917 197.013 43.3133 195.912 42.4997L195.907 42.4957C194.787 41.6911 193.94 40.6352 193.308 39.3763C192.687 38.1414 192.365 36.6049 192.365 34.8474C192.365 33.6708 192.525 32.5974 192.809 31.6577C193.093 30.7162 193.501 29.8747 194.031 29.1295C194.568 28.3765 195.192 27.7258 195.936 27.2017C196.702 26.6621 197.565 26.1849 198.493 25.8029C199.41 25.4255 200.433 25.1693 201.541 24.9747C202.631 24.7834 203.761 24.7182 204.972 24.7182C206.762 24.7182 208.442 24.9125 209.985 25.3281L210.049 25.3454H210.083L210.093 25.3482C210.1 25.3503 210.112 25.3538 210.125 25.3572C210.137 25.3602 210.154 25.3644 210.174 25.3682C210.566 25.4758 210.966 25.3316 211.231 25.0678L211.43 24.8698C211.996 24.307 211.832 23.2071 210.928 23.0055C209.093 22.5331 207.096 22.2988 205.005 22.2988C203.588 22.2988 202.235 22.3995 200.946 22.6019C199.649 22.8056 198.419 23.1453 197.291 23.5876C196.154 24.0332 195.124 24.6145 194.2 25.261L194.19 25.2681C193.255 25.9572 192.453 26.7539 191.789 27.6925C191.127 28.6281 190.607 29.6991 190.26 30.87C189.876 32.0521 189.706 33.3587 189.706 34.7814C189.706 36.9156 190.08 38.8141 190.889 40.3885C191.685 41.9716 192.763 43.289 194.193 44.3293C195.608 45.3594 197.226 46.1112 199.074 46.5879L199.076 46.5884C200.944 47.0616 202.911 47.2969 205.039 47.2969C207.166 47.2969 209.133 47.0617 210.97 46.5879C212.818 46.1114 214.438 45.3593 215.823 44.3258C217.216 43.2863 218.294 41.97 219.09 40.3865C219.896 38.7826 220.271 36.9191 220.271 34.7814C220.271 33.6936 220.169 32.6678 219.961 31.7051L219.953 31.6658L219.938 31.6284C219.6 30.7634 218.394 30.2966 217.594 31.0928C217.281 31.4036 217.119 31.9058 217.226 32.3503C217.384 33.1076 217.479 33.9289 217.479 34.8474C217.479 36.6371 217.158 38.1408 216.537 39.3763C215.907 40.6301 215.028 41.6903 213.933 42.4997C212.827 43.3168 211.494 43.95 209.962 44.3311Z" fill="black" stroke="black"/>
<path d="M215.491 28.1843C216.241 28.1843 216.854 27.5786 216.854 26.8261C216.854 26.0735 216.241 25.4678 215.491 25.4678C214.741 25.4678 214.128 26.0734 214.128 26.8261C214.128 27.5786 214.741 28.1843 215.491 28.1843Z" fill="black" stroke="black"/>
<path fill-rule="evenodd" clip-rule="evenodd" d="M33.9932 0.012462C45.502 -0.29324 56.431 5.04077 63.2616 14.3162L63.2835 14.346L63.3031 14.3772C63.625 14.8895 63.73 15.5922 63.4162 16.2165C63.094 16.8576 62.4234 17.1966 61.7927 17.1966C61.1758 17.1966 60.6796 16.8871 60.3625 16.5086L60.3425 16.4848L60.3241 16.4597C54.4062 8.4288 44.9489 3.62959 34.9818 3.62959C26.362 3.62959 18.3582 7.05031 12.3733 13.2283C6.39191 19.4025 3.3073 27.4887 3.62884 36.0637M33.9932 0.012462C24.9729 0.250446 16.466 3.95643 10.0814 10.4098L10.0795 10.4117C3.73032 16.8638 0.140458 25.3278 0.00376349 34.3369C-0.132899 43.7177 3.4566 52.5921 10.0816 59.2847C16.7068 65.9775 25.5901 69.6821 35.015 69.6821C46.1146 69.6821 56.699 64.3506 63.2923 55.3814C63.7476 54.7727 63.7272 54.0305 63.4494 53.4777L63.4396 53.4582L63.429 53.4392C63.0993 52.8487 62.5125 52.4646 61.7927 52.4646C61.1758 52.4646 60.6796 52.7741 60.3625 53.1526L60.3421 53.177L60.3233 53.2026C54.1167 61.6484 44.1809 66.4154 33.6942 65.9994C17.454 65.3596 4.23951 52.206 3.62884 36.0637" fill="url(#paint0_radial_2324_20395)"/>
</g>
<defs>
<radialGradient id="paint0_radial_2324_20395" cx="0" cy="0" r="1" gradientUnits="userSpaceOnUse" gradientTransform="translate(22.5769 66.4261) rotate(-56.2097) scale(66.5085 78.1298)">
<stop/>
<stop offset="1" stop-opacity="0"/>
</radialGradient>
<clipPath id="clip0_2324_20395">
<rect width="221" height="70" fill="white"/>
</clipPath>
</defs>
</svg>
