<svg width="2283" height="400" viewBox="0 0 2283 400" fill="none" xmlns="http://www.w3.org/2000/svg">
<g clip-path="url(#clip0_3508_405681)">
<mask id="mask0_3508_405681" style="mask-type:luminance" maskUnits="userSpaceOnUse" x="0" y="0" width="2283" height="400">
<path d="M2282.57 0H0.666016V400H2282.57V0Z" fill="white"/>
</mask>
<g mask="url(#mask0_3508_405681)">
<mask id="mask1_3508_405681" style="mask-type:luminance" maskUnits="userSpaceOnUse" x="0" y="0" width="2283" height="400">
<path d="M2282.57 0H0.666016V400H2282.57V0Z" fill="white"/>
</mask>
<g mask="url(#mask1_3508_405681)">
<path d="M1927.55 0H1984.32V319.695H1927.55V0Z" fill="black"/>
<path d="M1126.04 301.341C1145.91 319.072 1174.07 328.453 1207.52 328.453L1207.53 328.471C1272.45 328.471 1306.4 286.844 1306.4 248.787C1306.4 210.731 1279.01 183.211 1231.25 173.314L1190.74 165.461C1173.29 162.139 1162.45 151.301 1162.45 137.177C1162.45 119.801 1180.09 106.174 1202.62 106.174C1242.25 106.174 1251.34 134.281 1253.19 142.898L1253.38 143.822L1303.39 130.177L1303.21 129.359C1301.29 120.352 1295.58 102.994 1279.05 87.7854C1260.59 70.8004 1234.89 62.2012 1202.62 62.2012C1149.58 62.2012 1106.45 98.1789 1106.45 142.383C1106.45 178.449 1132.72 205.49 1176.72 214.747L1216.07 223.078C1237.14 227.2 1248.75 237.558 1248.75 252.962C1248.75 268.366 1235.83 283.912 1206.95 283.912C1170.88 283.912 1154.55 262.309 1151.32 242.09L1151.16 241.112L1099.49 254.775L1099.61 255.556C1102.12 271.69 1112 288.798 1126.04 301.341Z" fill="black"/>
<path d="M53.0999 195.275V62.2734H0.666016V195.275C0.666016 228.073 12.5231 258.098 32.1902 281.283C56.5789 310.03 92.9311 328.277 133.561 328.277C178.771 328.277 218.708 305.677 242.706 271.157L334.262 147.891C378.07 87.7153 478.234 117.51 479.759 193.622L520.123 139.203C477.879 45.6082 341.521 35.9431 287.1 123.373L198.917 242.304C184.309 262.593 160.453 275.813 133.561 275.813C89.1149 275.813 53.0999 239.746 53.0999 195.275Z" fill="black"/>
<path d="M318.854 196.79L318.874 196.766L318.854 196.785V196.79Z" fill="black"/>
<path d="M318.856 196.791L278.635 251.027C321.075 342.88 450.989 353.806 508.463 271.156L600.018 147.89C643.825 87.7141 743.989 117.509 745.517 193.621L786.341 139.202C744.736 45.0385 606.905 36.5105 552.839 123.372L464.621 242.303C420.974 302.939 320.263 273.183 318.856 196.791Z" fill="black"/>
<path d="M850.402 301.128C934.838 365.514 1063.74 303.989 1063.74 195.257C1063.74 65.2033 886.932 13.8931 818.806 123.354L730.446 242.286C686.834 302.975 586.031 273.128 584.646 196.749L544.389 251.027C586.794 342.897 716.939 353.806 774.413 271.173L865.88 147.641C909.225 88.3534 1011.31 119.037 1011.31 195.274C1011.31 298.196 852.408 299.689 850.419 196.872L797.985 267.674V400.017H850.402V301.128Z" fill="black"/>
<path d="M1469.23 327.568C1393.85 327.568 1337 270.589 1337 195.028C1337 119.466 1393.16 63.0742 1467.62 63.0742C1536.54 63.0742 1572.98 105.217 1583.74 142.279L1533.13 160.276C1528.24 144.286 1512.99 113.657 1468.13 113.657C1432.31 113.657 1393.74 139.116 1393.74 195.028C1393.74 250.94 1432.88 277.483 1469.23 277.483C1505.59 277.483 1528.25 254.102 1536.24 231.307L1585.8 248.826C1573.36 285.692 1535.83 327.568 1469.23 327.568Z" fill="black"/>
<path fill-rule="evenodd" clip-rule="evenodd" d="M2164.3 327.566C2129.24 327.566 2096.84 315.111 2073.07 292.511C2047.33 268.046 2033.73 233.989 2033.73 194.013C2033.73 112.055 2096.88 63.0898 2157.9 63.0898C2196.21 63.0898 2227.98 75.2066 2249.73 98.1079C2271.24 120.743 2282.59 153.362 2282.59 192.45C2282.59 199.857 2281.98 206.183 2281.54 209.132H2090.32L2090.42 211.869C2092.06 251.08 2123.81 280.661 2164.32 280.661C2197.45 280.661 2220.55 265.56 2231.35 236.937L2278.7 251.56C2266.02 288.762 2229.64 327.566 2164.34 327.566H2164.3ZM2158.46 108.43C2118.34 108.43 2094.3 138.705 2092.02 167.167L2091.79 170.01H2225.49L2225.37 167.274C2224.36 140.126 2206.25 108.413 2158.44 108.413L2158.46 108.43Z" fill="black"/>
<path fill-rule="evenodd" clip-rule="evenodd" d="M1612.19 193.991C1612.19 272.007 1662.81 326.479 1735.27 326.479C1768.62 326.479 1797.01 310.471 1809.36 284.691L1814.51 285.811V319.692H1868.54V70.8688H1813.46V101.641L1808.24 102.6C1800.96 84.5846 1777.2 63.5488 1734.21 63.5488C1663.51 63.5488 1612.19 115.979 1612.19 193.991ZM1668.88 193.991C1668.88 144.352 1698.37 111.004 1742.23 111.004C1785.15 111.004 1813.97 143.623 1813.97 193.991C1813.97 244.361 1786.11 279.557 1742.23 279.557C1698.35 279.557 1668.88 243.631 1668.88 193.991Z" fill="black"/>
</g>
</g>
</g>
<defs>
<clipPath id="clip0_3508_405681">
<rect width="2283" height="400" fill="white"/>
</clipPath>
</defs>
</svg>
