<svg width="200" height="59" viewBox="0 0 200 59" fill="none" xmlns="http://www.w3.org/2000/svg">
<g clip-path="url(#clip0_2327_20419)">
<path d="M86.0026 32.9807C86.2469 33.4412 86.4697 33.9234 86.6715 34.4272C86.8875 34.9166 87.0961 35.4132 87.2972 35.917C87.4983 35.3988 87.7076 34.8878 87.9229 34.384C88.1389 33.8802 88.3691 33.3981 88.6134 32.9375L97.8507 15.6432C97.9661 15.4274 98.0809 15.2546 98.1963 15.125C98.3252 14.9955 98.4622 14.902 98.606 14.8444C98.7646 14.7868 98.9368 14.7508 99.1237 14.7364C99.3114 14.7221 99.5341 14.7148 99.7933 14.7148H104.174V45.9351H99.0596V25.7693C99.0596 25.3951 99.0663 24.9848 99.0812 24.5387C99.1095 24.0924 99.1453 23.639 99.1885 23.1784L89.7575 40.8828C89.5415 41.2859 89.2614 41.6025 88.9158 41.8328C88.5702 42.0488 88.1679 42.1567 87.7076 42.1567H86.9091C86.4481 42.1567 86.0458 42.0488 85.7002 41.8328C85.3546 41.6025 85.0745 41.2859 84.8585 40.8828L75.2979 23.1136C75.3552 23.5886 75.391 24.0565 75.4059 24.5171C75.4342 24.9632 75.4491 25.3807 75.4491 25.7693V45.9351H70.334V14.7148H74.7154C74.9739 14.7148 75.1973 14.7221 75.3843 14.7364C75.5712 14.7508 75.7366 14.7868 75.8804 14.8444C76.039 14.902 76.1828 14.9955 76.3124 15.125C76.4413 15.2546 76.5642 15.4274 76.6789 15.6432L86.0026 32.9807Z" fill="black"/>
<path d="M127.512 45.9349H125.116C124.613 45.9349 124.217 45.8629 123.93 45.719C123.642 45.5607 123.426 45.2512 123.282 44.7906L122.807 43.2145C122.246 43.7182 121.692 44.1645 121.145 44.5531C120.613 44.9273 120.059 45.244 119.483 45.5031C118.908 45.7622 118.297 45.9565 117.65 46.086C117.002 46.2156 116.283 46.2804 115.491 46.2804C114.556 46.2804 113.693 46.158 112.901 45.9133C112.11 45.6542 111.427 45.2728 110.851 44.769C110.29 44.2652 109.851 43.639 109.535 42.8906C109.218 42.1421 109.06 41.2713 109.06 40.2781C109.06 39.4433 109.276 38.6228 109.707 37.8168C110.153 36.9963 110.887 36.2622 111.909 35.6145C112.93 34.9524 114.289 34.4054 115.988 33.9736C117.685 33.5418 119.793 33.2971 122.311 33.2395V31.9441C122.311 30.4615 121.994 29.3676 121.361 28.6623C120.742 27.9426 119.836 27.5828 118.642 27.5828C117.778 27.5828 117.06 27.6835 116.484 27.885C115.908 28.0865 115.404 28.3168 114.973 28.5759C114.556 28.8206 114.167 29.0437 113.807 29.2453C113.448 29.4467 113.052 29.5475 112.621 29.5475C112.261 29.5475 111.952 29.454 111.693 29.2668C111.434 29.0797 111.225 28.8494 111.067 28.5759L110.096 26.8702C112.642 24.5385 115.714 23.3726 119.311 23.3726C120.606 23.3726 121.757 23.5884 122.764 24.0203C123.786 24.4377 124.649 25.0278 125.354 25.7907C126.059 26.5392 126.591 27.4388 126.951 28.4895C127.325 29.5403 127.512 30.6918 127.512 31.9441V45.9349ZM117.153 42.6099C117.699 42.6099 118.203 42.5595 118.663 42.4588C119.124 42.358 119.556 42.2069 119.959 42.0054C120.376 41.8039 120.771 41.5592 121.145 41.2713C121.534 40.969 121.922 40.6164 122.311 40.2133V36.4781C120.757 36.5501 119.455 36.6868 118.405 36.8884C117.369 37.0755 116.534 37.3202 115.901 37.6224C115.268 37.9247 114.815 38.2774 114.541 38.6804C114.283 39.0834 114.153 39.5224 114.153 39.9974C114.153 40.933 114.426 41.6023 114.973 42.0054C115.534 42.4084 116.261 42.6099 117.153 42.6099Z" fill="black"/>
<path d="M132.754 45.9351V23.783H136.013C136.703 23.783 137.157 24.1068 137.372 24.7545L137.739 26.5034C138.186 26.0428 138.653 25.6254 139.142 25.2511C139.646 24.8769 140.171 24.5531 140.717 24.2796C141.278 24.0061 141.876 23.7973 142.509 23.6534C143.142 23.5095 143.833 23.4375 144.58 23.4375C145.789 23.4375 146.861 23.6462 147.796 24.0637C148.732 24.4667 149.509 25.0424 150.128 25.7909C150.76 26.525 151.235 27.4102 151.552 28.4466C151.882 29.4685 152.048 30.5985 152.048 31.8364V45.9351H146.717V31.8364C146.717 30.4833 146.401 29.4397 145.768 28.7057C145.149 27.9572 144.214 27.583 142.962 27.583C142.041 27.583 141.178 27.7917 140.373 28.2091C139.567 28.6265 138.804 29.195 138.084 29.9148V45.9351H132.754Z" fill="black"/>
<path d="M164.948 23.3945C165.897 23.3945 166.79 23.4952 167.624 23.6968C168.458 23.8839 169.221 24.1646 169.912 24.5388H176.278V26.5251C176.278 26.8562 176.192 27.1153 176.02 27.3025C175.847 27.4896 175.552 27.6191 175.135 27.6911L173.149 28.0581C173.293 28.4323 173.401 28.8282 173.473 29.2456C173.559 29.663 173.602 30.1021 173.602 30.5627C173.602 31.6566 173.379 32.6497 172.933 33.5422C172.502 34.4202 171.897 35.1687 171.121 35.7876C170.358 36.4065 169.444 36.8888 168.379 37.2342C167.329 37.5652 166.185 37.7307 164.948 37.7307C164.113 37.7307 163.301 37.6516 162.509 37.4933C161.818 37.9107 161.474 38.3785 161.474 38.8967C161.474 39.3429 161.675 39.6739 162.078 39.8898C162.495 40.0914 163.034 40.2353 163.696 40.3216C164.373 40.408 165.135 40.4656 165.984 40.4944C166.833 40.5088 167.703 40.5519 168.595 40.624C169.487 40.6959 170.358 40.8254 171.207 41.0126C172.055 41.1853 172.811 41.4659 173.473 41.8546C174.149 42.2433 174.689 42.7758 175.091 43.4523C175.509 44.1144 175.717 44.9709 175.717 46.0216C175.717 47.0004 175.473 47.9504 174.983 48.8716C174.508 49.7928 173.811 50.6133 172.89 51.333C171.984 52.0526 170.869 52.6284 169.545 53.0602C168.221 53.5064 166.71 53.7295 165.013 53.7295C163.329 53.7295 161.869 53.564 160.632 53.2329C159.394 52.9163 158.365 52.4844 157.545 51.9375C156.74 51.4049 156.135 50.786 155.733 50.0807C155.33 49.3754 155.128 48.6413 155.128 47.8784C155.128 46.842 155.445 45.9712 156.078 45.2659C156.711 44.5606 157.588 43.9993 158.711 43.5818C158.164 43.2796 157.725 42.8765 157.395 42.3728C157.063 41.869 156.898 41.2141 156.898 40.408C156.898 40.0769 156.955 39.7387 157.071 39.3932C157.186 39.0334 157.358 38.6808 157.588 38.3353C157.833 37.9899 158.135 37.666 158.495 37.3638C158.855 37.047 159.279 36.7664 159.768 36.5217C158.646 35.9172 157.761 35.1111 157.114 34.1035C156.481 33.096 156.164 31.9157 156.164 30.5627C156.164 29.4687 156.38 28.4828 156.811 27.6047C157.258 26.7123 157.869 25.9566 158.646 25.3377C159.437 24.7044 160.365 24.2221 161.43 23.8911C162.509 23.56 163.681 23.3945 164.948 23.3945ZM170.797 46.9284C170.797 46.4967 170.667 46.144 170.408 45.8705C170.149 45.597 169.797 45.3883 169.351 45.2443C168.905 45.0861 168.379 44.9709 167.775 44.8989C167.185 44.8269 166.552 44.7766 165.876 44.7478C165.214 44.7046 164.523 44.6686 163.804 44.6398C163.099 44.5966 162.416 44.5319 161.754 44.4455C161.15 44.7766 160.66 45.1724 160.286 45.633C159.926 46.0792 159.747 46.5974 159.747 47.1875C159.747 47.5762 159.84 47.936 160.027 48.2671C160.229 48.6125 160.538 48.9076 160.955 49.1523C161.387 49.397 161.941 49.5841 162.617 49.7137C163.293 49.8576 164.121 49.9295 165.099 49.9295C166.092 49.9295 166.948 49.8504 167.667 49.6921C168.387 49.5481 168.977 49.3394 169.437 49.0659C169.912 48.8068 170.257 48.4902 170.473 48.1159C170.689 47.7561 170.797 47.3602 170.797 46.9284ZM164.948 34.3194C165.61 34.3194 166.185 34.2331 166.674 34.0603C167.164 33.8732 167.567 33.6213 167.883 33.3047C168.214 32.988 168.458 32.6065 168.617 32.1604C168.79 31.7141 168.875 31.2248 168.875 30.6922C168.875 29.5982 168.545 28.7346 167.883 28.1013C167.235 27.4536 166.257 27.1297 164.948 27.1297C163.639 27.1297 162.653 27.4536 161.991 28.1013C161.344 28.7346 161.02 29.5982 161.02 30.6922C161.02 31.2104 161.099 31.6925 161.258 32.1388C161.43 32.5849 161.675 32.9736 161.991 33.3047C162.322 33.6213 162.732 33.8732 163.221 34.0603C163.725 34.2331 164.3 34.3194 164.948 34.3194Z" fill="black"/>
<path d="M189.08 23.4375C190.735 23.4375 192.231 23.7038 193.569 24.2364C194.922 24.769 196.072 25.5246 197.022 26.5034C197.972 27.4822 198.706 28.6769 199.223 30.0874C199.741 31.498 200 33.0742 200 34.8158C200 36.5719 199.741 38.1552 199.223 39.5658C198.706 40.9764 197.972 42.1783 197.022 43.1715C196.072 44.1647 194.922 44.9275 193.569 45.4601C192.231 45.9927 190.735 46.259 189.08 46.259C187.425 46.259 185.922 45.9927 184.569 45.4601C183.217 44.9275 182.058 44.1647 181.094 43.1715C180.145 42.1783 179.404 40.9764 178.872 39.5658C178.354 38.1552 178.095 36.5719 178.095 34.8158C178.095 33.0742 178.354 31.498 178.872 30.0874C179.404 28.6769 180.145 27.4822 181.094 26.5034C182.058 25.5246 183.217 24.769 184.569 24.2364C185.922 23.7038 187.425 23.4375 189.08 23.4375ZM189.08 42.1567C190.922 42.1567 192.281 41.5378 193.159 40.2999C194.051 39.0621 194.497 37.2484 194.497 34.859C194.497 32.4696 194.051 30.6488 193.159 29.3966C192.281 28.1443 190.922 27.5182 189.08 27.5182C187.209 27.5182 185.828 28.1515 184.936 29.4182C184.044 30.6704 183.598 32.4841 183.598 34.859C183.598 37.234 184.044 39.0476 184.936 40.2999C185.828 41.5378 187.209 42.1567 189.08 42.1567Z" fill="black"/>
<path fill-rule="evenodd" clip-rule="evenodd" d="M22.7974 13.587C22.7977 13.5866 22.798 13.5862 22.7983 13.5857C25.2478 14.8426 27.9282 15.2732 30.4932 15.2658C31.9836 16.6347 33.2235 18.2425 34.3886 19.8935C34.8717 20.5832 35.3074 21.3048 35.6927 22.0535C36.5836 23.7691 37.2388 25.5842 37.9018 27.4208C38.0962 27.9595 38.2913 28.5 38.4932 29.0403C38.5565 29.2716 38.6225 29.503 38.6914 29.7345L38.695 29.7336C39.719 33.2455 41.2141 36.9971 43.2175 40.0947L43.2155 40.0955C43.8782 41.113 44.6204 42.0765 45.4355 42.9769C45.5959 43.1504 45.7599 43.3222 45.9241 43.4943L45.9242 43.4943L45.9243 43.4944L45.9245 43.4946C46.6918 44.2985 47.4645 45.1081 47.9026 46.121C48.448 47.3832 48.4061 48.8351 48.0781 50.171C46.5303 56.4673 40.4669 58.1217 34.6721 58.2742L34.6748 58.267C32.5021 58.3103 30.3444 58.1483 28.4311 57.9523C28.4311 57.9523 19.2033 56.9971 11.3815 51.2786L11.129 51.091L11.1291 51.0909C10.2161 50.4106 9.34511 49.6756 8.52088 48.8898C6.32851 46.7973 4.37778 44.4241 2.88605 41.8186C2.89603 41.8086 2.90598 41.7986 2.91593 41.7886C2.73938 41.4708 2.57012 41.15 2.40816 40.8257C0.965025 37.9374 0.085511 34.7933 0.0456864 31.4514C-0.0221928 25.8438 1.8962 20.1011 5.54266 15.9376C5.54136 15.9342 5.54006 15.9307 5.53877 15.9273C7.51312 13.7646 9.98089 12.0657 12.9022 11.0984C14.7337 10.4864 16.6564 10.1926 18.587 10.2297C19.7619 11.6092 21.1914 12.749 22.7974 13.587ZM18.3024 50.2769C19.6225 49.795 20.8732 49.147 22.0395 48.3484C20.8659 49.1416 19.6134 49.7901 18.3024 50.2769Z" fill="url(#paint0_linear_2327_20419)"/>
<path fill-rule="evenodd" clip-rule="evenodd" d="M41.9503 9.01967C41.9513 9.01967 41.9522 9.01966 41.9531 9.0196L42.0328 8.9683C31.7446 -8.58148 18.292 5.2356 18.292 5.2356L18.3112 5.26944C18.3104 5.26964 18.3097 5.26983 18.3089 5.27003C26.0447 18.8328 40.7465 9.79314 41.9503 9.01967Z" fill="url(#paint1_linear_2327_20419)"/>
<path d="M29.1976 39.2467C26.3626 46.0236 20.9195 50.511 14.3248 51.1907C14.1831 51.2096 12.3781 51.352 11.3818 51.2785C19.2036 56.997 28.4314 57.9521 28.4314 57.9521C30.4071 58.1546 32.6434 58.3206 34.8877 58.2619C35.6782 56.1985 36.123 53.836 35.9954 51.1556C35.6991 44.9302 39.3089 41.7341 43.2178 40.0945C41.2144 36.997 39.7193 33.2454 38.6954 29.7334C35.6431 30.5454 31.7666 33.0989 29.1976 39.2467Z" fill="url(#paint2_linear_2327_20419)"/>
<path d="M35.8713 51.1117C35.9996 53.7921 35.4623 56.2106 34.6719 58.274C40.4667 58.1215 46.5301 56.4671 48.0779 50.1707C48.4059 48.8349 48.4478 47.383 47.9024 46.1208C47.3705 44.891 46.3452 43.9608 45.4353 42.9767C44.5841 42.0364 43.8122 41.0272 43.1275 39.9595C39.222 41.5997 35.575 44.8869 35.8713 51.1117Z" fill="url(#paint3_linear_2327_20419)"/>
<path d="M38.4931 29.0401C37.6028 26.6573 36.8447 24.2719 35.6925 22.0532C35.3072 21.3045 34.8715 20.5829 34.3884 19.8932C33.2234 18.2422 31.9834 16.6344 30.4931 15.2655C27.9281 15.2729 25.2477 14.8423 22.7982 13.5854C20.3169 17.1049 17.4779 23.0752 20.0766 29.8899C23.9139 39.954 16.1265 46.8322 11.1289 51.0907L11.3814 51.2783C12.3184 51.3514 13.2602 51.3379 14.1947 51.2378C20.7887 50.5574 26.5471 45.9621 29.382 39.1859C31.9517 33.038 35.6898 30.7026 38.7381 29.8899C38.6522 29.6064 38.5705 29.3231 38.4931 29.0401Z" fill="url(#paint4_linear_2327_20419)"/>
<path d="M5.81079 15.6377C1.99034 19.8226 -0.0238377 25.7079 0.0456864 31.4514C0.085511 34.7933 0.965025 37.9374 2.40816 40.8257C2.62463 41.259 2.85412 41.6865 3.09665 42.1082C11.1284 34.0461 8.22658 22.0332 5.81079 15.6377Z" fill="url(#paint5_linear_2327_20419)"/>
<path d="M20.2124 29.8902C17.6137 23.0727 20.3892 17.1416 22.8671 13.6229C21.2331 12.7816 19.7793 11.6289 18.5877 10.2297C16.6571 10.1926 14.7344 10.4864 12.9029 11.0984C9.98155 12.0657 7.51379 13.7646 5.53944 15.9273C7.90191 22.1824 10.7409 33.9334 2.88672 41.8186C4.37845 44.4241 6.32918 46.7973 8.52155 48.8898C9.38628 49.7142 10.3025 50.4827 11.2647 51.1909C16.2624 46.9344 24.0497 39.9543 20.2124 29.8902Z" fill="url(#paint6_linear_2327_20419)"/>
<path d="M29.9024 6.35368C35.3408 8.49948 39.1498 9.08065 41.9112 8.99763L41.9908 8.94633C31.7026 -8.60345 18.25 5.21362 18.25 5.21362L18.2696 5.24805C21.1714 4.7337 25.3887 4.57373 29.9024 6.35368Z" fill="url(#paint7_linear_2327_20419)"/>
<path d="M29.9696 6.23214C25.4586 4.45488 21.217 4.52238 18.2666 5.248C26.0027 18.8113 40.7053 9.77044 41.9082 8.99758C39.1448 9.0806 35.408 8.37793 29.9696 6.23214Z" fill="url(#paint8_linear_2327_20419)"/>
</g>
<defs>
<linearGradient id="paint0_linear_2327_20419" x1="-5.97389" y1="18.4612" x2="56.9353" y2="56.1595" gradientUnits="userSpaceOnUse">
<stop/>
<stop offset="0.489583"/>
<stop offset="1"/>
</linearGradient>
<linearGradient id="paint1_linear_2327_20419" x1="17794.9" y1="2102.9" x2="13856.6" y2="-1948.2" gradientUnits="userSpaceOnUse">
<stop offset="0.15"/>
<stop offset="1"/>
</linearGradient>
<linearGradient id="paint2_linear_2327_20419" x1="4.88909" y1="51.7537" x2="44.3086" y2="42.1688" gradientUnits="userSpaceOnUse">
<stop offset="0.21"/>
<stop offset="0.84"/>
</linearGradient>
<linearGradient id="paint3_linear_2327_20419" x1="35.9456" y1="49.0948" x2="48.1089" y2="49.1859" gradientUnits="userSpaceOnUse">
<stop/>
<stop offset="0.4"/>
<stop offset="1"/>
</linearGradient>
<linearGradient id="paint4_linear_2327_20419" x1="8.41341" y1="51.9992" x2="33.351" y2="18.2382" gradientUnits="userSpaceOnUse">
<stop offset="0.16"/>
<stop offset="0.84"/>
</linearGradient>
<linearGradient id="paint5_linear_2327_20419" x1="4.7821" y1="18.4538" x2="3.67782" y2="40.26" gradientUnits="userSpaceOnUse">
<stop/>
<stop offset="0.76"/>
</linearGradient>
<linearGradient id="paint6_linear_2327_20419" x1="16.9819" y1="12.7913" x2="10.3217" y2="38.0812" gradientUnits="userSpaceOnUse">
<stop offset="0.16"/>
<stop offset="1"/>
</linearGradient>
<linearGradient id="paint7_linear_2327_20419" x1="19.5615" y1="0.683073" x2="44.221" y2="9.77252" gradientUnits="userSpaceOnUse">
<stop offset="0.15"/>
<stop offset="1"/>
</linearGradient>
<linearGradient id="paint8_linear_2327_20419" x1="17794.9" y1="2102.88" x2="13856.6" y2="-1948.22" gradientUnits="userSpaceOnUse">
<stop offset="0.15"/>
<stop offset="1"/>
</linearGradient>
<clipPath id="clip0_2327_20419">
<rect width="200" height="58.3193" fill="white"/>
</clipPath>
</defs>
</svg>
