<svg width="186" height="49" viewBox="0 0 186 49" fill="none" xmlns="http://www.w3.org/2000/svg">
<mask id="mask0_2261_14778" style="mask-type:luminance" maskUnits="userSpaceOnUse" x="0" y="0" width="48" height="49">
<path d="M48 0H0V48.1996H48V0Z" fill="white"/>
</mask>
<g mask="url(#mask0_2261_14778)">
<mask id="mask1_2261_14778" style="mask-type:alpha" maskUnits="userSpaceOnUse" x="-9" y="5" width="51" height="51">
<path fill-rule="evenodd" clip-rule="evenodd" d="M34.0183 33.5242C38.4137 30.8957 41.3567 26.0893 41.3567 20.5955C41.3567 12.2817 34.617 5.54199 26.3031 5.54199C20.4351 5.54199 15.3513 8.89953 12.868 13.7983L-8.31412 34.9805L12.124 55.4186L34.0183 33.5242Z" fill="#795E5E"/>
</mask>
<g mask="url(#mask1_2261_14778)">
<path fill-rule="evenodd" clip-rule="evenodd" d="M26.0515 4.45237L26.0594 4.44434C23.6864 4.48881 21.3943 5.12813 19.4231 6.37844C17.9448 7.95026 16.4981 9.55375 15.0981 11.2012C13.5739 12.9908 12.1036 14.8291 10.705 16.7284C10.1846 17.4418 9.67198 18.1655 9.18799 18.918C9.94041 18.4339 10.6642 17.9213 11.3776 17.4009C12.2192 16.7795 13.0501 16.1446 13.869 15.4977C17.8712 12.3399 21.6212 8.88247 25.2234 5.29548C25.5 5.01585 25.7751 4.73477 26.0515 4.45237ZM24.277 13.8464C26.947 11.1462 29.5922 8.4135 32.1627 5.61387C31.0895 5.17598 29.9878 4.85997 28.8848 4.66907C26.5058 6.88513 24.1723 9.14925 21.8641 11.4334C19.2083 14.1133 16.5787 16.8275 14.0239 19.6083C10.3192 23.6357 6.76454 27.8028 3.49642 32.214C7.48149 29.2604 11.2696 26.0757 14.9317 22.7543C18.1234 19.8642 21.2225 16.8737 24.277 13.8464ZM36.7452 8.40304C32.977 12.5753 29.0695 16.6187 25.1147 20.6096C22.7424 22.9639 20.3517 25.3002 17.9264 27.599C12.6286 32.6221 7.16598 37.4725 1.36832 41.9431C5.94109 36.013 10.9116 30.4332 16.0579 25.0215C18.247 22.7209 20.466 20.4504 22.7018 18.1967C26.5938 14.3408 30.5367 10.5277 34.598 6.84638C35.3404 7.30141 36.0589 7.81956 36.7452 8.40304ZM40.291 12.4881C39.8308 11.751 39.306 11.0391 38.7188 10.3595C34.5439 14.1302 30.4965 18.0418 26.5029 21.9992C24.1474 24.373 21.8084 26.7662 19.507 29.1942C14.4852 34.4906 9.6389 39.9522 5.16949 45.7456C11.0888 41.1805 16.6609 36.2209 22.0635 31.0837C24.3732 28.8855 26.6528 26.6572 28.916 24.4122C32.781 20.5108 36.602 16.5602 40.291 12.4881ZM41.5409 14.908C41.9875 15.9664 42.3139 17.0545 42.518 18.1445C40.2786 20.5527 37.9853 22.9124 35.6749 25.2498C32.9687 27.9321 30.2268 30.5865 27.4165 33.1674C23.4154 36.8458 19.2747 40.3713 14.8943 43.6176C17.8335 39.6497 21.004 35.8791 24.3108 32.2314C27.2126 29.0221 30.2189 25.9072 33.262 22.8369C35.9767 20.1524 38.7238 17.4928 41.5409 14.908ZM41.1442 27.2916C42.2305 25.3727 42.7716 23.1878 42.779 20.9334C42.4542 21.2492 42.1309 21.5664 41.8103 21.8838C38.1825 25.5268 34.6885 29.3195 31.5018 33.3718C30.8914 34.1481 30.2928 34.9336 29.705 35.7297C29.1832 36.4445 28.672 37.1669 28.1879 37.9193C28.9404 37.4354 29.6641 36.9226 30.3775 36.4024C32.1226 35.1157 33.8187 33.7696 35.4721 32.3755C37.4159 30.7393 39.3019 29.0372 41.1442 27.2916Z" fill="black"/>
</g>
</g>
<path d="M66.152 13.2814H70.9886L77.4659 29.0911H77.7216L84.1989 13.2814H89.0355V35.0996H85.2429V20.1103H85.0405L79.0107 35.0357H76.1768L70.147 20.0783H69.9446V35.0996H66.152V13.2814ZM100.413 35.4192C98.7727 35.4192 97.3558 35.0783 96.1626 34.3965C94.9766 33.7076 94.0639 32.7346 93.4247 31.4775C92.7855 30.2132 92.4659 28.7253 92.4659 27.0137C92.4659 25.3304 92.7855 23.8532 93.4247 22.5819C94.071 21.3034 94.973 20.3091 96.1307 19.5989C97.2884 18.8816 98.6484 18.5229 100.211 18.5229C101.219 18.5229 102.171 18.6863 103.066 19.013C103.968 19.3326 104.763 19.8297 105.452 20.5044C106.148 21.1792 106.695 22.0385 107.093 23.0826C107.491 24.1195 107.69 25.3553 107.69 26.7899V27.9725H94.277V25.373H103.993C103.986 24.6344 103.826 23.9774 103.513 23.4022C103.201 22.8198 102.764 22.3617 102.203 22.0279C101.649 21.6941 101.003 21.5272 100.264 21.5272C99.4759 21.5272 98.7834 21.7189 98.1868 22.1024C97.5902 22.4789 97.125 22.976 96.7912 23.5939C96.4645 24.2047 96.2976 24.8759 96.2905 25.6074V27.8766C96.2905 28.8283 96.4645 29.6451 96.8125 30.3269C97.1605 31.0016 97.647 31.5201 98.272 31.8823C98.897 32.2374 99.6286 32.415 100.467 32.415C101.028 32.415 101.536 32.3368 101.99 32.1806C102.445 32.0172 102.839 31.7793 103.173 31.4668C103.506 31.1543 103.759 30.7672 103.929 30.3056L107.53 30.7104C107.303 31.6621 106.869 32.4931 106.23 33.2033C105.598 33.9064 104.788 34.4533 103.801 34.8439C102.814 35.2275 101.685 35.4192 100.413 35.4192ZM119.123 18.736V21.7189H109.716V18.736H119.123ZM112.039 14.8155H115.895V30.1777C115.895 30.6962 115.974 31.0939 116.13 31.3709C116.293 31.6408 116.506 31.8255 116.769 31.9249C117.032 32.0243 117.323 32.074 117.643 32.074C117.884 32.074 118.104 32.0563 118.303 32.0208C118.509 31.9853 118.665 31.9533 118.772 31.9249L119.422 34.9398C119.216 35.0108 118.921 35.089 118.537 35.1742C118.161 35.2594 117.699 35.3091 117.153 35.3233C116.187 35.3517 115.317 35.2061 114.542 34.8865C113.768 34.5598 113.154 34.0556 112.699 33.3738C112.252 32.6919 112.032 31.8397 112.039 30.8169V14.8155ZM129.417 35.4192C127.777 35.4192 126.36 35.0783 125.167 34.3965C123.98 33.7076 123.068 32.7346 122.429 31.4775C121.789 30.2132 121.47 28.7253 121.47 27.0137C121.47 25.3304 121.789 23.8532 122.429 22.5819C123.075 21.3034 123.977 20.3091 125.135 19.5989C126.292 18.8816 127.652 18.5229 129.215 18.5229C130.223 18.5229 131.175 18.6863 132.07 19.013C132.972 19.3326 133.767 19.8297 134.456 20.5044C135.152 21.1792 135.699 22.0385 136.097 23.0826C136.495 24.1195 136.694 25.3553 136.694 26.7899V27.9725H123.281V25.373H132.997C132.99 24.6344 132.83 23.9774 132.517 23.4022C132.205 22.8198 131.768 22.3617 131.207 22.0279C130.653 21.6941 130.007 21.5272 129.268 21.5272C128.48 21.5272 127.787 21.7189 127.191 22.1024C126.594 22.4789 126.129 22.976 125.795 23.5939C125.468 24.2047 125.301 24.8759 125.294 25.6074V27.8766C125.294 28.8283 125.468 29.6451 125.816 30.3269C126.164 31.0016 126.651 31.5201 127.276 31.8823C127.901 32.2374 128.632 32.415 129.471 32.415C130.032 32.415 130.539 32.3368 130.994 32.1806C131.449 32.0172 131.843 31.7793 132.176 31.4668C132.51 31.1543 132.762 30.7672 132.933 30.3056L136.534 30.7104C136.306 31.6621 135.873 32.4931 135.234 33.2033C134.602 33.9064 133.792 34.4533 132.805 34.8439C131.818 35.2275 130.689 35.4192 129.417 35.4192ZM147.094 35.4192C145.496 35.4192 144.111 35.0676 142.939 34.3645C141.767 33.6614 140.858 32.6777 140.212 31.4135C139.573 30.1493 139.253 28.6721 139.253 26.9817C139.253 25.2914 139.573 23.8105 140.212 22.5392C140.858 21.2679 141.767 20.2807 142.939 19.5776C144.111 18.8745 145.496 18.5229 147.094 18.5229C148.692 18.5229 150.077 18.8745 151.249 19.5776C152.421 20.2807 153.326 21.2679 153.965 22.5392C154.612 23.8105 154.935 25.2914 154.935 26.9817C154.935 28.6721 154.612 30.1493 153.965 31.4135C153.326 32.6777 152.421 33.6614 151.249 34.3645C150.077 35.0676 148.692 35.4192 147.094 35.4192ZM147.115 32.3297C147.982 32.3297 148.706 32.0918 149.289 31.6159C149.871 31.133 150.304 30.4867 150.588 29.677C150.879 28.8674 151.025 27.9654 151.025 26.9711C151.025 25.9696 150.879 25.0641 150.588 24.2544C150.304 23.4377 149.871 22.7878 149.289 22.3049C148.706 21.8219 147.982 21.5804 147.115 21.5804C146.227 21.5804 145.489 21.8219 144.899 22.3049C144.317 22.7878 143.88 23.4377 143.589 24.2544C143.305 25.0641 143.163 25.9696 143.163 26.9711C143.163 27.9654 143.305 28.8674 143.589 29.677C143.88 30.4867 144.317 31.133 144.899 31.6159C145.489 32.0918 146.227 32.3297 147.115 32.3297ZM158.208 35.0996V18.736H161.947V21.4632H162.118C162.416 20.5186 162.928 19.7907 163.652 19.2793C164.384 18.7608 165.218 18.5016 166.156 18.5016C166.369 18.5016 166.607 18.5123 166.869 18.5336C167.139 18.5478 167.363 18.5726 167.54 18.6081V22.1557C167.377 22.0989 167.118 22.0492 166.763 22.0066C166.415 21.9569 166.077 21.932 165.751 21.932C165.048 21.932 164.415 22.0847 163.854 22.3901C163.3 22.6884 162.864 23.1039 162.544 23.6365C162.224 24.1692 162.065 24.7836 162.065 25.4796V35.0996H158.208ZM174.518 35.4299C173.482 35.4299 172.548 35.2452 171.717 34.8759C170.893 34.4995 170.239 33.9455 169.756 33.214C169.281 32.4824 169.043 31.5804 169.043 30.508C169.043 29.5847 169.213 28.8212 169.554 28.2175C169.895 27.6138 170.36 27.1309 170.95 26.7686C171.539 26.4064 172.203 26.133 172.942 25.9483C173.688 25.7566 174.458 25.6181 175.254 25.5328C176.212 25.4334 176.99 25.3446 177.587 25.2665C178.183 25.1813 178.616 25.0534 178.886 24.883C179.163 24.7054 179.302 24.432 179.302 24.0627V23.9988C179.302 23.1962 179.064 22.5748 178.588 22.1344C178.112 21.6941 177.427 21.4739 176.532 21.4739C175.587 21.4739 174.838 21.6799 174.284 22.0918C173.737 22.5037 173.368 22.9902 173.176 23.5513L169.575 23.0399C169.859 22.0456 170.328 21.2147 170.982 20.5471C171.635 19.8723 172.434 19.3681 173.379 19.0343C174.323 18.6934 175.367 18.5229 176.511 18.5229C177.299 18.5229 178.084 18.6152 178.865 18.7999C179.646 18.9846 180.36 19.2899 181.006 19.7161C181.653 20.1351 182.171 20.7069 182.562 21.4313C182.96 22.1557 183.158 23.0613 183.158 24.1479V35.0996H179.451V32.8517H179.323C179.089 33.3063 178.759 33.7324 178.332 34.1301C177.913 34.5208 177.384 34.8368 176.745 35.0783C176.113 35.3127 175.371 35.4299 174.518 35.4299ZM175.52 32.5961C176.294 32.5961 176.965 32.4434 177.533 32.138C178.102 31.8255 178.538 31.4135 178.844 30.9022C179.156 30.3908 179.312 29.8333 179.312 29.2296V27.3013C179.192 27.4007 178.986 27.4931 178.695 27.5783C178.411 27.6635 178.091 27.7381 177.736 27.802C177.381 27.8659 177.029 27.9228 176.681 27.9725C176.333 28.0222 176.031 28.0648 175.776 28.1003C175.2 28.1784 174.685 28.3063 174.231 28.4838C173.776 28.6614 173.418 28.91 173.155 29.2296C172.892 29.5421 172.761 29.9469 172.761 30.4441C172.761 31.1543 173.02 31.6905 173.538 32.0527C174.057 32.415 174.717 32.5961 175.52 32.5961Z" fill="black"/>
</svg>
