<svg width="192" height="48" viewBox="0 0 192 48" fill="none" xmlns="http://www.w3.org/2000/svg">
<g clip-path="url(#clip0_4183_1987)">
<mask id="mask0_4183_1987" style="mask-type:luminance" maskUnits="userSpaceOnUse" x="0" y="0" width="192" height="48">
<path d="M192 0H0V48H192V0Z" fill="white"/>
</mask>
<g mask="url(#mask0_4183_1987)">
<path d="M79.0304 36.6285C76.6906 36.6285 74.5803 36.1256 72.6997 35.1197C70.819 34.0919 69.343 32.6814 68.2714 30.8882C67.1999 29.0732 66.6641 27.0504 66.6641 24.8199C66.6641 22.5894 67.1999 20.5775 68.2714 18.7844C69.343 16.9693 70.819 15.5588 72.6997 14.5529C74.5803 13.5251 76.6906 13.0112 79.0304 13.0112C81.3703 13.0112 83.4805 13.5251 85.3612 14.5529C87.2418 15.5588 88.7179 16.9584 89.7894 18.7515C90.8609 20.5447 91.3967 22.5675 91.3967 24.8199C91.3967 27.0723 90.8609 29.0951 89.7894 30.8882C88.7179 32.6814 87.2418 34.0919 85.3612 35.1197C83.4805 36.1256 81.3703 36.6285 79.0304 36.6285ZM79.0304 32.8891C80.5612 32.8891 81.9388 32.5502 83.1635 31.8723C84.3881 31.1725 85.3502 30.2103 86.05 28.9857C86.7498 27.7393 87.0997 26.3506 87.0997 24.8199C87.0997 23.2891 86.7498 21.9115 86.05 20.6869C85.3502 19.4404 84.3881 18.4782 83.1635 17.8003C81.9388 17.1005 80.5612 16.7506 79.0304 16.7506C77.4997 16.7506 76.122 17.1005 74.8974 17.8003C73.6728 18.4782 72.7106 19.4404 72.0108 20.6869C71.3111 21.9115 70.9612 23.2891 70.9612 24.8199C70.9612 26.3506 71.3111 27.7393 72.0108 28.9857C72.7106 30.2103 73.6728 31.1725 74.8974 31.8723C76.122 32.5502 77.4997 32.8891 79.0304 32.8891ZM119.469 36.3005L114.778 29.5762C114.581 29.598 114.286 29.609 113.892 29.609H108.71V36.3005H104.445V13.3392H113.892C115.882 13.3392 117.61 13.6673 119.075 14.3233C120.562 14.9793 121.699 15.9197 122.486 17.1443C123.274 18.3689 123.667 19.8231 123.667 21.5069C123.667 23.2345 123.241 24.7215 122.388 25.968C121.557 27.2144 120.354 28.1438 118.78 28.7561L124.061 36.3005H119.469ZM119.37 21.5069C119.37 20.0418 118.889 18.9156 117.927 18.1283C116.965 17.3411 115.554 16.9474 113.695 16.9474H108.71V26.0992H113.695C115.554 26.0992 116.965 25.7055 117.927 24.9183C118.889 24.1092 119.37 22.9721 119.37 21.5069ZM147.594 36.6285C145.276 36.6285 143.177 36.1256 141.296 35.1197C139.437 34.0919 137.972 32.6814 136.901 30.8882C135.851 29.0951 135.326 27.0723 135.326 24.8199C135.326 22.5675 135.862 20.5447 136.933 18.7515C138.005 16.9584 139.47 15.5588 141.329 14.5529C143.209 13.5251 145.309 13.0112 147.627 13.0112C149.507 13.0112 151.224 13.3392 152.777 13.9953C154.329 14.6513 155.641 15.6026 156.713 16.849L153.958 19.4404C152.296 17.6472 150.251 16.7506 147.824 16.7506C146.249 16.7506 144.839 17.1005 143.592 17.8003C142.346 18.4782 141.373 19.4295 140.673 20.6541C139.973 21.8787 139.623 23.2673 139.623 24.8199C139.623 26.3725 139.973 27.7611 140.673 28.9857C141.373 30.2103 142.346 31.1725 143.592 31.8723C144.839 32.5502 146.249 32.8891 147.824 32.8891C150.251 32.8891 152.296 31.9816 153.958 30.1666L156.713 32.7907C155.641 34.0372 154.318 34.9885 152.744 35.6445C151.191 36.3005 149.475 36.6285 147.594 36.6285ZM179.332 13.0112C181.388 13.0112 183.181 13.4158 184.711 14.2249C186.242 15.034 187.423 16.2367 188.254 17.8331C189.107 19.4076 189.533 21.321 189.533 23.5734V36.3005H185.269V30.3962H173.329V36.3005H169.131V23.5734C169.131 21.321 169.546 19.4076 170.377 17.8331C171.23 16.2367 172.422 15.034 173.952 14.2249C175.483 13.4158 177.276 13.0112 179.332 13.0112ZM185.269 26.8208V23.1798C185.269 21.0586 184.744 19.4623 183.695 18.3907C182.645 17.2973 181.18 16.7506 179.299 16.7506C177.418 16.7506 175.953 17.2973 174.904 18.3907C173.854 19.4623 173.329 21.0586 173.329 23.1798V26.8208H185.269Z" fill="black"/>
<path fill-rule="evenodd" clip-rule="evenodd" d="M26.4599 48C39.7148 48 50.4599 37.2549 50.4599 24C50.4599 10.7452 39.7148 0 26.4599 0C13.2052 0 2.45996 10.7452 2.45996 24C2.45996 37.2549 13.2052 48 26.4599 48ZM15.332 33.1845C15.2358 33.4835 15.0425 33.6943 14.8354 33.8349C18.0844 37.4201 21.6518 39.1342 25.0581 39.5335C28.8409 39.977 32.5221 38.8105 35.4726 36.6129C41.3889 32.2063 44.2082 23.8182 39.0727 16.3118C35.0749 10.4683 31.278 9.06376 28.0427 9.05764C26.3745 9.05447 24.7876 9.42272 23.2885 9.86106C22.8893 9.97784 22.4852 10.1036 22.0832 10.2288L22.0777 10.2305C21.0377 10.5544 20.0128 10.8735 19.1266 11.0195C18.7083 11.0884 18.4911 11.2281 18.372 11.3546C18.2529 11.4811 18.1533 11.6777 18.1208 12.0027C18.051 12.7009 18.3159 13.7703 18.9821 15.0962C20.294 17.707 22.8882 20.7775 25.7195 22.7968C27.3997 23.9953 28.5271 25.727 29.063 27.5089C29.5956 29.2793 29.569 31.1904 28.8091 32.7328C28.0228 34.3284 26.4986 35.4218 24.3252 35.5268C22.2229 35.6284 19.5761 34.8084 16.3757 32.8192C16.2547 32.755 16.1406 32.677 16.0602 32.6212C16.0134 32.5886 15.9432 32.5385 15.8766 32.4909C15.8259 32.4547 15.7771 32.42 15.7423 32.3955C15.5976 32.2938 15.4708 32.2105 15.3606 32.1485L15.3207 32.3815L15.3258 32.3977C15.3759 32.5596 15.439 32.8521 15.332 33.1845ZM15.4311 31.8921C15.4312 31.8924 15.4299 31.8944 15.4274 31.8983C15.4284 31.8961 15.4296 31.894 15.4311 31.8921Z" fill="white"/>
<path fill-rule="evenodd" clip-rule="evenodd" d="M17.7754 11.4024C17.7754 11.4024 26.9499 8.95947 28.9586 8.95947C30.9672 8.95947 38.9936 12.8571 41.3361 19.9798C41.6273 20.8655 41.8236 21.7244 41.9385 22.554C41.9616 22.4096 41.9834 22.2767 42.0036 22.1538L42.0364 21.9533C42.1383 21.3258 42.1817 20.9919 42.1177 20.6815C42.0537 20.3712 41.8817 20.0817 41.5398 19.5457L41.4305 19.3747C41.0936 18.8483 40.6191 18.1068 39.968 16.9607L39.9238 16.8829L40.0097 16.9081L39.9995 16.9429L40.0098 16.9082L40.0099 16.9082L40.0102 16.9083L40.0115 16.9087L40.0165 16.9102L40.0355 16.9163C40.0521 16.9217 40.0766 16.93 40.1084 16.9415C40.172 16.9645 40.2647 17.0003 40.382 17.0519C40.6167 17.1551 40.9495 17.3212 41.3437 17.5735C42.1323 18.0781 43.1662 18.9272 44.1507 20.3058C45.5875 22.3179 45.8365 24.1941 45.866 25.0639C45.8698 25.1759 45.804 25.2574 45.7175 25.2902C45.6316 25.3227 45.5255 25.3077 45.4462 25.2317C45.0628 24.8645 44.4106 24.3252 43.7091 24.116C43.3592 24.0116 42.999 23.9901 42.6543 24.111C42.4523 24.1818 42.254 24.3021 42.0653 24.4855C42.0055 31.9857 35.4634 36.5955 34.6044 36.0489C44.3218 28.0143 28.4157 13.163 20.5984 14.2796C19.6212 14.4192 20.1641 15.2568 20.1641 15.2568L19.9469 17.4282L18.3183 14.7139L17.7754 11.4024ZM28.7414 13.7371C28.4699 13.3572 27.9272 12.3257 29.61 12.3257C31.2928 12.3257 33.8644 14.2313 34.3873 14.9362C34.2244 15.3658 33.1387 15.4619 32.5958 15.4201C32.053 15.3783 31.13 15.289 30.4244 14.9362C29.7186 14.5833 29.0129 14.1172 28.7414 13.7371ZM14.7703 25.954C15.4481 25.5135 16.1806 25.0374 16.6899 24.1751C16.7838 24.016 17.0198 24.0147 17.0894 24.1859C17.7051 25.6998 19.4104 30.8468 15.2608 33.1778C15.2608 33.1778 15.2603 33.1925 15.2407 33.1744C10.8585 34.9904 7.85916 30.4876 7.0464 29.0723C6.95434 28.9121 7.10064 28.727 7.28389 28.7508C8.27695 28.8804 9.10304 28.5962 9.86747 28.3333C10.9377 27.9652 11.8871 27.6387 13.0045 28.5473L13.0074 28.5528C12.9815 27.1166 13.8224 26.5701 14.7703 25.954ZM28.4155 28.5031C29.6641 28.1234 27.2754 25.6802 27.2754 25.6802C27.2754 25.6802 27.2754 23.9428 25.9725 24.2688C23.7689 24.5834 22.6206 26.9521 22.1556 28.2315C22.0342 28.5656 22.3643 28.8644 22.701 28.7508C24.0686 28.2896 26.8585 27.5449 28.4155 28.5031Z" fill="black"/>
</g>
</g>
<defs>
<clipPath id="clip0_4183_1987">
<rect width="192" height="48" fill="white"/>
</clipPath>
</defs>
</svg>
