<svg width="192" height="48" viewBox="0 0 192 48" fill="none" xmlns="http://www.w3.org/2000/svg">
<g clip-path="url(#clip0_2261_14791)">
<path d="M79.0305 36.6285C76.6907 36.6285 74.5804 36.1256 72.6998 35.1197C70.8191 34.0919 69.3431 32.6814 68.2715 30.8882C67.2 29.0732 66.6642 27.0504 66.6642 24.8199C66.6642 22.5894 67.2 20.5775 68.2715 18.7844C69.3431 16.9693 70.8191 15.5588 72.6998 14.5529C74.5804 13.5251 76.6907 13.0112 79.0305 13.0112C81.3704 13.0112 83.4806 13.5251 85.3613 14.5529C87.2419 15.5588 88.718 16.9584 89.7895 18.7515C90.861 20.5447 91.3968 22.5675 91.3968 24.8199C91.3968 27.0723 90.861 29.0951 89.7895 30.8882C88.718 32.6814 87.2419 34.0919 85.3613 35.1197C83.4806 36.1256 81.3704 36.6285 79.0305 36.6285ZM79.0305 32.8891C80.5613 32.8891 81.9389 32.5502 83.1636 31.8723C84.3882 31.1725 85.3503 30.2103 86.0501 28.9857C86.7499 27.7393 87.0998 26.3506 87.0998 24.8199C87.0998 23.2891 86.7499 21.9115 86.0501 20.6869C85.3503 19.4404 84.3882 18.4782 83.1636 17.8003C81.9389 17.1005 80.5613 16.7506 79.0305 16.7506C77.4998 16.7506 76.1221 17.1005 74.8975 17.8003C73.6729 18.4782 72.7107 19.4404 72.0109 20.6869C71.3112 21.9115 70.9613 23.2891 70.9613 24.8199C70.9613 26.3506 71.3112 27.7393 72.0109 28.9857C72.7107 30.2103 73.6729 31.1725 74.8975 31.8723C76.1221 32.5502 77.4998 32.8891 79.0305 32.8891ZM119.469 36.3005L114.778 29.5762C114.581 29.598 114.286 29.609 113.892 29.609H108.71V36.3005H104.445V13.3392H113.892C115.882 13.3392 117.61 13.6673 119.075 14.3233C120.562 14.9793 121.699 15.9197 122.486 17.1443C123.274 18.3689 123.667 19.8231 123.667 21.5069C123.667 23.2345 123.241 24.7215 122.388 25.968C121.557 27.2144 120.354 28.1438 118.78 28.7561L124.061 36.3005H119.469ZM119.37 21.5069C119.37 20.0418 118.889 18.9156 117.927 18.1283C116.965 17.3411 115.554 16.9474 113.695 16.9474H108.71V26.0992H113.695C115.554 26.0992 116.965 25.7055 117.927 24.9183C118.889 24.1092 119.37 22.9721 119.37 21.5069ZM147.594 36.6285C145.276 36.6285 143.177 36.1256 141.296 35.1197C139.437 34.0919 137.972 32.6814 136.901 30.8882C135.851 29.0951 135.326 27.0723 135.326 24.8199C135.326 22.5675 135.862 20.5447 136.933 18.7515C138.005 16.9584 139.47 15.5588 141.329 14.5529C143.209 13.5251 145.309 13.0112 147.627 13.0112C149.507 13.0112 151.224 13.3392 152.777 13.9953C154.329 14.6513 155.641 15.6026 156.713 16.849L153.958 19.4404C152.296 17.6472 150.251 16.7506 147.824 16.7506C146.249 16.7506 144.839 17.1005 143.592 17.8003C142.346 18.4782 141.373 19.4295 140.673 20.6541C139.973 21.8787 139.623 23.2673 139.623 24.8199C139.623 26.3725 139.973 27.7611 140.673 28.9857C141.373 30.2103 142.346 31.1725 143.592 31.8723C144.839 32.5502 146.249 32.8891 147.824 32.8891C150.251 32.8891 152.296 31.9816 153.958 30.1666L156.713 32.7907C155.641 34.0372 154.318 34.9885 152.744 35.6445C151.191 36.3005 149.475 36.6285 147.594 36.6285ZM179.332 13.0112C181.388 13.0112 183.181 13.4158 184.711 14.2249C186.242 15.034 187.423 16.2367 188.254 17.8331C189.107 19.4076 189.533 21.321 189.533 23.5734V36.3005H185.269V30.3962H173.329V36.3005H169.131V23.5734C169.131 21.321 169.546 19.4076 170.377 17.8331C171.23 16.2367 172.422 15.034 173.952 14.2249C175.483 13.4158 177.276 13.0112 179.332 13.0112ZM185.269 26.8208V23.1798C185.269 21.0586 184.744 19.4623 183.695 18.3907C182.645 17.2973 181.18 16.7506 179.299 16.7506C177.418 16.7506 175.953 17.2973 174.904 18.3907C173.854 19.4623 173.329 21.0586 173.329 23.1798V26.8208H185.269Z" fill="black"/>
<g style="mix-blend-mode:luminosity">
<path d="M50.4601 24C50.4601 37.2549 39.715 48 26.4601 48C13.2054 48 2.46014 37.2549 2.46014 24C2.46014 10.7452 13.2054 0 26.4601 0C39.715 0 50.4601 10.7452 50.4601 24Z" fill="#FFD15C"/>
</g>
<path d="M14.8356 33.8349C15.0427 33.6943 15.236 33.4835 15.3322 33.1845C15.4392 32.8521 15.3761 32.5596 15.326 32.3977L15.3209 32.3815L15.3608 32.1485C15.471 32.2105 15.5978 32.2938 15.7425 32.3955C15.7773 32.42 15.8261 32.4547 15.8768 32.4909C15.9434 32.5385 16.0136 32.5886 16.0604 32.6212C16.1408 32.677 16.2549 32.755 16.3759 32.8192C19.5763 34.8084 22.2231 35.6284 24.3254 35.5268C26.4988 35.4218 28.023 34.3284 28.8093 32.7328C29.5692 31.1904 29.5957 29.2793 29.0631 27.5089C28.5272 25.727 27.3999 23.9953 25.7197 22.7968C22.8884 20.7775 20.2942 17.707 18.9823 15.0962C18.3161 13.7703 18.0511 12.7009 18.121 12.0027C18.1535 11.6777 18.2531 11.4811 18.3722 11.3546C18.4913 11.2281 18.7085 11.0884 19.1268 11.0195C20.0129 10.8735 21.0378 10.5544 22.0778 10.2305C22.4816 10.1048 22.8876 9.97838 23.2887 9.86106C24.7878 9.42272 26.3747 9.05447 28.0428 9.05764C31.2782 9.06376 35.0751 10.4683 39.0729 16.3118C44.2084 23.8182 41.389 32.2063 35.4728 36.6129C32.5222 38.8105 28.841 39.977 25.0582 39.5335C21.652 39.1342 18.0846 37.4201 14.8356 33.8349ZM15.4313 31.8921C15.4314 31.8924 15.4301 31.8944 15.4276 31.8983C15.4286 31.8961 15.4298 31.894 15.4313 31.8921ZM15.1097 32.0387C15.1132 32.0389 15.1167 32.0395 15.12 32.0406C15.1165 32.0404 15.1131 32.0397 15.1097 32.0387Z" fill="white" stroke="black" stroke-width="1.28838"/>
<path d="M17.7755 11.4024C17.7755 11.4024 26.95 8.95947 28.9587 8.95947C30.9673 8.95947 38.9937 12.8571 41.3362 19.9798C44.6568 30.0772 35.6245 36.6979 34.6045 36.0489C44.3219 28.0143 28.4158 13.163 20.5985 14.2796C19.6213 14.4192 20.1642 15.2568 20.1642 15.2568L19.947 17.4282L18.3184 14.7139L17.7755 11.4024Z" fill="black"/>
<path d="M39.9995 16.9429C42.8967 22.043 42.2946 19.123 41.6514 24.9532C42.8416 23.0278 44.7027 24.4695 45.4712 25.2057C45.609 25.3376 45.8363 25.2558 45.8298 25.0652C45.8005 24.2004 45.5528 22.3317 44.1212 20.3269C42.1582 17.5778 39.9995 16.9429 39.9995 16.9429Z" fill="black"/>
<path d="M41.6514 24.9532C42.2946 19.123 42.8967 22.043 39.9995 16.9429C39.9995 16.9429 42.1582 17.5778 44.1212 20.3269C45.5528 22.3317 45.8005 24.2004 45.8298 25.0652C45.8363 25.2558 45.609 25.3376 45.4712 25.2056C44.7027 24.4695 42.8416 23.0278 41.6514 24.9532ZM41.6514 24.9532L41.9352 24.2523" stroke="black" stroke-width="0.0723827"/>
<path d="M16.6902 24.1751C15.4678 26.2447 12.9598 26.0894 13.0078 28.5578C15.2479 33.5348 15.2611 33.1778 15.2611 33.1778C19.4107 30.8468 17.7054 25.6998 17.0897 24.1859C17.0201 24.0147 16.7841 24.016 16.6902 24.1751Z" fill="black"/>
<path d="M7.28419 28.7508C9.66757 29.0618 11.0892 26.9898 13.0048 28.5473C15.5476 33.3767 15.2581 33.1673 15.2581 33.1673C10.8666 35.0021 7.86052 30.4895 7.0467 29.0723C6.95464 28.9121 7.10094 28.727 7.28419 28.7508ZM27.2757 25.6802C27.2757 25.6802 29.6644 28.1234 28.4158 28.5031C26.8588 27.5449 24.0689 28.2896 22.7013 28.7508C22.3646 28.8644 22.0345 28.5656 22.1559 28.2315C22.6209 26.9521 23.7692 24.5834 25.9728 24.2688C27.2757 23.9428 27.2757 25.6802 27.2757 25.6802Z" fill="black"/>
<path d="M28.7415 13.7371C28.47 13.3572 27.9273 12.3257 29.6101 12.3257C31.2929 12.3257 33.8645 14.2313 34.3874 14.9362C34.2245 15.3658 33.1388 15.4619 32.5959 15.4201C32.0531 15.3783 31.1301 15.289 30.4245 14.9362C29.7187 14.5833 29.013 14.1172 28.7415 13.7371Z" fill="white"/>
</g>
<defs>
<clipPath id="clip0_2261_14791">
<rect width="192" height="48" fill="white"/>
</clipPath>
</defs>
</svg>
