<svg width="204" height="41" viewBox="0 0 204 41" fill="none" xmlns="http://www.w3.org/2000/svg">
<g clip-path="url(#clip0_2261_14823)">
<path d="M5.68379 40.1997C11.8134 40.1997 16.4198 34.8688 19.1687 30.6563C18.8345 31.5883 18.6487 32.5202 18.6487 33.4151C18.6487 35.8754 20.0604 37.6276 22.8466 37.6276C26.6729 37.6276 30.7593 34.2724 32.8768 30.6563C32.7282 31.1783 32.6539 31.6629 32.6539 32.1102C32.6539 33.8251 33.6198 34.9061 35.5886 34.9061C41.7925 34.9061 48.0336 23.909 48.0336 14.291C48.0336 6.79803 44.2443 0.199707 34.7343 0.199707C18.0171 0.199707 0 20.6285 0 33.8251C0 39.0069 2.78616 40.1997 5.68379 40.1997ZM28.9761 13.4709C28.9761 11.607 30.0162 10.3022 31.5395 10.3022C33.0254 10.3022 34.0655 11.607 34.0655 13.4709C34.0655 15.3349 33.0254 16.6769 31.5395 16.6769C30.0162 16.6769 28.9761 15.3349 28.9761 13.4709ZM36.9261 13.4709C36.9261 11.607 37.9662 10.3022 39.4893 10.3022C40.9752 10.3022 42.0154 11.607 42.0154 13.4709C42.0154 15.3349 40.9752 16.6769 39.4893 16.6769C37.9662 16.6769 36.9261 15.3349 36.9261 13.4709Z" fill="#1C1C1C"/>
<path d="M55.4622 36.1362H61.0345V30.6562C61.0345 28.084 60.8116 27.1147 59.5114 24.5053L60.2172 24.1324C62.1118 28.5687 64.7866 30.1715 67.5355 30.1715C71.9563 30.1715 75.4854 26.2946 75.4854 20.2928C75.4854 14.5519 72.2534 10.3394 67.6098 10.3394C64.8609 10.3394 62.1118 11.9051 60.2172 16.3785L59.5114 16.0057C60.403 14.2163 61.0345 12.5388 61.0345 10.9358H55.4622V36.1362ZM61.0345 20.2555C61.0345 17.7951 62.892 15.0737 65.6409 15.0737C67.8698 15.0737 69.6902 16.9004 69.6902 20.2181C69.6902 23.4987 67.9441 25.4372 65.6038 25.4372C63.0034 25.4372 61.0345 22.7905 61.0345 20.2555Z" fill="#1C1C1C"/>
<path d="M77.5193 29.5753H83.0916V23.0142C83.0916 18.3917 84.7262 15.1112 87.7723 15.1112C89.7041 15.1112 90.2986 16.416 90.2986 19.6592V29.5753H95.8709V18.7646C95.8709 12.8745 93.7534 10.3395 89.7041 10.3395C85.5434 10.3395 84.1689 13.1355 82.5716 16.5278L81.8657 16.155C82.8316 14.0674 83.0916 12.8 83.0916 10.936V4.48682H77.5193V29.5753Z" fill="#1C1C1C"/>
<path d="M104.015 30.1715C107.618 30.1715 109.735 27.7858 111.333 24.7289L112.002 25.0644C111.296 26.5183 110.627 28.1958 110.627 29.5751H116.088V19.4353C116.088 13.3962 113.562 10.3394 107.655 10.3394C101.86 10.3394 98.9994 13.2471 98.4423 16.3039L103.792 17.2359C103.977 15.6329 105.278 14.5519 107.358 14.5519C109.438 14.5519 110.627 15.5957 110.627 16.8631C110.627 18.1306 109.401 18.7271 106.132 18.7644C101.303 18.8389 97.7364 20.591 97.7364 24.3189C97.7364 27.3756 100.151 30.1715 104.015 30.1715ZM103.272 23.946C103.272 21.001 107.952 23.0514 110.516 20.7774V21.4483C110.516 24.0951 108.175 26.0337 105.835 26.0337C104.609 26.0337 103.272 25.5117 103.272 23.946Z" fill="#1C1C1C"/>
<path d="M118.296 29.5751H123.868V23.014C123.868 18.3915 125.503 15.111 128.549 15.111C130.481 15.111 131.075 16.4158 131.075 19.659V29.5751H136.648V18.7644C136.648 12.8743 134.53 10.3394 130.481 10.3394C126.32 10.3394 124.946 13.1353 123.348 16.5276L122.643 16.1548C123.608 14.0672 123.868 12.7998 123.868 10.9358H118.296V29.5751Z" fill="#1C1C1C"/>
<path d="M151.489 29.6497V25.027C150.301 25.4372 146.994 26.1454 146.994 23.4242V15.4092H151.452V10.9358H146.994V5.94043L141.385 7.61797V10.9358H138.042V15.4092H141.385L141.422 23.8715C141.422 30.097 146.957 30.9917 151.489 29.6497Z" fill="#1C1C1C"/>
<path d="M162.809 30.1715C168.455 30.1715 172.764 25.8472 172.764 20.2181C172.764 14.6264 168.455 10.3394 162.809 10.3394C157.162 10.3394 152.816 14.6264 152.816 20.2181C152.816 25.8472 157.162 30.1715 162.809 30.1715ZM158.574 20.2555C158.574 17.1614 160.32 14.9992 162.809 14.9992C165.298 14.9992 167.006 17.1614 167.006 20.2555C167.006 23.3496 165.298 25.5117 162.809 25.5117C160.32 25.5117 158.574 23.3496 158.574 20.2555Z" fill="#1C1C1C"/>
<path d="M174.491 29.5751H180.063V23.014C180.063 18.2051 181.586 15.111 184.038 15.111C185.636 15.111 186.155 16.3785 186.155 19.659V29.5751H191.729V23.014C191.729 18.5033 193.362 15.111 195.704 15.111C197.262 15.111 197.82 16.5649 197.82 19.659V29.5751H203.393V18.7644C203.393 12.837 201.461 10.3394 197.671 10.3394C193.734 10.3394 192.323 13.1353 190.948 16.5649L190.279 16.2294C191.58 12.3151 188.755 10.3394 185.97 10.3394C182.293 10.3394 180.955 13.1353 179.47 16.5276L178.8 16.1548C179.729 14.0672 180.063 12.7998 180.063 10.9358H174.491V29.5751Z" fill="#1C1C1C"/>
</g>
<defs>
<clipPath id="clip0_2261_14823">
<rect width="203.393" height="40" fill="white" transform="translate(0 0.199707)"/>
</clipPath>
</defs>
</svg>
