<svg width="120" height="33" viewBox="0 0 120 33" fill="none" xmlns="http://www.w3.org/2000/svg">
<g clip-path="url(#clip0_2326_20412)">
<path fill-rule="evenodd" clip-rule="evenodd" d="M41.2456 20.1946L39.7663 17.6392H37.6003V20.1946H36.3262V12.5216H40.1626C40.6303 12.5179 41.09 12.6426 41.4917 12.8821C41.8934 13.1217 42.2216 13.4669 42.4407 13.8801C42.6597 14.2933 42.7611 14.7587 42.7339 15.2256C42.7066 15.6925 42.5518 16.143 42.2862 16.5279C42.0088 16.9362 41.6174 17.2538 41.1607 17.4411L42.7392 20.1946H41.2456ZM40.1626 13.824H37.6003V16.3722H40.1626C40.3301 16.3721 40.4957 16.3375 40.6492 16.2705C40.8026 16.2036 40.9406 16.1056 41.0545 15.9829C41.2309 15.8038 41.3507 15.5768 41.399 15.3301C41.4473 15.0834 41.422 14.8279 41.3262 14.5955C41.2303 14.3631 41.0683 14.164 40.8601 14.023C40.652 13.8821 40.4069 13.8055 40.1556 13.8028L40.1626 13.824ZM53.8028 12.5216L49.9592 20.1946H51.3891L53.8028 15.3883L56.2095 20.1946H57.6393L53.8028 12.5216ZM69.9981 12.5216H68.3701L66.1828 15.3529L64.0027 12.5216H62.3676L65.5741 16.6129V20.1946H66.8482V16.5492L69.9981 12.5216ZM76.5243 12.5216H79.0796C80.0948 12.529 81.0663 12.9356 81.7842 13.6535C82.5021 14.3713 82.9087 15.3429 82.9161 16.3581C82.9105 17.3739 82.5045 18.3464 81.7862 19.0647C81.068 19.783 80.0954 20.189 79.0796 20.1946H76.5243V12.5216ZM79.0796 18.8921C79.7567 18.8903 80.4056 18.6204 80.8844 18.1416C81.3632 17.6628 81.633 17.014 81.6349 16.3368C81.6275 15.6614 81.3559 15.0157 80.8783 14.5381C80.4007 14.0605 79.755 13.7889 79.0796 13.7815H77.7913V18.8921H79.0796ZM91.4315 12.5216H90.1574V20.1946H91.4315V12.5216ZM105.065 16.988C105.072 17.4101 104.992 17.8291 104.83 18.2189C104.668 18.6086 104.428 18.9608 104.123 19.2531C103.676 19.7003 103.107 20.0047 102.487 20.1278C101.866 20.2508 101.224 20.187 100.64 19.9444C100.056 19.7018 99.5574 19.2913 99.2072 18.765C98.857 18.2387 98.6709 17.6202 98.6726 16.988V12.5216H99.9467V16.988C99.9467 17.4968 100.149 17.9847 100.509 18.3445C100.868 18.7042 101.356 18.9063 101.865 18.9063C102.374 18.9063 102.862 18.7042 103.222 18.3445C103.581 17.9847 103.783 17.4968 103.783 16.988V12.5216H105.065V16.988ZM113.58 20.1946V15.6078L116.149 18.1701L118.705 15.6078V20.1946H120V12.5216L116.149 16.3581L112.313 12.5216V20.1946H113.58Z" fill="black"/>
<path d="M26.8625 12.281V23.6914L14.1709 31.0175L1.47231 23.6914V9.03203L14.1709 1.69881L23.925 7.33322L25.3973 6.48381L14.1709 0L0 8.18262V24.5408L14.1709 32.7234L28.3419 24.5408V11.4316L26.8625 12.281Z" fill="url(#paint0_linear_2326_20412)"/>
<path d="M10.6177 23.6985H8.49414V16.5776H15.5726C16.2423 16.5702 16.8821 16.2994 17.3537 15.8238C17.8253 15.3483 18.0907 14.7062 18.0925 14.0364C18.0963 13.7053 18.0324 13.3768 17.9046 13.0713C17.7767 12.7657 17.5878 12.4896 17.3492 12.2598C17.1184 12.0226 16.8421 11.8345 16.5368 11.7068C16.2315 11.579 15.9035 11.5143 15.5726 11.5165H8.49414V9.35059H15.5796C16.8201 9.35802 18.0077 9.8541 18.8849 10.7312C19.762 11.6084 20.2581 12.796 20.2655 14.0364C20.2731 14.986 19.9836 15.9141 19.4374 16.6908C18.9347 17.434 18.2263 18.0145 17.3988 18.3613C16.5794 18.6212 15.7243 18.7502 14.8647 18.7436H10.6177V23.6985Z" fill="url(#paint1_linear_2326_20412)"/>
<path d="M20.2157 23.5213H17.7382L15.8271 20.1874C16.5832 20.1411 17.329 19.9886 18.0426 19.7344L20.2157 23.5213Z" fill="url(#paint2_linear_2326_20412)"/>
<path d="M25.3828 9.90979L26.848 10.7238L28.3133 9.90979V8.18974L26.848 7.34033L25.3828 8.18974V9.90979Z" fill="url(#paint3_linear_2326_20412)"/>
</g>
<defs>
<linearGradient id="paint0_linear_2326_20412" x1="28.3168" y1="8.19162" x2="-1.73336" y2="20.2086" gradientUnits="userSpaceOnUse">
<stop/>
<stop offset="0.489658"/>
<stop offset="0.489758"/>
<stop offset="1"/>
</linearGradient>
<linearGradient id="paint1_linear_2326_20412" x1="28.3169" y1="8.19166" x2="-1.73329" y2="20.2086" gradientUnits="userSpaceOnUse">
<stop/>
<stop offset="0.489658"/>
<stop offset="0.489758"/>
<stop offset="1"/>
</linearGradient>
<linearGradient id="paint2_linear_2326_20412" x1="28.3167" y1="8.1914" x2="-1.73351" y2="20.2084" gradientUnits="userSpaceOnUse">
<stop/>
<stop offset="0.489658"/>
<stop offset="0.489758"/>
<stop offset="1"/>
</linearGradient>
<linearGradient id="paint3_linear_2326_20412" x1="28.3165" y1="8.19166" x2="-1.73365" y2="20.2086" gradientUnits="userSpaceOnUse">
<stop/>
<stop offset="0.489658"/>
<stop offset="0.489758"/>
<stop offset="0.8"/>
</linearGradient>
<clipPath id="clip0_2326_20412">
<rect width="120" height="33" fill="white"/>
</clipPath>
</defs>
</svg>
