<svg width="186" height="52" viewBox="0 0 186 52" fill="none" xmlns="http://www.w3.org/2000/svg">
<g clip-path="url(#clip0_3869_11558)">
<mask id="mask0_3869_11558" style="mask-type:luminance" maskUnits="userSpaceOnUse" x="0" y="0" width="52" height="52">
<path d="M51.3158 0H0.00547791V51.3103H51.3158V0Z" fill="white"/>
</mask>
<g mask="url(#mask0_3869_11558)">
<path fill-rule="evenodd" clip-rule="evenodd" d="M39.7331 4.4874C37.5258 3.06604 35.0806 1.98015 32.4673 1.28271C28.973 4.63501 25.3123 7.48068 21.2303 9.02512C20.8532 9.16783 20.4385 8.95874 20.3141 8.57488L18.3155 2.41273C18.1565 1.92717 17.6267 1.6535 17.1502 1.83889C14.4929 2.83649 12.0207 4.39029 9.64602 6.27072C4.10184 10.6674 0.393929 17.103 0.0407858 24.1745C0.0231158 24.5895 0.00547791 25.0044 0.00547791 25.4194C0.00547791 25.7549 0.014298 26.0993 0.031968 26.4347C0.64936 25.7719 1.26518 25.1045 1.881 24.4371C7.4416 18.4114 12.9998 12.3882 19.691 9.85539C20.0684 9.71236 20.4831 9.92145 20.6075 10.3053L22.6061 16.4674C22.7651 16.9529 23.2946 17.2268 23.7714 17.0414C29.7218 14.8078 34.7804 9.80216 39.7241 4.49622L39.7331 4.4874ZM44.2699 10.382L44.2674 10.3849C38.6976 16.4228 33.1263 22.4633 26.4216 25.0048C26.0442 25.1481 25.6292 24.9387 25.5048 24.5548L23.5062 18.3931C23.3475 17.9076 22.8177 17.634 22.3408 17.8194C15.6272 20.3419 10.0523 26.3879 4.47836 32.4332C3.65358 33.3276 2.82883 34.2224 2.00039 35.1052C3.01566 37.4536 4.38405 39.6253 6.04378 41.5501C6.38117 41.1852 6.71812 40.8199 7.05549 40.4543C12.6233 34.4177 18.1869 28.3858 24.8903 25.845C25.2678 25.7019 25.6827 25.911 25.8072 26.2952L27.8057 32.4566C27.9645 32.9425 28.4942 33.216 28.9711 33.0307C35.7078 30.4947 41.2939 24.4323 46.8806 18.3687L46.8816 18.3681C47.6933 17.4872 48.5049 16.6059 49.3205 15.7359C48.3052 13.3875 46.9368 11.2158 45.2769 9.29996V9.2913C44.9411 9.65432 44.6054 10.0183 44.2699 10.382ZM51.2898 26.6823C50.9191 33.9568 46.9993 40.5165 41.2346 44.9658H41.2433C39.0363 46.6696 36.7231 48.0736 34.2689 49.0094C34.2468 49.018 34.2269 49.0247 34.207 49.0315C34.1871 49.0379 34.1672 49.0446 34.1454 49.0533C33.6775 49.2034 33.1654 48.9385 33.0153 48.4706L31.0171 42.3095C30.8923 41.9253 30.4774 41.7162 30.0999 41.8596C26.0733 43.3889 22.4524 46.1863 18.997 49.4804C18.9361 49.5385 18.8492 49.5609 18.7677 49.5388C16.2997 48.8663 13.983 47.8388 11.8697 46.524C11.7414 46.4445 11.7193 46.2678 11.8222 46.1575C16.7031 40.9312 21.6972 36.0458 27.5594 33.842C28.036 33.6567 28.5657 33.9305 28.7248 34.416L30.7233 40.5781C30.8478 40.962 31.2624 41.1711 31.6399 41.028C38.3311 38.4952 43.8893 32.472 49.4497 26.4463C50.0654 25.7789 50.6815 25.1116 51.2988 24.4487C51.3164 24.7665 51.3254 25.0933 51.3254 25.4201C51.3254 25.8437 51.3078 26.2673 51.2898 26.6823Z" fill="#0E092A"/>
</g>
<path d="M173.211 41.5381C178.606 41.5381 181.084 39.0056 181.91 35.537H185.929C185.378 39.7214 182.185 44.8963 173.046 44.8963C163.577 44.8963 159.393 38.5101 159.393 30.1969C159.393 21.994 163.907 15.6074 173.046 15.6074C181.304 15.6074 185.984 21.2782 185.984 29.3159C185.984 30.0317 185.984 30.5823 185.874 31.243H163.742C164.073 38.7853 167.706 41.5381 173.211 41.5381ZM173.101 18.966C167.871 18.966 164.458 21.4433 163.852 27.9395H181.69C181.469 21.6085 178.221 18.966 173.101 18.966Z" fill="#0E092A"/>
<path d="M143.505 40.1621L152.809 16.4888H157.158L146.313 44.0158H140.477L129.631 16.4888H134.256L143.505 40.1621Z" fill="#0E092A"/>
<path d="M111.554 44.7313C106.269 44.7313 102.47 41.9785 102.47 36.7484C102.47 32.2892 104.892 29.4816 110.838 28.4903L117.83 27.3342C120.748 26.8388 121.959 26.0682 121.959 23.976C121.959 21.1683 120.528 19.021 115.188 19.021C109.792 19.021 107.755 21.5535 107.48 25.1321H103.131C103.296 19.2965 107.425 15.5527 115.022 15.5527C122.565 15.5527 125.978 19.021 125.978 23.976V37.189C125.978 39.1709 126.033 41.3179 126.308 44.0155H122.289C122.069 41.6482 121.904 39.6115 121.904 37.5745C120.858 40.8776 117.94 44.7313 111.554 44.7313ZM112.435 41.2631C118.931 41.2631 121.959 36.1981 121.959 30.968V28.6006C120.583 29.5916 119.096 30.0319 117.004 30.4725L112.435 31.4083C108.691 32.1792 106.929 33.6104 106.929 36.5832C106.929 39.7215 109.186 41.2631 112.435 41.2631Z" fill="#0E092A"/>
<path d="M66.7089 31.4633H71.1684C71.2784 37.1337 74.1964 41.2629 82.6744 41.2629C90.217 41.2629 92.5292 38.6753 92.5292 34.4361C92.5292 30.5824 90.4922 28.6553 85.8679 27.8847L77.2243 26.5635C70.8381 25.6274 67.9201 22.4894 67.9201 16.9838C67.9201 11.0931 72.3793 6.41357 81.8486 6.41357C91.4283 6.41357 96.163 11.2582 96.6584 18.3054H92.2541C91.7586 13.3504 88.6755 9.99215 81.7938 9.99215C75.2973 9.99215 72.5448 12.7998 72.5448 16.8738C72.5448 19.7366 73.9209 21.994 78.0501 22.6546L87.1891 24.031C93.6853 25.0768 97.1539 27.9395 97.1539 33.8306C97.1539 40.8223 92.8595 44.8412 82.6744 44.8412C70.7829 44.8412 66.7089 38.6753 66.7089 31.4633Z" fill="#0E092A"/>
</g>
<defs>
<clipPath id="clip0_3869_11558">
<rect width="186" height="51.3103" fill="white"/>
</clipPath>
</defs>
</svg>
