<svg width="401" height="95" viewBox="0 0 401 95" fill="none" xmlns="http://www.w3.org/2000/svg">
<path fill-rule="evenodd" clip-rule="evenodd" d="M104.523 0.640625H42.7017L32.5352 19.4609L10.1681 19.4614L0 38.2838H22.3694L32.5363 19.4631H94.3549L104.523 0.640625ZM84.1933 75.9316H32.1337L21.9656 94.7541H74.0256L84.1933 75.9316ZM22.6444 38.2852H104.528L94.4927 57.1074H114.284L104.116 75.9303L84.1865 75.9308L94.3545 57.1076H12.6094L22.6444 38.2852ZM178.812 68.9855V56.713L170.079 51.6686H157.806V42.9348H178.06V36.3845H159.237L150.503 41.4288V53.1742L159.237 58.219H171.509V67.4795H150.503V74.0298H170.079L178.812 68.9855ZM214.134 74.4062L222.868 69.3619V41.0524L214.134 36.0081H199.603L190.869 41.0524V69.3619L199.603 74.4062H214.134ZM198.172 67.8563V42.5584H215.564V67.8563H198.172ZM234.911 68.9855L243.645 74.0298H251.249V67.4795H242.215V19.0676H234.911V68.9855ZM264.605 67.8563V58.5954H279.738V67.8563H264.605ZM257.301 69.3619L266.035 74.4062H274.393L279.738 71.3197L285.084 74.4062H287.041V41.4288L278.308 36.3845H261.066V42.9348H279.738V52.045H266.035L257.301 57.0894V69.3619ZM309.113 72.2981L302.563 89.0883H309.716L330.647 36.3845H323.344L312.728 63.188H312.577L301.886 36.3845H294.583L309.113 72.2981ZM367.882 74.0298V67.4795H345.446V57.7672H367.882V41.0524L359.148 36.0081H346.876L338.143 41.0524V68.9855L346.876 74.0298H367.882ZM345.446 51.2169V42.5584H360.579V51.2169H345.446ZM387.208 42.9348H400.911V36.3845H392.556L387.208 39.4715L385.401 36.3845H379.907V74.0298H387.208V42.9348Z" fill="black"/>
</svg>
