<svg width="800" height="201" viewBox="0 0 800 201" fill="none" xmlns="http://www.w3.org/2000/svg">
<g clip-path="url(#clip0_2327_20436)">
<path d="M757.088 135.081C743.779 135.094 740.793 125.654 740.258 115.467C739.595 102.838 739.821 90.1366 740.298 77.4903C740.413 74.4274 743.014 71.4581 745.202 68.2468C764.288 68.032 782.644 68.016 801 68C801 72.0245 801 76.0491 800.532 80.5025C788.827 80.9208 777.591 80.9057 766.354 80.9011C753.411 80.8958 753.411 80.8998 753.586 94.0092C754.408 94.5479 755.562 95.1008 756.718 95.1043C771.155 95.1486 785.592 95.1133 799.992 95.3925C800.303 96.1244 800.651 96.5622 801 97C801 100.361 801 103.723 800.531 107.529C786.123 107.969 772.182 107.902 758.244 108.054C756.794 108.07 754.146 109.349 754.119 110.114C753.98 114.09 754.497 118.092 754.887 122.074C754.898 122.181 756.07 122.216 756.7 122.214C771.467 122.148 786.233 122.073 801 122C801 126.025 801 130.049 800.531 134.532C785.738 135.021 771.412 135.051 757.088 135.081Z" fill="#1A1A1A"/>
<path d="M801 67.7501C782.644 68.016 764.288 68.032 745.464 68.0209C746.652 67.6631 748.307 67.0522 749.965 67.0451C766.664 66.9738 783.363 67.0015 800.531 67.0007C801 67.0001 801 67.5001 801 67.7501Z" fill="#1A1A1A"/>
<path d="M703.896 127.823C699.25 123.542 695.151 118.253 689.768 115.328C686.055 113.31 680.563 114.477 675.869 114.514C675.484 114.517 674.838 116.768 674.792 117.992C674.649 121.819 674.749 125.655 674.731 129.488C674.699 136.022 674.65 136.087 667.925 135.985C666.448 135.962 664.974 135.678 663.244 134.754C662.983 113.662 662.978 93.3292 662.974 72.9969C664.151 71.4739 665.328 69.9509 667.218 68.239C684.272 68.0182 700.612 67.9864 716.952 67.9546C728.084 70.6622 730.586 82.8373 729.825 90.4994C728.637 102.46 722.412 110.252 710.587 113.297C710.176 113.402 709.877 113.939 708.957 114.82C716.564 121.532 724.082 128.167 731.6 134.801C731.486 135.195 731.371 135.589 731.256 135.984C723.709 134.379 715.072 139.971 708.263 130.986C707.338 129.934 706.708 129.443 706.078 128.953C706.078 128.953 706.043 128.955 705.952 128.703C705.206 128.241 704.551 128.032 703.896 127.823ZM674.067 92.4449C674.074 94.2744 674.118 96.1047 674.081 97.9333C674.025 100.617 675.243 101.891 677.982 101.878C686.964 101.834 695.973 102.275 704.917 101.69C709.459 101.393 714.882 100.462 716.268 94.7884C717.061 91.5437 716.282 87.9471 716.709 84.5719C717.123 81.2971 715.355 80.9086 712.951 80.9067C700.177 80.8962 687.404 80.9017 674.086 80.9017C674.086 84.5752 674.086 88.0281 674.067 92.4449Z" fill="#1A1A1A"/>
<path d="M643.951 67.9531C647.518 69.8688 649.05 72.7571 649.022 76.8918C648.901 94.6872 648.782 112.487 649.083 130.278C649.175 135.684 646.606 136.077 642.372 136.11C638.176 136.143 635.948 135.451 636.018 130.436C636.179 118.957 635.939 118.954 624.568 118.954C616.252 118.954 607.933 119.073 599.621 118.898C596.272 118.827 594.548 119.744 594.986 123.364C595.144 124.675 595.009 126.022 595.009 127.352C595.007 136.497 591.54 138.604 582.624 134.223C582.665 121.424 582.738 109.263 582.811 97.1018C583.093 83.4882 595.131 70.0469 613.142 68.0133C623.991 67.9917 633.971 67.9724 643.951 67.9531ZM631.32 80.9032C626.835 80.904 622.349 80.8367 617.866 80.9198C608.802 81.0878 600.163 82.6057 596.472 92.3217C594.867 96.5463 594.819 101.362 594.028 106.126C607.047 106.126 619.319 106.032 631.588 106.186C635.065 106.229 636.309 105.033 636.182 101.57C635.973 95.9304 636.043 90.276 636.152 84.6307C636.206 81.808 634.978 80.6741 631.32 80.9032Z" fill="#1A1A1A"/>
<path d="M217.091 135.083C216.797 131.667 216.234 128.24 216.38 124.843C216.422 123.874 218.513 122.206 219.679 122.193C234.009 122.036 248.343 122.002 262.672 122.228C267.04 122.297 270.531 119.857 269.859 115.482C269.363 112.257 269.038 108.357 263.585 108.488C254.126 108.713 244.65 108.148 235.18 107.968C227.183 107.817 219.461 102.93 217.189 96.4931C214.054 87.61 216.682 76.4507 223.602 71.7522C226.396 69.8557 230.047 69.2228 234.16 68.0121C248.678 68.008 262.344 68.0067 276.01 68.0054C276.296 71.4499 276.913 74.9195 276.656 78.323C276.583 79.2829 273.962 80.7667 272.489 80.7914C260.35 80.995 248.202 80.7503 236.067 81.0549C233.72 81.1138 229.884 82.538 229.432 84.1085C228.626 86.9102 229.827 90.3118 230.342 93.4374C230.394 93.7567 231.486 93.9047 232.647 94.4799C243.124 94.8748 253.051 94.922 262.977 94.9692C272.403 96.2407 279.043 100.962 281.974 111.034C282.297 112.918 282.602 114.065 282.907 115.212C282.907 115.212 282.891 115.5 282.66 115.872C282.594 117.218 282.76 118.192 282.925 119.166C281.589 121.887 280.41 124.699 278.884 127.308C275.958 132.307 271.108 134.184 264.827 134.969C248.355 135.029 232.723 135.056 217.091 135.083Z" fill="#1A1A1A"/>
<path d="M330.93 67.0291C340.364 66.7708 348.703 68.7908 354.713 75.7129C359.744 81.5074 363.12 88.2809 362.1 96.5275C361.673 99.9721 361.367 103.644 362.086 106.98C364.965 120.34 349.246 137.095 335.103 136.012C327.183 135.405 319.189 135.72 311.282 135.015C299.857 133.996 291.756 123.649 290.609 113.14C289.684 104.668 289.627 95.6799 291.46 87.4257C294.319 74.5456 303.311 68.3323 316.465 67.1023C321.086 66.6702 325.781 67.0305 330.93 67.0291ZM349 88.9997C349 88.9997 348.993 88.9939 348.788 88.3172C345.964 81.7588 341.809 79.7054 334.988 80.2777C329.051 80.776 322.984 80.842 317.069 80.209C310.467 79.5024 301.915 87.1929 302.463 93.8291C302.887 98.949 303.089 104.124 302.867 109.252C302.5 117.741 307.658 123.225 316.256 123.135C323.085 123.064 329.971 122.63 336.727 123.345C342.775 123.984 348.801 118.185 349.34 112.5C350.074 104.749 349.193 96.844 349 88.9997Z" fill="#1A1A1A"/>
<path d="M123.046 83.8945C124.653 86.2635 125.745 89.5927 127.98 90.7892C131.886 92.8806 136.411 94.2514 140.824 94.8701C150.58 96.2376 160.417 97.0608 170.241 97.8761C174.196 98.2044 178.202 97.9302 182.184 97.9302C182.243 98.608 182.301 99.2858 182.359 99.9636C180.282 100.499 178.232 101.22 176.122 101.54C161.705 103.728 147.171 105.31 132.887 108.153C123.772 109.968 120.48 118.192 126.266 126.541C132.529 135.58 139.937 143.825 146.955 152.947C147.065 153.478 146.929 153.951 146.929 153.951C139.301 148.324 131.674 142.695 124.044 137.071C120.225 134.256 116.582 131.488 111.238 131.874C104.444 132.363 100.593 138.635 100.372 144.943C100.169 150.762 98.9608 156.54 98.4186 162.356C98.2436 164.234 99.0575 166.196 98.9391 168.089C98.3628 177.298 97.6735 186.501 96.859 195.692C96.7844 196.534 95.54 197.272 94.4391 198.506C92.1508 182.814 90.0186 168.163 87.8753 153.513C87.2925 149.53 87.103 145.418 85.9143 141.622C85.2097 139.372 82.9044 137.623 81.4795 135.34C83.8574 133.696 87.6179 132.696 87.9982 130.958C89.0759 126.03 92.4306 123.529 95.7805 120.595C97.9276 118.715 99.4627 116.153 101.401 114.013C106.092 108.832 110.606 103.452 115.672 98.6601C120.047 94.5218 123.487 90.2729 123.046 83.8945Z" fill="#1A1A1A"/>
<path d="M443.878 73.1192C445.404 71.4775 446.93 69.8358 449.233 68.1031C467.997 68.0023 485.984 67.9924 503.971 67.9824C504.286 71.398 504.988 74.8489 504.682 78.208C504.589 79.2345 501.737 80.7584 500.13 80.7814C485.739 80.988 471.344 80.91 456.194 80.9551C455.628 85.6584 455.818 90.3222 456.008 94.986C456.008 94.986 456.493 95.1011 457.203 95.1141C473.268 95.0865 488.622 95.0457 503.976 95.005C504.281 98.2569 505.201 101.627 504.612 104.707C504.348 106.086 501.074 107.768 499.135 107.807C485.071 108.092 470.999 107.993 456.17 108.352C455.278 117.791 455.145 126.892 455.013 135.994C451.505 135.831 447.998 135.669 444.233 134.746C443.943 113.696 443.91 93.4077 443.878 73.1192Z" fill="#191919"/>
<path d="M373.987 68.021C377.309 68.0468 380.631 68.0726 384.443 68.5847C384.934 86.5338 384.934 103.997 384.934 121.459C385.343 121.458 385.752 121.456 386.16 121.455C386.16 103.694 386.16 85.9322 386.16 68.1707C386.422 69.9301 386.903 71.6886 386.91 73.4491C386.972 88.0559 387.048 102.664 386.875 117.269C386.831 120.951 387.953 122.184 391.688 122.127C404.301 121.935 416.922 122.255 429.53 121.949C434.055 121.839 435.511 123.344 434.99 127.627C434.731 129.753 434.949 131.937 434.496 134.544C415.726 135.025 397.413 135.058 379.1 135.092C377.46 133.575 375.821 132.059 374.091 129.773C373.995 108.676 373.991 88.3487 373.987 68.021Z" fill="#1A1919"/>
<path d="M513.991 68.0574C525.786 68.0452 525.786 68.0452 525.786 79.7773C525.786 93.7274 525.786 107.678 525.786 122.059C535.773 122.059 545.489 122.003 555.205 122.079C561.333 122.127 567.46 122.372 573.88 123.258C574.09 127.617 574.007 131.248 573.925 134.878C573.925 134.878 573.856 135.002 573.448 135.005C555.06 135.036 537.079 135.063 519.099 135.091C517.441 133.558 515.784 132.025 514.055 129.724C513.986 108.657 513.989 88.3569 513.991 68.0574Z" fill="#191919"/>
<path d="M137.94 48.9299C141.427 45.3347 144.777 41.5933 148.43 38.1757C155.386 31.6689 162.495 25.325 169.586 18.9649C171.257 17.4662 173.111 16.1723 174.882 14.7842C175.384 15.1739 175.887 15.5637 176.389 15.9535C174.436 18.6192 172.624 21.4036 170.504 23.9289C163.723 32.0046 156.899 40.0456 149.957 47.9826C143.763 55.0644 137.306 61.9165 131.135 69.0181C128.294 72.2884 125.86 75.9126 122.852 79.5037C120.422 81.2341 117.998 82.5275 116.405 84.4936C109.385 93.1545 103.769 103.427 95.3578 110.331C88.9952 115.553 85.1176 122.491 79.0649 127.641C77.6989 128.803 75.297 131.277 79.067 133.238C79.0648 133.422 79.0767 133.79 79.0767 133.79C72.9323 132.467 68.3995 135.882 63.4395 138.715C63.5159 137.009 63.4996 135.212 64.3848 134.219C71.5134 126.222 78.8607 118.42 86.0209 110.45C87.6287 108.66 88.6045 106.312 90.1598 104.464C91.8008 102.514 93.7328 100.793 95.6478 99.0962C96.4637 98.3733 98.2763 98.1018 98.4108 97.3928C99.271 92.8576 102.472 90.3819 105.538 87.3132C112.83 80.0156 119.512 72.0895 126.194 64.2078C130.343 59.3132 134.04 54.0356 137.94 48.9299Z" fill="#1A1A1A"/>
<path d="M137.591 48.981C134.04 54.0356 130.342 59.3133 126.193 64.2078C119.512 72.0896 112.83 80.0156 105.538 87.3132C102.472 90.382 99.2709 92.8576 98.4107 97.3929C98.2762 98.1019 96.4636 98.3733 95.6476 99.0963C93.7327 100.793 91.8006 102.514 90.1597 104.464C88.6044 106.312 87.6286 108.66 86.0208 110.45C78.8606 118.42 71.5133 126.222 64.3847 134.219C63.4994 135.212 63.5157 137.009 63.0769 138.78C63.0395 139.127 63.0348 139.535 63.0535 139.997C63.0893 140.631 63.1063 140.804 63.1233 140.976C54.0225 148.968 44.9218 156.96 35.2349 165.182C34.4437 165.981 34.2387 166.551 34.0338 167.12C33.9798 167.44 33.8181 167.691 32.9993 167.992C31.112 168.758 29.7739 169.403 27.9531 170.282C28.3637 167.704 28.6671 165.8 28.9704 163.896C38.7634 152.331 48.5565 140.766 58.8731 129.262C61.4775 127.031 63.5444 124.727 65.6417 122.451C73.2024 114.246 80.9085 106.17 88.3006 97.8159C95.0463 90.1922 101.512 82.317 107.945 74.4251C108.785 73.3943 108.694 71.604 109.034 70.1656C112.386 68.4123 116.102 67.1185 119.016 64.8113C125.31 59.8272 131.192 54.3232 137.591 48.981Z" fill="#1A1A1A"/>
<path d="M61.1663 79.975C61.1663 79.975 61.0318 79.5534 61.0196 78.968C60.5865 72.6358 61.7588 71.2125 67.1243 70.9561C76.0105 73.6757 81.2098 70.4104 85.4107 59.2403C87.9008 54.6297 89.9398 50.4456 95.0686 49.2402C95.8376 51.0216 96.4691 52.4847 97.1006 53.9477C97.7189 55.0764 98.3371 56.2051 98.5426 57.6599C96.3286 58.5149 93.8874 58.4772 92.8337 59.6676C87.4125 65.792 82.4161 72.2895 77.1379 78.544C72.4127 84.1432 67.5478 89.6258 62.6812 95.1035C58.8212 99.4483 54.8654 103.708 50.5401 108.006C48.2639 107.874 46.3998 107.742 44.0557 107.576C46.1285 102.142 48.5575 98.3087 53.7425 96.7457C54.9915 96.3692 55.9071 94.8866 56.976 93.9126C56.976 93.9126 56.9951 93.9777 57.2773 93.9099C58.0245 93.2076 58.4896 92.5733 58.9546 91.9389C58.9546 91.9389 58.9907 92.0037 59.1749 91.976C59.5622 91.6145 59.7654 91.2807 59.9686 90.9469C60.6566 88.2267 61.3447 85.5065 62.1913 82.2572C62.4125 81.3824 62.2643 81.1459 61.9051 81.0186C61.9051 81.0186 61.9813 81.0147 61.8834 80.8411C61.6274 80.3934 61.421 80.1626 61.1663 79.975Z" fill="#1A1A1A"/>
<path d="M79.0694 133.054C75.2973 131.277 77.6992 128.803 79.0652 127.641C85.1179 122.491 88.9955 115.554 95.3581 110.331C103.769 103.427 109.386 93.1546 116.405 84.4937C117.999 82.5276 120.422 81.2342 122.65 79.7915C122.895 81.0028 122.953 82.0537 123.028 83.4995C123.486 90.2728 120.047 94.5218 115.672 98.66C110.606 103.452 106.092 108.832 101.401 114.013C99.4626 116.153 97.9276 118.715 95.7804 120.595C92.4305 123.529 89.0758 126.03 87.9981 130.958C87.6179 132.696 83.8573 133.696 81.2901 135.049C80.94 135.065 80.9709 135.041 80.9102 134.747C80.2562 133.986 79.6628 133.52 79.0694 133.054Z" fill="#1A1A1A"/>
<path d="M61.166 117.994C60.1848 116.545 59.2037 115.096 58.1094 112.979C59.7016 109.554 61.1046 106.543 63.1738 104.095C67.8194 98.5981 72.4046 92.9467 77.7285 88.1511C85.8857 80.8034 90.0413 69.8688 99.8034 64.0688C100.792 65.1624 101.78 66.256 102.817 67.9717C96.6036 76.1993 90.261 83.7403 84.1027 91.429C78.2781 98.7011 72.7389 106.203 66.8674 113.436C65.3689 115.282 63.0876 116.492 61.166 117.994Z" fill="#1A1A1A"/>
<path d="M99.7399 63.6866C90.0416 69.8689 85.886 80.8035 77.7288 88.1512C72.4049 92.9468 67.8197 98.5982 63.1741 104.095C61.1049 106.543 59.7019 109.554 57.9647 112.682C56.8242 112.41 55.7155 111.767 54.2311 110.675C52.8877 109.487 51.9199 108.746 50.9521 108.005C54.8654 103.708 58.8213 99.4484 62.6813 95.1036C67.5479 89.6259 72.4128 84.1432 77.1379 78.5441C82.4162 72.2896 87.4126 65.7921 92.8338 59.6677C93.8875 58.4773 96.3287 58.515 98.4805 58.0049C99.1128 59.7838 99.3944 61.5441 99.7399 63.6866Z" fill="#1A1A1A"/>
<path d="M61.1035 118.421C63.0873 116.492 65.3686 115.281 66.8671 113.435C72.7386 106.203 78.2779 98.701 84.1024 91.4289C90.2607 83.7402 96.6033 76.1991 102.955 68.2559C104.804 68.616 106.565 69.3138 108.68 70.0886C108.694 71.604 108.786 73.3943 107.945 74.4251C101.513 82.317 95.0465 90.1921 88.3007 97.8159C80.9086 106.17 73.2025 114.246 65.6418 122.451C63.5445 124.727 61.4777 127.031 59.1768 129.112C59.6515 125.551 60.3464 122.2 61.1035 118.421Z" fill="#1A1A1A"/>
<path d="M85.168 49.9908C85.8213 42.6404 86.5318 35.2945 87.1082 27.9381C87.505 22.8735 87.6381 17.7881 88.0383 12.7239C88.2888 9.55427 88.8165 6.40659 89.2198 3.24908C89.7801 3.21879 90.3404 3.1885 90.9007 3.1582C92.2728 13.8036 93.645 24.449 94.7604 35.6862C90.782 39.5674 87.1429 42.8822 86.7802 48.3644C86.7422 48.9396 85.7288 49.4502 85.168 49.9908Z" fill="#1A1A1A"/>
<path d="M37.0044 108.822C25.7344 107.56 14.4644 106.298 3.19434 105.036C3.20285 104.484 3.21136 103.932 3.21987 103.381C14.2403 101.608 25.2607 99.835 36.9304 98.3091C38.6551 98.8234 39.7305 99.0909 40.8059 99.3584C40.19 98.8169 39.5741 98.2754 38.9581 97.7339C37.6171 100.608 36.276 103.482 34.9009 106.428C35.1575 106.72 36.081 107.771 37.0044 108.822Z" fill="#1A1A1A"/>
<path d="M66.9631 70.6516C61.7581 71.2125 60.5859 72.6357 60.9873 78.749C54.464 71.0762 47.9435 63.0502 41.4788 54.9795C40.7448 54.0632 40.3245 52.8957 39.7588 51.8447C40.1433 51.4739 40.5277 51.1032 40.9122 50.7324C49.5423 57.2707 58.1725 63.8089 66.9631 70.6516Z" fill="#1A1A1A"/>
<path d="M37.4329 108.889C36.0804 107.771 35.157 106.72 34.9004 106.428C36.2754 103.482 37.6165 100.608 38.9576 97.7341C39.5735 98.2756 40.1895 98.8171 40.8054 99.3586C39.73 99.0911 38.6546 98.8236 37.334 98.3674C40.3683 97.4932 43.653 96.8321 46.9255 96.115C50.0175 95.4375 53.0967 94.7012 56.5784 93.9517C55.9065 94.8866 54.9909 96.3692 53.7419 96.7457C48.5569 98.3087 46.1279 102.142 44.055 107.576C46.3992 107.742 48.2633 107.874 50.5394 108.006C51.9192 108.746 52.887 109.487 53.94 110.528C48.6374 110.204 43.2497 109.58 37.4329 108.889Z" fill="#1A1A1A"/>
<path d="M28.621 163.966C28.6671 165.8 28.3637 167.704 27.9531 170.282C29.7739 169.403 31.112 168.758 32.7852 168.073C25.1134 175.462 17.1066 182.89 9.09969 190.318C8.6524 189.906 8.2051 189.493 7.75781 189.081C13.3427 179.768 21.1744 172.185 28.621 163.966Z" fill="#1A1A1A"/>
<path d="M85.1035 50.4372C85.7292 49.4499 86.7425 48.9393 86.7806 48.3642C87.1432 42.8819 90.7823 39.5672 94.8025 36.1138C95.744 41.6937 96.387 47.4376 97.0651 53.5645C96.4686 52.4844 95.8371 51.0214 95.0682 49.24C89.9394 50.4453 87.9003 54.6294 85.4869 58.8717C85.1235 56.2842 85.0811 53.584 85.1035 50.4372Z" fill="#1A1A1A"/>
<path d="M443.598 73.1992C443.91 93.408 443.943 113.697 443.937 134.448C443.434 134.313 442.567 133.718 442.562 133.117C442.418 113.663 442.349 94.2088 442.326 74.7545C442.326 74.263 442.973 73.7708 443.598 73.1992Z" fill="#1A1A1A"/>
<path d="M513.616 68.0532C513.989 88.3566 513.986 108.656 513.942 129.415C513.601 128.169 513.047 126.464 513.04 124.757C512.975 107.96 512.992 91.1616 513.011 74.3637C513.014 72.2589 513.161 70.1542 513.616 68.0532Z" fill="#1A1A1A"/>
<path d="M662.612 73.2275C662.978 93.3291 662.983 113.661 662.948 134.456C662.614 134.176 662.062 133.434 662.063 132.693C662.091 112.948 662.175 93.2031 662.612 73.2275Z" fill="#1A1A1A"/>
<path d="M373.622 68.2476C373.992 88.3488 373.996 108.677 373.956 129.468C373.619 129.395 373.068 128.857 373.068 128.32C373.1 108.371 373.182 88.4226 373.622 68.2476Z" fill="#1A1A1A"/>
<path d="M503.742 67.6196C485.984 67.9923 467.997 68.0023 449.548 67.9636C449.624 67.6212 450.161 67.0699 450.698 67.0708C468.303 67.1001 485.908 67.1824 503.742 67.6196Z" fill="#1A1A1A"/>
<path d="M385.832 68.1526C386.16 85.932 386.16 103.693 386.16 121.455C385.751 121.456 385.343 121.458 384.934 121.459C384.934 103.996 384.934 86.5336 384.891 68.619C385.066 68.1562 385.285 68.1454 385.832 68.1526Z" fill="#1A1A1A"/>
<path d="M716.752 67.5728C700.612 67.9861 684.272 68.018 667.463 68.0223C667.658 67.6669 668.322 67.053 668.986 67.0532C684.841 67.0593 700.696 67.1313 716.752 67.5728Z" fill="#1A1A1A"/>
<path d="M275.778 67.6417C262.345 68.0069 248.678 68.0082 234.551 67.9617C234.627 67.6205 235.165 67.0699 235.702 67.0713C248.983 67.1046 262.264 67.1964 275.778 67.6417Z" fill="#1A1A1A"/>
<path d="M643.749 67.5716C633.97 67.9723 623.99 67.9916 613.549 67.9627C615.78 67.6102 618.471 67.0709 621.167 67.0467C628.627 66.9796 636.088 67.1274 643.749 67.5716Z" fill="#1A1A1A"/>
<path d="M58.6799 92.0474C58.4896 92.573 58.0246 93.2074 57.2451 93.899C57.4222 93.3562 57.9137 92.7562 58.6799 92.0474Z" fill="#1A1A1A"/>
<path d="M79.0676 133.238C79.6631 133.52 80.2565 133.986 80.8993 134.756C80.489 134.732 80.0291 134.405 79.3233 133.934C79.0773 133.79 79.0654 133.422 79.0676 133.238Z" fill="#1A1A1A"/>
<path d="M59.7253 91.0278C59.7654 91.2809 59.5622 91.6147 59.1495 91.9485C59.1206 91.6686 59.3013 91.3886 59.7253 91.0278Z" fill="#1A1A1A"/>
<path d="M34.305 166.961C34.2393 166.551 34.4443 165.981 34.8907 165.219C34.9466 165.618 34.7611 166.209 34.305 166.961Z" fill="#1A1A1A"/>
<path d="M61.1592 80.2375C61.4208 80.1627 61.6272 80.3935 61.884 80.8793C61.7059 80.894 61.4291 80.6969 61.1592 80.2375Z" fill="#1A1A1A"/>
<path d="M63.3198 140.898C63.1068 140.803 63.0898 140.631 63.0684 140.2C63.2145 140.234 63.3652 140.528 63.3198 140.898Z" fill="#1A1A1A"/>
<path d="M61.9609 81.2622C62.264 81.1459 62.4122 81.3824 62.2556 81.8562C62.1616 81.9843 62.0171 81.5058 61.9609 81.2622Z" fill="#1A1A1A"/>
<path d="M123.516 90.4885C123.526 90.513 123.506 90.4641 123.516 90.4885Z" fill="#1A1A1A"/>
<path d="M349.002 89.0027C349.004 89.0053 348.729 89.3868 348.729 89.3868C348.729 89.3868 348.744 89.0397 348.868 89.017C348.992 88.9942 349 89 349.002 89.0027Z" fill="#1A1A1A"/>
</g>
<defs>
<clipPath id="clip0_2327_20436">
<rect width="800" height="201" fill="white"/>
</clipPath>
</defs>
</svg>
