<svg width="1257" height="237" viewBox="0 0 1257 237" fill="none" xmlns="http://www.w3.org/2000/svg">
<path fill-rule="evenodd" clip-rule="evenodd" d="M60.483 25H196.929V70.896H60.483V25ZM60.483 116.791H15.001V70.896H60.483V116.791ZM105.965 162.687H60.483V116.791H105.965V162.687ZM105.965 162.687H151.447V208.582H105.965V162.687ZM196.929 116.791V70.896H242.411V116.791H196.929ZM196.929 116.791V162.687H151.447V116.791H196.929Z" fill="#272626"/>
<path fill-rule="evenodd" clip-rule="evenodd" d="M305.472 52.4458V70.8258H314.586H351.028V181.147H360.142H387.471V70.8258H433.027V52.4458H314.586H305.472ZM549.829 70.8258H476.945H467.831V89.2188H458.717H449.616V162.767H458.717H467.831V181.147H476.945H558.931V162.767H486.058V89.2188H531.602V116.796H513.215V116.784H504.113V135.165H513.215V135.177H568.044V89.2188H549.829V70.8258ZM681.29 116.796V70.8258H690.4H717.73V116.796H690.4V135.177H717.73V181.147H690.4H681.29V135.177H644.857V181.147H617.517H608.415V135.177H617.517H635.744V116.796H617.517H608.415V70.8258H617.517H644.857V116.796H681.29ZM800.31 52.4458H772.98H763.86V162.767H772.98H782.08V181.147H791.19H827.64V162.767H800.31V89.2188H827.64V70.8258H800.31V52.4458ZM1028.33 181.147V70.8258H1037.43H1092.1V89.2188H1064.76V181.147H1037.43H1028.33ZM1182.99 116.796H1173.89V135.177H1182.99H1237.66V89.2188H1219.44V70.8258H1146.55H1137.45V89.2188H1128.34H1119.22V162.767H1128.34H1137.45V181.147H1146.55H1228.55V162.767H1155.67V89.2188H1201.22V116.796H1182.99ZM975.12 70.8258V162.767H1002.45V181.147H975.12H966.02H966V162.767H947.79V181.147H893.13H884.02V162.767H874.9H865.8V70.8258H874.9H902.23V162.767H938.67V70.8258H947.79H975.12Z" fill="#272626"/>
</svg>
