<svg width="36" height="66" viewBox="0 0 36 66" fill="none" xmlns="http://www.w3.org/2000/svg">
<mask id="path-1-outside-1_2786_11156" maskUnits="userSpaceOnUse" x="-6" y="-8" width="46" height="78" fill="black">
<rect fill="white" x="-6" y="-8" width="46" height="78"/>
<path d="M35.2614 -3.81818L23.6705 66H8.90909L18.1818 10.1932H17.7727L0.113636 20.2159L2.29545 7.125L21.3864 -3.81818H35.2614Z"/>
</mask>
<path d="M35.2614 -3.81818L39.2074 -3.16309L39.9802 -7.81818H35.2614V-3.81818ZM23.6705 66V70H27.0611L27.6164 66.6551L23.6705 66ZM8.90909 66L4.96319 65.3444L4.18962 70H8.90909V66ZM18.1818 10.1932L22.1277 10.8488L22.9013 6.19318H18.1818V10.1932ZM17.7727 10.1932V6.19318H16.7167L15.7983 6.71444L17.7727 10.1932ZM0.113636 20.2159L-3.83194 19.5583L-5.21186 27.8379L2.08806 23.6947L0.113636 20.2159ZM2.29545 7.125L0.306229 3.6547L-1.33846 4.59746L-1.65012 6.4674L2.29545 7.125ZM21.3864 -3.81818V-7.81818H20.3212L19.3971 -7.28848L21.3864 -3.81818ZM31.3154 -4.47328L19.7245 65.3449L27.6164 66.6551L39.2074 -3.16309L31.3154 -4.47328ZM23.6705 62H8.90909V70H23.6705V62ZM12.855 66.6556L22.1277 10.8488L14.2359 9.53754L4.96319 65.3444L12.855 66.6556ZM18.1818 6.19318H17.7727V14.1932H18.1818V6.19318ZM15.7983 6.71444L-1.86079 16.7372L2.08806 23.6947L19.7472 13.6719L15.7983 6.71444ZM4.05921 20.8735L6.24103 7.7826L-1.65012 6.4674L-3.83194 19.5583L4.05921 20.8735ZM4.28468 10.5953L23.3756 -0.347883L19.3971 -7.28848L0.306229 3.6547L4.28468 10.5953ZM21.3864 0.181816H35.2614V-7.81818H21.3864V0.181816Z" fill="white" mask="url(#path-1-outside-1_2786_11156)"/>
</svg>
