<svg width="16" height="16" viewBox="0 0 16 16" fill="none" xmlns="http://www.w3.org/2000/svg">
<path d="M0 8C0 3.58172 3.58172 0 8 0C12.4183 0 16 3.58172 16 8C16 12.4183 12.4183 16 8 16C3.58172 16 0 12.4183 0 8Z" fill="#FAF0F8"/>
<path fill-rule="evenodd" clip-rule="evenodd" d="M11.3977 4.9271L6.62434 9.53377L5.35767 8.18043C5.12434 7.96043 4.75767 7.9471 4.491 8.13377C4.231 8.3271 4.15767 8.6671 4.31767 8.94043L5.81767 11.3804C5.96434 11.6071 6.21767 11.7471 6.50434 11.7471C6.77767 11.7471 7.03767 11.6071 7.18434 11.3804C7.42434 11.0671 12.0043 5.6071 12.0043 5.6071C12.6043 4.99376 11.8777 4.45377 11.3977 4.92043V4.9271Z" fill="#B84794"/>
</svg>
