<svg width="24" height="24" viewBox="0 0 24 24" fill="none" xmlns="http://www.w3.org/2000/svg">
<rect width="24" height="24" fill="#161B26"/>
<g id="5. Icons">
<path d="M-524 -486C-524 -487.105 -523.105 -488 -522 -488H7110C7111.1 -488 7112 -487.105 7112 -486V6230C7112 6231.1 7111.1 6232 7110 6232H-522C-523.105 6232 -524 6231.1 -524 6230V-486Z" fill="#F4F5F7"/>
<path d="M-522 -487H7110V-489H-522V-487ZM7111 -486V6230H7113V-486H7111ZM7110 6231H-522V6233H7110V6231ZM-523 6230V-486H-525V6230H-523ZM-522 6231C-522.552 6231 -523 6230.55 -523 6230H-525C-525 6231.66 -523.657 6233 -522 6233V6231ZM7111 6230C7111 6230.55 7110.55 6231 7110 6231V6233C7111.66 6233 7113 6231.66 7113 6230H7111ZM7110 -487C7110.55 -487 7111 -486.552 7111 -486H7113C7113 -487.657 7111.66 -489 7110 -489V-487ZM-522 -489C-523.657 -489 -525 -487.657 -525 -486H-523C-523 -486.552 -522.552 -487 -522 -487V-489Z" fill="black" fill-opacity="0.1"/>
<g id="General">
<rect width="1144" height="2180" transform="translate(-336 -276)" fill="white"/>
<g id="edit-01">
<path id="Icon" d="M2.87604 18.1155C2.92198 17.702 2.94496 17.4952 3.00751 17.302C3.06301 17.1305 3.14143 16.9674 3.24064 16.8169C3.35246 16.6474 3.49955 16.5003 3.79373 16.2061L17 2.99981C18.1046 1.89524 19.8955 1.89525 21 2.99981C22.1046 4.10438 22.1046 5.89525 21 6.99982L7.79373 20.2061C7.49955 20.5003 7.35245 20.6474 7.18289 20.7592C7.03245 20.8584 6.86929 20.9368 6.69785 20.9923C6.5046 21.0549 6.29786 21.0778 5.88437 21.1238L2.5 21.4998L2.87604 18.1155Z" stroke="#697586" stroke-width="2" stroke-linecap="round" stroke-linejoin="round"/>
</g>
</g>
</g>
</svg>
