<svg width="512" height="512" viewBox="0 0 512 512" fill="none" xmlns="http://www.w3.org/2000/svg">
<g clip-path="url(#clip0_8930_5265)">
<path d="M512 0H0V512H512V0Z" fill="#1C2936"/>
<g clip-path="url(#clip1_8930_5265)">
<path d="M355.945 256.243C355.945 277.079 355.904 297.915 355.985 318.751C355.985 321.423 355.394 323.335 353.047 324.92C338.595 334.676 324.205 344.528 309.877 354.474C307.279 356.288 305.425 356.452 302.729 354.564C289.34 345.176 275.781 336.033 262.32 326.783C256.783 322.959 256.807 322.886 251.124 326.783C237.517 336.098 223.885 345.38 210.359 354.801C207.979 356.435 206.311 356.435 203.883 354.801C189.231 344.827 174.506 334.978 159.709 325.255C156.997 323.498 156.002 321.456 156.002 318.236C156.093 276.701 156.093 235.17 156.002 193.646C155.903 192.24 156.204 190.835 156.87 189.596C157.535 188.357 158.537 187.336 159.758 186.651C174.436 176.993 189.042 167.221 203.575 157.334C206.263 155.504 208.108 155.569 210.739 157.416C224.12 166.829 237.655 176.013 251.116 185.303C256.718 189.176 256.694 189.127 262.392 185.189C275.733 175.948 289.162 166.845 302.462 157.547C305.166 155.659 307.149 155.504 309.974 157.481C324.14 167.425 338.444 177.181 352.772 186.897C355.2 188.531 356.01 190.5 356.01 193.352C355.929 214.318 356.01 235.293 356.01 256.268L355.945 256.243ZM343.633 314.355C343.909 313.64 344.123 312.902 344.272 312.149C344.272 273.762 344.24 235.377 344.175 196.996C344.068 196.098 343.781 195.232 343.33 194.45C342.879 193.669 342.274 192.989 341.552 192.453C331.523 185.336 321.315 178.423 311.188 171.486C309.926 170.62 308.517 169.975 306.331 168.749V235.677C298.649 230.48 291.842 225.921 285.074 221.313C260.153 204.344 235.256 187.354 210.383 170.342C208.052 168.749 206.335 168.569 203.907 170.261C192.348 178.235 180.61 185.981 168.953 193.834C168.337 194.393 167.776 195.011 167.278 195.68L343.633 314.355ZM207.687 289.842V343.403L246.243 316.594C233.113 307.491 220.704 298.887 207.687 289.859V289.842Z" fill="url(#paint0_linear_8930_5265)"/>
</g>
</g>
<defs>
<linearGradient id="paint0_linear_8930_5265" x1="300.298" y1="310.215" x2="225.055" y2="353.929" gradientUnits="userSpaceOnUse">
<stop offset="0.0001" stop-color="#C7F284"/>
<stop offset="1" stop-color="#00BEF0"/>
</linearGradient>
<clipPath id="clip0_8930_5265">
<rect width="512" height="512" fill="white"/>
</clipPath>
<clipPath id="clip1_8930_5265">
<rect width="200" height="200" fill="white" transform="translate(156 156)"/>
</clipPath>
</defs>
</svg>
