<svg width="40" height="38" viewBox="0 0 40 38" fill="none" xmlns="http://www.w3.org/2000/svg">
<path fill-rule="evenodd" clip-rule="evenodd" d="M30.9704 2.49828C29.2498 1.39023 27.3434 0.543703 25.3063 0C22.5821 2.61336 19.7284 4.83175 16.5463 6.03574C16.2522 6.14706 15.9289 5.98396 15.8319 5.68475L14.2739 0.880936C14.15 0.502409 13.7371 0.289057 13.3655 0.433586C11.2939 1.21129 9.36683 2.42257 7.51548 3.88851C3.19339 7.3159 0.302822 12.3331 0.0275292 17.8458C0.0137646 18.1693 0 18.4928 0 18.8162C0 19.0778 0.00688231 19.3462 0.0206469 19.6077C0.501953 19.0911 0.982035 18.5709 1.4621 18.0506C5.79686 13.3531 10.1299 8.65745 15.3462 6.68291C15.6404 6.57154 15.9637 6.73462 16.0608 7.03386L17.6187 11.8376C17.7426 12.2161 18.1555 12.4295 18.5272 12.2849C23.1659 10.5437 27.1094 6.64143 30.9635 2.50516L30.9704 2.49828ZM34.5067 7.09406L34.5051 7.09573C30.1633 11.8029 25.8199 16.5117 20.5932 18.4931C20.299 18.6047 19.9754 18.4416 19.8784 18.1422L18.3205 13.3388C18.1966 12.9603 17.7837 12.7469 17.412 12.8915C12.1782 14.8579 7.83221 19.5713 3.48692 24.284C2.84395 24.9813 2.20099 25.6786 1.55518 26.367C2.34664 28.1977 3.4134 29.8908 4.70728 31.3911C4.97029 31.1068 5.2331 30.8219 5.49589 30.537C9.83654 25.8311 14.1737 21.1289 19.3994 19.1481C19.6937 19.0365 20.0172 19.1996 20.1143 19.4989L21.6722 24.3024C21.7961 24.6809 22.209 24.8942 22.5806 24.7497C27.8325 22.7728 32.1872 18.0467 36.5425 13.3199L36.543 13.3194C37.1759 12.6325 37.8087 11.9457 38.4444 11.2673C37.6529 9.43656 36.5862 7.74351 35.2923 6.25004V6.24316C35.0303 6.52639 34.7685 6.81022 34.5067 7.09406ZM39.9799 19.8008C39.6908 25.4718 36.635 30.5854 32.1409 34.0541H32.1478C30.4272 35.3824 28.624 36.4766 26.7108 37.2062C26.6935 37.213 26.678 37.2182 26.6626 37.2234C26.6471 37.2285 26.6316 37.2337 26.6144 37.2406C26.2496 37.3576 25.8505 37.1511 25.7335 36.7863L24.1757 31.9832C24.0786 31.6837 23.7549 31.5207 23.4606 31.6324C20.3217 32.8247 17.499 35.0056 14.8052 37.5735C14.7577 37.6188 14.6899 37.6363 14.6265 37.6191C12.7025 37.0947 10.8964 36.2938 9.24896 35.2688C9.14908 35.2067 9.13165 35.0689 9.21193 34.9829C13.0169 30.9087 16.9102 27.1003 21.4802 25.3824C21.8518 25.2378 22.2648 25.4512 22.3887 25.8297L23.9466 30.6334C24.0437 30.9327 24.367 31.0957 24.6612 30.9844C29.8775 29.0098 34.2105 24.3142 38.5453 19.6167C39.0253 19.0964 39.5054 18.5762 39.9867 18.0596C40.0005 18.3073 40.0074 18.562 40.0074 18.8166C40.0074 19.147 39.9936 19.4773 39.9799 19.8008Z" fill="url(#paint0_linear_6797_31559)"/>
<defs>
<linearGradient id="paint0_linear_6797_31559" x1="34.75" y1="37.5" x2="10" y2="1.23157e-06" gradientUnits="userSpaceOnUse">
<stop offset="0.25" stop-color="#FF5C28"/>
<stop offset="1" stop-color="#F99150"/>
</linearGradient>
</defs>
</svg>
